%TF.GenerationSoftware,KiCad,Pcbnew,10.0.4*%
%TF.CreationDate,2026-08-27T16:13:03-07:00*%
%TF.ProjectId,halleffectsensor,68616c6c-6566-4666-9563-7473656e736f,rev?*%
%TF.SameCoordinates,Original*%
%TF.FileFunction,Legend,Top*%
%TF.FilePolarity,Positive*%
%FSLAX46Y46*%
G04 Gerber Fmt 4.6, Leading zero omitted, Abs format (unit mm)*
G04 Created by KiCad (PCBNEW 10.0.4) date 2026-08-27 16:13:03*
%MOMM*%
%LPD*%
G01*
G04 APERTURE LIST*
%ADD10C,0.150000*%
%ADD11C,0.106680*%
%ADD12C,0.120000*%
%ADD13C,0.100000*%
%ADD14C,0.127000*%
%ADD15C,0.504000*%
%ADD16C,0.250000*%
G04 APERTURE END LIST*
D10*
X109988095Y-107854819D02*
X109988095Y-108664342D01*
X109988095Y-108664342D02*
X110035714Y-108759580D01*
X110035714Y-108759580D02*
X110083333Y-108807200D01*
X110083333Y-108807200D02*
X110178571Y-108854819D01*
X110178571Y-108854819D02*
X110369047Y-108854819D01*
X110369047Y-108854819D02*
X110464285Y-108807200D01*
X110464285Y-108807200D02*
X110511904Y-108759580D01*
X110511904Y-108759580D02*
X110559523Y-108664342D01*
X110559523Y-108664342D02*
X110559523Y-107854819D01*
X110988095Y-107950057D02*
X111035714Y-107902438D01*
X111035714Y-107902438D02*
X111130952Y-107854819D01*
X111130952Y-107854819D02*
X111369047Y-107854819D01*
X111369047Y-107854819D02*
X111464285Y-107902438D01*
X111464285Y-107902438D02*
X111511904Y-107950057D01*
X111511904Y-107950057D02*
X111559523Y-108045295D01*
X111559523Y-108045295D02*
X111559523Y-108140533D01*
X111559523Y-108140533D02*
X111511904Y-108283390D01*
X111511904Y-108283390D02*
X110940476Y-108854819D01*
X110940476Y-108854819D02*
X111559523Y-108854819D01*
X143284819Y-117582857D02*
X142808628Y-117916190D01*
X143284819Y-118154285D02*
X142284819Y-118154285D01*
X142284819Y-118154285D02*
X142284819Y-117773333D01*
X142284819Y-117773333D02*
X142332438Y-117678095D01*
X142332438Y-117678095D02*
X142380057Y-117630476D01*
X142380057Y-117630476D02*
X142475295Y-117582857D01*
X142475295Y-117582857D02*
X142618152Y-117582857D01*
X142618152Y-117582857D02*
X142713390Y-117630476D01*
X142713390Y-117630476D02*
X142761009Y-117678095D01*
X142761009Y-117678095D02*
X142808628Y-117773333D01*
X142808628Y-117773333D02*
X142808628Y-118154285D01*
X143284819Y-116630476D02*
X143284819Y-117201904D01*
X143284819Y-116916190D02*
X142284819Y-116916190D01*
X142284819Y-116916190D02*
X142427676Y-117011428D01*
X142427676Y-117011428D02*
X142522914Y-117106666D01*
X142522914Y-117106666D02*
X142570533Y-117201904D01*
X142284819Y-116011428D02*
X142284819Y-115916190D01*
X142284819Y-115916190D02*
X142332438Y-115820952D01*
X142332438Y-115820952D02*
X142380057Y-115773333D01*
X142380057Y-115773333D02*
X142475295Y-115725714D01*
X142475295Y-115725714D02*
X142665771Y-115678095D01*
X142665771Y-115678095D02*
X142903866Y-115678095D01*
X142903866Y-115678095D02*
X143094342Y-115725714D01*
X143094342Y-115725714D02*
X143189580Y-115773333D01*
X143189580Y-115773333D02*
X143237200Y-115820952D01*
X143237200Y-115820952D02*
X143284819Y-115916190D01*
X143284819Y-115916190D02*
X143284819Y-116011428D01*
X143284819Y-116011428D02*
X143237200Y-116106666D01*
X143237200Y-116106666D02*
X143189580Y-116154285D01*
X143189580Y-116154285D02*
X143094342Y-116201904D01*
X143094342Y-116201904D02*
X142903866Y-116249523D01*
X142903866Y-116249523D02*
X142665771Y-116249523D01*
X142665771Y-116249523D02*
X142475295Y-116201904D01*
X142475295Y-116201904D02*
X142380057Y-116154285D01*
X142380057Y-116154285D02*
X142332438Y-116106666D01*
X142332438Y-116106666D02*
X142284819Y-116011428D01*
X150454819Y-111166666D02*
X149978628Y-111499999D01*
X150454819Y-111738094D02*
X149454819Y-111738094D01*
X149454819Y-111738094D02*
X149454819Y-111357142D01*
X149454819Y-111357142D02*
X149502438Y-111261904D01*
X149502438Y-111261904D02*
X149550057Y-111214285D01*
X149550057Y-111214285D02*
X149645295Y-111166666D01*
X149645295Y-111166666D02*
X149788152Y-111166666D01*
X149788152Y-111166666D02*
X149883390Y-111214285D01*
X149883390Y-111214285D02*
X149931009Y-111261904D01*
X149931009Y-111261904D02*
X149978628Y-111357142D01*
X149978628Y-111357142D02*
X149978628Y-111738094D01*
X150454819Y-110690475D02*
X150454819Y-110499999D01*
X150454819Y-110499999D02*
X150407200Y-110404761D01*
X150407200Y-110404761D02*
X150359580Y-110357142D01*
X150359580Y-110357142D02*
X150216723Y-110261904D01*
X150216723Y-110261904D02*
X150026247Y-110214285D01*
X150026247Y-110214285D02*
X149645295Y-110214285D01*
X149645295Y-110214285D02*
X149550057Y-110261904D01*
X149550057Y-110261904D02*
X149502438Y-110309523D01*
X149502438Y-110309523D02*
X149454819Y-110404761D01*
X149454819Y-110404761D02*
X149454819Y-110595237D01*
X149454819Y-110595237D02*
X149502438Y-110690475D01*
X149502438Y-110690475D02*
X149550057Y-110738094D01*
X149550057Y-110738094D02*
X149645295Y-110785713D01*
X149645295Y-110785713D02*
X149883390Y-110785713D01*
X149883390Y-110785713D02*
X149978628Y-110738094D01*
X149978628Y-110738094D02*
X150026247Y-110690475D01*
X150026247Y-110690475D02*
X150073866Y-110595237D01*
X150073866Y-110595237D02*
X150073866Y-110404761D01*
X150073866Y-110404761D02*
X150026247Y-110309523D01*
X150026247Y-110309523D02*
X149978628Y-110261904D01*
X149978628Y-110261904D02*
X149883390Y-110214285D01*
X147083333Y-112204819D02*
X146750000Y-111728628D01*
X146511905Y-112204819D02*
X146511905Y-111204819D01*
X146511905Y-111204819D02*
X146892857Y-111204819D01*
X146892857Y-111204819D02*
X146988095Y-111252438D01*
X146988095Y-111252438D02*
X147035714Y-111300057D01*
X147035714Y-111300057D02*
X147083333Y-111395295D01*
X147083333Y-111395295D02*
X147083333Y-111538152D01*
X147083333Y-111538152D02*
X147035714Y-111633390D01*
X147035714Y-111633390D02*
X146988095Y-111681009D01*
X146988095Y-111681009D02*
X146892857Y-111728628D01*
X146892857Y-111728628D02*
X146511905Y-111728628D01*
X147654762Y-111633390D02*
X147559524Y-111585771D01*
X147559524Y-111585771D02*
X147511905Y-111538152D01*
X147511905Y-111538152D02*
X147464286Y-111442914D01*
X147464286Y-111442914D02*
X147464286Y-111395295D01*
X147464286Y-111395295D02*
X147511905Y-111300057D01*
X147511905Y-111300057D02*
X147559524Y-111252438D01*
X147559524Y-111252438D02*
X147654762Y-111204819D01*
X147654762Y-111204819D02*
X147845238Y-111204819D01*
X147845238Y-111204819D02*
X147940476Y-111252438D01*
X147940476Y-111252438D02*
X147988095Y-111300057D01*
X147988095Y-111300057D02*
X148035714Y-111395295D01*
X148035714Y-111395295D02*
X148035714Y-111442914D01*
X148035714Y-111442914D02*
X147988095Y-111538152D01*
X147988095Y-111538152D02*
X147940476Y-111585771D01*
X147940476Y-111585771D02*
X147845238Y-111633390D01*
X147845238Y-111633390D02*
X147654762Y-111633390D01*
X147654762Y-111633390D02*
X147559524Y-111681009D01*
X147559524Y-111681009D02*
X147511905Y-111728628D01*
X147511905Y-111728628D02*
X147464286Y-111823866D01*
X147464286Y-111823866D02*
X147464286Y-112014342D01*
X147464286Y-112014342D02*
X147511905Y-112109580D01*
X147511905Y-112109580D02*
X147559524Y-112157200D01*
X147559524Y-112157200D02*
X147654762Y-112204819D01*
X147654762Y-112204819D02*
X147845238Y-112204819D01*
X147845238Y-112204819D02*
X147940476Y-112157200D01*
X147940476Y-112157200D02*
X147988095Y-112109580D01*
X147988095Y-112109580D02*
X148035714Y-112014342D01*
X148035714Y-112014342D02*
X148035714Y-111823866D01*
X148035714Y-111823866D02*
X147988095Y-111728628D01*
X147988095Y-111728628D02*
X147940476Y-111681009D01*
X147940476Y-111681009D02*
X147845238Y-111633390D01*
X143624819Y-122726666D02*
X143148628Y-123059999D01*
X143624819Y-123298094D02*
X142624819Y-123298094D01*
X142624819Y-123298094D02*
X142624819Y-122917142D01*
X142624819Y-122917142D02*
X142672438Y-122821904D01*
X142672438Y-122821904D02*
X142720057Y-122774285D01*
X142720057Y-122774285D02*
X142815295Y-122726666D01*
X142815295Y-122726666D02*
X142958152Y-122726666D01*
X142958152Y-122726666D02*
X143053390Y-122774285D01*
X143053390Y-122774285D02*
X143101009Y-122821904D01*
X143101009Y-122821904D02*
X143148628Y-122917142D01*
X143148628Y-122917142D02*
X143148628Y-123298094D01*
X142624819Y-122393332D02*
X142624819Y-121726666D01*
X142624819Y-121726666D02*
X143624819Y-122155237D01*
X152250057Y-124845238D02*
X152202438Y-124940476D01*
X152202438Y-124940476D02*
X152107200Y-125035714D01*
X152107200Y-125035714D02*
X151964342Y-125178571D01*
X151964342Y-125178571D02*
X151916723Y-125273809D01*
X151916723Y-125273809D02*
X151916723Y-125369047D01*
X152154819Y-125321428D02*
X152107200Y-125416666D01*
X152107200Y-125416666D02*
X152011961Y-125511904D01*
X152011961Y-125511904D02*
X151821485Y-125559523D01*
X151821485Y-125559523D02*
X151488152Y-125559523D01*
X151488152Y-125559523D02*
X151297676Y-125511904D01*
X151297676Y-125511904D02*
X151202438Y-125416666D01*
X151202438Y-125416666D02*
X151154819Y-125321428D01*
X151154819Y-125321428D02*
X151154819Y-125130952D01*
X151154819Y-125130952D02*
X151202438Y-125035714D01*
X151202438Y-125035714D02*
X151297676Y-124940476D01*
X151297676Y-124940476D02*
X151488152Y-124892857D01*
X151488152Y-124892857D02*
X151821485Y-124892857D01*
X151821485Y-124892857D02*
X152011961Y-124940476D01*
X152011961Y-124940476D02*
X152107200Y-125035714D01*
X152107200Y-125035714D02*
X152154819Y-125130952D01*
X152154819Y-125130952D02*
X152154819Y-125321428D01*
X152154819Y-123940476D02*
X152154819Y-124511904D01*
X152154819Y-124226190D02*
X151154819Y-124226190D01*
X151154819Y-124226190D02*
X151297676Y-124321428D01*
X151297676Y-124321428D02*
X151392914Y-124416666D01*
X151392914Y-124416666D02*
X151440533Y-124511904D01*
X116333333Y-113954819D02*
X116000000Y-113478628D01*
X115761905Y-113954819D02*
X115761905Y-112954819D01*
X115761905Y-112954819D02*
X116142857Y-112954819D01*
X116142857Y-112954819D02*
X116238095Y-113002438D01*
X116238095Y-113002438D02*
X116285714Y-113050057D01*
X116285714Y-113050057D02*
X116333333Y-113145295D01*
X116333333Y-113145295D02*
X116333333Y-113288152D01*
X116333333Y-113288152D02*
X116285714Y-113383390D01*
X116285714Y-113383390D02*
X116238095Y-113431009D01*
X116238095Y-113431009D02*
X116142857Y-113478628D01*
X116142857Y-113478628D02*
X115761905Y-113478628D01*
X116714286Y-113050057D02*
X116761905Y-113002438D01*
X116761905Y-113002438D02*
X116857143Y-112954819D01*
X116857143Y-112954819D02*
X117095238Y-112954819D01*
X117095238Y-112954819D02*
X117190476Y-113002438D01*
X117190476Y-113002438D02*
X117238095Y-113050057D01*
X117238095Y-113050057D02*
X117285714Y-113145295D01*
X117285714Y-113145295D02*
X117285714Y-113240533D01*
X117285714Y-113240533D02*
X117238095Y-113383390D01*
X117238095Y-113383390D02*
X116666667Y-113954819D01*
X116666667Y-113954819D02*
X117285714Y-113954819D01*
X116583333Y-126454819D02*
X116250000Y-125978628D01*
X116011905Y-126454819D02*
X116011905Y-125454819D01*
X116011905Y-125454819D02*
X116392857Y-125454819D01*
X116392857Y-125454819D02*
X116488095Y-125502438D01*
X116488095Y-125502438D02*
X116535714Y-125550057D01*
X116535714Y-125550057D02*
X116583333Y-125645295D01*
X116583333Y-125645295D02*
X116583333Y-125788152D01*
X116583333Y-125788152D02*
X116535714Y-125883390D01*
X116535714Y-125883390D02*
X116488095Y-125931009D01*
X116488095Y-125931009D02*
X116392857Y-125978628D01*
X116392857Y-125978628D02*
X116011905Y-125978628D01*
X117440476Y-125454819D02*
X117250000Y-125454819D01*
X117250000Y-125454819D02*
X117154762Y-125502438D01*
X117154762Y-125502438D02*
X117107143Y-125550057D01*
X117107143Y-125550057D02*
X117011905Y-125692914D01*
X117011905Y-125692914D02*
X116964286Y-125883390D01*
X116964286Y-125883390D02*
X116964286Y-126264342D01*
X116964286Y-126264342D02*
X117011905Y-126359580D01*
X117011905Y-126359580D02*
X117059524Y-126407200D01*
X117059524Y-126407200D02*
X117154762Y-126454819D01*
X117154762Y-126454819D02*
X117345238Y-126454819D01*
X117345238Y-126454819D02*
X117440476Y-126407200D01*
X117440476Y-126407200D02*
X117488095Y-126359580D01*
X117488095Y-126359580D02*
X117535714Y-126264342D01*
X117535714Y-126264342D02*
X117535714Y-126026247D01*
X117535714Y-126026247D02*
X117488095Y-125931009D01*
X117488095Y-125931009D02*
X117440476Y-125883390D01*
X117440476Y-125883390D02*
X117345238Y-125835771D01*
X117345238Y-125835771D02*
X117154762Y-125835771D01*
X117154762Y-125835771D02*
X117059524Y-125883390D01*
X117059524Y-125883390D02*
X117011905Y-125931009D01*
X117011905Y-125931009D02*
X116964286Y-126026247D01*
X106159580Y-107166666D02*
X106207200Y-107214285D01*
X106207200Y-107214285D02*
X106254819Y-107357142D01*
X106254819Y-107357142D02*
X106254819Y-107452380D01*
X106254819Y-107452380D02*
X106207200Y-107595237D01*
X106207200Y-107595237D02*
X106111961Y-107690475D01*
X106111961Y-107690475D02*
X106016723Y-107738094D01*
X106016723Y-107738094D02*
X105826247Y-107785713D01*
X105826247Y-107785713D02*
X105683390Y-107785713D01*
X105683390Y-107785713D02*
X105492914Y-107738094D01*
X105492914Y-107738094D02*
X105397676Y-107690475D01*
X105397676Y-107690475D02*
X105302438Y-107595237D01*
X105302438Y-107595237D02*
X105254819Y-107452380D01*
X105254819Y-107452380D02*
X105254819Y-107357142D01*
X105254819Y-107357142D02*
X105302438Y-107214285D01*
X105302438Y-107214285D02*
X105350057Y-107166666D01*
X106254819Y-106214285D02*
X106254819Y-106785713D01*
X106254819Y-106499999D02*
X105254819Y-106499999D01*
X105254819Y-106499999D02*
X105397676Y-106595237D01*
X105397676Y-106595237D02*
X105492914Y-106690475D01*
X105492914Y-106690475D02*
X105540533Y-106785713D01*
X116583333Y-119704819D02*
X116250000Y-119228628D01*
X116011905Y-119704819D02*
X116011905Y-118704819D01*
X116011905Y-118704819D02*
X116392857Y-118704819D01*
X116392857Y-118704819D02*
X116488095Y-118752438D01*
X116488095Y-118752438D02*
X116535714Y-118800057D01*
X116535714Y-118800057D02*
X116583333Y-118895295D01*
X116583333Y-118895295D02*
X116583333Y-119038152D01*
X116583333Y-119038152D02*
X116535714Y-119133390D01*
X116535714Y-119133390D02*
X116488095Y-119181009D01*
X116488095Y-119181009D02*
X116392857Y-119228628D01*
X116392857Y-119228628D02*
X116011905Y-119228628D01*
X117440476Y-119038152D02*
X117440476Y-119704819D01*
X117202381Y-118657200D02*
X116964286Y-119371485D01*
X116964286Y-119371485D02*
X117583333Y-119371485D01*
X116583333Y-116454819D02*
X116250000Y-115978628D01*
X116011905Y-116454819D02*
X116011905Y-115454819D01*
X116011905Y-115454819D02*
X116392857Y-115454819D01*
X116392857Y-115454819D02*
X116488095Y-115502438D01*
X116488095Y-115502438D02*
X116535714Y-115550057D01*
X116535714Y-115550057D02*
X116583333Y-115645295D01*
X116583333Y-115645295D02*
X116583333Y-115788152D01*
X116583333Y-115788152D02*
X116535714Y-115883390D01*
X116535714Y-115883390D02*
X116488095Y-115931009D01*
X116488095Y-115931009D02*
X116392857Y-115978628D01*
X116392857Y-115978628D02*
X116011905Y-115978628D01*
X116916667Y-115454819D02*
X117535714Y-115454819D01*
X117535714Y-115454819D02*
X117202381Y-115835771D01*
X117202381Y-115835771D02*
X117345238Y-115835771D01*
X117345238Y-115835771D02*
X117440476Y-115883390D01*
X117440476Y-115883390D02*
X117488095Y-115931009D01*
X117488095Y-115931009D02*
X117535714Y-116026247D01*
X117535714Y-116026247D02*
X117535714Y-116264342D01*
X117535714Y-116264342D02*
X117488095Y-116359580D01*
X117488095Y-116359580D02*
X117440476Y-116407200D01*
X117440476Y-116407200D02*
X117345238Y-116454819D01*
X117345238Y-116454819D02*
X117059524Y-116454819D01*
X117059524Y-116454819D02*
X116964286Y-116407200D01*
X116964286Y-116407200D02*
X116916667Y-116359580D01*
X116333333Y-110954819D02*
X116000000Y-110478628D01*
X115761905Y-110954819D02*
X115761905Y-109954819D01*
X115761905Y-109954819D02*
X116142857Y-109954819D01*
X116142857Y-109954819D02*
X116238095Y-110002438D01*
X116238095Y-110002438D02*
X116285714Y-110050057D01*
X116285714Y-110050057D02*
X116333333Y-110145295D01*
X116333333Y-110145295D02*
X116333333Y-110288152D01*
X116333333Y-110288152D02*
X116285714Y-110383390D01*
X116285714Y-110383390D02*
X116238095Y-110431009D01*
X116238095Y-110431009D02*
X116142857Y-110478628D01*
X116142857Y-110478628D02*
X115761905Y-110478628D01*
X117285714Y-110954819D02*
X116714286Y-110954819D01*
X117000000Y-110954819D02*
X117000000Y-109954819D01*
X117000000Y-109954819D02*
X116904762Y-110097676D01*
X116904762Y-110097676D02*
X116809524Y-110192914D01*
X116809524Y-110192914D02*
X116714286Y-110240533D01*
X116583333Y-122954819D02*
X116250000Y-122478628D01*
X116011905Y-122954819D02*
X116011905Y-121954819D01*
X116011905Y-121954819D02*
X116392857Y-121954819D01*
X116392857Y-121954819D02*
X116488095Y-122002438D01*
X116488095Y-122002438D02*
X116535714Y-122050057D01*
X116535714Y-122050057D02*
X116583333Y-122145295D01*
X116583333Y-122145295D02*
X116583333Y-122288152D01*
X116583333Y-122288152D02*
X116535714Y-122383390D01*
X116535714Y-122383390D02*
X116488095Y-122431009D01*
X116488095Y-122431009D02*
X116392857Y-122478628D01*
X116392857Y-122478628D02*
X116011905Y-122478628D01*
X117488095Y-121954819D02*
X117011905Y-121954819D01*
X117011905Y-121954819D02*
X116964286Y-122431009D01*
X116964286Y-122431009D02*
X117011905Y-122383390D01*
X117011905Y-122383390D02*
X117107143Y-122335771D01*
X117107143Y-122335771D02*
X117345238Y-122335771D01*
X117345238Y-122335771D02*
X117440476Y-122383390D01*
X117440476Y-122383390D02*
X117488095Y-122431009D01*
X117488095Y-122431009D02*
X117535714Y-122526247D01*
X117535714Y-122526247D02*
X117535714Y-122764342D01*
X117535714Y-122764342D02*
X117488095Y-122859580D01*
X117488095Y-122859580D02*
X117440476Y-122907200D01*
X117440476Y-122907200D02*
X117345238Y-122954819D01*
X117345238Y-122954819D02*
X117107143Y-122954819D01*
X117107143Y-122954819D02*
X117011905Y-122907200D01*
X117011905Y-122907200D02*
X116964286Y-122859580D01*
X136209819Y-105083333D02*
X136924104Y-105083333D01*
X136924104Y-105083333D02*
X137066961Y-105130952D01*
X137066961Y-105130952D02*
X137162200Y-105226190D01*
X137162200Y-105226190D02*
X137209819Y-105369047D01*
X137209819Y-105369047D02*
X137209819Y-105464285D01*
X136305057Y-104654761D02*
X136257438Y-104607142D01*
X136257438Y-104607142D02*
X136209819Y-104511904D01*
X136209819Y-104511904D02*
X136209819Y-104273809D01*
X136209819Y-104273809D02*
X136257438Y-104178571D01*
X136257438Y-104178571D02*
X136305057Y-104130952D01*
X136305057Y-104130952D02*
X136400295Y-104083333D01*
X136400295Y-104083333D02*
X136495533Y-104083333D01*
X136495533Y-104083333D02*
X136638390Y-104130952D01*
X136638390Y-104130952D02*
X137209819Y-104702380D01*
X137209819Y-104702380D02*
X137209819Y-104083333D01*
D11*
X125868450Y-102740391D02*
X125868450Y-103373698D01*
X125868450Y-103373698D02*
X125905704Y-103448204D01*
X125905704Y-103448204D02*
X125942957Y-103485458D01*
X125942957Y-103485458D02*
X126017464Y-103522711D01*
X126017464Y-103522711D02*
X126166477Y-103522711D01*
X126166477Y-103522711D02*
X126240984Y-103485458D01*
X126240984Y-103485458D02*
X126278237Y-103448204D01*
X126278237Y-103448204D02*
X126315490Y-103373698D01*
X126315490Y-103373698D02*
X126315490Y-102740391D01*
X127060557Y-102740391D02*
X126688023Y-102740391D01*
X126688023Y-102740391D02*
X126650770Y-103112924D01*
X126650770Y-103112924D02*
X126688023Y-103075671D01*
X126688023Y-103075671D02*
X126762530Y-103038418D01*
X126762530Y-103038418D02*
X126948797Y-103038418D01*
X126948797Y-103038418D02*
X127023303Y-103075671D01*
X127023303Y-103075671D02*
X127060557Y-103112924D01*
X127060557Y-103112924D02*
X127097810Y-103187431D01*
X127097810Y-103187431D02*
X127097810Y-103373698D01*
X127097810Y-103373698D02*
X127060557Y-103448204D01*
X127060557Y-103448204D02*
X127023303Y-103485458D01*
X127023303Y-103485458D02*
X126948797Y-103522711D01*
X126948797Y-103522711D02*
X126762530Y-103522711D01*
X126762530Y-103522711D02*
X126688023Y-103485458D01*
X126688023Y-103485458D02*
X126650770Y-103448204D01*
D10*
X150454819Y-102511904D02*
X151264342Y-102511904D01*
X151264342Y-102511904D02*
X151359580Y-102464285D01*
X151359580Y-102464285D02*
X151407200Y-102416666D01*
X151407200Y-102416666D02*
X151454819Y-102321428D01*
X151454819Y-102321428D02*
X151454819Y-102130952D01*
X151454819Y-102130952D02*
X151407200Y-102035714D01*
X151407200Y-102035714D02*
X151359580Y-101988095D01*
X151359580Y-101988095D02*
X151264342Y-101940476D01*
X151264342Y-101940476D02*
X150454819Y-101940476D01*
X150454819Y-101559523D02*
X150454819Y-100940476D01*
X150454819Y-100940476D02*
X150835771Y-101273809D01*
X150835771Y-101273809D02*
X150835771Y-101130952D01*
X150835771Y-101130952D02*
X150883390Y-101035714D01*
X150883390Y-101035714D02*
X150931009Y-100988095D01*
X150931009Y-100988095D02*
X151026247Y-100940476D01*
X151026247Y-100940476D02*
X151264342Y-100940476D01*
X151264342Y-100940476D02*
X151359580Y-100988095D01*
X151359580Y-100988095D02*
X151407200Y-101035714D01*
X151407200Y-101035714D02*
X151454819Y-101130952D01*
X151454819Y-101130952D02*
X151454819Y-101416666D01*
X151454819Y-101416666D02*
X151407200Y-101511904D01*
X151407200Y-101511904D02*
X151359580Y-101559523D01*
X100954819Y-111511904D02*
X101764342Y-111511904D01*
X101764342Y-111511904D02*
X101859580Y-111464285D01*
X101859580Y-111464285D02*
X101907200Y-111416666D01*
X101907200Y-111416666D02*
X101954819Y-111321428D01*
X101954819Y-111321428D02*
X101954819Y-111130952D01*
X101954819Y-111130952D02*
X101907200Y-111035714D01*
X101907200Y-111035714D02*
X101859580Y-110988095D01*
X101859580Y-110988095D02*
X101764342Y-110940476D01*
X101764342Y-110940476D02*
X100954819Y-110940476D01*
X101954819Y-109940476D02*
X101954819Y-110511904D01*
X101954819Y-110226190D02*
X100954819Y-110226190D01*
X100954819Y-110226190D02*
X101097676Y-110321428D01*
X101097676Y-110321428D02*
X101192914Y-110416666D01*
X101192914Y-110416666D02*
X101240533Y-110511904D01*
X141907200Y-101761904D02*
X141954819Y-101619047D01*
X141954819Y-101619047D02*
X141954819Y-101380952D01*
X141954819Y-101380952D02*
X141907200Y-101285714D01*
X141907200Y-101285714D02*
X141859580Y-101238095D01*
X141859580Y-101238095D02*
X141764342Y-101190476D01*
X141764342Y-101190476D02*
X141669104Y-101190476D01*
X141669104Y-101190476D02*
X141573866Y-101238095D01*
X141573866Y-101238095D02*
X141526247Y-101285714D01*
X141526247Y-101285714D02*
X141478628Y-101380952D01*
X141478628Y-101380952D02*
X141431009Y-101571428D01*
X141431009Y-101571428D02*
X141383390Y-101666666D01*
X141383390Y-101666666D02*
X141335771Y-101714285D01*
X141335771Y-101714285D02*
X141240533Y-101761904D01*
X141240533Y-101761904D02*
X141145295Y-101761904D01*
X141145295Y-101761904D02*
X141050057Y-101714285D01*
X141050057Y-101714285D02*
X141002438Y-101666666D01*
X141002438Y-101666666D02*
X140954819Y-101571428D01*
X140954819Y-101571428D02*
X140954819Y-101333333D01*
X140954819Y-101333333D02*
X141002438Y-101190476D01*
X141954819Y-100238095D02*
X141954819Y-100809523D01*
X141954819Y-100523809D02*
X140954819Y-100523809D01*
X140954819Y-100523809D02*
X141097676Y-100619047D01*
X141097676Y-100619047D02*
X141192914Y-100714285D01*
X141192914Y-100714285D02*
X141240533Y-100809523D01*
D12*
%TO.C,U2*%
X113410000Y-107450000D02*
X113650000Y-107780000D01*
X113170000Y-107780000D01*
X113410000Y-107450000D01*
G36*
X113650000Y-107780000D02*
G01*
X113170000Y-107780000D01*
X113410000Y-107450000D01*
X113650000Y-107780000D01*
G37*
X108690000Y-102440000D02*
X112810000Y-102440000D01*
X108690000Y-102560000D02*
X108690000Y-102440000D01*
X108690000Y-107560000D02*
X108690000Y-107440000D01*
X112810000Y-102440000D02*
X112810000Y-102560000D01*
X112810000Y-107440000D02*
X112810000Y-107560000D01*
X112810000Y-107560000D02*
X108690000Y-107560000D01*
%TO.C,R10*%
X144750000Y-119810000D02*
X144750000Y-118860000D01*
X144750000Y-114070000D02*
X144750000Y-115020000D01*
X143830000Y-115020000D02*
X145670000Y-115020000D01*
X145670000Y-118860000D01*
X143830000Y-118860000D01*
X143830000Y-115020000D01*
%TO.C,R9*%
X149500000Y-114130000D02*
X149500000Y-115080000D01*
X149500000Y-119870000D02*
X149500000Y-118920000D01*
X148580000Y-115080000D02*
X150420000Y-115080000D01*
X150420000Y-118920000D01*
X148580000Y-118920000D01*
X148580000Y-115080000D01*
%TO.C,R8*%
X147250000Y-119810000D02*
X147250000Y-118860000D01*
X147250000Y-114070000D02*
X147250000Y-115020000D01*
X146330000Y-115020000D02*
X148170000Y-115020000D01*
X148170000Y-118860000D01*
X146330000Y-118860000D01*
X146330000Y-115020000D01*
%TO.C,R7*%
X141250000Y-119690000D02*
X141250000Y-120640000D01*
X141250000Y-125430000D02*
X141250000Y-124480000D01*
X140330000Y-120640000D02*
X142170000Y-120640000D01*
X142170000Y-124480000D01*
X140330000Y-124480000D01*
X140330000Y-120640000D01*
%TO.C,Q1*%
X146290000Y-122950000D02*
X146290000Y-126550000D01*
X146301522Y-122911522D02*
G75*
G02*
X150740001Y-124750000I1838478J-1838478D01*
G01*
X150740000Y-124750000D02*
G75*
G02*
X146301522Y-126588478I-2600000J0D01*
G01*
%TO.C,R2*%
X107725000Y-113300000D02*
X108675000Y-113300000D01*
X113465000Y-113300000D02*
X112515000Y-113300000D01*
X108675000Y-112380000D02*
X112515000Y-112380000D01*
X112515000Y-114220000D01*
X108675000Y-114220000D01*
X108675000Y-112380000D01*
%TO.C,REF\u002A\u002A*%
X124700000Y-112250000D02*
G75*
G02*
X121300000Y-112250000I-1700000J0D01*
G01*
X121300000Y-112250000D02*
G75*
G02*
X124700000Y-112250000I1700000J0D01*
G01*
%TO.C,R6*%
X107820000Y-126000000D02*
X108770000Y-126000000D01*
X113560000Y-126000000D02*
X112610000Y-126000000D01*
X108770000Y-125080000D02*
X112610000Y-125080000D01*
X112610000Y-126920000D01*
X108770000Y-126920000D01*
X108770000Y-125080000D01*
%TO.C,C1*%
X102390000Y-112538748D02*
X102390000Y-113961252D01*
X105110000Y-112538748D02*
X105110000Y-113961252D01*
%TO.C,R4*%
X107820000Y-119250000D02*
X108770000Y-119250000D01*
X113560000Y-119250000D02*
X112610000Y-119250000D01*
X108770000Y-118330000D02*
X112610000Y-118330000D01*
X112610000Y-120170000D01*
X108770000Y-120170000D01*
X108770000Y-118330000D01*
%TO.C,REF\u002A\u002A*%
X124700000Y-114130000D02*
G75*
G02*
X121300000Y-114130000I-1700000J0D01*
G01*
X121300000Y-114130000D02*
G75*
G02*
X124700000Y-114130000I1700000J0D01*
G01*
%TO.C,R3*%
X107820000Y-116250000D02*
X108770000Y-116250000D01*
X113560000Y-116250000D02*
X112610000Y-116250000D01*
X108770000Y-115330000D02*
X112610000Y-115330000D01*
X112610000Y-117170000D01*
X108770000Y-117170000D01*
X108770000Y-115330000D01*
%TO.C,R1*%
X107690000Y-110500000D02*
X108640000Y-110500000D01*
X113430000Y-110500000D02*
X112480000Y-110500000D01*
X108640000Y-109580000D02*
X112480000Y-109580000D01*
X112480000Y-111420000D01*
X108640000Y-111420000D01*
X108640000Y-109580000D01*
%TO.C,R5*%
X107820000Y-122500000D02*
X108770000Y-122500000D01*
X113560000Y-122500000D02*
X112610000Y-122500000D01*
X108770000Y-121580000D02*
X112610000Y-121580000D01*
X112610000Y-123420000D01*
X108770000Y-123420000D01*
X108770000Y-121580000D01*
%TO.C,J2*%
X137690000Y-105910000D02*
X137690000Y-104750000D01*
X138500000Y-105910000D02*
X137690000Y-105910000D01*
X139310000Y-103590000D02*
X140515000Y-103590000D01*
X139310000Y-104083292D02*
X139310000Y-103590000D01*
X139310000Y-105910000D02*
X139310000Y-105416708D01*
X139310000Y-105910000D02*
X140515000Y-105910000D01*
X140515000Y-104432077D02*
X140515000Y-103590000D01*
X140515000Y-105910000D02*
X140515000Y-105067923D01*
%TO.C,U5*%
D13*
X118500000Y-122973000D02*
X118500000Y-105828000D01*
X120405000Y-124878000D02*
X134375000Y-124878000D01*
D14*
X122895000Y-103923000D02*
X122898728Y-102912728D01*
X123398728Y-102413000D02*
X131394000Y-102413000D01*
X131894000Y-102913000D02*
X131894000Y-103923000D01*
D13*
X134375000Y-103923000D02*
X120405000Y-103923000D01*
X136280000Y-122973000D02*
X136280000Y-105828000D01*
X118500000Y-105824000D02*
G75*
G02*
X120405000Y-103919000I1905001J-1D01*
G01*
X120405000Y-124878000D02*
G75*
G02*
X118500000Y-122973000I0J1905000D01*
G01*
D14*
X122898728Y-102912728D02*
G75*
G02*
X123398728Y-102412998I500022J-292D01*
G01*
X131394000Y-102413000D02*
G75*
G02*
X131894000Y-102913000I-100J-500100D01*
G01*
D13*
X134375000Y-103923000D02*
G75*
G02*
X136280000Y-105828000I-50J-1905050D01*
G01*
X136280000Y-122973000D02*
G75*
G02*
X134375000Y-124878000I-1905000J0D01*
G01*
D15*
X118542000Y-104339000D02*
G75*
G02*
X118038000Y-104339000I-252000J0D01*
G01*
X118038000Y-104339000D02*
G75*
G02*
X118542000Y-104339000I252000J0D01*
G01*
X119816000Y-105056000D02*
G75*
G02*
X119312000Y-105056000I-252000J0D01*
G01*
X119312000Y-105056000D02*
G75*
G02*
X119816000Y-105056000I252000J0D01*
G01*
%TO.C,U3*%
D16*
X151850000Y-100400000D02*
X179650000Y-100400000D01*
X151850000Y-127600000D02*
X151850000Y-100400000D01*
X175900000Y-107500000D02*
X175900000Y-120350000D01*
X175900000Y-120350000D02*
X179650000Y-120350000D01*
X179650000Y-100400000D02*
X179650000Y-107500000D01*
X179650000Y-107500000D02*
X175900000Y-107500000D01*
X179650000Y-120350000D02*
X179650000Y-127600000D01*
X179650000Y-127600000D02*
X151850000Y-127600000D01*
%TO.C,U1*%
X100350000Y-112350000D02*
X100750000Y-111950000D01*
X100350000Y-112400000D02*
X100350000Y-112350000D01*
X100350000Y-112400000D02*
X100350000Y-115600000D01*
X100350000Y-115600000D02*
X100800000Y-116050000D01*
X100750000Y-111950000D02*
X102070000Y-111950000D01*
X102070000Y-116050000D02*
X100800000Y-116050000D01*
X102070000Y-116050000D02*
X102070000Y-111950000D01*
%TO.C,S1*%
D12*
X142350000Y-100150000D02*
X148350000Y-100150000D01*
X142350000Y-111350000D02*
X142350000Y-100150000D01*
X149150000Y-111350000D02*
X142350000Y-111350000D01*
X149150000Y-100950000D02*
X149150000Y-111350000D01*
X148350000Y-100150000D02*
X149150000Y-100950000D01*
%TD*%
M02*
