%TF.GenerationSoftware,KiCad,Pcbnew,10.0.4*%
%TF.CreationDate,2026-08-29T12:42:31-07:00*%
%TF.ProjectId,halleffectsensor,68616c6c-6566-4666-9563-7473656e736f,rev?*%
%TF.SameCoordinates,Original*%
%TF.FileFunction,Soldermask,Top*%
%TF.FilePolarity,Negative*%
%FSLAX46Y46*%
G04 Gerber Fmt 4.6, Leading zero omitted, Abs format (unit mm)*
G04 Created by KiCad (PCBNEW 10.0.4) date 2026-08-29 12:42:31*
%MOMM*%
%LPD*%
G01*
G04 APERTURE LIST*
G04 Aperture macros list*
%AMRoundRect*
0 Rectangle with rounded corners*
0 $1 Rounding radius*
0 $2 $3 $4 $5 $6 $7 $8 $9 X,Y pos of 4 corners*
0 Add a 4 corners polygon primitive as box body*
4,1,4,$2,$3,$4,$5,$6,$7,$8,$9,$2,$3,0*
0 Add four circle primitives for the rounded corners*
1,1,$1+$1,$2,$3*
1,1,$1+$1,$4,$5*
1,1,$1+$1,$6,$7*
1,1,$1+$1,$8,$9*
0 Add four rect primitives between the rounded corners*
20,1,$1+$1,$2,$3,$4,$5,0*
20,1,$1+$1,$4,$5,$6,$7,0*
20,1,$1+$1,$6,$7,$8,$9,0*
20,1,$1+$1,$8,$9,$2,$3,0*%
G04 Aperture macros list end*
%ADD10RoundRect,0.250000X0.400000X0.625000X-0.400000X0.625000X-0.400000X-0.625000X0.400000X-0.625000X0*%
%ADD11RoundRect,0.250000X-0.400000X-0.625000X0.400000X-0.625000X0.400000X0.625000X-0.400000X0.625000X0*%
%ADD12O,2.800000X1.300000*%
%ADD13C,2.200000*%
%ADD14R,1.300000X2.200000*%
%ADD15O,1.970000X0.590000*%
%ADD16RoundRect,0.250000X0.625000X-0.400000X0.625000X0.400000X-0.625000X0.400000X-0.625000X-0.400000X0*%
%ADD17RoundRect,0.250000X-0.625000X0.400000X-0.625000X-0.400000X0.625000X-0.400000X0.625000X0.400000X0*%
%ADD18RoundRect,0.190500X-0.444500X-0.444500X0.444500X-0.444500X0.444500X0.444500X-0.444500X0.444500X0*%
%ADD19R,1.000000X1.000000*%
%ADD20C,1.000000*%
%ADD21RoundRect,0.550800X-0.875000X-0.500000X0.875000X-0.500000X0.875000X0.500000X-0.875000X0.500000X0*%
%ADD22C,1.700000*%
%ADD23RoundRect,0.275000X0.975000X0.275000X-0.975000X0.275000X-0.975000X-0.275000X0.975000X-0.275000X0*%
%ADD24RoundRect,0.275000X-0.275000X0.975000X-0.275000X-0.975000X0.275000X-0.975000X0.275000X0.975000X0*%
%ADD25R,1.050000X1.500000*%
%ADD26O,1.050000X1.500000*%
%ADD27C,3.000000*%
%ADD28C,1.800000*%
%ADD29R,1.500000X1.050000*%
%ADD30O,1.500000X1.050000*%
%ADD31R,0.900000X0.900000*%
%ADD32C,0.900000*%
G04 APERTURE END LIST*
D10*
%TO.C,R14*%
X149525000Y-125715000D03*
X146425000Y-125715000D03*
%TD*%
D11*
%TO.C,R13*%
X146425000Y-122405000D03*
X149525000Y-122405000D03*
%TD*%
D12*
%TO.C,REF\u002A\u002A*%
X125550000Y-111803100D03*
%TD*%
D13*
%TO.C,REF\u002A\u002A*%
X103000000Y-125000000D03*
%TD*%
D14*
%TO.C,S1*%
X148000000Y-101750000D03*
X143500000Y-101750000D03*
X143500000Y-109750000D03*
X148000000Y-109750000D03*
%TD*%
D15*
%TO.C,U4*%
X114730000Y-109372500D03*
X114730000Y-108102500D03*
X114730000Y-106832500D03*
X114730000Y-105562500D03*
X114730000Y-104292500D03*
X114730000Y-103022500D03*
X114730000Y-101752500D03*
X109270000Y-101752500D03*
X109270000Y-103022500D03*
X109270000Y-104292500D03*
X109270000Y-105562500D03*
X109270000Y-106832500D03*
X109270000Y-108102500D03*
X109270000Y-109372500D03*
%TD*%
D10*
%TO.C,R1*%
X113050000Y-111250000D03*
X109950000Y-111250000D03*
%TD*%
D16*
%TO.C,R2*%
X107000000Y-109800000D03*
X107000000Y-106700000D03*
%TD*%
D12*
%TO.C,REF\u002A\u002A*%
X125550000Y-113683100D03*
%TD*%
D16*
%TO.C,R12*%
X143250000Y-125300000D03*
X143250000Y-122200000D03*
%TD*%
D11*
%TO.C,R15*%
X101450000Y-109750000D03*
X104550000Y-109750000D03*
%TD*%
D17*
%TO.C,R7*%
X143250000Y-116950000D03*
X143250000Y-120050000D03*
%TD*%
D10*
%TO.C,R16*%
X104550000Y-107250000D03*
X101450000Y-107250000D03*
%TD*%
D18*
%TO.C,VR2*%
X110250000Y-118500000D03*
X107750000Y-121000000D03*
X105250000Y-118500000D03*
%TD*%
D13*
%TO.C,REF\u002A\u002A*%
X103000000Y-103000000D03*
%TD*%
D19*
%TO.C,J2*%
X137750000Y-101750000D03*
D20*
X139020000Y-101750000D03*
%TD*%
D16*
%TO.C,R9*%
X102500000Y-120550000D03*
X102500000Y-117450000D03*
%TD*%
D21*
%TO.C,U5*%
X121885000Y-106393100D03*
X121885000Y-108933100D03*
X121885000Y-111473100D03*
X121885000Y-114013100D03*
X121885000Y-116553100D03*
X121885000Y-119093100D03*
X121885000Y-121633100D03*
X138050000Y-121633100D03*
X138050000Y-119093100D03*
X138050000Y-116553100D03*
X138050000Y-114013100D03*
X138050000Y-111473100D03*
X138050000Y-108933100D03*
X138050000Y-106393100D03*
D22*
X128670000Y-105444600D03*
X131210000Y-105444600D03*
X128670000Y-107984600D03*
X131210000Y-107984600D03*
D23*
X125495000Y-113699600D03*
X125495000Y-111794600D03*
D24*
X133750000Y-123250000D03*
X135655000Y-123250000D03*
%TD*%
D25*
%TO.C,Q1*%
X114480000Y-125500000D03*
D26*
X115750000Y-125500000D03*
X117020000Y-125500000D03*
%TD*%
D27*
%TO.C,U3*%
X153850000Y-125650000D03*
X177650000Y-125650000D03*
X153850000Y-102350000D03*
X177650000Y-102350000D03*
D28*
X153290000Y-117810000D03*
X153290000Y-115270000D03*
X153290000Y-112730000D03*
X153290000Y-110190000D03*
%TD*%
D18*
%TO.C,VR1*%
X118500000Y-118500000D03*
X116000000Y-121000000D03*
X113500000Y-118500000D03*
%TD*%
D29*
%TO.C,Q2*%
X149640000Y-113980000D03*
D30*
X149640000Y-115250000D03*
X149640000Y-116520000D03*
%TD*%
D31*
%TO.C,U1*%
X101250000Y-112980000D03*
D32*
X101250000Y-114250000D03*
X101250000Y-115520000D03*
%TD*%
D19*
%TO.C,J1*%
X141250000Y-112750000D03*
D20*
X142520000Y-112750000D03*
X143790000Y-112750000D03*
%TD*%
M02*
