%TF.GenerationSoftware,KiCad,Pcbnew,10.0.4*%
%TF.CreationDate,2026-08-29T12:42:29-07:00*%
%TF.ProjectId,halleffectsensor,68616c6c-6566-4666-9563-7473656e736f,rev?*%
%TF.SameCoordinates,Original*%
%TF.FileFunction,Drillmap*%
%TF.FilePolarity,Positive*%
%FSLAX45Y45*%
G04 Gerber Fmt 4.5, Leading zero omitted, Abs format (unit mm)*
G04 Created by KiCad (PCBNEW 10.0.4) date 2026-08-29 12:42:29*
%MOMM*%
%LPD*%
G01*
G04 APERTURE LIST*
%ADD10C,0.200000*%
%ADD11C,0.220000*%
%ADD12C,0.250000*%
G04 APERTURE END LIST*
D10*
X10000000Y-10000000D02*
X18000000Y-10000000D01*
X18000000Y-12800000D01*
X10000000Y-12800000D01*
X10000000Y-10000000D01*
D11*
X10190000Y-10190000D02*
X10410000Y-10410000D01*
X10410000Y-10190000D02*
X10190000Y-10410000D01*
X10190000Y-12390000D02*
X10410000Y-12610000D01*
X10410000Y-12390000D02*
X10190000Y-12610000D01*
D12*
X15510000Y-10235000D02*
G75*
G02*
X15260000Y-10235000I-125000J0D01*
G01*
X15260000Y-10235000D02*
G75*
G02*
X15510000Y-10235000I125000J0D01*
G01*
X15510000Y-12565000D02*
G75*
G02*
X15260000Y-12565000I-125000J0D01*
G01*
X15260000Y-12565000D02*
G75*
G02*
X15510000Y-12565000I125000J0D01*
G01*
X17890000Y-10235000D02*
G75*
G02*
X17640000Y-10235000I-125000J0D01*
G01*
X17640000Y-10235000D02*
G75*
G02*
X17890000Y-10235000I125000J0D01*
G01*
X17890000Y-12565000D02*
G75*
G02*
X17640000Y-12565000I-125000J0D01*
G01*
X17640000Y-12565000D02*
G75*
G02*
X17890000Y-12565000I125000J0D01*
G01*
D10*
X10250777Y-13121484D02*
X10250777Y-12921484D01*
X10250777Y-12921484D02*
X10298396Y-12921484D01*
X10298396Y-12921484D02*
X10326967Y-12931008D01*
X10326967Y-12931008D02*
X10346015Y-12950055D01*
X10346015Y-12950055D02*
X10355539Y-12969103D01*
X10355539Y-12969103D02*
X10365063Y-13007198D01*
X10365063Y-13007198D02*
X10365063Y-13035769D01*
X10365063Y-13035769D02*
X10355539Y-13073865D01*
X10355539Y-13073865D02*
X10346015Y-13092912D01*
X10346015Y-13092912D02*
X10326967Y-13111960D01*
X10326967Y-13111960D02*
X10298396Y-13121484D01*
X10298396Y-13121484D02*
X10250777Y-13121484D01*
X10450777Y-13121484D02*
X10450777Y-12988150D01*
X10450777Y-13026246D02*
X10460301Y-13007198D01*
X10460301Y-13007198D02*
X10469824Y-12997674D01*
X10469824Y-12997674D02*
X10488872Y-12988150D01*
X10488872Y-12988150D02*
X10507920Y-12988150D01*
X10574586Y-13121484D02*
X10574586Y-12988150D01*
X10574586Y-12921484D02*
X10565063Y-12931008D01*
X10565063Y-12931008D02*
X10574586Y-12940531D01*
X10574586Y-12940531D02*
X10584110Y-12931008D01*
X10584110Y-12931008D02*
X10574586Y-12921484D01*
X10574586Y-12921484D02*
X10574586Y-12940531D01*
X10698396Y-13121484D02*
X10679348Y-13111960D01*
X10679348Y-13111960D02*
X10669824Y-13092912D01*
X10669824Y-13092912D02*
X10669824Y-12921484D01*
X10803158Y-13121484D02*
X10784110Y-13111960D01*
X10784110Y-13111960D02*
X10774586Y-13092912D01*
X10774586Y-13092912D02*
X10774586Y-12921484D01*
X11031729Y-13121484D02*
X11031729Y-12921484D01*
X11031729Y-12921484D02*
X11098396Y-13064341D01*
X11098396Y-13064341D02*
X11165063Y-12921484D01*
X11165063Y-12921484D02*
X11165063Y-13121484D01*
X11346015Y-13121484D02*
X11346015Y-13016722D01*
X11346015Y-13016722D02*
X11336491Y-12997674D01*
X11336491Y-12997674D02*
X11317443Y-12988150D01*
X11317443Y-12988150D02*
X11279348Y-12988150D01*
X11279348Y-12988150D02*
X11260301Y-12997674D01*
X11346015Y-13111960D02*
X11326967Y-13121484D01*
X11326967Y-13121484D02*
X11279348Y-13121484D01*
X11279348Y-13121484D02*
X11260301Y-13111960D01*
X11260301Y-13111960D02*
X11250777Y-13092912D01*
X11250777Y-13092912D02*
X11250777Y-13073865D01*
X11250777Y-13073865D02*
X11260301Y-13054817D01*
X11260301Y-13054817D02*
X11279348Y-13045293D01*
X11279348Y-13045293D02*
X11326967Y-13045293D01*
X11326967Y-13045293D02*
X11346015Y-13035769D01*
X11441253Y-12988150D02*
X11441253Y-13188150D01*
X11441253Y-12997674D02*
X11460301Y-12988150D01*
X11460301Y-12988150D02*
X11498396Y-12988150D01*
X11498396Y-12988150D02*
X11517443Y-12997674D01*
X11517443Y-12997674D02*
X11526967Y-13007198D01*
X11526967Y-13007198D02*
X11536491Y-13026246D01*
X11536491Y-13026246D02*
X11536491Y-13083388D01*
X11536491Y-13083388D02*
X11526967Y-13102436D01*
X11526967Y-13102436D02*
X11517443Y-13111960D01*
X11517443Y-13111960D02*
X11498396Y-13121484D01*
X11498396Y-13121484D02*
X11460301Y-13121484D01*
X11460301Y-13121484D02*
X11441253Y-13111960D01*
X11622205Y-13102436D02*
X11631729Y-13111960D01*
X11631729Y-13111960D02*
X11622205Y-13121484D01*
X11622205Y-13121484D02*
X11612682Y-13111960D01*
X11612682Y-13111960D02*
X11622205Y-13102436D01*
X11622205Y-13102436D02*
X11622205Y-13121484D01*
X11622205Y-12997674D02*
X11631729Y-13007198D01*
X11631729Y-13007198D02*
X11622205Y-13016722D01*
X11622205Y-13016722D02*
X11612682Y-13007198D01*
X11612682Y-13007198D02*
X11622205Y-12997674D01*
X11622205Y-12997674D02*
X11622205Y-13016722D01*
X9790000Y-13350000D02*
X9990000Y-13550000D01*
X9990000Y-13350000D02*
X9790000Y-13550000D01*
X10241253Y-13360531D02*
X10250777Y-13351008D01*
X10250777Y-13351008D02*
X10269824Y-13341484D01*
X10269824Y-13341484D02*
X10317444Y-13341484D01*
X10317444Y-13341484D02*
X10336491Y-13351008D01*
X10336491Y-13351008D02*
X10346015Y-13360531D01*
X10346015Y-13360531D02*
X10355539Y-13379579D01*
X10355539Y-13379579D02*
X10355539Y-13398627D01*
X10355539Y-13398627D02*
X10346015Y-13427198D01*
X10346015Y-13427198D02*
X10231729Y-13541484D01*
X10231729Y-13541484D02*
X10355539Y-13541484D01*
X10441253Y-13522436D02*
X10450777Y-13531960D01*
X10450777Y-13531960D02*
X10441253Y-13541484D01*
X10441253Y-13541484D02*
X10431729Y-13531960D01*
X10431729Y-13531960D02*
X10441253Y-13522436D01*
X10441253Y-13522436D02*
X10441253Y-13541484D01*
X10526967Y-13360531D02*
X10536491Y-13351008D01*
X10536491Y-13351008D02*
X10555539Y-13341484D01*
X10555539Y-13341484D02*
X10603158Y-13341484D01*
X10603158Y-13341484D02*
X10622205Y-13351008D01*
X10622205Y-13351008D02*
X10631729Y-13360531D01*
X10631729Y-13360531D02*
X10641253Y-13379579D01*
X10641253Y-13379579D02*
X10641253Y-13398627D01*
X10641253Y-13398627D02*
X10631729Y-13427198D01*
X10631729Y-13427198D02*
X10517444Y-13541484D01*
X10517444Y-13541484D02*
X10641253Y-13541484D01*
X10765063Y-13341484D02*
X10784110Y-13341484D01*
X10784110Y-13341484D02*
X10803158Y-13351008D01*
X10803158Y-13351008D02*
X10812682Y-13360531D01*
X10812682Y-13360531D02*
X10822205Y-13379579D01*
X10822205Y-13379579D02*
X10831729Y-13417674D01*
X10831729Y-13417674D02*
X10831729Y-13465293D01*
X10831729Y-13465293D02*
X10822205Y-13503388D01*
X10822205Y-13503388D02*
X10812682Y-13522436D01*
X10812682Y-13522436D02*
X10803158Y-13531960D01*
X10803158Y-13531960D02*
X10784110Y-13541484D01*
X10784110Y-13541484D02*
X10765063Y-13541484D01*
X10765063Y-13541484D02*
X10746015Y-13531960D01*
X10746015Y-13531960D02*
X10736491Y-13522436D01*
X10736491Y-13522436D02*
X10726967Y-13503388D01*
X10726967Y-13503388D02*
X10717444Y-13465293D01*
X10717444Y-13465293D02*
X10717444Y-13417674D01*
X10717444Y-13417674D02*
X10726967Y-13379579D01*
X10726967Y-13379579D02*
X10736491Y-13360531D01*
X10736491Y-13360531D02*
X10746015Y-13351008D01*
X10746015Y-13351008D02*
X10765063Y-13341484D01*
X10955539Y-13341484D02*
X10974586Y-13341484D01*
X10974586Y-13341484D02*
X10993634Y-13351008D01*
X10993634Y-13351008D02*
X11003158Y-13360531D01*
X11003158Y-13360531D02*
X11012682Y-13379579D01*
X11012682Y-13379579D02*
X11022205Y-13417674D01*
X11022205Y-13417674D02*
X11022205Y-13465293D01*
X11022205Y-13465293D02*
X11012682Y-13503388D01*
X11012682Y-13503388D02*
X11003158Y-13522436D01*
X11003158Y-13522436D02*
X10993634Y-13531960D01*
X10993634Y-13531960D02*
X10974586Y-13541484D01*
X10974586Y-13541484D02*
X10955539Y-13541484D01*
X10955539Y-13541484D02*
X10936491Y-13531960D01*
X10936491Y-13531960D02*
X10926967Y-13522436D01*
X10926967Y-13522436D02*
X10917444Y-13503388D01*
X10917444Y-13503388D02*
X10907920Y-13465293D01*
X10907920Y-13465293D02*
X10907920Y-13417674D01*
X10907920Y-13417674D02*
X10917444Y-13379579D01*
X10917444Y-13379579D02*
X10926967Y-13360531D01*
X10926967Y-13360531D02*
X10936491Y-13351008D01*
X10936491Y-13351008D02*
X10955539Y-13341484D01*
X11107920Y-13541484D02*
X11107920Y-13408150D01*
X11107920Y-13427198D02*
X11117444Y-13417674D01*
X11117444Y-13417674D02*
X11136491Y-13408150D01*
X11136491Y-13408150D02*
X11165063Y-13408150D01*
X11165063Y-13408150D02*
X11184110Y-13417674D01*
X11184110Y-13417674D02*
X11193634Y-13436722D01*
X11193634Y-13436722D02*
X11193634Y-13541484D01*
X11193634Y-13436722D02*
X11203158Y-13417674D01*
X11203158Y-13417674D02*
X11222205Y-13408150D01*
X11222205Y-13408150D02*
X11250777Y-13408150D01*
X11250777Y-13408150D02*
X11269824Y-13417674D01*
X11269824Y-13417674D02*
X11279348Y-13436722D01*
X11279348Y-13436722D02*
X11279348Y-13541484D01*
X11374586Y-13541484D02*
X11374586Y-13408150D01*
X11374586Y-13427198D02*
X11384110Y-13417674D01*
X11384110Y-13417674D02*
X11403158Y-13408150D01*
X11403158Y-13408150D02*
X11431729Y-13408150D01*
X11431729Y-13408150D02*
X11450777Y-13417674D01*
X11450777Y-13417674D02*
X11460301Y-13436722D01*
X11460301Y-13436722D02*
X11460301Y-13541484D01*
X11460301Y-13436722D02*
X11469824Y-13417674D01*
X11469824Y-13417674D02*
X11488872Y-13408150D01*
X11488872Y-13408150D02*
X11517443Y-13408150D01*
X11517443Y-13408150D02*
X11536491Y-13417674D01*
X11536491Y-13417674D02*
X11546015Y-13436722D01*
X11546015Y-13436722D02*
X11546015Y-13541484D01*
X11936491Y-13331960D02*
X11765063Y-13589103D01*
X12193634Y-13341484D02*
X12212682Y-13341484D01*
X12212682Y-13341484D02*
X12231729Y-13351008D01*
X12231729Y-13351008D02*
X12241253Y-13360531D01*
X12241253Y-13360531D02*
X12250777Y-13379579D01*
X12250777Y-13379579D02*
X12260301Y-13417674D01*
X12260301Y-13417674D02*
X12260301Y-13465293D01*
X12260301Y-13465293D02*
X12250777Y-13503388D01*
X12250777Y-13503388D02*
X12241253Y-13522436D01*
X12241253Y-13522436D02*
X12231729Y-13531960D01*
X12231729Y-13531960D02*
X12212682Y-13541484D01*
X12212682Y-13541484D02*
X12193634Y-13541484D01*
X12193634Y-13541484D02*
X12174586Y-13531960D01*
X12174586Y-13531960D02*
X12165063Y-13522436D01*
X12165063Y-13522436D02*
X12155539Y-13503388D01*
X12155539Y-13503388D02*
X12146015Y-13465293D01*
X12146015Y-13465293D02*
X12146015Y-13417674D01*
X12146015Y-13417674D02*
X12155539Y-13379579D01*
X12155539Y-13379579D02*
X12165063Y-13360531D01*
X12165063Y-13360531D02*
X12174586Y-13351008D01*
X12174586Y-13351008D02*
X12193634Y-13341484D01*
X12346015Y-13522436D02*
X12355539Y-13531960D01*
X12355539Y-13531960D02*
X12346015Y-13541484D01*
X12346015Y-13541484D02*
X12336491Y-13531960D01*
X12336491Y-13531960D02*
X12346015Y-13522436D01*
X12346015Y-13522436D02*
X12346015Y-13541484D01*
X12479348Y-13341484D02*
X12498396Y-13341484D01*
X12498396Y-13341484D02*
X12517444Y-13351008D01*
X12517444Y-13351008D02*
X12526967Y-13360531D01*
X12526967Y-13360531D02*
X12536491Y-13379579D01*
X12536491Y-13379579D02*
X12546015Y-13417674D01*
X12546015Y-13417674D02*
X12546015Y-13465293D01*
X12546015Y-13465293D02*
X12536491Y-13503388D01*
X12536491Y-13503388D02*
X12526967Y-13522436D01*
X12526967Y-13522436D02*
X12517444Y-13531960D01*
X12517444Y-13531960D02*
X12498396Y-13541484D01*
X12498396Y-13541484D02*
X12479348Y-13541484D01*
X12479348Y-13541484D02*
X12460301Y-13531960D01*
X12460301Y-13531960D02*
X12450777Y-13522436D01*
X12450777Y-13522436D02*
X12441253Y-13503388D01*
X12441253Y-13503388D02*
X12431729Y-13465293D01*
X12431729Y-13465293D02*
X12431729Y-13417674D01*
X12431729Y-13417674D02*
X12441253Y-13379579D01*
X12441253Y-13379579D02*
X12450777Y-13360531D01*
X12450777Y-13360531D02*
X12460301Y-13351008D01*
X12460301Y-13351008D02*
X12479348Y-13341484D01*
X12660301Y-13427198D02*
X12641253Y-13417674D01*
X12641253Y-13417674D02*
X12631729Y-13408150D01*
X12631729Y-13408150D02*
X12622206Y-13389103D01*
X12622206Y-13389103D02*
X12622206Y-13379579D01*
X12622206Y-13379579D02*
X12631729Y-13360531D01*
X12631729Y-13360531D02*
X12641253Y-13351008D01*
X12641253Y-13351008D02*
X12660301Y-13341484D01*
X12660301Y-13341484D02*
X12698396Y-13341484D01*
X12698396Y-13341484D02*
X12717444Y-13351008D01*
X12717444Y-13351008D02*
X12726967Y-13360531D01*
X12726967Y-13360531D02*
X12736491Y-13379579D01*
X12736491Y-13379579D02*
X12736491Y-13389103D01*
X12736491Y-13389103D02*
X12726967Y-13408150D01*
X12726967Y-13408150D02*
X12717444Y-13417674D01*
X12717444Y-13417674D02*
X12698396Y-13427198D01*
X12698396Y-13427198D02*
X12660301Y-13427198D01*
X12660301Y-13427198D02*
X12641253Y-13436722D01*
X12641253Y-13436722D02*
X12631729Y-13446246D01*
X12631729Y-13446246D02*
X12622206Y-13465293D01*
X12622206Y-13465293D02*
X12622206Y-13503388D01*
X12622206Y-13503388D02*
X12631729Y-13522436D01*
X12631729Y-13522436D02*
X12641253Y-13531960D01*
X12641253Y-13531960D02*
X12660301Y-13541484D01*
X12660301Y-13541484D02*
X12698396Y-13541484D01*
X12698396Y-13541484D02*
X12717444Y-13531960D01*
X12717444Y-13531960D02*
X12726967Y-13522436D01*
X12726967Y-13522436D02*
X12736491Y-13503388D01*
X12736491Y-13503388D02*
X12736491Y-13465293D01*
X12736491Y-13465293D02*
X12726967Y-13446246D01*
X12726967Y-13446246D02*
X12717444Y-13436722D01*
X12717444Y-13436722D02*
X12698396Y-13427198D01*
X12907920Y-13341484D02*
X12869825Y-13341484D01*
X12869825Y-13341484D02*
X12850777Y-13351008D01*
X12850777Y-13351008D02*
X12841253Y-13360531D01*
X12841253Y-13360531D02*
X12822206Y-13389103D01*
X12822206Y-13389103D02*
X12812682Y-13427198D01*
X12812682Y-13427198D02*
X12812682Y-13503388D01*
X12812682Y-13503388D02*
X12822206Y-13522436D01*
X12822206Y-13522436D02*
X12831729Y-13531960D01*
X12831729Y-13531960D02*
X12850777Y-13541484D01*
X12850777Y-13541484D02*
X12888872Y-13541484D01*
X12888872Y-13541484D02*
X12907920Y-13531960D01*
X12907920Y-13531960D02*
X12917444Y-13522436D01*
X12917444Y-13522436D02*
X12926967Y-13503388D01*
X12926967Y-13503388D02*
X12926967Y-13455769D01*
X12926967Y-13455769D02*
X12917444Y-13436722D01*
X12917444Y-13436722D02*
X12907920Y-13427198D01*
X12907920Y-13427198D02*
X12888872Y-13417674D01*
X12888872Y-13417674D02*
X12850777Y-13417674D01*
X12850777Y-13417674D02*
X12831729Y-13427198D01*
X12831729Y-13427198D02*
X12822206Y-13436722D01*
X12822206Y-13436722D02*
X12812682Y-13455769D01*
X13098396Y-13341484D02*
X13060301Y-13341484D01*
X13060301Y-13341484D02*
X13041253Y-13351008D01*
X13041253Y-13351008D02*
X13031729Y-13360531D01*
X13031729Y-13360531D02*
X13012682Y-13389103D01*
X13012682Y-13389103D02*
X13003158Y-13427198D01*
X13003158Y-13427198D02*
X13003158Y-13503388D01*
X13003158Y-13503388D02*
X13012682Y-13522436D01*
X13012682Y-13522436D02*
X13022206Y-13531960D01*
X13022206Y-13531960D02*
X13041253Y-13541484D01*
X13041253Y-13541484D02*
X13079348Y-13541484D01*
X13079348Y-13541484D02*
X13098396Y-13531960D01*
X13098396Y-13531960D02*
X13107920Y-13522436D01*
X13107920Y-13522436D02*
X13117444Y-13503388D01*
X13117444Y-13503388D02*
X13117444Y-13455769D01*
X13117444Y-13455769D02*
X13107920Y-13436722D01*
X13107920Y-13436722D02*
X13098396Y-13427198D01*
X13098396Y-13427198D02*
X13079348Y-13417674D01*
X13079348Y-13417674D02*
X13041253Y-13417674D01*
X13041253Y-13417674D02*
X13022206Y-13427198D01*
X13022206Y-13427198D02*
X13012682Y-13436722D01*
X13012682Y-13436722D02*
X13003158Y-13455769D01*
X13193634Y-13341484D02*
X13193634Y-13379579D01*
X13269825Y-13341484D02*
X13269825Y-13379579D01*
X13565063Y-13617674D02*
X13555539Y-13608150D01*
X13555539Y-13608150D02*
X13536491Y-13579579D01*
X13536491Y-13579579D02*
X13526968Y-13560531D01*
X13526968Y-13560531D02*
X13517444Y-13531960D01*
X13517444Y-13531960D02*
X13507920Y-13484341D01*
X13507920Y-13484341D02*
X13507920Y-13446246D01*
X13507920Y-13446246D02*
X13517444Y-13398627D01*
X13517444Y-13398627D02*
X13526968Y-13370055D01*
X13526968Y-13370055D02*
X13536491Y-13351008D01*
X13536491Y-13351008D02*
X13555539Y-13322436D01*
X13555539Y-13322436D02*
X13565063Y-13312912D01*
X13631729Y-13360531D02*
X13641253Y-13351008D01*
X13641253Y-13351008D02*
X13660301Y-13341484D01*
X13660301Y-13341484D02*
X13707920Y-13341484D01*
X13707920Y-13341484D02*
X13726968Y-13351008D01*
X13726968Y-13351008D02*
X13736491Y-13360531D01*
X13736491Y-13360531D02*
X13746015Y-13379579D01*
X13746015Y-13379579D02*
X13746015Y-13398627D01*
X13746015Y-13398627D02*
X13736491Y-13427198D01*
X13736491Y-13427198D02*
X13622206Y-13541484D01*
X13622206Y-13541484D02*
X13746015Y-13541484D01*
X13984110Y-13541484D02*
X13984110Y-13341484D01*
X14069825Y-13541484D02*
X14069825Y-13436722D01*
X14069825Y-13436722D02*
X14060301Y-13417674D01*
X14060301Y-13417674D02*
X14041253Y-13408150D01*
X14041253Y-13408150D02*
X14012682Y-13408150D01*
X14012682Y-13408150D02*
X13993634Y-13417674D01*
X13993634Y-13417674D02*
X13984110Y-13427198D01*
X14193634Y-13541484D02*
X14174587Y-13531960D01*
X14174587Y-13531960D02*
X14165063Y-13522436D01*
X14165063Y-13522436D02*
X14155539Y-13503388D01*
X14155539Y-13503388D02*
X14155539Y-13446246D01*
X14155539Y-13446246D02*
X14165063Y-13427198D01*
X14165063Y-13427198D02*
X14174587Y-13417674D01*
X14174587Y-13417674D02*
X14193634Y-13408150D01*
X14193634Y-13408150D02*
X14222206Y-13408150D01*
X14222206Y-13408150D02*
X14241253Y-13417674D01*
X14241253Y-13417674D02*
X14250777Y-13427198D01*
X14250777Y-13427198D02*
X14260301Y-13446246D01*
X14260301Y-13446246D02*
X14260301Y-13503388D01*
X14260301Y-13503388D02*
X14250777Y-13522436D01*
X14250777Y-13522436D02*
X14241253Y-13531960D01*
X14241253Y-13531960D02*
X14222206Y-13541484D01*
X14222206Y-13541484D02*
X14193634Y-13541484D01*
X14374587Y-13541484D02*
X14355539Y-13531960D01*
X14355539Y-13531960D02*
X14346015Y-13512912D01*
X14346015Y-13512912D02*
X14346015Y-13341484D01*
X14526968Y-13531960D02*
X14507920Y-13541484D01*
X14507920Y-13541484D02*
X14469825Y-13541484D01*
X14469825Y-13541484D02*
X14450777Y-13531960D01*
X14450777Y-13531960D02*
X14441253Y-13512912D01*
X14441253Y-13512912D02*
X14441253Y-13436722D01*
X14441253Y-13436722D02*
X14450777Y-13417674D01*
X14450777Y-13417674D02*
X14469825Y-13408150D01*
X14469825Y-13408150D02*
X14507920Y-13408150D01*
X14507920Y-13408150D02*
X14526968Y-13417674D01*
X14526968Y-13417674D02*
X14536491Y-13436722D01*
X14536491Y-13436722D02*
X14536491Y-13455769D01*
X14536491Y-13455769D02*
X14441253Y-13474817D01*
X14612682Y-13531960D02*
X14631730Y-13541484D01*
X14631730Y-13541484D02*
X14669825Y-13541484D01*
X14669825Y-13541484D02*
X14688872Y-13531960D01*
X14688872Y-13531960D02*
X14698396Y-13512912D01*
X14698396Y-13512912D02*
X14698396Y-13503388D01*
X14698396Y-13503388D02*
X14688872Y-13484341D01*
X14688872Y-13484341D02*
X14669825Y-13474817D01*
X14669825Y-13474817D02*
X14641253Y-13474817D01*
X14641253Y-13474817D02*
X14622206Y-13465293D01*
X14622206Y-13465293D02*
X14612682Y-13446246D01*
X14612682Y-13446246D02*
X14612682Y-13436722D01*
X14612682Y-13436722D02*
X14622206Y-13417674D01*
X14622206Y-13417674D02*
X14641253Y-13408150D01*
X14641253Y-13408150D02*
X14669825Y-13408150D01*
X14669825Y-13408150D02*
X14688872Y-13417674D01*
X14765063Y-13617674D02*
X14774587Y-13608150D01*
X14774587Y-13608150D02*
X14793634Y-13579579D01*
X14793634Y-13579579D02*
X14803158Y-13560531D01*
X14803158Y-13560531D02*
X14812682Y-13531960D01*
X14812682Y-13531960D02*
X14822206Y-13484341D01*
X14822206Y-13484341D02*
X14822206Y-13446246D01*
X14822206Y-13446246D02*
X14812682Y-13398627D01*
X14812682Y-13398627D02*
X14803158Y-13370055D01*
X14803158Y-13370055D02*
X14793634Y-13351008D01*
X14793634Y-13351008D02*
X14774587Y-13322436D01*
X14774587Y-13322436D02*
X14765063Y-13312912D01*
X15126968Y-13617674D02*
X15117444Y-13608150D01*
X15117444Y-13608150D02*
X15098396Y-13579579D01*
X15098396Y-13579579D02*
X15088872Y-13560531D01*
X15088872Y-13560531D02*
X15079349Y-13531960D01*
X15079349Y-13531960D02*
X15069825Y-13484341D01*
X15069825Y-13484341D02*
X15069825Y-13446246D01*
X15069825Y-13446246D02*
X15079349Y-13398627D01*
X15079349Y-13398627D02*
X15088872Y-13370055D01*
X15088872Y-13370055D02*
X15098396Y-13351008D01*
X15098396Y-13351008D02*
X15117444Y-13322436D01*
X15117444Y-13322436D02*
X15126968Y-13312912D01*
X15203158Y-13408150D02*
X15203158Y-13541484D01*
X15203158Y-13427198D02*
X15212682Y-13417674D01*
X15212682Y-13417674D02*
X15231730Y-13408150D01*
X15231730Y-13408150D02*
X15260301Y-13408150D01*
X15260301Y-13408150D02*
X15279349Y-13417674D01*
X15279349Y-13417674D02*
X15288872Y-13436722D01*
X15288872Y-13436722D02*
X15288872Y-13541484D01*
X15412682Y-13541484D02*
X15393634Y-13531960D01*
X15393634Y-13531960D02*
X15384111Y-13522436D01*
X15384111Y-13522436D02*
X15374587Y-13503388D01*
X15374587Y-13503388D02*
X15374587Y-13446246D01*
X15374587Y-13446246D02*
X15384111Y-13427198D01*
X15384111Y-13427198D02*
X15393634Y-13417674D01*
X15393634Y-13417674D02*
X15412682Y-13408150D01*
X15412682Y-13408150D02*
X15441253Y-13408150D01*
X15441253Y-13408150D02*
X15460301Y-13417674D01*
X15460301Y-13417674D02*
X15469825Y-13427198D01*
X15469825Y-13427198D02*
X15479349Y-13446246D01*
X15479349Y-13446246D02*
X15479349Y-13503388D01*
X15479349Y-13503388D02*
X15469825Y-13522436D01*
X15469825Y-13522436D02*
X15460301Y-13531960D01*
X15460301Y-13531960D02*
X15441253Y-13541484D01*
X15441253Y-13541484D02*
X15412682Y-13541484D01*
X15536492Y-13408150D02*
X15612682Y-13408150D01*
X15565063Y-13341484D02*
X15565063Y-13512912D01*
X15565063Y-13512912D02*
X15574587Y-13531960D01*
X15574587Y-13531960D02*
X15593634Y-13541484D01*
X15593634Y-13541484D02*
X15612682Y-13541484D01*
X15831730Y-13408150D02*
X15831730Y-13608150D01*
X15831730Y-13417674D02*
X15850777Y-13408150D01*
X15850777Y-13408150D02*
X15888873Y-13408150D01*
X15888873Y-13408150D02*
X15907920Y-13417674D01*
X15907920Y-13417674D02*
X15917444Y-13427198D01*
X15917444Y-13427198D02*
X15926968Y-13446246D01*
X15926968Y-13446246D02*
X15926968Y-13503388D01*
X15926968Y-13503388D02*
X15917444Y-13522436D01*
X15917444Y-13522436D02*
X15907920Y-13531960D01*
X15907920Y-13531960D02*
X15888873Y-13541484D01*
X15888873Y-13541484D02*
X15850777Y-13541484D01*
X15850777Y-13541484D02*
X15831730Y-13531960D01*
X16041253Y-13541484D02*
X16022206Y-13531960D01*
X16022206Y-13531960D02*
X16012682Y-13512912D01*
X16012682Y-13512912D02*
X16012682Y-13341484D01*
X16203158Y-13541484D02*
X16203158Y-13436722D01*
X16203158Y-13436722D02*
X16193634Y-13417674D01*
X16193634Y-13417674D02*
X16174587Y-13408150D01*
X16174587Y-13408150D02*
X16136492Y-13408150D01*
X16136492Y-13408150D02*
X16117444Y-13417674D01*
X16203158Y-13531960D02*
X16184111Y-13541484D01*
X16184111Y-13541484D02*
X16136492Y-13541484D01*
X16136492Y-13541484D02*
X16117444Y-13531960D01*
X16117444Y-13531960D02*
X16107920Y-13512912D01*
X16107920Y-13512912D02*
X16107920Y-13493865D01*
X16107920Y-13493865D02*
X16117444Y-13474817D01*
X16117444Y-13474817D02*
X16136492Y-13465293D01*
X16136492Y-13465293D02*
X16184111Y-13465293D01*
X16184111Y-13465293D02*
X16203158Y-13455769D01*
X16269825Y-13408150D02*
X16346015Y-13408150D01*
X16298396Y-13341484D02*
X16298396Y-13512912D01*
X16298396Y-13512912D02*
X16307920Y-13531960D01*
X16307920Y-13531960D02*
X16326968Y-13541484D01*
X16326968Y-13541484D02*
X16346015Y-13541484D01*
X16488873Y-13531960D02*
X16469825Y-13541484D01*
X16469825Y-13541484D02*
X16431730Y-13541484D01*
X16431730Y-13541484D02*
X16412682Y-13531960D01*
X16412682Y-13531960D02*
X16403158Y-13512912D01*
X16403158Y-13512912D02*
X16403158Y-13436722D01*
X16403158Y-13436722D02*
X16412682Y-13417674D01*
X16412682Y-13417674D02*
X16431730Y-13408150D01*
X16431730Y-13408150D02*
X16469825Y-13408150D01*
X16469825Y-13408150D02*
X16488873Y-13417674D01*
X16488873Y-13417674D02*
X16498396Y-13436722D01*
X16498396Y-13436722D02*
X16498396Y-13455769D01*
X16498396Y-13455769D02*
X16403158Y-13474817D01*
X16669825Y-13541484D02*
X16669825Y-13341484D01*
X16669825Y-13531960D02*
X16650777Y-13541484D01*
X16650777Y-13541484D02*
X16612682Y-13541484D01*
X16612682Y-13541484D02*
X16593634Y-13531960D01*
X16593634Y-13531960D02*
X16584111Y-13522436D01*
X16584111Y-13522436D02*
X16574587Y-13503388D01*
X16574587Y-13503388D02*
X16574587Y-13446246D01*
X16574587Y-13446246D02*
X16584111Y-13427198D01*
X16584111Y-13427198D02*
X16593634Y-13417674D01*
X16593634Y-13417674D02*
X16612682Y-13408150D01*
X16612682Y-13408150D02*
X16650777Y-13408150D01*
X16650777Y-13408150D02*
X16669825Y-13417674D01*
X16746015Y-13617674D02*
X16755539Y-13608150D01*
X16755539Y-13608150D02*
X16774587Y-13579579D01*
X16774587Y-13579579D02*
X16784111Y-13560531D01*
X16784111Y-13560531D02*
X16793635Y-13531960D01*
X16793635Y-13531960D02*
X16803158Y-13484341D01*
X16803158Y-13484341D02*
X16803158Y-13446246D01*
X16803158Y-13446246D02*
X16793635Y-13398627D01*
X16793635Y-13398627D02*
X16784111Y-13370055D01*
X16784111Y-13370055D02*
X16774587Y-13351008D01*
X16774587Y-13351008D02*
X16755539Y-13322436D01*
X16755539Y-13322436D02*
X16746015Y-13312912D01*
X9990000Y-13770000D02*
G75*
G02*
X9790000Y-13770000I-100000J0D01*
G01*
X9790000Y-13770000D02*
G75*
G02*
X9990000Y-13770000I100000J0D01*
G01*
X10241253Y-13680531D02*
X10250777Y-13671008D01*
X10250777Y-13671008D02*
X10269824Y-13661484D01*
X10269824Y-13661484D02*
X10317444Y-13661484D01*
X10317444Y-13661484D02*
X10336491Y-13671008D01*
X10336491Y-13671008D02*
X10346015Y-13680531D01*
X10346015Y-13680531D02*
X10355539Y-13699579D01*
X10355539Y-13699579D02*
X10355539Y-13718627D01*
X10355539Y-13718627D02*
X10346015Y-13747198D01*
X10346015Y-13747198D02*
X10231729Y-13861484D01*
X10231729Y-13861484D02*
X10355539Y-13861484D01*
X10441253Y-13842436D02*
X10450777Y-13851960D01*
X10450777Y-13851960D02*
X10441253Y-13861484D01*
X10441253Y-13861484D02*
X10431729Y-13851960D01*
X10431729Y-13851960D02*
X10441253Y-13842436D01*
X10441253Y-13842436D02*
X10441253Y-13861484D01*
X10631729Y-13661484D02*
X10536491Y-13661484D01*
X10536491Y-13661484D02*
X10526967Y-13756722D01*
X10526967Y-13756722D02*
X10536491Y-13747198D01*
X10536491Y-13747198D02*
X10555539Y-13737674D01*
X10555539Y-13737674D02*
X10603158Y-13737674D01*
X10603158Y-13737674D02*
X10622205Y-13747198D01*
X10622205Y-13747198D02*
X10631729Y-13756722D01*
X10631729Y-13756722D02*
X10641253Y-13775769D01*
X10641253Y-13775769D02*
X10641253Y-13823388D01*
X10641253Y-13823388D02*
X10631729Y-13842436D01*
X10631729Y-13842436D02*
X10622205Y-13851960D01*
X10622205Y-13851960D02*
X10603158Y-13861484D01*
X10603158Y-13861484D02*
X10555539Y-13861484D01*
X10555539Y-13861484D02*
X10536491Y-13851960D01*
X10536491Y-13851960D02*
X10526967Y-13842436D01*
X10765063Y-13661484D02*
X10784110Y-13661484D01*
X10784110Y-13661484D02*
X10803158Y-13671008D01*
X10803158Y-13671008D02*
X10812682Y-13680531D01*
X10812682Y-13680531D02*
X10822205Y-13699579D01*
X10822205Y-13699579D02*
X10831729Y-13737674D01*
X10831729Y-13737674D02*
X10831729Y-13785293D01*
X10831729Y-13785293D02*
X10822205Y-13823388D01*
X10822205Y-13823388D02*
X10812682Y-13842436D01*
X10812682Y-13842436D02*
X10803158Y-13851960D01*
X10803158Y-13851960D02*
X10784110Y-13861484D01*
X10784110Y-13861484D02*
X10765063Y-13861484D01*
X10765063Y-13861484D02*
X10746015Y-13851960D01*
X10746015Y-13851960D02*
X10736491Y-13842436D01*
X10736491Y-13842436D02*
X10726967Y-13823388D01*
X10726967Y-13823388D02*
X10717444Y-13785293D01*
X10717444Y-13785293D02*
X10717444Y-13737674D01*
X10717444Y-13737674D02*
X10726967Y-13699579D01*
X10726967Y-13699579D02*
X10736491Y-13680531D01*
X10736491Y-13680531D02*
X10746015Y-13671008D01*
X10746015Y-13671008D02*
X10765063Y-13661484D01*
X10955539Y-13661484D02*
X10974586Y-13661484D01*
X10974586Y-13661484D02*
X10993634Y-13671008D01*
X10993634Y-13671008D02*
X11003158Y-13680531D01*
X11003158Y-13680531D02*
X11012682Y-13699579D01*
X11012682Y-13699579D02*
X11022205Y-13737674D01*
X11022205Y-13737674D02*
X11022205Y-13785293D01*
X11022205Y-13785293D02*
X11012682Y-13823388D01*
X11012682Y-13823388D02*
X11003158Y-13842436D01*
X11003158Y-13842436D02*
X10993634Y-13851960D01*
X10993634Y-13851960D02*
X10974586Y-13861484D01*
X10974586Y-13861484D02*
X10955539Y-13861484D01*
X10955539Y-13861484D02*
X10936491Y-13851960D01*
X10936491Y-13851960D02*
X10926967Y-13842436D01*
X10926967Y-13842436D02*
X10917444Y-13823388D01*
X10917444Y-13823388D02*
X10907920Y-13785293D01*
X10907920Y-13785293D02*
X10907920Y-13737674D01*
X10907920Y-13737674D02*
X10917444Y-13699579D01*
X10917444Y-13699579D02*
X10926967Y-13680531D01*
X10926967Y-13680531D02*
X10936491Y-13671008D01*
X10936491Y-13671008D02*
X10955539Y-13661484D01*
X11107920Y-13861484D02*
X11107920Y-13728150D01*
X11107920Y-13747198D02*
X11117444Y-13737674D01*
X11117444Y-13737674D02*
X11136491Y-13728150D01*
X11136491Y-13728150D02*
X11165063Y-13728150D01*
X11165063Y-13728150D02*
X11184110Y-13737674D01*
X11184110Y-13737674D02*
X11193634Y-13756722D01*
X11193634Y-13756722D02*
X11193634Y-13861484D01*
X11193634Y-13756722D02*
X11203158Y-13737674D01*
X11203158Y-13737674D02*
X11222205Y-13728150D01*
X11222205Y-13728150D02*
X11250777Y-13728150D01*
X11250777Y-13728150D02*
X11269824Y-13737674D01*
X11269824Y-13737674D02*
X11279348Y-13756722D01*
X11279348Y-13756722D02*
X11279348Y-13861484D01*
X11374586Y-13861484D02*
X11374586Y-13728150D01*
X11374586Y-13747198D02*
X11384110Y-13737674D01*
X11384110Y-13737674D02*
X11403158Y-13728150D01*
X11403158Y-13728150D02*
X11431729Y-13728150D01*
X11431729Y-13728150D02*
X11450777Y-13737674D01*
X11450777Y-13737674D02*
X11460301Y-13756722D01*
X11460301Y-13756722D02*
X11460301Y-13861484D01*
X11460301Y-13756722D02*
X11469824Y-13737674D01*
X11469824Y-13737674D02*
X11488872Y-13728150D01*
X11488872Y-13728150D02*
X11517443Y-13728150D01*
X11517443Y-13728150D02*
X11536491Y-13737674D01*
X11536491Y-13737674D02*
X11546015Y-13756722D01*
X11546015Y-13756722D02*
X11546015Y-13861484D01*
X11936491Y-13651960D02*
X11765063Y-13909103D01*
X12193634Y-13661484D02*
X12212682Y-13661484D01*
X12212682Y-13661484D02*
X12231729Y-13671008D01*
X12231729Y-13671008D02*
X12241253Y-13680531D01*
X12241253Y-13680531D02*
X12250777Y-13699579D01*
X12250777Y-13699579D02*
X12260301Y-13737674D01*
X12260301Y-13737674D02*
X12260301Y-13785293D01*
X12260301Y-13785293D02*
X12250777Y-13823388D01*
X12250777Y-13823388D02*
X12241253Y-13842436D01*
X12241253Y-13842436D02*
X12231729Y-13851960D01*
X12231729Y-13851960D02*
X12212682Y-13861484D01*
X12212682Y-13861484D02*
X12193634Y-13861484D01*
X12193634Y-13861484D02*
X12174586Y-13851960D01*
X12174586Y-13851960D02*
X12165063Y-13842436D01*
X12165063Y-13842436D02*
X12155539Y-13823388D01*
X12155539Y-13823388D02*
X12146015Y-13785293D01*
X12146015Y-13785293D02*
X12146015Y-13737674D01*
X12146015Y-13737674D02*
X12155539Y-13699579D01*
X12155539Y-13699579D02*
X12165063Y-13680531D01*
X12165063Y-13680531D02*
X12174586Y-13671008D01*
X12174586Y-13671008D02*
X12193634Y-13661484D01*
X12346015Y-13842436D02*
X12355539Y-13851960D01*
X12355539Y-13851960D02*
X12346015Y-13861484D01*
X12346015Y-13861484D02*
X12336491Y-13851960D01*
X12336491Y-13851960D02*
X12346015Y-13842436D01*
X12346015Y-13842436D02*
X12346015Y-13861484D01*
X12479348Y-13661484D02*
X12498396Y-13661484D01*
X12498396Y-13661484D02*
X12517444Y-13671008D01*
X12517444Y-13671008D02*
X12526967Y-13680531D01*
X12526967Y-13680531D02*
X12536491Y-13699579D01*
X12536491Y-13699579D02*
X12546015Y-13737674D01*
X12546015Y-13737674D02*
X12546015Y-13785293D01*
X12546015Y-13785293D02*
X12536491Y-13823388D01*
X12536491Y-13823388D02*
X12526967Y-13842436D01*
X12526967Y-13842436D02*
X12517444Y-13851960D01*
X12517444Y-13851960D02*
X12498396Y-13861484D01*
X12498396Y-13861484D02*
X12479348Y-13861484D01*
X12479348Y-13861484D02*
X12460301Y-13851960D01*
X12460301Y-13851960D02*
X12450777Y-13842436D01*
X12450777Y-13842436D02*
X12441253Y-13823388D01*
X12441253Y-13823388D02*
X12431729Y-13785293D01*
X12431729Y-13785293D02*
X12431729Y-13737674D01*
X12431729Y-13737674D02*
X12441253Y-13699579D01*
X12441253Y-13699579D02*
X12450777Y-13680531D01*
X12450777Y-13680531D02*
X12460301Y-13671008D01*
X12460301Y-13671008D02*
X12479348Y-13661484D01*
X12641253Y-13861484D02*
X12679348Y-13861484D01*
X12679348Y-13861484D02*
X12698396Y-13851960D01*
X12698396Y-13851960D02*
X12707920Y-13842436D01*
X12707920Y-13842436D02*
X12726967Y-13813865D01*
X12726967Y-13813865D02*
X12736491Y-13775769D01*
X12736491Y-13775769D02*
X12736491Y-13699579D01*
X12736491Y-13699579D02*
X12726967Y-13680531D01*
X12726967Y-13680531D02*
X12717444Y-13671008D01*
X12717444Y-13671008D02*
X12698396Y-13661484D01*
X12698396Y-13661484D02*
X12660301Y-13661484D01*
X12660301Y-13661484D02*
X12641253Y-13671008D01*
X12641253Y-13671008D02*
X12631729Y-13680531D01*
X12631729Y-13680531D02*
X12622206Y-13699579D01*
X12622206Y-13699579D02*
X12622206Y-13747198D01*
X12622206Y-13747198D02*
X12631729Y-13766246D01*
X12631729Y-13766246D02*
X12641253Y-13775769D01*
X12641253Y-13775769D02*
X12660301Y-13785293D01*
X12660301Y-13785293D02*
X12698396Y-13785293D01*
X12698396Y-13785293D02*
X12717444Y-13775769D01*
X12717444Y-13775769D02*
X12726967Y-13766246D01*
X12726967Y-13766246D02*
X12736491Y-13747198D01*
X12850777Y-13747198D02*
X12831729Y-13737674D01*
X12831729Y-13737674D02*
X12822206Y-13728150D01*
X12822206Y-13728150D02*
X12812682Y-13709103D01*
X12812682Y-13709103D02*
X12812682Y-13699579D01*
X12812682Y-13699579D02*
X12822206Y-13680531D01*
X12822206Y-13680531D02*
X12831729Y-13671008D01*
X12831729Y-13671008D02*
X12850777Y-13661484D01*
X12850777Y-13661484D02*
X12888872Y-13661484D01*
X12888872Y-13661484D02*
X12907920Y-13671008D01*
X12907920Y-13671008D02*
X12917444Y-13680531D01*
X12917444Y-13680531D02*
X12926967Y-13699579D01*
X12926967Y-13699579D02*
X12926967Y-13709103D01*
X12926967Y-13709103D02*
X12917444Y-13728150D01*
X12917444Y-13728150D02*
X12907920Y-13737674D01*
X12907920Y-13737674D02*
X12888872Y-13747198D01*
X12888872Y-13747198D02*
X12850777Y-13747198D01*
X12850777Y-13747198D02*
X12831729Y-13756722D01*
X12831729Y-13756722D02*
X12822206Y-13766246D01*
X12822206Y-13766246D02*
X12812682Y-13785293D01*
X12812682Y-13785293D02*
X12812682Y-13823388D01*
X12812682Y-13823388D02*
X12822206Y-13842436D01*
X12822206Y-13842436D02*
X12831729Y-13851960D01*
X12831729Y-13851960D02*
X12850777Y-13861484D01*
X12850777Y-13861484D02*
X12888872Y-13861484D01*
X12888872Y-13861484D02*
X12907920Y-13851960D01*
X12907920Y-13851960D02*
X12917444Y-13842436D01*
X12917444Y-13842436D02*
X12926967Y-13823388D01*
X12926967Y-13823388D02*
X12926967Y-13785293D01*
X12926967Y-13785293D02*
X12917444Y-13766246D01*
X12917444Y-13766246D02*
X12907920Y-13756722D01*
X12907920Y-13756722D02*
X12888872Y-13747198D01*
X13098396Y-13728150D02*
X13098396Y-13861484D01*
X13050777Y-13651960D02*
X13003158Y-13794817D01*
X13003158Y-13794817D02*
X13126967Y-13794817D01*
X13193634Y-13661484D02*
X13193634Y-13699579D01*
X13269825Y-13661484D02*
X13269825Y-13699579D01*
X13565063Y-13937674D02*
X13555539Y-13928150D01*
X13555539Y-13928150D02*
X13536491Y-13899579D01*
X13536491Y-13899579D02*
X13526968Y-13880531D01*
X13526968Y-13880531D02*
X13517444Y-13851960D01*
X13517444Y-13851960D02*
X13507920Y-13804341D01*
X13507920Y-13804341D02*
X13507920Y-13766246D01*
X13507920Y-13766246D02*
X13517444Y-13718627D01*
X13517444Y-13718627D02*
X13526968Y-13690055D01*
X13526968Y-13690055D02*
X13536491Y-13671008D01*
X13536491Y-13671008D02*
X13555539Y-13642436D01*
X13555539Y-13642436D02*
X13565063Y-13632912D01*
X13726968Y-13728150D02*
X13726968Y-13861484D01*
X13679348Y-13651960D02*
X13631729Y-13794817D01*
X13631729Y-13794817D02*
X13755539Y-13794817D01*
X13984110Y-13861484D02*
X13984110Y-13661484D01*
X14069825Y-13861484D02*
X14069825Y-13756722D01*
X14069825Y-13756722D02*
X14060301Y-13737674D01*
X14060301Y-13737674D02*
X14041253Y-13728150D01*
X14041253Y-13728150D02*
X14012682Y-13728150D01*
X14012682Y-13728150D02*
X13993634Y-13737674D01*
X13993634Y-13737674D02*
X13984110Y-13747198D01*
X14193634Y-13861484D02*
X14174587Y-13851960D01*
X14174587Y-13851960D02*
X14165063Y-13842436D01*
X14165063Y-13842436D02*
X14155539Y-13823388D01*
X14155539Y-13823388D02*
X14155539Y-13766246D01*
X14155539Y-13766246D02*
X14165063Y-13747198D01*
X14165063Y-13747198D02*
X14174587Y-13737674D01*
X14174587Y-13737674D02*
X14193634Y-13728150D01*
X14193634Y-13728150D02*
X14222206Y-13728150D01*
X14222206Y-13728150D02*
X14241253Y-13737674D01*
X14241253Y-13737674D02*
X14250777Y-13747198D01*
X14250777Y-13747198D02*
X14260301Y-13766246D01*
X14260301Y-13766246D02*
X14260301Y-13823388D01*
X14260301Y-13823388D02*
X14250777Y-13842436D01*
X14250777Y-13842436D02*
X14241253Y-13851960D01*
X14241253Y-13851960D02*
X14222206Y-13861484D01*
X14222206Y-13861484D02*
X14193634Y-13861484D01*
X14374587Y-13861484D02*
X14355539Y-13851960D01*
X14355539Y-13851960D02*
X14346015Y-13832912D01*
X14346015Y-13832912D02*
X14346015Y-13661484D01*
X14526968Y-13851960D02*
X14507920Y-13861484D01*
X14507920Y-13861484D02*
X14469825Y-13861484D01*
X14469825Y-13861484D02*
X14450777Y-13851960D01*
X14450777Y-13851960D02*
X14441253Y-13832912D01*
X14441253Y-13832912D02*
X14441253Y-13756722D01*
X14441253Y-13756722D02*
X14450777Y-13737674D01*
X14450777Y-13737674D02*
X14469825Y-13728150D01*
X14469825Y-13728150D02*
X14507920Y-13728150D01*
X14507920Y-13728150D02*
X14526968Y-13737674D01*
X14526968Y-13737674D02*
X14536491Y-13756722D01*
X14536491Y-13756722D02*
X14536491Y-13775769D01*
X14536491Y-13775769D02*
X14441253Y-13794817D01*
X14612682Y-13851960D02*
X14631730Y-13861484D01*
X14631730Y-13861484D02*
X14669825Y-13861484D01*
X14669825Y-13861484D02*
X14688872Y-13851960D01*
X14688872Y-13851960D02*
X14698396Y-13832912D01*
X14698396Y-13832912D02*
X14698396Y-13823388D01*
X14698396Y-13823388D02*
X14688872Y-13804341D01*
X14688872Y-13804341D02*
X14669825Y-13794817D01*
X14669825Y-13794817D02*
X14641253Y-13794817D01*
X14641253Y-13794817D02*
X14622206Y-13785293D01*
X14622206Y-13785293D02*
X14612682Y-13766246D01*
X14612682Y-13766246D02*
X14612682Y-13756722D01*
X14612682Y-13756722D02*
X14622206Y-13737674D01*
X14622206Y-13737674D02*
X14641253Y-13728150D01*
X14641253Y-13728150D02*
X14669825Y-13728150D01*
X14669825Y-13728150D02*
X14688872Y-13737674D01*
X14765063Y-13937674D02*
X14774587Y-13928150D01*
X14774587Y-13928150D02*
X14793634Y-13899579D01*
X14793634Y-13899579D02*
X14803158Y-13880531D01*
X14803158Y-13880531D02*
X14812682Y-13851960D01*
X14812682Y-13851960D02*
X14822206Y-13804341D01*
X14822206Y-13804341D02*
X14822206Y-13766246D01*
X14822206Y-13766246D02*
X14812682Y-13718627D01*
X14812682Y-13718627D02*
X14803158Y-13690055D01*
X14803158Y-13690055D02*
X14793634Y-13671008D01*
X14793634Y-13671008D02*
X14774587Y-13642436D01*
X14774587Y-13642436D02*
X14765063Y-13632912D01*
X15126968Y-13937674D02*
X15117444Y-13928150D01*
X15117444Y-13928150D02*
X15098396Y-13899579D01*
X15098396Y-13899579D02*
X15088872Y-13880531D01*
X15088872Y-13880531D02*
X15079349Y-13851960D01*
X15079349Y-13851960D02*
X15069825Y-13804341D01*
X15069825Y-13804341D02*
X15069825Y-13766246D01*
X15069825Y-13766246D02*
X15079349Y-13718627D01*
X15079349Y-13718627D02*
X15088872Y-13690055D01*
X15088872Y-13690055D02*
X15098396Y-13671008D01*
X15098396Y-13671008D02*
X15117444Y-13642436D01*
X15117444Y-13642436D02*
X15126968Y-13632912D01*
X15203158Y-13728150D02*
X15203158Y-13861484D01*
X15203158Y-13747198D02*
X15212682Y-13737674D01*
X15212682Y-13737674D02*
X15231730Y-13728150D01*
X15231730Y-13728150D02*
X15260301Y-13728150D01*
X15260301Y-13728150D02*
X15279349Y-13737674D01*
X15279349Y-13737674D02*
X15288872Y-13756722D01*
X15288872Y-13756722D02*
X15288872Y-13861484D01*
X15412682Y-13861484D02*
X15393634Y-13851960D01*
X15393634Y-13851960D02*
X15384111Y-13842436D01*
X15384111Y-13842436D02*
X15374587Y-13823388D01*
X15374587Y-13823388D02*
X15374587Y-13766246D01*
X15374587Y-13766246D02*
X15384111Y-13747198D01*
X15384111Y-13747198D02*
X15393634Y-13737674D01*
X15393634Y-13737674D02*
X15412682Y-13728150D01*
X15412682Y-13728150D02*
X15441253Y-13728150D01*
X15441253Y-13728150D02*
X15460301Y-13737674D01*
X15460301Y-13737674D02*
X15469825Y-13747198D01*
X15469825Y-13747198D02*
X15479349Y-13766246D01*
X15479349Y-13766246D02*
X15479349Y-13823388D01*
X15479349Y-13823388D02*
X15469825Y-13842436D01*
X15469825Y-13842436D02*
X15460301Y-13851960D01*
X15460301Y-13851960D02*
X15441253Y-13861484D01*
X15441253Y-13861484D02*
X15412682Y-13861484D01*
X15536492Y-13728150D02*
X15612682Y-13728150D01*
X15565063Y-13661484D02*
X15565063Y-13832912D01*
X15565063Y-13832912D02*
X15574587Y-13851960D01*
X15574587Y-13851960D02*
X15593634Y-13861484D01*
X15593634Y-13861484D02*
X15612682Y-13861484D01*
X15831730Y-13728150D02*
X15831730Y-13928150D01*
X15831730Y-13737674D02*
X15850777Y-13728150D01*
X15850777Y-13728150D02*
X15888873Y-13728150D01*
X15888873Y-13728150D02*
X15907920Y-13737674D01*
X15907920Y-13737674D02*
X15917444Y-13747198D01*
X15917444Y-13747198D02*
X15926968Y-13766246D01*
X15926968Y-13766246D02*
X15926968Y-13823388D01*
X15926968Y-13823388D02*
X15917444Y-13842436D01*
X15917444Y-13842436D02*
X15907920Y-13851960D01*
X15907920Y-13851960D02*
X15888873Y-13861484D01*
X15888873Y-13861484D02*
X15850777Y-13861484D01*
X15850777Y-13861484D02*
X15831730Y-13851960D01*
X16041253Y-13861484D02*
X16022206Y-13851960D01*
X16022206Y-13851960D02*
X16012682Y-13832912D01*
X16012682Y-13832912D02*
X16012682Y-13661484D01*
X16203158Y-13861484D02*
X16203158Y-13756722D01*
X16203158Y-13756722D02*
X16193634Y-13737674D01*
X16193634Y-13737674D02*
X16174587Y-13728150D01*
X16174587Y-13728150D02*
X16136492Y-13728150D01*
X16136492Y-13728150D02*
X16117444Y-13737674D01*
X16203158Y-13851960D02*
X16184111Y-13861484D01*
X16184111Y-13861484D02*
X16136492Y-13861484D01*
X16136492Y-13861484D02*
X16117444Y-13851960D01*
X16117444Y-13851960D02*
X16107920Y-13832912D01*
X16107920Y-13832912D02*
X16107920Y-13813865D01*
X16107920Y-13813865D02*
X16117444Y-13794817D01*
X16117444Y-13794817D02*
X16136492Y-13785293D01*
X16136492Y-13785293D02*
X16184111Y-13785293D01*
X16184111Y-13785293D02*
X16203158Y-13775769D01*
X16269825Y-13728150D02*
X16346015Y-13728150D01*
X16298396Y-13661484D02*
X16298396Y-13832912D01*
X16298396Y-13832912D02*
X16307920Y-13851960D01*
X16307920Y-13851960D02*
X16326968Y-13861484D01*
X16326968Y-13861484D02*
X16346015Y-13861484D01*
X16488873Y-13851960D02*
X16469825Y-13861484D01*
X16469825Y-13861484D02*
X16431730Y-13861484D01*
X16431730Y-13861484D02*
X16412682Y-13851960D01*
X16412682Y-13851960D02*
X16403158Y-13832912D01*
X16403158Y-13832912D02*
X16403158Y-13756722D01*
X16403158Y-13756722D02*
X16412682Y-13737674D01*
X16412682Y-13737674D02*
X16431730Y-13728150D01*
X16431730Y-13728150D02*
X16469825Y-13728150D01*
X16469825Y-13728150D02*
X16488873Y-13737674D01*
X16488873Y-13737674D02*
X16498396Y-13756722D01*
X16498396Y-13756722D02*
X16498396Y-13775769D01*
X16498396Y-13775769D02*
X16403158Y-13794817D01*
X16669825Y-13861484D02*
X16669825Y-13661484D01*
X16669825Y-13851960D02*
X16650777Y-13861484D01*
X16650777Y-13861484D02*
X16612682Y-13861484D01*
X16612682Y-13861484D02*
X16593634Y-13851960D01*
X16593634Y-13851960D02*
X16584111Y-13842436D01*
X16584111Y-13842436D02*
X16574587Y-13823388D01*
X16574587Y-13823388D02*
X16574587Y-13766246D01*
X16574587Y-13766246D02*
X16584111Y-13747198D01*
X16584111Y-13747198D02*
X16593634Y-13737674D01*
X16593634Y-13737674D02*
X16612682Y-13728150D01*
X16612682Y-13728150D02*
X16650777Y-13728150D01*
X16650777Y-13728150D02*
X16669825Y-13737674D01*
X16746015Y-13937674D02*
X16755539Y-13928150D01*
X16755539Y-13928150D02*
X16774587Y-13899579D01*
X16774587Y-13899579D02*
X16784111Y-13880531D01*
X16784111Y-13880531D02*
X16793635Y-13851960D01*
X16793635Y-13851960D02*
X16803158Y-13804341D01*
X16803158Y-13804341D02*
X16803158Y-13766246D01*
X16803158Y-13766246D02*
X16793635Y-13718627D01*
X16793635Y-13718627D02*
X16784111Y-13690055D01*
X16784111Y-13690055D02*
X16774587Y-13671008D01*
X16774587Y-13671008D02*
X16755539Y-13642436D01*
X16755539Y-13642436D02*
X16746015Y-13632912D01*
M02*
