%TF.GenerationSoftware,KiCad,Pcbnew,10.0.4*%
%TF.CreationDate,2026-08-27T16:12:59-07:00*%
%TF.ProjectId,halleffectsensor,68616c6c-6566-4666-9563-7473656e736f,rev?*%
%TF.SameCoordinates,Original*%
%TF.FileFunction,Drillmap*%
%TF.FilePolarity,Positive*%
%FSLAX45Y45*%
G04 Gerber Fmt 4.5, Leading zero omitted, Abs format (unit mm)*
G04 Created by KiCad (PCBNEW 10.0.4) date 2026-08-27 16:12:59*
%MOMM*%
%LPD*%
G01*
G04 APERTURE LIST*
%ADD10C,0.200000*%
%ADD11C,0.100000*%
%ADD12C,0.104998*%
%ADD13C,0.250000*%
G04 APERTURE END LIST*
D10*
X10000000Y-10000000D02*
X18000000Y-10000000D01*
X18000000Y-12800000D01*
X10000000Y-12800000D01*
X10000000Y-10000000D01*
D11*
X10460000Y-10760000D02*
X10490000Y-10790000D01*
X10490000Y-10760000D02*
X10460000Y-10790000D01*
X10617081Y-11745000D02*
X10647081Y-11775000D01*
X10647081Y-11745000D02*
X10617081Y-11775000D01*
X10682750Y-10782750D02*
X10712750Y-10812750D01*
X10712750Y-10782750D02*
X10682750Y-10812750D01*
X10808000Y-11010000D02*
X10838000Y-11040000D01*
X10838000Y-11010000D02*
X10808000Y-11040000D01*
X10922500Y-11597500D02*
X10952500Y-11627500D01*
X10952500Y-11597500D02*
X10922500Y-11627500D01*
X11180000Y-10793000D02*
X11210000Y-10823000D01*
X11210000Y-10793000D02*
X11180000Y-10823000D01*
X11510000Y-10285000D02*
X11540000Y-10315000D01*
X11540000Y-10285000D02*
X11510000Y-10315000D01*
X11685000Y-10885000D02*
X11715000Y-10915000D01*
X11715000Y-10885000D02*
X11685000Y-10915000D01*
X11710000Y-11310000D02*
X11740000Y-11340000D01*
X11740000Y-11310000D02*
X11710000Y-11340000D01*
X11860000Y-10260000D02*
X11890000Y-10290000D01*
X11890000Y-10260000D02*
X11860000Y-10290000D01*
X12160000Y-10810000D02*
X12190000Y-10840000D01*
X12190000Y-10810000D02*
X12160000Y-10840000D01*
X12279500Y-10910000D02*
X12309500Y-10940000D01*
X12309500Y-10910000D02*
X12279500Y-10940000D01*
X12285000Y-11685000D02*
X12315000Y-11715000D01*
X12315000Y-11685000D02*
X12285000Y-11715000D01*
X12585000Y-11685000D02*
X12615000Y-11715000D01*
X12615000Y-11685000D02*
X12585000Y-11715000D01*
X12760000Y-11310000D02*
X12790000Y-11340000D01*
X12790000Y-11310000D02*
X12760000Y-11340000D01*
X13772500Y-11822500D02*
X13802500Y-11852500D01*
X13802500Y-11822500D02*
X13772500Y-11852500D01*
X13835000Y-10935000D02*
X13865000Y-10965000D01*
X13865000Y-10935000D02*
X13835000Y-10965000D01*
X13835000Y-11060000D02*
X13865000Y-11090000D01*
X13865000Y-11060000D02*
X13835000Y-11090000D01*
X13835000Y-11185000D02*
X13865000Y-11215000D01*
X13865000Y-11185000D02*
X13835000Y-11215000D01*
X14160000Y-10635000D02*
X14190000Y-10665000D01*
X14190000Y-10635000D02*
X14160000Y-10665000D01*
X14335000Y-10710000D02*
X14365000Y-10740000D01*
X14365000Y-10710000D02*
X14335000Y-10740000D01*
X14335000Y-12460000D02*
X14365000Y-12490000D01*
X14365000Y-12460000D02*
X14335000Y-12490000D01*
X14560000Y-10910000D02*
X14590000Y-10940000D01*
X14590000Y-10910000D02*
X14560000Y-10940000D01*
X15035000Y-10735000D02*
X15065000Y-10765000D01*
X15065000Y-10735000D02*
X15035000Y-10765000D01*
X16035000Y-11760000D02*
X16065000Y-11790000D01*
X16065000Y-11760000D02*
X16035000Y-11790000D01*
X16485000Y-11310000D02*
X16515000Y-11340000D01*
X16515000Y-11310000D02*
X16485000Y-11340000D01*
X10155000Y-11273000D02*
G75*
G02*
X10095000Y-11273000I-30000J0D01*
G01*
X10095000Y-11273000D02*
G75*
G02*
X10155000Y-11273000I30000J0D01*
G01*
X10155000Y-11400000D02*
G75*
G02*
X10095000Y-11400000I-30000J0D01*
G01*
X10095000Y-11400000D02*
G75*
G02*
X10155000Y-11400000I30000J0D01*
G01*
X10155000Y-11527000D02*
G75*
G02*
X10095000Y-11527000I-30000J0D01*
G01*
X10095000Y-11527000D02*
G75*
G02*
X10155000Y-11527000I30000J0D01*
G01*
X13848000Y-11492500D02*
X13848000Y-11557500D01*
X13815500Y-11525000D02*
X13880500Y-11525000D01*
X13850000Y-10442500D02*
X13850000Y-10507500D01*
X13817500Y-10475000D02*
X13882500Y-10475000D01*
X13975000Y-11492500D02*
X13975000Y-11557500D01*
X13942500Y-11525000D02*
X14007500Y-11525000D01*
X13977000Y-10442500D02*
X13977000Y-10507500D01*
X13944500Y-10475000D02*
X14009500Y-10475000D01*
X14102000Y-11492500D02*
X14102000Y-11557500D01*
X14069500Y-11525000D02*
X14134500Y-11525000D01*
X10699749Y-11074749D02*
X10699749Y-11025251D01*
X10650251Y-11025251D01*
X10650251Y-11074749D01*
X10699749Y-11074749D01*
X10703249Y-11354749D02*
X10703249Y-11305251D01*
X10653751Y-11305251D01*
X10653751Y-11354749D01*
X10703249Y-11354749D01*
X10712749Y-11649749D02*
X10712749Y-11600251D01*
X10663251Y-11600251D01*
X10663251Y-11649749D01*
X10712749Y-11649749D01*
X10712749Y-11949749D02*
X10712749Y-11900251D01*
X10663251Y-11900251D01*
X10663251Y-11949749D01*
X10712749Y-11949749D01*
X10712749Y-12274749D02*
X10712749Y-12225251D01*
X10663251Y-12225251D01*
X10663251Y-12274749D01*
X10712749Y-12274749D01*
X10712749Y-12624749D02*
X10712749Y-12575251D01*
X10663251Y-12575251D01*
X10663251Y-12624749D01*
X10712749Y-12624749D01*
X11461749Y-11074749D02*
X11461749Y-11025251D01*
X11412251Y-11025251D01*
X11412251Y-11074749D01*
X11461749Y-11074749D01*
X11465249Y-11354749D02*
X11465249Y-11305251D01*
X11415751Y-11305251D01*
X11415751Y-11354749D01*
X11465249Y-11354749D01*
X11474749Y-11649749D02*
X11474749Y-11600251D01*
X11425251Y-11600251D01*
X11425251Y-11649749D01*
X11474749Y-11649749D01*
X11474749Y-11949749D02*
X11474749Y-11900251D01*
X11425251Y-11900251D01*
X11425251Y-11949749D01*
X11474749Y-11949749D01*
X11474749Y-12274749D02*
X11474749Y-12225251D01*
X11425251Y-12225251D01*
X11425251Y-12274749D01*
X11474749Y-12274749D01*
X11474749Y-12624749D02*
X11474749Y-12575251D01*
X11425251Y-12575251D01*
X11425251Y-12624749D01*
X11474749Y-12624749D01*
X14149749Y-11899749D02*
X14149749Y-11850251D01*
X14100251Y-11850251D01*
X14100251Y-11899749D01*
X14149749Y-11899749D01*
X14149749Y-12661749D02*
X14149749Y-12612251D01*
X14100251Y-12612251D01*
X14100251Y-12661749D01*
X14149749Y-12661749D01*
X14499749Y-11337749D02*
X14499749Y-11288251D01*
X14450251Y-11288251D01*
X14450251Y-11337749D01*
X14499749Y-11337749D01*
X14499749Y-12099749D02*
X14499749Y-12050251D01*
X14450251Y-12050251D01*
X14450251Y-12099749D01*
X14499749Y-12099749D01*
X14749749Y-11337749D02*
X14749749Y-11288251D01*
X14700251Y-11288251D01*
X14700251Y-11337749D01*
X14749749Y-11337749D01*
X14749749Y-12099749D02*
X14749749Y-12050251D01*
X14700251Y-12050251D01*
X14700251Y-12099749D01*
X14749749Y-12099749D01*
X14974749Y-11343749D02*
X14974749Y-11294251D01*
X14925251Y-11294251D01*
X14925251Y-11343749D01*
X14974749Y-11343749D01*
X14974749Y-12105749D02*
X14974749Y-12056251D01*
X14925251Y-12056251D01*
X14925251Y-12105749D01*
X14974749Y-12105749D01*
X14814000Y-12385500D02*
X14851500Y-12348000D01*
X14814000Y-12310500D01*
X14776500Y-12348000D01*
X14814000Y-12385500D01*
X14814000Y-12512500D02*
X14851500Y-12475000D01*
X14814000Y-12437500D01*
X14776500Y-12475000D01*
X14814000Y-12512500D01*
X14814000Y-12639500D02*
X14851500Y-12602000D01*
X14814000Y-12564500D01*
X14776500Y-12602000D01*
X14814000Y-12639500D01*
X12255000Y-11180000D02*
X12345000Y-11270000D01*
X12345000Y-11180000D02*
X12255000Y-11270000D01*
X12345000Y-11225000D02*
G75*
G02*
X12255000Y-11225000I-45000J0D01*
G01*
X12255000Y-11225000D02*
G75*
G02*
X12345000Y-11225000I45000J0D01*
G01*
X12250000Y-11270000D02*
X12350000Y-11270000D01*
X12350000Y-11180000D02*
G75*
G02*
X12350000Y-11270000I0J-45000D01*
G01*
X12350000Y-11180000D02*
X12250000Y-11180000D01*
X12250000Y-11180000D02*
G75*
G03*
X12250000Y-11270000I0J-45000D01*
G01*
X12255000Y-11368000D02*
X12345000Y-11458000D01*
X12345000Y-11368000D02*
X12255000Y-11458000D01*
X12345000Y-11413000D02*
G75*
G02*
X12255000Y-11413000I-45000J0D01*
G01*
X12255000Y-11413000D02*
G75*
G02*
X12345000Y-11413000I45000J0D01*
G01*
X12245000Y-11458000D02*
X12355000Y-11458000D01*
X12355000Y-11368000D02*
G75*
G02*
X12355000Y-11458000I0J-45000D01*
G01*
X12355000Y-11368000D02*
X12245000Y-11368000D01*
X12245000Y-11368000D02*
G75*
G03*
X12245000Y-11458000I0J-45000D01*
G01*
D12*
X15276501Y-10966501D02*
X15381499Y-11071499D01*
X15381499Y-10966501D02*
X15276501Y-11071499D01*
X15329000Y-10966501D02*
X15329000Y-11071499D01*
X15276501Y-11019000D02*
X15381499Y-11019000D01*
X15276501Y-11220501D02*
X15381499Y-11325499D01*
X15381499Y-11220501D02*
X15276501Y-11325499D01*
X15329000Y-11220501D02*
X15329000Y-11325499D01*
X15276501Y-11273000D02*
X15381499Y-11273000D01*
X15276501Y-11474501D02*
X15381499Y-11579499D01*
X15381499Y-11474501D02*
X15276501Y-11579499D01*
X15329000Y-11474501D02*
X15329000Y-11579499D01*
X15276501Y-11527000D02*
X15381499Y-11527000D01*
X15276501Y-11728501D02*
X15381499Y-11833499D01*
X15381499Y-11728501D02*
X15276501Y-11833499D01*
X15329000Y-11728501D02*
X15329000Y-11833499D01*
X15276501Y-11781000D02*
X15381499Y-11781000D01*
D13*
X15260000Y-10110000D02*
X15510000Y-10360000D01*
X15510000Y-10110000D02*
X15260000Y-10360000D01*
X15473389Y-10323389D02*
X15473389Y-10146611D01*
X15296611Y-10146611D01*
X15296611Y-10323389D01*
X15473389Y-10323389D01*
X15260000Y-12440000D02*
X15510000Y-12690000D01*
X15510000Y-12440000D02*
X15260000Y-12690000D01*
X15473389Y-12653389D02*
X15473389Y-12476611D01*
X15296611Y-12476611D01*
X15296611Y-12653389D01*
X15473389Y-12653389D01*
X17640000Y-10110000D02*
X17890000Y-10360000D01*
X17890000Y-10110000D02*
X17640000Y-10360000D01*
X17853389Y-10323389D02*
X17853389Y-10146611D01*
X17676611Y-10146611D01*
X17676611Y-10323389D01*
X17853389Y-10323389D01*
X17640000Y-12440000D02*
X17890000Y-12690000D01*
X17890000Y-12440000D02*
X17640000Y-12690000D01*
X17853389Y-12653389D02*
X17853389Y-12476611D01*
X17676611Y-12476611D01*
X17676611Y-12653389D01*
X17853389Y-12653389D01*
D10*
X10250777Y-13121484D02*
X10250777Y-12921484D01*
X10250777Y-12921484D02*
X10298396Y-12921484D01*
X10298396Y-12921484D02*
X10326967Y-12931008D01*
X10326967Y-12931008D02*
X10346015Y-12950055D01*
X10346015Y-12950055D02*
X10355539Y-12969103D01*
X10355539Y-12969103D02*
X10365063Y-13007198D01*
X10365063Y-13007198D02*
X10365063Y-13035769D01*
X10365063Y-13035769D02*
X10355539Y-13073865D01*
X10355539Y-13073865D02*
X10346015Y-13092912D01*
X10346015Y-13092912D02*
X10326967Y-13111960D01*
X10326967Y-13111960D02*
X10298396Y-13121484D01*
X10298396Y-13121484D02*
X10250777Y-13121484D01*
X10450777Y-13121484D02*
X10450777Y-12988150D01*
X10450777Y-13026246D02*
X10460301Y-13007198D01*
X10460301Y-13007198D02*
X10469824Y-12997674D01*
X10469824Y-12997674D02*
X10488872Y-12988150D01*
X10488872Y-12988150D02*
X10507920Y-12988150D01*
X10574586Y-13121484D02*
X10574586Y-12988150D01*
X10574586Y-12921484D02*
X10565063Y-12931008D01*
X10565063Y-12931008D02*
X10574586Y-12940531D01*
X10574586Y-12940531D02*
X10584110Y-12931008D01*
X10584110Y-12931008D02*
X10574586Y-12921484D01*
X10574586Y-12921484D02*
X10574586Y-12940531D01*
X10698396Y-13121484D02*
X10679348Y-13111960D01*
X10679348Y-13111960D02*
X10669824Y-13092912D01*
X10669824Y-13092912D02*
X10669824Y-12921484D01*
X10803158Y-13121484D02*
X10784110Y-13111960D01*
X10784110Y-13111960D02*
X10774586Y-13092912D01*
X10774586Y-13092912D02*
X10774586Y-12921484D01*
X11031729Y-13121484D02*
X11031729Y-12921484D01*
X11031729Y-12921484D02*
X11098396Y-13064341D01*
X11098396Y-13064341D02*
X11165063Y-12921484D01*
X11165063Y-12921484D02*
X11165063Y-13121484D01*
X11346015Y-13121484D02*
X11346015Y-13016722D01*
X11346015Y-13016722D02*
X11336491Y-12997674D01*
X11336491Y-12997674D02*
X11317443Y-12988150D01*
X11317443Y-12988150D02*
X11279348Y-12988150D01*
X11279348Y-12988150D02*
X11260301Y-12997674D01*
X11346015Y-13111960D02*
X11326967Y-13121484D01*
X11326967Y-13121484D02*
X11279348Y-13121484D01*
X11279348Y-13121484D02*
X11260301Y-13111960D01*
X11260301Y-13111960D02*
X11250777Y-13092912D01*
X11250777Y-13092912D02*
X11250777Y-13073865D01*
X11250777Y-13073865D02*
X11260301Y-13054817D01*
X11260301Y-13054817D02*
X11279348Y-13045293D01*
X11279348Y-13045293D02*
X11326967Y-13045293D01*
X11326967Y-13045293D02*
X11346015Y-13035769D01*
X11441253Y-12988150D02*
X11441253Y-13188150D01*
X11441253Y-12997674D02*
X11460301Y-12988150D01*
X11460301Y-12988150D02*
X11498396Y-12988150D01*
X11498396Y-12988150D02*
X11517443Y-12997674D01*
X11517443Y-12997674D02*
X11526967Y-13007198D01*
X11526967Y-13007198D02*
X11536491Y-13026246D01*
X11536491Y-13026246D02*
X11536491Y-13083388D01*
X11536491Y-13083388D02*
X11526967Y-13102436D01*
X11526967Y-13102436D02*
X11517443Y-13111960D01*
X11517443Y-13111960D02*
X11498396Y-13121484D01*
X11498396Y-13121484D02*
X11460301Y-13121484D01*
X11460301Y-13121484D02*
X11441253Y-13111960D01*
X11622205Y-13102436D02*
X11631729Y-13111960D01*
X11631729Y-13111960D02*
X11622205Y-13121484D01*
X11622205Y-13121484D02*
X11612682Y-13111960D01*
X11612682Y-13111960D02*
X11622205Y-13102436D01*
X11622205Y-13102436D02*
X11622205Y-13121484D01*
X11622205Y-12997674D02*
X11631729Y-13007198D01*
X11631729Y-13007198D02*
X11622205Y-13016722D01*
X11622205Y-13016722D02*
X11612682Y-13007198D01*
X11612682Y-13007198D02*
X11622205Y-12997674D01*
X11622205Y-12997674D02*
X11622205Y-13016722D01*
D11*
X9960000Y-13435000D02*
X9990000Y-13465000D01*
X9990000Y-13435000D02*
X9960000Y-13465000D01*
D10*
X10288872Y-13341484D02*
X10307920Y-13341484D01*
X10307920Y-13341484D02*
X10326967Y-13351008D01*
X10326967Y-13351008D02*
X10336491Y-13360531D01*
X10336491Y-13360531D02*
X10346015Y-13379579D01*
X10346015Y-13379579D02*
X10355539Y-13417674D01*
X10355539Y-13417674D02*
X10355539Y-13465293D01*
X10355539Y-13465293D02*
X10346015Y-13503388D01*
X10346015Y-13503388D02*
X10336491Y-13522436D01*
X10336491Y-13522436D02*
X10326967Y-13531960D01*
X10326967Y-13531960D02*
X10307920Y-13541484D01*
X10307920Y-13541484D02*
X10288872Y-13541484D01*
X10288872Y-13541484D02*
X10269824Y-13531960D01*
X10269824Y-13531960D02*
X10260301Y-13522436D01*
X10260301Y-13522436D02*
X10250777Y-13503388D01*
X10250777Y-13503388D02*
X10241253Y-13465293D01*
X10241253Y-13465293D02*
X10241253Y-13417674D01*
X10241253Y-13417674D02*
X10250777Y-13379579D01*
X10250777Y-13379579D02*
X10260301Y-13360531D01*
X10260301Y-13360531D02*
X10269824Y-13351008D01*
X10269824Y-13351008D02*
X10288872Y-13341484D01*
X10441253Y-13522436D02*
X10450777Y-13531960D01*
X10450777Y-13531960D02*
X10441253Y-13541484D01*
X10441253Y-13541484D02*
X10431729Y-13531960D01*
X10431729Y-13531960D02*
X10441253Y-13522436D01*
X10441253Y-13522436D02*
X10441253Y-13541484D01*
X10517444Y-13341484D02*
X10641253Y-13341484D01*
X10641253Y-13341484D02*
X10574586Y-13417674D01*
X10574586Y-13417674D02*
X10603158Y-13417674D01*
X10603158Y-13417674D02*
X10622205Y-13427198D01*
X10622205Y-13427198D02*
X10631729Y-13436722D01*
X10631729Y-13436722D02*
X10641253Y-13455769D01*
X10641253Y-13455769D02*
X10641253Y-13503388D01*
X10641253Y-13503388D02*
X10631729Y-13522436D01*
X10631729Y-13522436D02*
X10622205Y-13531960D01*
X10622205Y-13531960D02*
X10603158Y-13541484D01*
X10603158Y-13541484D02*
X10546015Y-13541484D01*
X10546015Y-13541484D02*
X10526967Y-13531960D01*
X10526967Y-13531960D02*
X10517444Y-13522436D01*
X10765063Y-13341484D02*
X10784110Y-13341484D01*
X10784110Y-13341484D02*
X10803158Y-13351008D01*
X10803158Y-13351008D02*
X10812682Y-13360531D01*
X10812682Y-13360531D02*
X10822205Y-13379579D01*
X10822205Y-13379579D02*
X10831729Y-13417674D01*
X10831729Y-13417674D02*
X10831729Y-13465293D01*
X10831729Y-13465293D02*
X10822205Y-13503388D01*
X10822205Y-13503388D02*
X10812682Y-13522436D01*
X10812682Y-13522436D02*
X10803158Y-13531960D01*
X10803158Y-13531960D02*
X10784110Y-13541484D01*
X10784110Y-13541484D02*
X10765063Y-13541484D01*
X10765063Y-13541484D02*
X10746015Y-13531960D01*
X10746015Y-13531960D02*
X10736491Y-13522436D01*
X10736491Y-13522436D02*
X10726967Y-13503388D01*
X10726967Y-13503388D02*
X10717444Y-13465293D01*
X10717444Y-13465293D02*
X10717444Y-13417674D01*
X10717444Y-13417674D02*
X10726967Y-13379579D01*
X10726967Y-13379579D02*
X10736491Y-13360531D01*
X10736491Y-13360531D02*
X10746015Y-13351008D01*
X10746015Y-13351008D02*
X10765063Y-13341484D01*
X10955539Y-13341484D02*
X10974586Y-13341484D01*
X10974586Y-13341484D02*
X10993634Y-13351008D01*
X10993634Y-13351008D02*
X11003158Y-13360531D01*
X11003158Y-13360531D02*
X11012682Y-13379579D01*
X11012682Y-13379579D02*
X11022205Y-13417674D01*
X11022205Y-13417674D02*
X11022205Y-13465293D01*
X11022205Y-13465293D02*
X11012682Y-13503388D01*
X11012682Y-13503388D02*
X11003158Y-13522436D01*
X11003158Y-13522436D02*
X10993634Y-13531960D01*
X10993634Y-13531960D02*
X10974586Y-13541484D01*
X10974586Y-13541484D02*
X10955539Y-13541484D01*
X10955539Y-13541484D02*
X10936491Y-13531960D01*
X10936491Y-13531960D02*
X10926967Y-13522436D01*
X10926967Y-13522436D02*
X10917444Y-13503388D01*
X10917444Y-13503388D02*
X10907920Y-13465293D01*
X10907920Y-13465293D02*
X10907920Y-13417674D01*
X10907920Y-13417674D02*
X10917444Y-13379579D01*
X10917444Y-13379579D02*
X10926967Y-13360531D01*
X10926967Y-13360531D02*
X10936491Y-13351008D01*
X10936491Y-13351008D02*
X10955539Y-13341484D01*
X11107920Y-13541484D02*
X11107920Y-13408150D01*
X11107920Y-13427198D02*
X11117444Y-13417674D01*
X11117444Y-13417674D02*
X11136491Y-13408150D01*
X11136491Y-13408150D02*
X11165063Y-13408150D01*
X11165063Y-13408150D02*
X11184110Y-13417674D01*
X11184110Y-13417674D02*
X11193634Y-13436722D01*
X11193634Y-13436722D02*
X11193634Y-13541484D01*
X11193634Y-13436722D02*
X11203158Y-13417674D01*
X11203158Y-13417674D02*
X11222205Y-13408150D01*
X11222205Y-13408150D02*
X11250777Y-13408150D01*
X11250777Y-13408150D02*
X11269824Y-13417674D01*
X11269824Y-13417674D02*
X11279348Y-13436722D01*
X11279348Y-13436722D02*
X11279348Y-13541484D01*
X11374586Y-13541484D02*
X11374586Y-13408150D01*
X11374586Y-13427198D02*
X11384110Y-13417674D01*
X11384110Y-13417674D02*
X11403158Y-13408150D01*
X11403158Y-13408150D02*
X11431729Y-13408150D01*
X11431729Y-13408150D02*
X11450777Y-13417674D01*
X11450777Y-13417674D02*
X11460301Y-13436722D01*
X11460301Y-13436722D02*
X11460301Y-13541484D01*
X11460301Y-13436722D02*
X11469824Y-13417674D01*
X11469824Y-13417674D02*
X11488872Y-13408150D01*
X11488872Y-13408150D02*
X11517443Y-13408150D01*
X11517443Y-13408150D02*
X11536491Y-13417674D01*
X11536491Y-13417674D02*
X11546015Y-13436722D01*
X11546015Y-13436722D02*
X11546015Y-13541484D01*
X11936491Y-13331960D02*
X11765063Y-13589103D01*
X12193634Y-13341484D02*
X12212682Y-13341484D01*
X12212682Y-13341484D02*
X12231729Y-13351008D01*
X12231729Y-13351008D02*
X12241253Y-13360531D01*
X12241253Y-13360531D02*
X12250777Y-13379579D01*
X12250777Y-13379579D02*
X12260301Y-13417674D01*
X12260301Y-13417674D02*
X12260301Y-13465293D01*
X12260301Y-13465293D02*
X12250777Y-13503388D01*
X12250777Y-13503388D02*
X12241253Y-13522436D01*
X12241253Y-13522436D02*
X12231729Y-13531960D01*
X12231729Y-13531960D02*
X12212682Y-13541484D01*
X12212682Y-13541484D02*
X12193634Y-13541484D01*
X12193634Y-13541484D02*
X12174586Y-13531960D01*
X12174586Y-13531960D02*
X12165063Y-13522436D01*
X12165063Y-13522436D02*
X12155539Y-13503388D01*
X12155539Y-13503388D02*
X12146015Y-13465293D01*
X12146015Y-13465293D02*
X12146015Y-13417674D01*
X12146015Y-13417674D02*
X12155539Y-13379579D01*
X12155539Y-13379579D02*
X12165063Y-13360531D01*
X12165063Y-13360531D02*
X12174586Y-13351008D01*
X12174586Y-13351008D02*
X12193634Y-13341484D01*
X12346015Y-13522436D02*
X12355539Y-13531960D01*
X12355539Y-13531960D02*
X12346015Y-13541484D01*
X12346015Y-13541484D02*
X12336491Y-13531960D01*
X12336491Y-13531960D02*
X12346015Y-13522436D01*
X12346015Y-13522436D02*
X12346015Y-13541484D01*
X12479348Y-13341484D02*
X12498396Y-13341484D01*
X12498396Y-13341484D02*
X12517444Y-13351008D01*
X12517444Y-13351008D02*
X12526967Y-13360531D01*
X12526967Y-13360531D02*
X12536491Y-13379579D01*
X12536491Y-13379579D02*
X12546015Y-13417674D01*
X12546015Y-13417674D02*
X12546015Y-13465293D01*
X12546015Y-13465293D02*
X12536491Y-13503388D01*
X12536491Y-13503388D02*
X12526967Y-13522436D01*
X12526967Y-13522436D02*
X12517444Y-13531960D01*
X12517444Y-13531960D02*
X12498396Y-13541484D01*
X12498396Y-13541484D02*
X12479348Y-13541484D01*
X12479348Y-13541484D02*
X12460301Y-13531960D01*
X12460301Y-13531960D02*
X12450777Y-13522436D01*
X12450777Y-13522436D02*
X12441253Y-13503388D01*
X12441253Y-13503388D02*
X12431729Y-13465293D01*
X12431729Y-13465293D02*
X12431729Y-13417674D01*
X12431729Y-13417674D02*
X12441253Y-13379579D01*
X12441253Y-13379579D02*
X12450777Y-13360531D01*
X12450777Y-13360531D02*
X12460301Y-13351008D01*
X12460301Y-13351008D02*
X12479348Y-13341484D01*
X12736491Y-13541484D02*
X12622206Y-13541484D01*
X12679348Y-13541484D02*
X12679348Y-13341484D01*
X12679348Y-13341484D02*
X12660301Y-13370055D01*
X12660301Y-13370055D02*
X12641253Y-13389103D01*
X12641253Y-13389103D02*
X12622206Y-13398627D01*
X12926967Y-13541484D02*
X12812682Y-13541484D01*
X12869825Y-13541484D02*
X12869825Y-13341484D01*
X12869825Y-13341484D02*
X12850777Y-13370055D01*
X12850777Y-13370055D02*
X12831729Y-13389103D01*
X12831729Y-13389103D02*
X12812682Y-13398627D01*
X13041253Y-13427198D02*
X13022206Y-13417674D01*
X13022206Y-13417674D02*
X13012682Y-13408150D01*
X13012682Y-13408150D02*
X13003158Y-13389103D01*
X13003158Y-13389103D02*
X13003158Y-13379579D01*
X13003158Y-13379579D02*
X13012682Y-13360531D01*
X13012682Y-13360531D02*
X13022206Y-13351008D01*
X13022206Y-13351008D02*
X13041253Y-13341484D01*
X13041253Y-13341484D02*
X13079348Y-13341484D01*
X13079348Y-13341484D02*
X13098396Y-13351008D01*
X13098396Y-13351008D02*
X13107920Y-13360531D01*
X13107920Y-13360531D02*
X13117444Y-13379579D01*
X13117444Y-13379579D02*
X13117444Y-13389103D01*
X13117444Y-13389103D02*
X13107920Y-13408150D01*
X13107920Y-13408150D02*
X13098396Y-13417674D01*
X13098396Y-13417674D02*
X13079348Y-13427198D01*
X13079348Y-13427198D02*
X13041253Y-13427198D01*
X13041253Y-13427198D02*
X13022206Y-13436722D01*
X13022206Y-13436722D02*
X13012682Y-13446246D01*
X13012682Y-13446246D02*
X13003158Y-13465293D01*
X13003158Y-13465293D02*
X13003158Y-13503388D01*
X13003158Y-13503388D02*
X13012682Y-13522436D01*
X13012682Y-13522436D02*
X13022206Y-13531960D01*
X13022206Y-13531960D02*
X13041253Y-13541484D01*
X13041253Y-13541484D02*
X13079348Y-13541484D01*
X13079348Y-13541484D02*
X13098396Y-13531960D01*
X13098396Y-13531960D02*
X13107920Y-13522436D01*
X13107920Y-13522436D02*
X13117444Y-13503388D01*
X13117444Y-13503388D02*
X13117444Y-13465293D01*
X13117444Y-13465293D02*
X13107920Y-13446246D01*
X13107920Y-13446246D02*
X13098396Y-13436722D01*
X13098396Y-13436722D02*
X13079348Y-13427198D01*
X13193634Y-13341484D02*
X13193634Y-13379579D01*
X13269825Y-13341484D02*
X13269825Y-13379579D01*
X13565063Y-13617674D02*
X13555539Y-13608150D01*
X13555539Y-13608150D02*
X13536491Y-13579579D01*
X13536491Y-13579579D02*
X13526968Y-13560531D01*
X13526968Y-13560531D02*
X13517444Y-13531960D01*
X13517444Y-13531960D02*
X13507920Y-13484341D01*
X13507920Y-13484341D02*
X13507920Y-13446246D01*
X13507920Y-13446246D02*
X13517444Y-13398627D01*
X13517444Y-13398627D02*
X13526968Y-13370055D01*
X13526968Y-13370055D02*
X13536491Y-13351008D01*
X13536491Y-13351008D02*
X13555539Y-13322436D01*
X13555539Y-13322436D02*
X13565063Y-13312912D01*
X13631729Y-13360531D02*
X13641253Y-13351008D01*
X13641253Y-13351008D02*
X13660301Y-13341484D01*
X13660301Y-13341484D02*
X13707920Y-13341484D01*
X13707920Y-13341484D02*
X13726968Y-13351008D01*
X13726968Y-13351008D02*
X13736491Y-13360531D01*
X13736491Y-13360531D02*
X13746015Y-13379579D01*
X13746015Y-13379579D02*
X13746015Y-13398627D01*
X13746015Y-13398627D02*
X13736491Y-13427198D01*
X13736491Y-13427198D02*
X13622206Y-13541484D01*
X13622206Y-13541484D02*
X13746015Y-13541484D01*
X13917444Y-13341484D02*
X13879348Y-13341484D01*
X13879348Y-13341484D02*
X13860301Y-13351008D01*
X13860301Y-13351008D02*
X13850777Y-13360531D01*
X13850777Y-13360531D02*
X13831729Y-13389103D01*
X13831729Y-13389103D02*
X13822206Y-13427198D01*
X13822206Y-13427198D02*
X13822206Y-13503388D01*
X13822206Y-13503388D02*
X13831729Y-13522436D01*
X13831729Y-13522436D02*
X13841253Y-13531960D01*
X13841253Y-13531960D02*
X13860301Y-13541484D01*
X13860301Y-13541484D02*
X13898396Y-13541484D01*
X13898396Y-13541484D02*
X13917444Y-13531960D01*
X13917444Y-13531960D02*
X13926968Y-13522436D01*
X13926968Y-13522436D02*
X13936491Y-13503388D01*
X13936491Y-13503388D02*
X13936491Y-13455769D01*
X13936491Y-13455769D02*
X13926968Y-13436722D01*
X13926968Y-13436722D02*
X13917444Y-13427198D01*
X13917444Y-13427198D02*
X13898396Y-13417674D01*
X13898396Y-13417674D02*
X13860301Y-13417674D01*
X13860301Y-13417674D02*
X13841253Y-13427198D01*
X13841253Y-13427198D02*
X13831729Y-13436722D01*
X13831729Y-13436722D02*
X13822206Y-13455769D01*
X14174587Y-13541484D02*
X14174587Y-13341484D01*
X14260301Y-13541484D02*
X14260301Y-13436722D01*
X14260301Y-13436722D02*
X14250777Y-13417674D01*
X14250777Y-13417674D02*
X14231730Y-13408150D01*
X14231730Y-13408150D02*
X14203158Y-13408150D01*
X14203158Y-13408150D02*
X14184110Y-13417674D01*
X14184110Y-13417674D02*
X14174587Y-13427198D01*
X14384110Y-13541484D02*
X14365063Y-13531960D01*
X14365063Y-13531960D02*
X14355539Y-13522436D01*
X14355539Y-13522436D02*
X14346015Y-13503388D01*
X14346015Y-13503388D02*
X14346015Y-13446246D01*
X14346015Y-13446246D02*
X14355539Y-13427198D01*
X14355539Y-13427198D02*
X14365063Y-13417674D01*
X14365063Y-13417674D02*
X14384110Y-13408150D01*
X14384110Y-13408150D02*
X14412682Y-13408150D01*
X14412682Y-13408150D02*
X14431730Y-13417674D01*
X14431730Y-13417674D02*
X14441253Y-13427198D01*
X14441253Y-13427198D02*
X14450777Y-13446246D01*
X14450777Y-13446246D02*
X14450777Y-13503388D01*
X14450777Y-13503388D02*
X14441253Y-13522436D01*
X14441253Y-13522436D02*
X14431730Y-13531960D01*
X14431730Y-13531960D02*
X14412682Y-13541484D01*
X14412682Y-13541484D02*
X14384110Y-13541484D01*
X14565063Y-13541484D02*
X14546015Y-13531960D01*
X14546015Y-13531960D02*
X14536491Y-13512912D01*
X14536491Y-13512912D02*
X14536491Y-13341484D01*
X14717444Y-13531960D02*
X14698396Y-13541484D01*
X14698396Y-13541484D02*
X14660301Y-13541484D01*
X14660301Y-13541484D02*
X14641253Y-13531960D01*
X14641253Y-13531960D02*
X14631730Y-13512912D01*
X14631730Y-13512912D02*
X14631730Y-13436722D01*
X14631730Y-13436722D02*
X14641253Y-13417674D01*
X14641253Y-13417674D02*
X14660301Y-13408150D01*
X14660301Y-13408150D02*
X14698396Y-13408150D01*
X14698396Y-13408150D02*
X14717444Y-13417674D01*
X14717444Y-13417674D02*
X14726968Y-13436722D01*
X14726968Y-13436722D02*
X14726968Y-13455769D01*
X14726968Y-13455769D02*
X14631730Y-13474817D01*
X14803158Y-13531960D02*
X14822206Y-13541484D01*
X14822206Y-13541484D02*
X14860301Y-13541484D01*
X14860301Y-13541484D02*
X14879349Y-13531960D01*
X14879349Y-13531960D02*
X14888872Y-13512912D01*
X14888872Y-13512912D02*
X14888872Y-13503388D01*
X14888872Y-13503388D02*
X14879349Y-13484341D01*
X14879349Y-13484341D02*
X14860301Y-13474817D01*
X14860301Y-13474817D02*
X14831730Y-13474817D01*
X14831730Y-13474817D02*
X14812682Y-13465293D01*
X14812682Y-13465293D02*
X14803158Y-13446246D01*
X14803158Y-13446246D02*
X14803158Y-13436722D01*
X14803158Y-13436722D02*
X14812682Y-13417674D01*
X14812682Y-13417674D02*
X14831730Y-13408150D01*
X14831730Y-13408150D02*
X14860301Y-13408150D01*
X14860301Y-13408150D02*
X14879349Y-13417674D01*
X14955539Y-13617674D02*
X14965063Y-13608150D01*
X14965063Y-13608150D02*
X14984111Y-13579579D01*
X14984111Y-13579579D02*
X14993634Y-13560531D01*
X14993634Y-13560531D02*
X15003158Y-13531960D01*
X15003158Y-13531960D02*
X15012682Y-13484341D01*
X15012682Y-13484341D02*
X15012682Y-13446246D01*
X15012682Y-13446246D02*
X15003158Y-13398627D01*
X15003158Y-13398627D02*
X14993634Y-13370055D01*
X14993634Y-13370055D02*
X14984111Y-13351008D01*
X14984111Y-13351008D02*
X14965063Y-13322436D01*
X14965063Y-13322436D02*
X14955539Y-13312912D01*
D11*
X9990000Y-13714000D02*
G75*
G02*
X9930000Y-13714000I-30000J0D01*
G01*
X9930000Y-13714000D02*
G75*
G02*
X9990000Y-13714000I30000J0D01*
G01*
D10*
X10288872Y-13605484D02*
X10307920Y-13605484D01*
X10307920Y-13605484D02*
X10326967Y-13615008D01*
X10326967Y-13615008D02*
X10336491Y-13624531D01*
X10336491Y-13624531D02*
X10346015Y-13643579D01*
X10346015Y-13643579D02*
X10355539Y-13681674D01*
X10355539Y-13681674D02*
X10355539Y-13729293D01*
X10355539Y-13729293D02*
X10346015Y-13767388D01*
X10346015Y-13767388D02*
X10336491Y-13786436D01*
X10336491Y-13786436D02*
X10326967Y-13795960D01*
X10326967Y-13795960D02*
X10307920Y-13805484D01*
X10307920Y-13805484D02*
X10288872Y-13805484D01*
X10288872Y-13805484D02*
X10269824Y-13795960D01*
X10269824Y-13795960D02*
X10260301Y-13786436D01*
X10260301Y-13786436D02*
X10250777Y-13767388D01*
X10250777Y-13767388D02*
X10241253Y-13729293D01*
X10241253Y-13729293D02*
X10241253Y-13681674D01*
X10241253Y-13681674D02*
X10250777Y-13643579D01*
X10250777Y-13643579D02*
X10260301Y-13624531D01*
X10260301Y-13624531D02*
X10269824Y-13615008D01*
X10269824Y-13615008D02*
X10288872Y-13605484D01*
X10441253Y-13786436D02*
X10450777Y-13795960D01*
X10450777Y-13795960D02*
X10441253Y-13805484D01*
X10441253Y-13805484D02*
X10431729Y-13795960D01*
X10431729Y-13795960D02*
X10441253Y-13786436D01*
X10441253Y-13786436D02*
X10441253Y-13805484D01*
X10622205Y-13605484D02*
X10584110Y-13605484D01*
X10584110Y-13605484D02*
X10565063Y-13615008D01*
X10565063Y-13615008D02*
X10555539Y-13624531D01*
X10555539Y-13624531D02*
X10536491Y-13653103D01*
X10536491Y-13653103D02*
X10526967Y-13691198D01*
X10526967Y-13691198D02*
X10526967Y-13767388D01*
X10526967Y-13767388D02*
X10536491Y-13786436D01*
X10536491Y-13786436D02*
X10546015Y-13795960D01*
X10546015Y-13795960D02*
X10565063Y-13805484D01*
X10565063Y-13805484D02*
X10603158Y-13805484D01*
X10603158Y-13805484D02*
X10622205Y-13795960D01*
X10622205Y-13795960D02*
X10631729Y-13786436D01*
X10631729Y-13786436D02*
X10641253Y-13767388D01*
X10641253Y-13767388D02*
X10641253Y-13719769D01*
X10641253Y-13719769D02*
X10631729Y-13700722D01*
X10631729Y-13700722D02*
X10622205Y-13691198D01*
X10622205Y-13691198D02*
X10603158Y-13681674D01*
X10603158Y-13681674D02*
X10565063Y-13681674D01*
X10565063Y-13681674D02*
X10546015Y-13691198D01*
X10546015Y-13691198D02*
X10536491Y-13700722D01*
X10536491Y-13700722D02*
X10526967Y-13719769D01*
X10765063Y-13605484D02*
X10784110Y-13605484D01*
X10784110Y-13605484D02*
X10803158Y-13615008D01*
X10803158Y-13615008D02*
X10812682Y-13624531D01*
X10812682Y-13624531D02*
X10822205Y-13643579D01*
X10822205Y-13643579D02*
X10831729Y-13681674D01*
X10831729Y-13681674D02*
X10831729Y-13729293D01*
X10831729Y-13729293D02*
X10822205Y-13767388D01*
X10822205Y-13767388D02*
X10812682Y-13786436D01*
X10812682Y-13786436D02*
X10803158Y-13795960D01*
X10803158Y-13795960D02*
X10784110Y-13805484D01*
X10784110Y-13805484D02*
X10765063Y-13805484D01*
X10765063Y-13805484D02*
X10746015Y-13795960D01*
X10746015Y-13795960D02*
X10736491Y-13786436D01*
X10736491Y-13786436D02*
X10726967Y-13767388D01*
X10726967Y-13767388D02*
X10717444Y-13729293D01*
X10717444Y-13729293D02*
X10717444Y-13681674D01*
X10717444Y-13681674D02*
X10726967Y-13643579D01*
X10726967Y-13643579D02*
X10736491Y-13624531D01*
X10736491Y-13624531D02*
X10746015Y-13615008D01*
X10746015Y-13615008D02*
X10765063Y-13605484D01*
X10955539Y-13605484D02*
X10974586Y-13605484D01*
X10974586Y-13605484D02*
X10993634Y-13615008D01*
X10993634Y-13615008D02*
X11003158Y-13624531D01*
X11003158Y-13624531D02*
X11012682Y-13643579D01*
X11012682Y-13643579D02*
X11022205Y-13681674D01*
X11022205Y-13681674D02*
X11022205Y-13729293D01*
X11022205Y-13729293D02*
X11012682Y-13767388D01*
X11012682Y-13767388D02*
X11003158Y-13786436D01*
X11003158Y-13786436D02*
X10993634Y-13795960D01*
X10993634Y-13795960D02*
X10974586Y-13805484D01*
X10974586Y-13805484D02*
X10955539Y-13805484D01*
X10955539Y-13805484D02*
X10936491Y-13795960D01*
X10936491Y-13795960D02*
X10926967Y-13786436D01*
X10926967Y-13786436D02*
X10917444Y-13767388D01*
X10917444Y-13767388D02*
X10907920Y-13729293D01*
X10907920Y-13729293D02*
X10907920Y-13681674D01*
X10907920Y-13681674D02*
X10917444Y-13643579D01*
X10917444Y-13643579D02*
X10926967Y-13624531D01*
X10926967Y-13624531D02*
X10936491Y-13615008D01*
X10936491Y-13615008D02*
X10955539Y-13605484D01*
X11107920Y-13805484D02*
X11107920Y-13672150D01*
X11107920Y-13691198D02*
X11117444Y-13681674D01*
X11117444Y-13681674D02*
X11136491Y-13672150D01*
X11136491Y-13672150D02*
X11165063Y-13672150D01*
X11165063Y-13672150D02*
X11184110Y-13681674D01*
X11184110Y-13681674D02*
X11193634Y-13700722D01*
X11193634Y-13700722D02*
X11193634Y-13805484D01*
X11193634Y-13700722D02*
X11203158Y-13681674D01*
X11203158Y-13681674D02*
X11222205Y-13672150D01*
X11222205Y-13672150D02*
X11250777Y-13672150D01*
X11250777Y-13672150D02*
X11269824Y-13681674D01*
X11269824Y-13681674D02*
X11279348Y-13700722D01*
X11279348Y-13700722D02*
X11279348Y-13805484D01*
X11374586Y-13805484D02*
X11374586Y-13672150D01*
X11374586Y-13691198D02*
X11384110Y-13681674D01*
X11384110Y-13681674D02*
X11403158Y-13672150D01*
X11403158Y-13672150D02*
X11431729Y-13672150D01*
X11431729Y-13672150D02*
X11450777Y-13681674D01*
X11450777Y-13681674D02*
X11460301Y-13700722D01*
X11460301Y-13700722D02*
X11460301Y-13805484D01*
X11460301Y-13700722D02*
X11469824Y-13681674D01*
X11469824Y-13681674D02*
X11488872Y-13672150D01*
X11488872Y-13672150D02*
X11517443Y-13672150D01*
X11517443Y-13672150D02*
X11536491Y-13681674D01*
X11536491Y-13681674D02*
X11546015Y-13700722D01*
X11546015Y-13700722D02*
X11546015Y-13805484D01*
X11936491Y-13595960D02*
X11765063Y-13853103D01*
X12193634Y-13605484D02*
X12212682Y-13605484D01*
X12212682Y-13605484D02*
X12231729Y-13615008D01*
X12231729Y-13615008D02*
X12241253Y-13624531D01*
X12241253Y-13624531D02*
X12250777Y-13643579D01*
X12250777Y-13643579D02*
X12260301Y-13681674D01*
X12260301Y-13681674D02*
X12260301Y-13729293D01*
X12260301Y-13729293D02*
X12250777Y-13767388D01*
X12250777Y-13767388D02*
X12241253Y-13786436D01*
X12241253Y-13786436D02*
X12231729Y-13795960D01*
X12231729Y-13795960D02*
X12212682Y-13805484D01*
X12212682Y-13805484D02*
X12193634Y-13805484D01*
X12193634Y-13805484D02*
X12174586Y-13795960D01*
X12174586Y-13795960D02*
X12165063Y-13786436D01*
X12165063Y-13786436D02*
X12155539Y-13767388D01*
X12155539Y-13767388D02*
X12146015Y-13729293D01*
X12146015Y-13729293D02*
X12146015Y-13681674D01*
X12146015Y-13681674D02*
X12155539Y-13643579D01*
X12155539Y-13643579D02*
X12165063Y-13624531D01*
X12165063Y-13624531D02*
X12174586Y-13615008D01*
X12174586Y-13615008D02*
X12193634Y-13605484D01*
X12346015Y-13786436D02*
X12355539Y-13795960D01*
X12355539Y-13795960D02*
X12346015Y-13805484D01*
X12346015Y-13805484D02*
X12336491Y-13795960D01*
X12336491Y-13795960D02*
X12346015Y-13786436D01*
X12346015Y-13786436D02*
X12346015Y-13805484D01*
X12479348Y-13605484D02*
X12498396Y-13605484D01*
X12498396Y-13605484D02*
X12517444Y-13615008D01*
X12517444Y-13615008D02*
X12526967Y-13624531D01*
X12526967Y-13624531D02*
X12536491Y-13643579D01*
X12536491Y-13643579D02*
X12546015Y-13681674D01*
X12546015Y-13681674D02*
X12546015Y-13729293D01*
X12546015Y-13729293D02*
X12536491Y-13767388D01*
X12536491Y-13767388D02*
X12526967Y-13786436D01*
X12526967Y-13786436D02*
X12517444Y-13795960D01*
X12517444Y-13795960D02*
X12498396Y-13805484D01*
X12498396Y-13805484D02*
X12479348Y-13805484D01*
X12479348Y-13805484D02*
X12460301Y-13795960D01*
X12460301Y-13795960D02*
X12450777Y-13786436D01*
X12450777Y-13786436D02*
X12441253Y-13767388D01*
X12441253Y-13767388D02*
X12431729Y-13729293D01*
X12431729Y-13729293D02*
X12431729Y-13681674D01*
X12431729Y-13681674D02*
X12441253Y-13643579D01*
X12441253Y-13643579D02*
X12450777Y-13624531D01*
X12450777Y-13624531D02*
X12460301Y-13615008D01*
X12460301Y-13615008D02*
X12479348Y-13605484D01*
X12622206Y-13624531D02*
X12631729Y-13615008D01*
X12631729Y-13615008D02*
X12650777Y-13605484D01*
X12650777Y-13605484D02*
X12698396Y-13605484D01*
X12698396Y-13605484D02*
X12717444Y-13615008D01*
X12717444Y-13615008D02*
X12726967Y-13624531D01*
X12726967Y-13624531D02*
X12736491Y-13643579D01*
X12736491Y-13643579D02*
X12736491Y-13662627D01*
X12736491Y-13662627D02*
X12726967Y-13691198D01*
X12726967Y-13691198D02*
X12612682Y-13805484D01*
X12612682Y-13805484D02*
X12736491Y-13805484D01*
X12803158Y-13605484D02*
X12926967Y-13605484D01*
X12926967Y-13605484D02*
X12860301Y-13681674D01*
X12860301Y-13681674D02*
X12888872Y-13681674D01*
X12888872Y-13681674D02*
X12907920Y-13691198D01*
X12907920Y-13691198D02*
X12917444Y-13700722D01*
X12917444Y-13700722D02*
X12926967Y-13719769D01*
X12926967Y-13719769D02*
X12926967Y-13767388D01*
X12926967Y-13767388D02*
X12917444Y-13786436D01*
X12917444Y-13786436D02*
X12907920Y-13795960D01*
X12907920Y-13795960D02*
X12888872Y-13805484D01*
X12888872Y-13805484D02*
X12831729Y-13805484D01*
X12831729Y-13805484D02*
X12812682Y-13795960D01*
X12812682Y-13795960D02*
X12803158Y-13786436D01*
X13098396Y-13605484D02*
X13060301Y-13605484D01*
X13060301Y-13605484D02*
X13041253Y-13615008D01*
X13041253Y-13615008D02*
X13031729Y-13624531D01*
X13031729Y-13624531D02*
X13012682Y-13653103D01*
X13012682Y-13653103D02*
X13003158Y-13691198D01*
X13003158Y-13691198D02*
X13003158Y-13767388D01*
X13003158Y-13767388D02*
X13012682Y-13786436D01*
X13012682Y-13786436D02*
X13022206Y-13795960D01*
X13022206Y-13795960D02*
X13041253Y-13805484D01*
X13041253Y-13805484D02*
X13079348Y-13805484D01*
X13079348Y-13805484D02*
X13098396Y-13795960D01*
X13098396Y-13795960D02*
X13107920Y-13786436D01*
X13107920Y-13786436D02*
X13117444Y-13767388D01*
X13117444Y-13767388D02*
X13117444Y-13719769D01*
X13117444Y-13719769D02*
X13107920Y-13700722D01*
X13107920Y-13700722D02*
X13098396Y-13691198D01*
X13098396Y-13691198D02*
X13079348Y-13681674D01*
X13079348Y-13681674D02*
X13041253Y-13681674D01*
X13041253Y-13681674D02*
X13022206Y-13691198D01*
X13022206Y-13691198D02*
X13012682Y-13700722D01*
X13012682Y-13700722D02*
X13003158Y-13719769D01*
X13193634Y-13605484D02*
X13193634Y-13643579D01*
X13269825Y-13605484D02*
X13269825Y-13643579D01*
X13565063Y-13881674D02*
X13555539Y-13872150D01*
X13555539Y-13872150D02*
X13536491Y-13843579D01*
X13536491Y-13843579D02*
X13526968Y-13824531D01*
X13526968Y-13824531D02*
X13517444Y-13795960D01*
X13517444Y-13795960D02*
X13507920Y-13748341D01*
X13507920Y-13748341D02*
X13507920Y-13710246D01*
X13507920Y-13710246D02*
X13517444Y-13662627D01*
X13517444Y-13662627D02*
X13526968Y-13634055D01*
X13526968Y-13634055D02*
X13536491Y-13615008D01*
X13536491Y-13615008D02*
X13555539Y-13586436D01*
X13555539Y-13586436D02*
X13565063Y-13576912D01*
X13622206Y-13605484D02*
X13746015Y-13605484D01*
X13746015Y-13605484D02*
X13679348Y-13681674D01*
X13679348Y-13681674D02*
X13707920Y-13681674D01*
X13707920Y-13681674D02*
X13726968Y-13691198D01*
X13726968Y-13691198D02*
X13736491Y-13700722D01*
X13736491Y-13700722D02*
X13746015Y-13719769D01*
X13746015Y-13719769D02*
X13746015Y-13767388D01*
X13746015Y-13767388D02*
X13736491Y-13786436D01*
X13736491Y-13786436D02*
X13726968Y-13795960D01*
X13726968Y-13795960D02*
X13707920Y-13805484D01*
X13707920Y-13805484D02*
X13650777Y-13805484D01*
X13650777Y-13805484D02*
X13631729Y-13795960D01*
X13631729Y-13795960D02*
X13622206Y-13786436D01*
X13984110Y-13805484D02*
X13984110Y-13605484D01*
X14069825Y-13805484D02*
X14069825Y-13700722D01*
X14069825Y-13700722D02*
X14060301Y-13681674D01*
X14060301Y-13681674D02*
X14041253Y-13672150D01*
X14041253Y-13672150D02*
X14012682Y-13672150D01*
X14012682Y-13672150D02*
X13993634Y-13681674D01*
X13993634Y-13681674D02*
X13984110Y-13691198D01*
X14193634Y-13805484D02*
X14174587Y-13795960D01*
X14174587Y-13795960D02*
X14165063Y-13786436D01*
X14165063Y-13786436D02*
X14155539Y-13767388D01*
X14155539Y-13767388D02*
X14155539Y-13710246D01*
X14155539Y-13710246D02*
X14165063Y-13691198D01*
X14165063Y-13691198D02*
X14174587Y-13681674D01*
X14174587Y-13681674D02*
X14193634Y-13672150D01*
X14193634Y-13672150D02*
X14222206Y-13672150D01*
X14222206Y-13672150D02*
X14241253Y-13681674D01*
X14241253Y-13681674D02*
X14250777Y-13691198D01*
X14250777Y-13691198D02*
X14260301Y-13710246D01*
X14260301Y-13710246D02*
X14260301Y-13767388D01*
X14260301Y-13767388D02*
X14250777Y-13786436D01*
X14250777Y-13786436D02*
X14241253Y-13795960D01*
X14241253Y-13795960D02*
X14222206Y-13805484D01*
X14222206Y-13805484D02*
X14193634Y-13805484D01*
X14374587Y-13805484D02*
X14355539Y-13795960D01*
X14355539Y-13795960D02*
X14346015Y-13776912D01*
X14346015Y-13776912D02*
X14346015Y-13605484D01*
X14526968Y-13795960D02*
X14507920Y-13805484D01*
X14507920Y-13805484D02*
X14469825Y-13805484D01*
X14469825Y-13805484D02*
X14450777Y-13795960D01*
X14450777Y-13795960D02*
X14441253Y-13776912D01*
X14441253Y-13776912D02*
X14441253Y-13700722D01*
X14441253Y-13700722D02*
X14450777Y-13681674D01*
X14450777Y-13681674D02*
X14469825Y-13672150D01*
X14469825Y-13672150D02*
X14507920Y-13672150D01*
X14507920Y-13672150D02*
X14526968Y-13681674D01*
X14526968Y-13681674D02*
X14536491Y-13700722D01*
X14536491Y-13700722D02*
X14536491Y-13719769D01*
X14536491Y-13719769D02*
X14441253Y-13738817D01*
X14612682Y-13795960D02*
X14631730Y-13805484D01*
X14631730Y-13805484D02*
X14669825Y-13805484D01*
X14669825Y-13805484D02*
X14688872Y-13795960D01*
X14688872Y-13795960D02*
X14698396Y-13776912D01*
X14698396Y-13776912D02*
X14698396Y-13767388D01*
X14698396Y-13767388D02*
X14688872Y-13748341D01*
X14688872Y-13748341D02*
X14669825Y-13738817D01*
X14669825Y-13738817D02*
X14641253Y-13738817D01*
X14641253Y-13738817D02*
X14622206Y-13729293D01*
X14622206Y-13729293D02*
X14612682Y-13710246D01*
X14612682Y-13710246D02*
X14612682Y-13700722D01*
X14612682Y-13700722D02*
X14622206Y-13681674D01*
X14622206Y-13681674D02*
X14641253Y-13672150D01*
X14641253Y-13672150D02*
X14669825Y-13672150D01*
X14669825Y-13672150D02*
X14688872Y-13681674D01*
X14765063Y-13881674D02*
X14774587Y-13872150D01*
X14774587Y-13872150D02*
X14793634Y-13843579D01*
X14793634Y-13843579D02*
X14803158Y-13824531D01*
X14803158Y-13824531D02*
X14812682Y-13795960D01*
X14812682Y-13795960D02*
X14822206Y-13748341D01*
X14822206Y-13748341D02*
X14822206Y-13710246D01*
X14822206Y-13710246D02*
X14812682Y-13662627D01*
X14812682Y-13662627D02*
X14803158Y-13634055D01*
X14803158Y-13634055D02*
X14793634Y-13615008D01*
X14793634Y-13615008D02*
X14774587Y-13586436D01*
X14774587Y-13586436D02*
X14765063Y-13576912D01*
D11*
X9957500Y-13945500D02*
X9957500Y-14010500D01*
X9925000Y-13978000D02*
X9990000Y-13978000D01*
D10*
X10288872Y-13869484D02*
X10307920Y-13869484D01*
X10307920Y-13869484D02*
X10326967Y-13879008D01*
X10326967Y-13879008D02*
X10336491Y-13888531D01*
X10336491Y-13888531D02*
X10346015Y-13907579D01*
X10346015Y-13907579D02*
X10355539Y-13945674D01*
X10355539Y-13945674D02*
X10355539Y-13993293D01*
X10355539Y-13993293D02*
X10346015Y-14031388D01*
X10346015Y-14031388D02*
X10336491Y-14050436D01*
X10336491Y-14050436D02*
X10326967Y-14059960D01*
X10326967Y-14059960D02*
X10307920Y-14069484D01*
X10307920Y-14069484D02*
X10288872Y-14069484D01*
X10288872Y-14069484D02*
X10269824Y-14059960D01*
X10269824Y-14059960D02*
X10260301Y-14050436D01*
X10260301Y-14050436D02*
X10250777Y-14031388D01*
X10250777Y-14031388D02*
X10241253Y-13993293D01*
X10241253Y-13993293D02*
X10241253Y-13945674D01*
X10241253Y-13945674D02*
X10250777Y-13907579D01*
X10250777Y-13907579D02*
X10260301Y-13888531D01*
X10260301Y-13888531D02*
X10269824Y-13879008D01*
X10269824Y-13879008D02*
X10288872Y-13869484D01*
X10441253Y-14050436D02*
X10450777Y-14059960D01*
X10450777Y-14059960D02*
X10441253Y-14069484D01*
X10441253Y-14069484D02*
X10431729Y-14059960D01*
X10431729Y-14059960D02*
X10441253Y-14050436D01*
X10441253Y-14050436D02*
X10441253Y-14069484D01*
X10622205Y-13869484D02*
X10584110Y-13869484D01*
X10584110Y-13869484D02*
X10565063Y-13879008D01*
X10565063Y-13879008D02*
X10555539Y-13888531D01*
X10555539Y-13888531D02*
X10536491Y-13917103D01*
X10536491Y-13917103D02*
X10526967Y-13955198D01*
X10526967Y-13955198D02*
X10526967Y-14031388D01*
X10526967Y-14031388D02*
X10536491Y-14050436D01*
X10536491Y-14050436D02*
X10546015Y-14059960D01*
X10546015Y-14059960D02*
X10565063Y-14069484D01*
X10565063Y-14069484D02*
X10603158Y-14069484D01*
X10603158Y-14069484D02*
X10622205Y-14059960D01*
X10622205Y-14059960D02*
X10631729Y-14050436D01*
X10631729Y-14050436D02*
X10641253Y-14031388D01*
X10641253Y-14031388D02*
X10641253Y-13983769D01*
X10641253Y-13983769D02*
X10631729Y-13964722D01*
X10631729Y-13964722D02*
X10622205Y-13955198D01*
X10622205Y-13955198D02*
X10603158Y-13945674D01*
X10603158Y-13945674D02*
X10565063Y-13945674D01*
X10565063Y-13945674D02*
X10546015Y-13955198D01*
X10546015Y-13955198D02*
X10536491Y-13964722D01*
X10536491Y-13964722D02*
X10526967Y-13983769D01*
X10822205Y-13869484D02*
X10726967Y-13869484D01*
X10726967Y-13869484D02*
X10717444Y-13964722D01*
X10717444Y-13964722D02*
X10726967Y-13955198D01*
X10726967Y-13955198D02*
X10746015Y-13945674D01*
X10746015Y-13945674D02*
X10793634Y-13945674D01*
X10793634Y-13945674D02*
X10812682Y-13955198D01*
X10812682Y-13955198D02*
X10822205Y-13964722D01*
X10822205Y-13964722D02*
X10831729Y-13983769D01*
X10831729Y-13983769D02*
X10831729Y-14031388D01*
X10831729Y-14031388D02*
X10822205Y-14050436D01*
X10822205Y-14050436D02*
X10812682Y-14059960D01*
X10812682Y-14059960D02*
X10793634Y-14069484D01*
X10793634Y-14069484D02*
X10746015Y-14069484D01*
X10746015Y-14069484D02*
X10726967Y-14059960D01*
X10726967Y-14059960D02*
X10717444Y-14050436D01*
X10955539Y-13869484D02*
X10974586Y-13869484D01*
X10974586Y-13869484D02*
X10993634Y-13879008D01*
X10993634Y-13879008D02*
X11003158Y-13888531D01*
X11003158Y-13888531D02*
X11012682Y-13907579D01*
X11012682Y-13907579D02*
X11022205Y-13945674D01*
X11022205Y-13945674D02*
X11022205Y-13993293D01*
X11022205Y-13993293D02*
X11012682Y-14031388D01*
X11012682Y-14031388D02*
X11003158Y-14050436D01*
X11003158Y-14050436D02*
X10993634Y-14059960D01*
X10993634Y-14059960D02*
X10974586Y-14069484D01*
X10974586Y-14069484D02*
X10955539Y-14069484D01*
X10955539Y-14069484D02*
X10936491Y-14059960D01*
X10936491Y-14059960D02*
X10926967Y-14050436D01*
X10926967Y-14050436D02*
X10917444Y-14031388D01*
X10917444Y-14031388D02*
X10907920Y-13993293D01*
X10907920Y-13993293D02*
X10907920Y-13945674D01*
X10907920Y-13945674D02*
X10917444Y-13907579D01*
X10917444Y-13907579D02*
X10926967Y-13888531D01*
X10926967Y-13888531D02*
X10936491Y-13879008D01*
X10936491Y-13879008D02*
X10955539Y-13869484D01*
X11107920Y-14069484D02*
X11107920Y-13936150D01*
X11107920Y-13955198D02*
X11117444Y-13945674D01*
X11117444Y-13945674D02*
X11136491Y-13936150D01*
X11136491Y-13936150D02*
X11165063Y-13936150D01*
X11165063Y-13936150D02*
X11184110Y-13945674D01*
X11184110Y-13945674D02*
X11193634Y-13964722D01*
X11193634Y-13964722D02*
X11193634Y-14069484D01*
X11193634Y-13964722D02*
X11203158Y-13945674D01*
X11203158Y-13945674D02*
X11222205Y-13936150D01*
X11222205Y-13936150D02*
X11250777Y-13936150D01*
X11250777Y-13936150D02*
X11269824Y-13945674D01*
X11269824Y-13945674D02*
X11279348Y-13964722D01*
X11279348Y-13964722D02*
X11279348Y-14069484D01*
X11374586Y-14069484D02*
X11374586Y-13936150D01*
X11374586Y-13955198D02*
X11384110Y-13945674D01*
X11384110Y-13945674D02*
X11403158Y-13936150D01*
X11403158Y-13936150D02*
X11431729Y-13936150D01*
X11431729Y-13936150D02*
X11450777Y-13945674D01*
X11450777Y-13945674D02*
X11460301Y-13964722D01*
X11460301Y-13964722D02*
X11460301Y-14069484D01*
X11460301Y-13964722D02*
X11469824Y-13945674D01*
X11469824Y-13945674D02*
X11488872Y-13936150D01*
X11488872Y-13936150D02*
X11517443Y-13936150D01*
X11517443Y-13936150D02*
X11536491Y-13945674D01*
X11536491Y-13945674D02*
X11546015Y-13964722D01*
X11546015Y-13964722D02*
X11546015Y-14069484D01*
X11936491Y-13859960D02*
X11765063Y-14117103D01*
X12193634Y-13869484D02*
X12212682Y-13869484D01*
X12212682Y-13869484D02*
X12231729Y-13879008D01*
X12231729Y-13879008D02*
X12241253Y-13888531D01*
X12241253Y-13888531D02*
X12250777Y-13907579D01*
X12250777Y-13907579D02*
X12260301Y-13945674D01*
X12260301Y-13945674D02*
X12260301Y-13993293D01*
X12260301Y-13993293D02*
X12250777Y-14031388D01*
X12250777Y-14031388D02*
X12241253Y-14050436D01*
X12241253Y-14050436D02*
X12231729Y-14059960D01*
X12231729Y-14059960D02*
X12212682Y-14069484D01*
X12212682Y-14069484D02*
X12193634Y-14069484D01*
X12193634Y-14069484D02*
X12174586Y-14059960D01*
X12174586Y-14059960D02*
X12165063Y-14050436D01*
X12165063Y-14050436D02*
X12155539Y-14031388D01*
X12155539Y-14031388D02*
X12146015Y-13993293D01*
X12146015Y-13993293D02*
X12146015Y-13945674D01*
X12146015Y-13945674D02*
X12155539Y-13907579D01*
X12155539Y-13907579D02*
X12165063Y-13888531D01*
X12165063Y-13888531D02*
X12174586Y-13879008D01*
X12174586Y-13879008D02*
X12193634Y-13869484D01*
X12346015Y-14050436D02*
X12355539Y-14059960D01*
X12355539Y-14059960D02*
X12346015Y-14069484D01*
X12346015Y-14069484D02*
X12336491Y-14059960D01*
X12336491Y-14059960D02*
X12346015Y-14050436D01*
X12346015Y-14050436D02*
X12346015Y-14069484D01*
X12479348Y-13869484D02*
X12498396Y-13869484D01*
X12498396Y-13869484D02*
X12517444Y-13879008D01*
X12517444Y-13879008D02*
X12526967Y-13888531D01*
X12526967Y-13888531D02*
X12536491Y-13907579D01*
X12536491Y-13907579D02*
X12546015Y-13945674D01*
X12546015Y-13945674D02*
X12546015Y-13993293D01*
X12546015Y-13993293D02*
X12536491Y-14031388D01*
X12536491Y-14031388D02*
X12526967Y-14050436D01*
X12526967Y-14050436D02*
X12517444Y-14059960D01*
X12517444Y-14059960D02*
X12498396Y-14069484D01*
X12498396Y-14069484D02*
X12479348Y-14069484D01*
X12479348Y-14069484D02*
X12460301Y-14059960D01*
X12460301Y-14059960D02*
X12450777Y-14050436D01*
X12450777Y-14050436D02*
X12441253Y-14031388D01*
X12441253Y-14031388D02*
X12431729Y-13993293D01*
X12431729Y-13993293D02*
X12431729Y-13945674D01*
X12431729Y-13945674D02*
X12441253Y-13907579D01*
X12441253Y-13907579D02*
X12450777Y-13888531D01*
X12450777Y-13888531D02*
X12460301Y-13879008D01*
X12460301Y-13879008D02*
X12479348Y-13869484D01*
X12622206Y-13888531D02*
X12631729Y-13879008D01*
X12631729Y-13879008D02*
X12650777Y-13869484D01*
X12650777Y-13869484D02*
X12698396Y-13869484D01*
X12698396Y-13869484D02*
X12717444Y-13879008D01*
X12717444Y-13879008D02*
X12726967Y-13888531D01*
X12726967Y-13888531D02*
X12736491Y-13907579D01*
X12736491Y-13907579D02*
X12736491Y-13926627D01*
X12736491Y-13926627D02*
X12726967Y-13955198D01*
X12726967Y-13955198D02*
X12612682Y-14069484D01*
X12612682Y-14069484D02*
X12736491Y-14069484D01*
X12917444Y-13869484D02*
X12822206Y-13869484D01*
X12822206Y-13869484D02*
X12812682Y-13964722D01*
X12812682Y-13964722D02*
X12822206Y-13955198D01*
X12822206Y-13955198D02*
X12841253Y-13945674D01*
X12841253Y-13945674D02*
X12888872Y-13945674D01*
X12888872Y-13945674D02*
X12907920Y-13955198D01*
X12907920Y-13955198D02*
X12917444Y-13964722D01*
X12917444Y-13964722D02*
X12926967Y-13983769D01*
X12926967Y-13983769D02*
X12926967Y-14031388D01*
X12926967Y-14031388D02*
X12917444Y-14050436D01*
X12917444Y-14050436D02*
X12907920Y-14059960D01*
X12907920Y-14059960D02*
X12888872Y-14069484D01*
X12888872Y-14069484D02*
X12841253Y-14069484D01*
X12841253Y-14069484D02*
X12822206Y-14059960D01*
X12822206Y-14059960D02*
X12812682Y-14050436D01*
X13098396Y-13869484D02*
X13060301Y-13869484D01*
X13060301Y-13869484D02*
X13041253Y-13879008D01*
X13041253Y-13879008D02*
X13031729Y-13888531D01*
X13031729Y-13888531D02*
X13012682Y-13917103D01*
X13012682Y-13917103D02*
X13003158Y-13955198D01*
X13003158Y-13955198D02*
X13003158Y-14031388D01*
X13003158Y-14031388D02*
X13012682Y-14050436D01*
X13012682Y-14050436D02*
X13022206Y-14059960D01*
X13022206Y-14059960D02*
X13041253Y-14069484D01*
X13041253Y-14069484D02*
X13079348Y-14069484D01*
X13079348Y-14069484D02*
X13098396Y-14059960D01*
X13098396Y-14059960D02*
X13107920Y-14050436D01*
X13107920Y-14050436D02*
X13117444Y-14031388D01*
X13117444Y-14031388D02*
X13117444Y-13983769D01*
X13117444Y-13983769D02*
X13107920Y-13964722D01*
X13107920Y-13964722D02*
X13098396Y-13955198D01*
X13098396Y-13955198D02*
X13079348Y-13945674D01*
X13079348Y-13945674D02*
X13041253Y-13945674D01*
X13041253Y-13945674D02*
X13022206Y-13955198D01*
X13022206Y-13955198D02*
X13012682Y-13964722D01*
X13012682Y-13964722D02*
X13003158Y-13983769D01*
X13193634Y-13869484D02*
X13193634Y-13907579D01*
X13269825Y-13869484D02*
X13269825Y-13907579D01*
X13565063Y-14145674D02*
X13555539Y-14136150D01*
X13555539Y-14136150D02*
X13536491Y-14107579D01*
X13536491Y-14107579D02*
X13526968Y-14088531D01*
X13526968Y-14088531D02*
X13517444Y-14059960D01*
X13517444Y-14059960D02*
X13507920Y-14012341D01*
X13507920Y-14012341D02*
X13507920Y-13974246D01*
X13507920Y-13974246D02*
X13517444Y-13926627D01*
X13517444Y-13926627D02*
X13526968Y-13898055D01*
X13526968Y-13898055D02*
X13536491Y-13879008D01*
X13536491Y-13879008D02*
X13555539Y-13850436D01*
X13555539Y-13850436D02*
X13565063Y-13840912D01*
X13736491Y-13869484D02*
X13641253Y-13869484D01*
X13641253Y-13869484D02*
X13631729Y-13964722D01*
X13631729Y-13964722D02*
X13641253Y-13955198D01*
X13641253Y-13955198D02*
X13660301Y-13945674D01*
X13660301Y-13945674D02*
X13707920Y-13945674D01*
X13707920Y-13945674D02*
X13726968Y-13955198D01*
X13726968Y-13955198D02*
X13736491Y-13964722D01*
X13736491Y-13964722D02*
X13746015Y-13983769D01*
X13746015Y-13983769D02*
X13746015Y-14031388D01*
X13746015Y-14031388D02*
X13736491Y-14050436D01*
X13736491Y-14050436D02*
X13726968Y-14059960D01*
X13726968Y-14059960D02*
X13707920Y-14069484D01*
X13707920Y-14069484D02*
X13660301Y-14069484D01*
X13660301Y-14069484D02*
X13641253Y-14059960D01*
X13641253Y-14059960D02*
X13631729Y-14050436D01*
X13984110Y-14069484D02*
X13984110Y-13869484D01*
X14069825Y-14069484D02*
X14069825Y-13964722D01*
X14069825Y-13964722D02*
X14060301Y-13945674D01*
X14060301Y-13945674D02*
X14041253Y-13936150D01*
X14041253Y-13936150D02*
X14012682Y-13936150D01*
X14012682Y-13936150D02*
X13993634Y-13945674D01*
X13993634Y-13945674D02*
X13984110Y-13955198D01*
X14193634Y-14069484D02*
X14174587Y-14059960D01*
X14174587Y-14059960D02*
X14165063Y-14050436D01*
X14165063Y-14050436D02*
X14155539Y-14031388D01*
X14155539Y-14031388D02*
X14155539Y-13974246D01*
X14155539Y-13974246D02*
X14165063Y-13955198D01*
X14165063Y-13955198D02*
X14174587Y-13945674D01*
X14174587Y-13945674D02*
X14193634Y-13936150D01*
X14193634Y-13936150D02*
X14222206Y-13936150D01*
X14222206Y-13936150D02*
X14241253Y-13945674D01*
X14241253Y-13945674D02*
X14250777Y-13955198D01*
X14250777Y-13955198D02*
X14260301Y-13974246D01*
X14260301Y-13974246D02*
X14260301Y-14031388D01*
X14260301Y-14031388D02*
X14250777Y-14050436D01*
X14250777Y-14050436D02*
X14241253Y-14059960D01*
X14241253Y-14059960D02*
X14222206Y-14069484D01*
X14222206Y-14069484D02*
X14193634Y-14069484D01*
X14374587Y-14069484D02*
X14355539Y-14059960D01*
X14355539Y-14059960D02*
X14346015Y-14040912D01*
X14346015Y-14040912D02*
X14346015Y-13869484D01*
X14526968Y-14059960D02*
X14507920Y-14069484D01*
X14507920Y-14069484D02*
X14469825Y-14069484D01*
X14469825Y-14069484D02*
X14450777Y-14059960D01*
X14450777Y-14059960D02*
X14441253Y-14040912D01*
X14441253Y-14040912D02*
X14441253Y-13964722D01*
X14441253Y-13964722D02*
X14450777Y-13945674D01*
X14450777Y-13945674D02*
X14469825Y-13936150D01*
X14469825Y-13936150D02*
X14507920Y-13936150D01*
X14507920Y-13936150D02*
X14526968Y-13945674D01*
X14526968Y-13945674D02*
X14536491Y-13964722D01*
X14536491Y-13964722D02*
X14536491Y-13983769D01*
X14536491Y-13983769D02*
X14441253Y-14002817D01*
X14612682Y-14059960D02*
X14631730Y-14069484D01*
X14631730Y-14069484D02*
X14669825Y-14069484D01*
X14669825Y-14069484D02*
X14688872Y-14059960D01*
X14688872Y-14059960D02*
X14698396Y-14040912D01*
X14698396Y-14040912D02*
X14698396Y-14031388D01*
X14698396Y-14031388D02*
X14688872Y-14012341D01*
X14688872Y-14012341D02*
X14669825Y-14002817D01*
X14669825Y-14002817D02*
X14641253Y-14002817D01*
X14641253Y-14002817D02*
X14622206Y-13993293D01*
X14622206Y-13993293D02*
X14612682Y-13974246D01*
X14612682Y-13974246D02*
X14612682Y-13964722D01*
X14612682Y-13964722D02*
X14622206Y-13945674D01*
X14622206Y-13945674D02*
X14641253Y-13936150D01*
X14641253Y-13936150D02*
X14669825Y-13936150D01*
X14669825Y-13936150D02*
X14688872Y-13945674D01*
X14765063Y-14145674D02*
X14774587Y-14136150D01*
X14774587Y-14136150D02*
X14793634Y-14107579D01*
X14793634Y-14107579D02*
X14803158Y-14088531D01*
X14803158Y-14088531D02*
X14812682Y-14059960D01*
X14812682Y-14059960D02*
X14822206Y-14012341D01*
X14822206Y-14012341D02*
X14822206Y-13974246D01*
X14822206Y-13974246D02*
X14812682Y-13926627D01*
X14812682Y-13926627D02*
X14803158Y-13898055D01*
X14803158Y-13898055D02*
X14793634Y-13879008D01*
X14793634Y-13879008D02*
X14774587Y-13850436D01*
X14774587Y-13850436D02*
X14765063Y-13840912D01*
D11*
X9979749Y-14266749D02*
X9979749Y-14217251D01*
X9930251Y-14217251D01*
X9930251Y-14266749D01*
X9979749Y-14266749D01*
D10*
X10288872Y-14133484D02*
X10307920Y-14133484D01*
X10307920Y-14133484D02*
X10326967Y-14143008D01*
X10326967Y-14143008D02*
X10336491Y-14152531D01*
X10336491Y-14152531D02*
X10346015Y-14171579D01*
X10346015Y-14171579D02*
X10355539Y-14209674D01*
X10355539Y-14209674D02*
X10355539Y-14257293D01*
X10355539Y-14257293D02*
X10346015Y-14295388D01*
X10346015Y-14295388D02*
X10336491Y-14314436D01*
X10336491Y-14314436D02*
X10326967Y-14323960D01*
X10326967Y-14323960D02*
X10307920Y-14333484D01*
X10307920Y-14333484D02*
X10288872Y-14333484D01*
X10288872Y-14333484D02*
X10269824Y-14323960D01*
X10269824Y-14323960D02*
X10260301Y-14314436D01*
X10260301Y-14314436D02*
X10250777Y-14295388D01*
X10250777Y-14295388D02*
X10241253Y-14257293D01*
X10241253Y-14257293D02*
X10241253Y-14209674D01*
X10241253Y-14209674D02*
X10250777Y-14171579D01*
X10250777Y-14171579D02*
X10260301Y-14152531D01*
X10260301Y-14152531D02*
X10269824Y-14143008D01*
X10269824Y-14143008D02*
X10288872Y-14133484D01*
X10441253Y-14314436D02*
X10450777Y-14323960D01*
X10450777Y-14323960D02*
X10441253Y-14333484D01*
X10441253Y-14333484D02*
X10431729Y-14323960D01*
X10431729Y-14323960D02*
X10441253Y-14314436D01*
X10441253Y-14314436D02*
X10441253Y-14333484D01*
X10517444Y-14133484D02*
X10650777Y-14133484D01*
X10650777Y-14133484D02*
X10565063Y-14333484D01*
X10765063Y-14133484D02*
X10784110Y-14133484D01*
X10784110Y-14133484D02*
X10803158Y-14143008D01*
X10803158Y-14143008D02*
X10812682Y-14152531D01*
X10812682Y-14152531D02*
X10822205Y-14171579D01*
X10822205Y-14171579D02*
X10831729Y-14209674D01*
X10831729Y-14209674D02*
X10831729Y-14257293D01*
X10831729Y-14257293D02*
X10822205Y-14295388D01*
X10822205Y-14295388D02*
X10812682Y-14314436D01*
X10812682Y-14314436D02*
X10803158Y-14323960D01*
X10803158Y-14323960D02*
X10784110Y-14333484D01*
X10784110Y-14333484D02*
X10765063Y-14333484D01*
X10765063Y-14333484D02*
X10746015Y-14323960D01*
X10746015Y-14323960D02*
X10736491Y-14314436D01*
X10736491Y-14314436D02*
X10726967Y-14295388D01*
X10726967Y-14295388D02*
X10717444Y-14257293D01*
X10717444Y-14257293D02*
X10717444Y-14209674D01*
X10717444Y-14209674D02*
X10726967Y-14171579D01*
X10726967Y-14171579D02*
X10736491Y-14152531D01*
X10736491Y-14152531D02*
X10746015Y-14143008D01*
X10746015Y-14143008D02*
X10765063Y-14133484D01*
X10955539Y-14133484D02*
X10974586Y-14133484D01*
X10974586Y-14133484D02*
X10993634Y-14143008D01*
X10993634Y-14143008D02*
X11003158Y-14152531D01*
X11003158Y-14152531D02*
X11012682Y-14171579D01*
X11012682Y-14171579D02*
X11022205Y-14209674D01*
X11022205Y-14209674D02*
X11022205Y-14257293D01*
X11022205Y-14257293D02*
X11012682Y-14295388D01*
X11012682Y-14295388D02*
X11003158Y-14314436D01*
X11003158Y-14314436D02*
X10993634Y-14323960D01*
X10993634Y-14323960D02*
X10974586Y-14333484D01*
X10974586Y-14333484D02*
X10955539Y-14333484D01*
X10955539Y-14333484D02*
X10936491Y-14323960D01*
X10936491Y-14323960D02*
X10926967Y-14314436D01*
X10926967Y-14314436D02*
X10917444Y-14295388D01*
X10917444Y-14295388D02*
X10907920Y-14257293D01*
X10907920Y-14257293D02*
X10907920Y-14209674D01*
X10907920Y-14209674D02*
X10917444Y-14171579D01*
X10917444Y-14171579D02*
X10926967Y-14152531D01*
X10926967Y-14152531D02*
X10936491Y-14143008D01*
X10936491Y-14143008D02*
X10955539Y-14133484D01*
X11107920Y-14333484D02*
X11107920Y-14200150D01*
X11107920Y-14219198D02*
X11117444Y-14209674D01*
X11117444Y-14209674D02*
X11136491Y-14200150D01*
X11136491Y-14200150D02*
X11165063Y-14200150D01*
X11165063Y-14200150D02*
X11184110Y-14209674D01*
X11184110Y-14209674D02*
X11193634Y-14228722D01*
X11193634Y-14228722D02*
X11193634Y-14333484D01*
X11193634Y-14228722D02*
X11203158Y-14209674D01*
X11203158Y-14209674D02*
X11222205Y-14200150D01*
X11222205Y-14200150D02*
X11250777Y-14200150D01*
X11250777Y-14200150D02*
X11269824Y-14209674D01*
X11269824Y-14209674D02*
X11279348Y-14228722D01*
X11279348Y-14228722D02*
X11279348Y-14333484D01*
X11374586Y-14333484D02*
X11374586Y-14200150D01*
X11374586Y-14219198D02*
X11384110Y-14209674D01*
X11384110Y-14209674D02*
X11403158Y-14200150D01*
X11403158Y-14200150D02*
X11431729Y-14200150D01*
X11431729Y-14200150D02*
X11450777Y-14209674D01*
X11450777Y-14209674D02*
X11460301Y-14228722D01*
X11460301Y-14228722D02*
X11460301Y-14333484D01*
X11460301Y-14228722D02*
X11469824Y-14209674D01*
X11469824Y-14209674D02*
X11488872Y-14200150D01*
X11488872Y-14200150D02*
X11517443Y-14200150D01*
X11517443Y-14200150D02*
X11536491Y-14209674D01*
X11536491Y-14209674D02*
X11546015Y-14228722D01*
X11546015Y-14228722D02*
X11546015Y-14333484D01*
X11936491Y-14123960D02*
X11765063Y-14381103D01*
X12193634Y-14133484D02*
X12212682Y-14133484D01*
X12212682Y-14133484D02*
X12231729Y-14143008D01*
X12231729Y-14143008D02*
X12241253Y-14152531D01*
X12241253Y-14152531D02*
X12250777Y-14171579D01*
X12250777Y-14171579D02*
X12260301Y-14209674D01*
X12260301Y-14209674D02*
X12260301Y-14257293D01*
X12260301Y-14257293D02*
X12250777Y-14295388D01*
X12250777Y-14295388D02*
X12241253Y-14314436D01*
X12241253Y-14314436D02*
X12231729Y-14323960D01*
X12231729Y-14323960D02*
X12212682Y-14333484D01*
X12212682Y-14333484D02*
X12193634Y-14333484D01*
X12193634Y-14333484D02*
X12174586Y-14323960D01*
X12174586Y-14323960D02*
X12165063Y-14314436D01*
X12165063Y-14314436D02*
X12155539Y-14295388D01*
X12155539Y-14295388D02*
X12146015Y-14257293D01*
X12146015Y-14257293D02*
X12146015Y-14209674D01*
X12146015Y-14209674D02*
X12155539Y-14171579D01*
X12155539Y-14171579D02*
X12165063Y-14152531D01*
X12165063Y-14152531D02*
X12174586Y-14143008D01*
X12174586Y-14143008D02*
X12193634Y-14133484D01*
X12346015Y-14314436D02*
X12355539Y-14323960D01*
X12355539Y-14323960D02*
X12346015Y-14333484D01*
X12346015Y-14333484D02*
X12336491Y-14323960D01*
X12336491Y-14323960D02*
X12346015Y-14314436D01*
X12346015Y-14314436D02*
X12346015Y-14333484D01*
X12479348Y-14133484D02*
X12498396Y-14133484D01*
X12498396Y-14133484D02*
X12517444Y-14143008D01*
X12517444Y-14143008D02*
X12526967Y-14152531D01*
X12526967Y-14152531D02*
X12536491Y-14171579D01*
X12536491Y-14171579D02*
X12546015Y-14209674D01*
X12546015Y-14209674D02*
X12546015Y-14257293D01*
X12546015Y-14257293D02*
X12536491Y-14295388D01*
X12536491Y-14295388D02*
X12526967Y-14314436D01*
X12526967Y-14314436D02*
X12517444Y-14323960D01*
X12517444Y-14323960D02*
X12498396Y-14333484D01*
X12498396Y-14333484D02*
X12479348Y-14333484D01*
X12479348Y-14333484D02*
X12460301Y-14323960D01*
X12460301Y-14323960D02*
X12450777Y-14314436D01*
X12450777Y-14314436D02*
X12441253Y-14295388D01*
X12441253Y-14295388D02*
X12431729Y-14257293D01*
X12431729Y-14257293D02*
X12431729Y-14209674D01*
X12431729Y-14209674D02*
X12441253Y-14171579D01*
X12441253Y-14171579D02*
X12450777Y-14152531D01*
X12450777Y-14152531D02*
X12460301Y-14143008D01*
X12460301Y-14143008D02*
X12479348Y-14133484D01*
X12622206Y-14152531D02*
X12631729Y-14143008D01*
X12631729Y-14143008D02*
X12650777Y-14133484D01*
X12650777Y-14133484D02*
X12698396Y-14133484D01*
X12698396Y-14133484D02*
X12717444Y-14143008D01*
X12717444Y-14143008D02*
X12726967Y-14152531D01*
X12726967Y-14152531D02*
X12736491Y-14171579D01*
X12736491Y-14171579D02*
X12736491Y-14190627D01*
X12736491Y-14190627D02*
X12726967Y-14219198D01*
X12726967Y-14219198D02*
X12612682Y-14333484D01*
X12612682Y-14333484D02*
X12736491Y-14333484D01*
X12803158Y-14133484D02*
X12936491Y-14133484D01*
X12936491Y-14133484D02*
X12850777Y-14333484D01*
X13098396Y-14133484D02*
X13060301Y-14133484D01*
X13060301Y-14133484D02*
X13041253Y-14143008D01*
X13041253Y-14143008D02*
X13031729Y-14152531D01*
X13031729Y-14152531D02*
X13012682Y-14181103D01*
X13012682Y-14181103D02*
X13003158Y-14219198D01*
X13003158Y-14219198D02*
X13003158Y-14295388D01*
X13003158Y-14295388D02*
X13012682Y-14314436D01*
X13012682Y-14314436D02*
X13022206Y-14323960D01*
X13022206Y-14323960D02*
X13041253Y-14333484D01*
X13041253Y-14333484D02*
X13079348Y-14333484D01*
X13079348Y-14333484D02*
X13098396Y-14323960D01*
X13098396Y-14323960D02*
X13107920Y-14314436D01*
X13107920Y-14314436D02*
X13117444Y-14295388D01*
X13117444Y-14295388D02*
X13117444Y-14247769D01*
X13117444Y-14247769D02*
X13107920Y-14228722D01*
X13107920Y-14228722D02*
X13098396Y-14219198D01*
X13098396Y-14219198D02*
X13079348Y-14209674D01*
X13079348Y-14209674D02*
X13041253Y-14209674D01*
X13041253Y-14209674D02*
X13022206Y-14219198D01*
X13022206Y-14219198D02*
X13012682Y-14228722D01*
X13012682Y-14228722D02*
X13003158Y-14247769D01*
X13193634Y-14133484D02*
X13193634Y-14171579D01*
X13269825Y-14133484D02*
X13269825Y-14171579D01*
X13565063Y-14409674D02*
X13555539Y-14400150D01*
X13555539Y-14400150D02*
X13536491Y-14371579D01*
X13536491Y-14371579D02*
X13526968Y-14352531D01*
X13526968Y-14352531D02*
X13517444Y-14323960D01*
X13517444Y-14323960D02*
X13507920Y-14276341D01*
X13507920Y-14276341D02*
X13507920Y-14238246D01*
X13507920Y-14238246D02*
X13517444Y-14190627D01*
X13517444Y-14190627D02*
X13526968Y-14162055D01*
X13526968Y-14162055D02*
X13536491Y-14143008D01*
X13536491Y-14143008D02*
X13555539Y-14114436D01*
X13555539Y-14114436D02*
X13565063Y-14104912D01*
X13631729Y-14152531D02*
X13641253Y-14143008D01*
X13641253Y-14143008D02*
X13660301Y-14133484D01*
X13660301Y-14133484D02*
X13707920Y-14133484D01*
X13707920Y-14133484D02*
X13726968Y-14143008D01*
X13726968Y-14143008D02*
X13736491Y-14152531D01*
X13736491Y-14152531D02*
X13746015Y-14171579D01*
X13746015Y-14171579D02*
X13746015Y-14190627D01*
X13746015Y-14190627D02*
X13736491Y-14219198D01*
X13736491Y-14219198D02*
X13622206Y-14333484D01*
X13622206Y-14333484D02*
X13746015Y-14333484D01*
X13869825Y-14133484D02*
X13888872Y-14133484D01*
X13888872Y-14133484D02*
X13907920Y-14143008D01*
X13907920Y-14143008D02*
X13917444Y-14152531D01*
X13917444Y-14152531D02*
X13926968Y-14171579D01*
X13926968Y-14171579D02*
X13936491Y-14209674D01*
X13936491Y-14209674D02*
X13936491Y-14257293D01*
X13936491Y-14257293D02*
X13926968Y-14295388D01*
X13926968Y-14295388D02*
X13917444Y-14314436D01*
X13917444Y-14314436D02*
X13907920Y-14323960D01*
X13907920Y-14323960D02*
X13888872Y-14333484D01*
X13888872Y-14333484D02*
X13869825Y-14333484D01*
X13869825Y-14333484D02*
X13850777Y-14323960D01*
X13850777Y-14323960D02*
X13841253Y-14314436D01*
X13841253Y-14314436D02*
X13831729Y-14295388D01*
X13831729Y-14295388D02*
X13822206Y-14257293D01*
X13822206Y-14257293D02*
X13822206Y-14209674D01*
X13822206Y-14209674D02*
X13831729Y-14171579D01*
X13831729Y-14171579D02*
X13841253Y-14152531D01*
X13841253Y-14152531D02*
X13850777Y-14143008D01*
X13850777Y-14143008D02*
X13869825Y-14133484D01*
X14174587Y-14333484D02*
X14174587Y-14133484D01*
X14260301Y-14333484D02*
X14260301Y-14228722D01*
X14260301Y-14228722D02*
X14250777Y-14209674D01*
X14250777Y-14209674D02*
X14231730Y-14200150D01*
X14231730Y-14200150D02*
X14203158Y-14200150D01*
X14203158Y-14200150D02*
X14184110Y-14209674D01*
X14184110Y-14209674D02*
X14174587Y-14219198D01*
X14384110Y-14333484D02*
X14365063Y-14323960D01*
X14365063Y-14323960D02*
X14355539Y-14314436D01*
X14355539Y-14314436D02*
X14346015Y-14295388D01*
X14346015Y-14295388D02*
X14346015Y-14238246D01*
X14346015Y-14238246D02*
X14355539Y-14219198D01*
X14355539Y-14219198D02*
X14365063Y-14209674D01*
X14365063Y-14209674D02*
X14384110Y-14200150D01*
X14384110Y-14200150D02*
X14412682Y-14200150D01*
X14412682Y-14200150D02*
X14431730Y-14209674D01*
X14431730Y-14209674D02*
X14441253Y-14219198D01*
X14441253Y-14219198D02*
X14450777Y-14238246D01*
X14450777Y-14238246D02*
X14450777Y-14295388D01*
X14450777Y-14295388D02*
X14441253Y-14314436D01*
X14441253Y-14314436D02*
X14431730Y-14323960D01*
X14431730Y-14323960D02*
X14412682Y-14333484D01*
X14412682Y-14333484D02*
X14384110Y-14333484D01*
X14565063Y-14333484D02*
X14546015Y-14323960D01*
X14546015Y-14323960D02*
X14536491Y-14304912D01*
X14536491Y-14304912D02*
X14536491Y-14133484D01*
X14717444Y-14323960D02*
X14698396Y-14333484D01*
X14698396Y-14333484D02*
X14660301Y-14333484D01*
X14660301Y-14333484D02*
X14641253Y-14323960D01*
X14641253Y-14323960D02*
X14631730Y-14304912D01*
X14631730Y-14304912D02*
X14631730Y-14228722D01*
X14631730Y-14228722D02*
X14641253Y-14209674D01*
X14641253Y-14209674D02*
X14660301Y-14200150D01*
X14660301Y-14200150D02*
X14698396Y-14200150D01*
X14698396Y-14200150D02*
X14717444Y-14209674D01*
X14717444Y-14209674D02*
X14726968Y-14228722D01*
X14726968Y-14228722D02*
X14726968Y-14247769D01*
X14726968Y-14247769D02*
X14631730Y-14266817D01*
X14803158Y-14323960D02*
X14822206Y-14333484D01*
X14822206Y-14333484D02*
X14860301Y-14333484D01*
X14860301Y-14333484D02*
X14879349Y-14323960D01*
X14879349Y-14323960D02*
X14888872Y-14304912D01*
X14888872Y-14304912D02*
X14888872Y-14295388D01*
X14888872Y-14295388D02*
X14879349Y-14276341D01*
X14879349Y-14276341D02*
X14860301Y-14266817D01*
X14860301Y-14266817D02*
X14831730Y-14266817D01*
X14831730Y-14266817D02*
X14812682Y-14257293D01*
X14812682Y-14257293D02*
X14803158Y-14238246D01*
X14803158Y-14238246D02*
X14803158Y-14228722D01*
X14803158Y-14228722D02*
X14812682Y-14209674D01*
X14812682Y-14209674D02*
X14831730Y-14200150D01*
X14831730Y-14200150D02*
X14860301Y-14200150D01*
X14860301Y-14200150D02*
X14879349Y-14209674D01*
X14955539Y-14409674D02*
X14965063Y-14400150D01*
X14965063Y-14400150D02*
X14984111Y-14371579D01*
X14984111Y-14371579D02*
X14993634Y-14352531D01*
X14993634Y-14352531D02*
X15003158Y-14323960D01*
X15003158Y-14323960D02*
X15012682Y-14276341D01*
X15012682Y-14276341D02*
X15012682Y-14238246D01*
X15012682Y-14238246D02*
X15003158Y-14190627D01*
X15003158Y-14190627D02*
X14993634Y-14162055D01*
X14993634Y-14162055D02*
X14984111Y-14143008D01*
X14984111Y-14143008D02*
X14965063Y-14114436D01*
X14965063Y-14114436D02*
X14955539Y-14104912D01*
D11*
X9952500Y-14543500D02*
X9990000Y-14506000D01*
X9952500Y-14468500D01*
X9915000Y-14506000D01*
X9952500Y-14543500D01*
D10*
X10288872Y-14397484D02*
X10307920Y-14397484D01*
X10307920Y-14397484D02*
X10326967Y-14407008D01*
X10326967Y-14407008D02*
X10336491Y-14416531D01*
X10336491Y-14416531D02*
X10346015Y-14435579D01*
X10346015Y-14435579D02*
X10355539Y-14473674D01*
X10355539Y-14473674D02*
X10355539Y-14521293D01*
X10355539Y-14521293D02*
X10346015Y-14559388D01*
X10346015Y-14559388D02*
X10336491Y-14578436D01*
X10336491Y-14578436D02*
X10326967Y-14587960D01*
X10326967Y-14587960D02*
X10307920Y-14597484D01*
X10307920Y-14597484D02*
X10288872Y-14597484D01*
X10288872Y-14597484D02*
X10269824Y-14587960D01*
X10269824Y-14587960D02*
X10260301Y-14578436D01*
X10260301Y-14578436D02*
X10250777Y-14559388D01*
X10250777Y-14559388D02*
X10241253Y-14521293D01*
X10241253Y-14521293D02*
X10241253Y-14473674D01*
X10241253Y-14473674D02*
X10250777Y-14435579D01*
X10250777Y-14435579D02*
X10260301Y-14416531D01*
X10260301Y-14416531D02*
X10269824Y-14407008D01*
X10269824Y-14407008D02*
X10288872Y-14397484D01*
X10441253Y-14578436D02*
X10450777Y-14587960D01*
X10450777Y-14587960D02*
X10441253Y-14597484D01*
X10441253Y-14597484D02*
X10431729Y-14587960D01*
X10431729Y-14587960D02*
X10441253Y-14578436D01*
X10441253Y-14578436D02*
X10441253Y-14597484D01*
X10517444Y-14397484D02*
X10650777Y-14397484D01*
X10650777Y-14397484D02*
X10565063Y-14597484D01*
X10822205Y-14397484D02*
X10726967Y-14397484D01*
X10726967Y-14397484D02*
X10717444Y-14492722D01*
X10717444Y-14492722D02*
X10726967Y-14483198D01*
X10726967Y-14483198D02*
X10746015Y-14473674D01*
X10746015Y-14473674D02*
X10793634Y-14473674D01*
X10793634Y-14473674D02*
X10812682Y-14483198D01*
X10812682Y-14483198D02*
X10822205Y-14492722D01*
X10822205Y-14492722D02*
X10831729Y-14511769D01*
X10831729Y-14511769D02*
X10831729Y-14559388D01*
X10831729Y-14559388D02*
X10822205Y-14578436D01*
X10822205Y-14578436D02*
X10812682Y-14587960D01*
X10812682Y-14587960D02*
X10793634Y-14597484D01*
X10793634Y-14597484D02*
X10746015Y-14597484D01*
X10746015Y-14597484D02*
X10726967Y-14587960D01*
X10726967Y-14587960D02*
X10717444Y-14578436D01*
X10955539Y-14397484D02*
X10974586Y-14397484D01*
X10974586Y-14397484D02*
X10993634Y-14407008D01*
X10993634Y-14407008D02*
X11003158Y-14416531D01*
X11003158Y-14416531D02*
X11012682Y-14435579D01*
X11012682Y-14435579D02*
X11022205Y-14473674D01*
X11022205Y-14473674D02*
X11022205Y-14521293D01*
X11022205Y-14521293D02*
X11012682Y-14559388D01*
X11012682Y-14559388D02*
X11003158Y-14578436D01*
X11003158Y-14578436D02*
X10993634Y-14587960D01*
X10993634Y-14587960D02*
X10974586Y-14597484D01*
X10974586Y-14597484D02*
X10955539Y-14597484D01*
X10955539Y-14597484D02*
X10936491Y-14587960D01*
X10936491Y-14587960D02*
X10926967Y-14578436D01*
X10926967Y-14578436D02*
X10917444Y-14559388D01*
X10917444Y-14559388D02*
X10907920Y-14521293D01*
X10907920Y-14521293D02*
X10907920Y-14473674D01*
X10907920Y-14473674D02*
X10917444Y-14435579D01*
X10917444Y-14435579D02*
X10926967Y-14416531D01*
X10926967Y-14416531D02*
X10936491Y-14407008D01*
X10936491Y-14407008D02*
X10955539Y-14397484D01*
X11107920Y-14597484D02*
X11107920Y-14464150D01*
X11107920Y-14483198D02*
X11117444Y-14473674D01*
X11117444Y-14473674D02*
X11136491Y-14464150D01*
X11136491Y-14464150D02*
X11165063Y-14464150D01*
X11165063Y-14464150D02*
X11184110Y-14473674D01*
X11184110Y-14473674D02*
X11193634Y-14492722D01*
X11193634Y-14492722D02*
X11193634Y-14597484D01*
X11193634Y-14492722D02*
X11203158Y-14473674D01*
X11203158Y-14473674D02*
X11222205Y-14464150D01*
X11222205Y-14464150D02*
X11250777Y-14464150D01*
X11250777Y-14464150D02*
X11269824Y-14473674D01*
X11269824Y-14473674D02*
X11279348Y-14492722D01*
X11279348Y-14492722D02*
X11279348Y-14597484D01*
X11374586Y-14597484D02*
X11374586Y-14464150D01*
X11374586Y-14483198D02*
X11384110Y-14473674D01*
X11384110Y-14473674D02*
X11403158Y-14464150D01*
X11403158Y-14464150D02*
X11431729Y-14464150D01*
X11431729Y-14464150D02*
X11450777Y-14473674D01*
X11450777Y-14473674D02*
X11460301Y-14492722D01*
X11460301Y-14492722D02*
X11460301Y-14597484D01*
X11460301Y-14492722D02*
X11469824Y-14473674D01*
X11469824Y-14473674D02*
X11488872Y-14464150D01*
X11488872Y-14464150D02*
X11517443Y-14464150D01*
X11517443Y-14464150D02*
X11536491Y-14473674D01*
X11536491Y-14473674D02*
X11546015Y-14492722D01*
X11546015Y-14492722D02*
X11546015Y-14597484D01*
X11936491Y-14387960D02*
X11765063Y-14645103D01*
X12193634Y-14397484D02*
X12212682Y-14397484D01*
X12212682Y-14397484D02*
X12231729Y-14407008D01*
X12231729Y-14407008D02*
X12241253Y-14416531D01*
X12241253Y-14416531D02*
X12250777Y-14435579D01*
X12250777Y-14435579D02*
X12260301Y-14473674D01*
X12260301Y-14473674D02*
X12260301Y-14521293D01*
X12260301Y-14521293D02*
X12250777Y-14559388D01*
X12250777Y-14559388D02*
X12241253Y-14578436D01*
X12241253Y-14578436D02*
X12231729Y-14587960D01*
X12231729Y-14587960D02*
X12212682Y-14597484D01*
X12212682Y-14597484D02*
X12193634Y-14597484D01*
X12193634Y-14597484D02*
X12174586Y-14587960D01*
X12174586Y-14587960D02*
X12165063Y-14578436D01*
X12165063Y-14578436D02*
X12155539Y-14559388D01*
X12155539Y-14559388D02*
X12146015Y-14521293D01*
X12146015Y-14521293D02*
X12146015Y-14473674D01*
X12146015Y-14473674D02*
X12155539Y-14435579D01*
X12155539Y-14435579D02*
X12165063Y-14416531D01*
X12165063Y-14416531D02*
X12174586Y-14407008D01*
X12174586Y-14407008D02*
X12193634Y-14397484D01*
X12346015Y-14578436D02*
X12355539Y-14587960D01*
X12355539Y-14587960D02*
X12346015Y-14597484D01*
X12346015Y-14597484D02*
X12336491Y-14587960D01*
X12336491Y-14587960D02*
X12346015Y-14578436D01*
X12346015Y-14578436D02*
X12346015Y-14597484D01*
X12479348Y-14397484D02*
X12498396Y-14397484D01*
X12498396Y-14397484D02*
X12517444Y-14407008D01*
X12517444Y-14407008D02*
X12526967Y-14416531D01*
X12526967Y-14416531D02*
X12536491Y-14435579D01*
X12536491Y-14435579D02*
X12546015Y-14473674D01*
X12546015Y-14473674D02*
X12546015Y-14521293D01*
X12546015Y-14521293D02*
X12536491Y-14559388D01*
X12536491Y-14559388D02*
X12526967Y-14578436D01*
X12526967Y-14578436D02*
X12517444Y-14587960D01*
X12517444Y-14587960D02*
X12498396Y-14597484D01*
X12498396Y-14597484D02*
X12479348Y-14597484D01*
X12479348Y-14597484D02*
X12460301Y-14587960D01*
X12460301Y-14587960D02*
X12450777Y-14578436D01*
X12450777Y-14578436D02*
X12441253Y-14559388D01*
X12441253Y-14559388D02*
X12431729Y-14521293D01*
X12431729Y-14521293D02*
X12431729Y-14473674D01*
X12431729Y-14473674D02*
X12441253Y-14435579D01*
X12441253Y-14435579D02*
X12450777Y-14416531D01*
X12450777Y-14416531D02*
X12460301Y-14407008D01*
X12460301Y-14407008D02*
X12479348Y-14397484D01*
X12622206Y-14416531D02*
X12631729Y-14407008D01*
X12631729Y-14407008D02*
X12650777Y-14397484D01*
X12650777Y-14397484D02*
X12698396Y-14397484D01*
X12698396Y-14397484D02*
X12717444Y-14407008D01*
X12717444Y-14407008D02*
X12726967Y-14416531D01*
X12726967Y-14416531D02*
X12736491Y-14435579D01*
X12736491Y-14435579D02*
X12736491Y-14454627D01*
X12736491Y-14454627D02*
X12726967Y-14483198D01*
X12726967Y-14483198D02*
X12612682Y-14597484D01*
X12612682Y-14597484D02*
X12736491Y-14597484D01*
X12831729Y-14597484D02*
X12869825Y-14597484D01*
X12869825Y-14597484D02*
X12888872Y-14587960D01*
X12888872Y-14587960D02*
X12898396Y-14578436D01*
X12898396Y-14578436D02*
X12917444Y-14549865D01*
X12917444Y-14549865D02*
X12926967Y-14511769D01*
X12926967Y-14511769D02*
X12926967Y-14435579D01*
X12926967Y-14435579D02*
X12917444Y-14416531D01*
X12917444Y-14416531D02*
X12907920Y-14407008D01*
X12907920Y-14407008D02*
X12888872Y-14397484D01*
X12888872Y-14397484D02*
X12850777Y-14397484D01*
X12850777Y-14397484D02*
X12831729Y-14407008D01*
X12831729Y-14407008D02*
X12822206Y-14416531D01*
X12822206Y-14416531D02*
X12812682Y-14435579D01*
X12812682Y-14435579D02*
X12812682Y-14483198D01*
X12812682Y-14483198D02*
X12822206Y-14502246D01*
X12822206Y-14502246D02*
X12831729Y-14511769D01*
X12831729Y-14511769D02*
X12850777Y-14521293D01*
X12850777Y-14521293D02*
X12888872Y-14521293D01*
X12888872Y-14521293D02*
X12907920Y-14511769D01*
X12907920Y-14511769D02*
X12917444Y-14502246D01*
X12917444Y-14502246D02*
X12926967Y-14483198D01*
X13107920Y-14397484D02*
X13012682Y-14397484D01*
X13012682Y-14397484D02*
X13003158Y-14492722D01*
X13003158Y-14492722D02*
X13012682Y-14483198D01*
X13012682Y-14483198D02*
X13031729Y-14473674D01*
X13031729Y-14473674D02*
X13079348Y-14473674D01*
X13079348Y-14473674D02*
X13098396Y-14483198D01*
X13098396Y-14483198D02*
X13107920Y-14492722D01*
X13107920Y-14492722D02*
X13117444Y-14511769D01*
X13117444Y-14511769D02*
X13117444Y-14559388D01*
X13117444Y-14559388D02*
X13107920Y-14578436D01*
X13107920Y-14578436D02*
X13098396Y-14587960D01*
X13098396Y-14587960D02*
X13079348Y-14597484D01*
X13079348Y-14597484D02*
X13031729Y-14597484D01*
X13031729Y-14597484D02*
X13012682Y-14587960D01*
X13012682Y-14587960D02*
X13003158Y-14578436D01*
X13193634Y-14397484D02*
X13193634Y-14435579D01*
X13269825Y-14397484D02*
X13269825Y-14435579D01*
X13565063Y-14673674D02*
X13555539Y-14664150D01*
X13555539Y-14664150D02*
X13536491Y-14635579D01*
X13536491Y-14635579D02*
X13526968Y-14616531D01*
X13526968Y-14616531D02*
X13517444Y-14587960D01*
X13517444Y-14587960D02*
X13507920Y-14540341D01*
X13507920Y-14540341D02*
X13507920Y-14502246D01*
X13507920Y-14502246D02*
X13517444Y-14454627D01*
X13517444Y-14454627D02*
X13526968Y-14426055D01*
X13526968Y-14426055D02*
X13536491Y-14407008D01*
X13536491Y-14407008D02*
X13555539Y-14378436D01*
X13555539Y-14378436D02*
X13565063Y-14368912D01*
X13622206Y-14397484D02*
X13746015Y-14397484D01*
X13746015Y-14397484D02*
X13679348Y-14473674D01*
X13679348Y-14473674D02*
X13707920Y-14473674D01*
X13707920Y-14473674D02*
X13726968Y-14483198D01*
X13726968Y-14483198D02*
X13736491Y-14492722D01*
X13736491Y-14492722D02*
X13746015Y-14511769D01*
X13746015Y-14511769D02*
X13746015Y-14559388D01*
X13746015Y-14559388D02*
X13736491Y-14578436D01*
X13736491Y-14578436D02*
X13726968Y-14587960D01*
X13726968Y-14587960D02*
X13707920Y-14597484D01*
X13707920Y-14597484D02*
X13650777Y-14597484D01*
X13650777Y-14597484D02*
X13631729Y-14587960D01*
X13631729Y-14587960D02*
X13622206Y-14578436D01*
X13984110Y-14597484D02*
X13984110Y-14397484D01*
X14069825Y-14597484D02*
X14069825Y-14492722D01*
X14069825Y-14492722D02*
X14060301Y-14473674D01*
X14060301Y-14473674D02*
X14041253Y-14464150D01*
X14041253Y-14464150D02*
X14012682Y-14464150D01*
X14012682Y-14464150D02*
X13993634Y-14473674D01*
X13993634Y-14473674D02*
X13984110Y-14483198D01*
X14193634Y-14597484D02*
X14174587Y-14587960D01*
X14174587Y-14587960D02*
X14165063Y-14578436D01*
X14165063Y-14578436D02*
X14155539Y-14559388D01*
X14155539Y-14559388D02*
X14155539Y-14502246D01*
X14155539Y-14502246D02*
X14165063Y-14483198D01*
X14165063Y-14483198D02*
X14174587Y-14473674D01*
X14174587Y-14473674D02*
X14193634Y-14464150D01*
X14193634Y-14464150D02*
X14222206Y-14464150D01*
X14222206Y-14464150D02*
X14241253Y-14473674D01*
X14241253Y-14473674D02*
X14250777Y-14483198D01*
X14250777Y-14483198D02*
X14260301Y-14502246D01*
X14260301Y-14502246D02*
X14260301Y-14559388D01*
X14260301Y-14559388D02*
X14250777Y-14578436D01*
X14250777Y-14578436D02*
X14241253Y-14587960D01*
X14241253Y-14587960D02*
X14222206Y-14597484D01*
X14222206Y-14597484D02*
X14193634Y-14597484D01*
X14374587Y-14597484D02*
X14355539Y-14587960D01*
X14355539Y-14587960D02*
X14346015Y-14568912D01*
X14346015Y-14568912D02*
X14346015Y-14397484D01*
X14526968Y-14587960D02*
X14507920Y-14597484D01*
X14507920Y-14597484D02*
X14469825Y-14597484D01*
X14469825Y-14597484D02*
X14450777Y-14587960D01*
X14450777Y-14587960D02*
X14441253Y-14568912D01*
X14441253Y-14568912D02*
X14441253Y-14492722D01*
X14441253Y-14492722D02*
X14450777Y-14473674D01*
X14450777Y-14473674D02*
X14469825Y-14464150D01*
X14469825Y-14464150D02*
X14507920Y-14464150D01*
X14507920Y-14464150D02*
X14526968Y-14473674D01*
X14526968Y-14473674D02*
X14536491Y-14492722D01*
X14536491Y-14492722D02*
X14536491Y-14511769D01*
X14536491Y-14511769D02*
X14441253Y-14530817D01*
X14612682Y-14587960D02*
X14631730Y-14597484D01*
X14631730Y-14597484D02*
X14669825Y-14597484D01*
X14669825Y-14597484D02*
X14688872Y-14587960D01*
X14688872Y-14587960D02*
X14698396Y-14568912D01*
X14698396Y-14568912D02*
X14698396Y-14559388D01*
X14698396Y-14559388D02*
X14688872Y-14540341D01*
X14688872Y-14540341D02*
X14669825Y-14530817D01*
X14669825Y-14530817D02*
X14641253Y-14530817D01*
X14641253Y-14530817D02*
X14622206Y-14521293D01*
X14622206Y-14521293D02*
X14612682Y-14502246D01*
X14612682Y-14502246D02*
X14612682Y-14492722D01*
X14612682Y-14492722D02*
X14622206Y-14473674D01*
X14622206Y-14473674D02*
X14641253Y-14464150D01*
X14641253Y-14464150D02*
X14669825Y-14464150D01*
X14669825Y-14464150D02*
X14688872Y-14473674D01*
X14765063Y-14673674D02*
X14774587Y-14664150D01*
X14774587Y-14664150D02*
X14793634Y-14635579D01*
X14793634Y-14635579D02*
X14803158Y-14616531D01*
X14803158Y-14616531D02*
X14812682Y-14587960D01*
X14812682Y-14587960D02*
X14822206Y-14540341D01*
X14822206Y-14540341D02*
X14822206Y-14502246D01*
X14822206Y-14502246D02*
X14812682Y-14454627D01*
X14812682Y-14454627D02*
X14803158Y-14426055D01*
X14803158Y-14426055D02*
X14793634Y-14407008D01*
X14793634Y-14407008D02*
X14774587Y-14378436D01*
X14774587Y-14378436D02*
X14765063Y-14368912D01*
D11*
X9900000Y-14725000D02*
X9990000Y-14815000D01*
X9990000Y-14725000D02*
X9900000Y-14815000D01*
X9990000Y-14770000D02*
G75*
G02*
X9900000Y-14770000I-45000J0D01*
G01*
X9900000Y-14770000D02*
G75*
G02*
X9990000Y-14770000I45000J0D01*
G01*
D10*
X10288872Y-14661484D02*
X10307920Y-14661484D01*
X10307920Y-14661484D02*
X10326967Y-14671008D01*
X10326967Y-14671008D02*
X10336491Y-14680531D01*
X10336491Y-14680531D02*
X10346015Y-14699579D01*
X10346015Y-14699579D02*
X10355539Y-14737674D01*
X10355539Y-14737674D02*
X10355539Y-14785293D01*
X10355539Y-14785293D02*
X10346015Y-14823388D01*
X10346015Y-14823388D02*
X10336491Y-14842436D01*
X10336491Y-14842436D02*
X10326967Y-14851960D01*
X10326967Y-14851960D02*
X10307920Y-14861484D01*
X10307920Y-14861484D02*
X10288872Y-14861484D01*
X10288872Y-14861484D02*
X10269824Y-14851960D01*
X10269824Y-14851960D02*
X10260301Y-14842436D01*
X10260301Y-14842436D02*
X10250777Y-14823388D01*
X10250777Y-14823388D02*
X10241253Y-14785293D01*
X10241253Y-14785293D02*
X10241253Y-14737674D01*
X10241253Y-14737674D02*
X10250777Y-14699579D01*
X10250777Y-14699579D02*
X10260301Y-14680531D01*
X10260301Y-14680531D02*
X10269824Y-14671008D01*
X10269824Y-14671008D02*
X10288872Y-14661484D01*
X10441253Y-14842436D02*
X10450777Y-14851960D01*
X10450777Y-14851960D02*
X10441253Y-14861484D01*
X10441253Y-14861484D02*
X10431729Y-14851960D01*
X10431729Y-14851960D02*
X10441253Y-14842436D01*
X10441253Y-14842436D02*
X10441253Y-14861484D01*
X10546015Y-14861484D02*
X10584110Y-14861484D01*
X10584110Y-14861484D02*
X10603158Y-14851960D01*
X10603158Y-14851960D02*
X10612682Y-14842436D01*
X10612682Y-14842436D02*
X10631729Y-14813865D01*
X10631729Y-14813865D02*
X10641253Y-14775769D01*
X10641253Y-14775769D02*
X10641253Y-14699579D01*
X10641253Y-14699579D02*
X10631729Y-14680531D01*
X10631729Y-14680531D02*
X10622205Y-14671008D01*
X10622205Y-14671008D02*
X10603158Y-14661484D01*
X10603158Y-14661484D02*
X10565063Y-14661484D01*
X10565063Y-14661484D02*
X10546015Y-14671008D01*
X10546015Y-14671008D02*
X10536491Y-14680531D01*
X10536491Y-14680531D02*
X10526967Y-14699579D01*
X10526967Y-14699579D02*
X10526967Y-14747198D01*
X10526967Y-14747198D02*
X10536491Y-14766246D01*
X10536491Y-14766246D02*
X10546015Y-14775769D01*
X10546015Y-14775769D02*
X10565063Y-14785293D01*
X10565063Y-14785293D02*
X10603158Y-14785293D01*
X10603158Y-14785293D02*
X10622205Y-14775769D01*
X10622205Y-14775769D02*
X10631729Y-14766246D01*
X10631729Y-14766246D02*
X10641253Y-14747198D01*
X10765063Y-14661484D02*
X10784110Y-14661484D01*
X10784110Y-14661484D02*
X10803158Y-14671008D01*
X10803158Y-14671008D02*
X10812682Y-14680531D01*
X10812682Y-14680531D02*
X10822205Y-14699579D01*
X10822205Y-14699579D02*
X10831729Y-14737674D01*
X10831729Y-14737674D02*
X10831729Y-14785293D01*
X10831729Y-14785293D02*
X10822205Y-14823388D01*
X10822205Y-14823388D02*
X10812682Y-14842436D01*
X10812682Y-14842436D02*
X10803158Y-14851960D01*
X10803158Y-14851960D02*
X10784110Y-14861484D01*
X10784110Y-14861484D02*
X10765063Y-14861484D01*
X10765063Y-14861484D02*
X10746015Y-14851960D01*
X10746015Y-14851960D02*
X10736491Y-14842436D01*
X10736491Y-14842436D02*
X10726967Y-14823388D01*
X10726967Y-14823388D02*
X10717444Y-14785293D01*
X10717444Y-14785293D02*
X10717444Y-14737674D01*
X10717444Y-14737674D02*
X10726967Y-14699579D01*
X10726967Y-14699579D02*
X10736491Y-14680531D01*
X10736491Y-14680531D02*
X10746015Y-14671008D01*
X10746015Y-14671008D02*
X10765063Y-14661484D01*
X10955539Y-14661484D02*
X10974586Y-14661484D01*
X10974586Y-14661484D02*
X10993634Y-14671008D01*
X10993634Y-14671008D02*
X11003158Y-14680531D01*
X11003158Y-14680531D02*
X11012682Y-14699579D01*
X11012682Y-14699579D02*
X11022205Y-14737674D01*
X11022205Y-14737674D02*
X11022205Y-14785293D01*
X11022205Y-14785293D02*
X11012682Y-14823388D01*
X11012682Y-14823388D02*
X11003158Y-14842436D01*
X11003158Y-14842436D02*
X10993634Y-14851960D01*
X10993634Y-14851960D02*
X10974586Y-14861484D01*
X10974586Y-14861484D02*
X10955539Y-14861484D01*
X10955539Y-14861484D02*
X10936491Y-14851960D01*
X10936491Y-14851960D02*
X10926967Y-14842436D01*
X10926967Y-14842436D02*
X10917444Y-14823388D01*
X10917444Y-14823388D02*
X10907920Y-14785293D01*
X10907920Y-14785293D02*
X10907920Y-14737674D01*
X10907920Y-14737674D02*
X10917444Y-14699579D01*
X10917444Y-14699579D02*
X10926967Y-14680531D01*
X10926967Y-14680531D02*
X10936491Y-14671008D01*
X10936491Y-14671008D02*
X10955539Y-14661484D01*
X11107920Y-14861484D02*
X11107920Y-14728150D01*
X11107920Y-14747198D02*
X11117444Y-14737674D01*
X11117444Y-14737674D02*
X11136491Y-14728150D01*
X11136491Y-14728150D02*
X11165063Y-14728150D01*
X11165063Y-14728150D02*
X11184110Y-14737674D01*
X11184110Y-14737674D02*
X11193634Y-14756722D01*
X11193634Y-14756722D02*
X11193634Y-14861484D01*
X11193634Y-14756722D02*
X11203158Y-14737674D01*
X11203158Y-14737674D02*
X11222205Y-14728150D01*
X11222205Y-14728150D02*
X11250777Y-14728150D01*
X11250777Y-14728150D02*
X11269824Y-14737674D01*
X11269824Y-14737674D02*
X11279348Y-14756722D01*
X11279348Y-14756722D02*
X11279348Y-14861484D01*
X11374586Y-14861484D02*
X11374586Y-14728150D01*
X11374586Y-14747198D02*
X11384110Y-14737674D01*
X11384110Y-14737674D02*
X11403158Y-14728150D01*
X11403158Y-14728150D02*
X11431729Y-14728150D01*
X11431729Y-14728150D02*
X11450777Y-14737674D01*
X11450777Y-14737674D02*
X11460301Y-14756722D01*
X11460301Y-14756722D02*
X11460301Y-14861484D01*
X11460301Y-14756722D02*
X11469824Y-14737674D01*
X11469824Y-14737674D02*
X11488872Y-14728150D01*
X11488872Y-14728150D02*
X11517443Y-14728150D01*
X11517443Y-14728150D02*
X11536491Y-14737674D01*
X11536491Y-14737674D02*
X11546015Y-14756722D01*
X11546015Y-14756722D02*
X11546015Y-14861484D01*
X11936491Y-14651960D02*
X11765063Y-14909103D01*
X12193634Y-14661484D02*
X12212682Y-14661484D01*
X12212682Y-14661484D02*
X12231729Y-14671008D01*
X12231729Y-14671008D02*
X12241253Y-14680531D01*
X12241253Y-14680531D02*
X12250777Y-14699579D01*
X12250777Y-14699579D02*
X12260301Y-14737674D01*
X12260301Y-14737674D02*
X12260301Y-14785293D01*
X12260301Y-14785293D02*
X12250777Y-14823388D01*
X12250777Y-14823388D02*
X12241253Y-14842436D01*
X12241253Y-14842436D02*
X12231729Y-14851960D01*
X12231729Y-14851960D02*
X12212682Y-14861484D01*
X12212682Y-14861484D02*
X12193634Y-14861484D01*
X12193634Y-14861484D02*
X12174586Y-14851960D01*
X12174586Y-14851960D02*
X12165063Y-14842436D01*
X12165063Y-14842436D02*
X12155539Y-14823388D01*
X12155539Y-14823388D02*
X12146015Y-14785293D01*
X12146015Y-14785293D02*
X12146015Y-14737674D01*
X12146015Y-14737674D02*
X12155539Y-14699579D01*
X12155539Y-14699579D02*
X12165063Y-14680531D01*
X12165063Y-14680531D02*
X12174586Y-14671008D01*
X12174586Y-14671008D02*
X12193634Y-14661484D01*
X12346015Y-14842436D02*
X12355539Y-14851960D01*
X12355539Y-14851960D02*
X12346015Y-14861484D01*
X12346015Y-14861484D02*
X12336491Y-14851960D01*
X12336491Y-14851960D02*
X12346015Y-14842436D01*
X12346015Y-14842436D02*
X12346015Y-14861484D01*
X12479348Y-14661484D02*
X12498396Y-14661484D01*
X12498396Y-14661484D02*
X12517444Y-14671008D01*
X12517444Y-14671008D02*
X12526967Y-14680531D01*
X12526967Y-14680531D02*
X12536491Y-14699579D01*
X12536491Y-14699579D02*
X12546015Y-14737674D01*
X12546015Y-14737674D02*
X12546015Y-14785293D01*
X12546015Y-14785293D02*
X12536491Y-14823388D01*
X12536491Y-14823388D02*
X12526967Y-14842436D01*
X12526967Y-14842436D02*
X12517444Y-14851960D01*
X12517444Y-14851960D02*
X12498396Y-14861484D01*
X12498396Y-14861484D02*
X12479348Y-14861484D01*
X12479348Y-14861484D02*
X12460301Y-14851960D01*
X12460301Y-14851960D02*
X12450777Y-14842436D01*
X12450777Y-14842436D02*
X12441253Y-14823388D01*
X12441253Y-14823388D02*
X12431729Y-14785293D01*
X12431729Y-14785293D02*
X12431729Y-14737674D01*
X12431729Y-14737674D02*
X12441253Y-14699579D01*
X12441253Y-14699579D02*
X12450777Y-14680531D01*
X12450777Y-14680531D02*
X12460301Y-14671008D01*
X12460301Y-14671008D02*
X12479348Y-14661484D01*
X12612682Y-14661484D02*
X12736491Y-14661484D01*
X12736491Y-14661484D02*
X12669825Y-14737674D01*
X12669825Y-14737674D02*
X12698396Y-14737674D01*
X12698396Y-14737674D02*
X12717444Y-14747198D01*
X12717444Y-14747198D02*
X12726967Y-14756722D01*
X12726967Y-14756722D02*
X12736491Y-14775769D01*
X12736491Y-14775769D02*
X12736491Y-14823388D01*
X12736491Y-14823388D02*
X12726967Y-14842436D01*
X12726967Y-14842436D02*
X12717444Y-14851960D01*
X12717444Y-14851960D02*
X12698396Y-14861484D01*
X12698396Y-14861484D02*
X12641253Y-14861484D01*
X12641253Y-14861484D02*
X12622206Y-14851960D01*
X12622206Y-14851960D02*
X12612682Y-14842436D01*
X12917444Y-14661484D02*
X12822206Y-14661484D01*
X12822206Y-14661484D02*
X12812682Y-14756722D01*
X12812682Y-14756722D02*
X12822206Y-14747198D01*
X12822206Y-14747198D02*
X12841253Y-14737674D01*
X12841253Y-14737674D02*
X12888872Y-14737674D01*
X12888872Y-14737674D02*
X12907920Y-14747198D01*
X12907920Y-14747198D02*
X12917444Y-14756722D01*
X12917444Y-14756722D02*
X12926967Y-14775769D01*
X12926967Y-14775769D02*
X12926967Y-14823388D01*
X12926967Y-14823388D02*
X12917444Y-14842436D01*
X12917444Y-14842436D02*
X12907920Y-14851960D01*
X12907920Y-14851960D02*
X12888872Y-14861484D01*
X12888872Y-14861484D02*
X12841253Y-14861484D01*
X12841253Y-14861484D02*
X12822206Y-14851960D01*
X12822206Y-14851960D02*
X12812682Y-14842436D01*
X13098396Y-14728150D02*
X13098396Y-14861484D01*
X13050777Y-14651960D02*
X13003158Y-14794817D01*
X13003158Y-14794817D02*
X13126967Y-14794817D01*
X13193634Y-14661484D02*
X13193634Y-14699579D01*
X13269825Y-14661484D02*
X13269825Y-14699579D01*
X13565063Y-14937674D02*
X13555539Y-14928150D01*
X13555539Y-14928150D02*
X13536491Y-14899579D01*
X13536491Y-14899579D02*
X13526968Y-14880531D01*
X13526968Y-14880531D02*
X13517444Y-14851960D01*
X13517444Y-14851960D02*
X13507920Y-14804341D01*
X13507920Y-14804341D02*
X13507920Y-14766246D01*
X13507920Y-14766246D02*
X13517444Y-14718627D01*
X13517444Y-14718627D02*
X13526968Y-14690055D01*
X13526968Y-14690055D02*
X13536491Y-14671008D01*
X13536491Y-14671008D02*
X13555539Y-14642436D01*
X13555539Y-14642436D02*
X13565063Y-14632912D01*
X13679348Y-14661484D02*
X13698396Y-14661484D01*
X13698396Y-14661484D02*
X13717444Y-14671008D01*
X13717444Y-14671008D02*
X13726968Y-14680531D01*
X13726968Y-14680531D02*
X13736491Y-14699579D01*
X13736491Y-14699579D02*
X13746015Y-14737674D01*
X13746015Y-14737674D02*
X13746015Y-14785293D01*
X13746015Y-14785293D02*
X13736491Y-14823388D01*
X13736491Y-14823388D02*
X13726968Y-14842436D01*
X13726968Y-14842436D02*
X13717444Y-14851960D01*
X13717444Y-14851960D02*
X13698396Y-14861484D01*
X13698396Y-14861484D02*
X13679348Y-14861484D01*
X13679348Y-14861484D02*
X13660301Y-14851960D01*
X13660301Y-14851960D02*
X13650777Y-14842436D01*
X13650777Y-14842436D02*
X13641253Y-14823388D01*
X13641253Y-14823388D02*
X13631729Y-14785293D01*
X13631729Y-14785293D02*
X13631729Y-14737674D01*
X13631729Y-14737674D02*
X13641253Y-14699579D01*
X13641253Y-14699579D02*
X13650777Y-14680531D01*
X13650777Y-14680531D02*
X13660301Y-14671008D01*
X13660301Y-14671008D02*
X13679348Y-14661484D01*
X13984110Y-14861484D02*
X13984110Y-14661484D01*
X14069825Y-14861484D02*
X14069825Y-14756722D01*
X14069825Y-14756722D02*
X14060301Y-14737674D01*
X14060301Y-14737674D02*
X14041253Y-14728150D01*
X14041253Y-14728150D02*
X14012682Y-14728150D01*
X14012682Y-14728150D02*
X13993634Y-14737674D01*
X13993634Y-14737674D02*
X13984110Y-14747198D01*
X14193634Y-14861484D02*
X14174587Y-14851960D01*
X14174587Y-14851960D02*
X14165063Y-14842436D01*
X14165063Y-14842436D02*
X14155539Y-14823388D01*
X14155539Y-14823388D02*
X14155539Y-14766246D01*
X14155539Y-14766246D02*
X14165063Y-14747198D01*
X14165063Y-14747198D02*
X14174587Y-14737674D01*
X14174587Y-14737674D02*
X14193634Y-14728150D01*
X14193634Y-14728150D02*
X14222206Y-14728150D01*
X14222206Y-14728150D02*
X14241253Y-14737674D01*
X14241253Y-14737674D02*
X14250777Y-14747198D01*
X14250777Y-14747198D02*
X14260301Y-14766246D01*
X14260301Y-14766246D02*
X14260301Y-14823388D01*
X14260301Y-14823388D02*
X14250777Y-14842436D01*
X14250777Y-14842436D02*
X14241253Y-14851960D01*
X14241253Y-14851960D02*
X14222206Y-14861484D01*
X14222206Y-14861484D02*
X14193634Y-14861484D01*
X14374587Y-14861484D02*
X14355539Y-14851960D01*
X14355539Y-14851960D02*
X14346015Y-14832912D01*
X14346015Y-14832912D02*
X14346015Y-14661484D01*
X14526968Y-14851960D02*
X14507920Y-14861484D01*
X14507920Y-14861484D02*
X14469825Y-14861484D01*
X14469825Y-14861484D02*
X14450777Y-14851960D01*
X14450777Y-14851960D02*
X14441253Y-14832912D01*
X14441253Y-14832912D02*
X14441253Y-14756722D01*
X14441253Y-14756722D02*
X14450777Y-14737674D01*
X14450777Y-14737674D02*
X14469825Y-14728150D01*
X14469825Y-14728150D02*
X14507920Y-14728150D01*
X14507920Y-14728150D02*
X14526968Y-14737674D01*
X14526968Y-14737674D02*
X14536491Y-14756722D01*
X14536491Y-14756722D02*
X14536491Y-14775769D01*
X14536491Y-14775769D02*
X14441253Y-14794817D01*
X14612682Y-14851960D02*
X14631730Y-14861484D01*
X14631730Y-14861484D02*
X14669825Y-14861484D01*
X14669825Y-14861484D02*
X14688872Y-14851960D01*
X14688872Y-14851960D02*
X14698396Y-14832912D01*
X14698396Y-14832912D02*
X14698396Y-14823388D01*
X14698396Y-14823388D02*
X14688872Y-14804341D01*
X14688872Y-14804341D02*
X14669825Y-14794817D01*
X14669825Y-14794817D02*
X14641253Y-14794817D01*
X14641253Y-14794817D02*
X14622206Y-14785293D01*
X14622206Y-14785293D02*
X14612682Y-14766246D01*
X14612682Y-14766246D02*
X14612682Y-14756722D01*
X14612682Y-14756722D02*
X14622206Y-14737674D01*
X14622206Y-14737674D02*
X14641253Y-14728150D01*
X14641253Y-14728150D02*
X14669825Y-14728150D01*
X14669825Y-14728150D02*
X14688872Y-14737674D01*
X14936492Y-14785293D02*
X15088873Y-14785293D01*
X15012682Y-14861484D02*
X15012682Y-14709103D01*
X15326968Y-14680531D02*
X15336492Y-14671008D01*
X15336492Y-14671008D02*
X15355539Y-14661484D01*
X15355539Y-14661484D02*
X15403158Y-14661484D01*
X15403158Y-14661484D02*
X15422206Y-14671008D01*
X15422206Y-14671008D02*
X15431730Y-14680531D01*
X15431730Y-14680531D02*
X15441253Y-14699579D01*
X15441253Y-14699579D02*
X15441253Y-14718627D01*
X15441253Y-14718627D02*
X15431730Y-14747198D01*
X15431730Y-14747198D02*
X15317444Y-14861484D01*
X15317444Y-14861484D02*
X15441253Y-14861484D01*
X15669825Y-14851960D02*
X15688873Y-14861484D01*
X15688873Y-14861484D02*
X15726968Y-14861484D01*
X15726968Y-14861484D02*
X15746015Y-14851960D01*
X15746015Y-14851960D02*
X15755539Y-14832912D01*
X15755539Y-14832912D02*
X15755539Y-14823388D01*
X15755539Y-14823388D02*
X15746015Y-14804341D01*
X15746015Y-14804341D02*
X15726968Y-14794817D01*
X15726968Y-14794817D02*
X15698396Y-14794817D01*
X15698396Y-14794817D02*
X15679349Y-14785293D01*
X15679349Y-14785293D02*
X15669825Y-14766246D01*
X15669825Y-14766246D02*
X15669825Y-14756722D01*
X15669825Y-14756722D02*
X15679349Y-14737674D01*
X15679349Y-14737674D02*
X15698396Y-14728150D01*
X15698396Y-14728150D02*
X15726968Y-14728150D01*
X15726968Y-14728150D02*
X15746015Y-14737674D01*
X15869825Y-14861484D02*
X15850777Y-14851960D01*
X15850777Y-14851960D02*
X15841254Y-14832912D01*
X15841254Y-14832912D02*
X15841254Y-14661484D01*
X15974587Y-14861484D02*
X15955539Y-14851960D01*
X15955539Y-14851960D02*
X15946015Y-14842436D01*
X15946015Y-14842436D02*
X15936492Y-14823388D01*
X15936492Y-14823388D02*
X15936492Y-14766246D01*
X15936492Y-14766246D02*
X15946015Y-14747198D01*
X15946015Y-14747198D02*
X15955539Y-14737674D01*
X15955539Y-14737674D02*
X15974587Y-14728150D01*
X15974587Y-14728150D02*
X16003158Y-14728150D01*
X16003158Y-14728150D02*
X16022206Y-14737674D01*
X16022206Y-14737674D02*
X16031730Y-14747198D01*
X16031730Y-14747198D02*
X16041254Y-14766246D01*
X16041254Y-14766246D02*
X16041254Y-14823388D01*
X16041254Y-14823388D02*
X16031730Y-14842436D01*
X16031730Y-14842436D02*
X16022206Y-14851960D01*
X16022206Y-14851960D02*
X16003158Y-14861484D01*
X16003158Y-14861484D02*
X15974587Y-14861484D01*
X16098396Y-14728150D02*
X16174587Y-14728150D01*
X16126968Y-14661484D02*
X16126968Y-14832912D01*
X16126968Y-14832912D02*
X16136492Y-14851960D01*
X16136492Y-14851960D02*
X16155539Y-14861484D01*
X16155539Y-14861484D02*
X16174587Y-14861484D01*
X16231730Y-14851960D02*
X16250777Y-14861484D01*
X16250777Y-14861484D02*
X16288873Y-14861484D01*
X16288873Y-14861484D02*
X16307920Y-14851960D01*
X16307920Y-14851960D02*
X16317444Y-14832912D01*
X16317444Y-14832912D02*
X16317444Y-14823388D01*
X16317444Y-14823388D02*
X16307920Y-14804341D01*
X16307920Y-14804341D02*
X16288873Y-14794817D01*
X16288873Y-14794817D02*
X16260301Y-14794817D01*
X16260301Y-14794817D02*
X16241254Y-14785293D01*
X16241254Y-14785293D02*
X16231730Y-14766246D01*
X16231730Y-14766246D02*
X16231730Y-14756722D01*
X16231730Y-14756722D02*
X16241254Y-14737674D01*
X16241254Y-14737674D02*
X16260301Y-14728150D01*
X16260301Y-14728150D02*
X16288873Y-14728150D01*
X16288873Y-14728150D02*
X16307920Y-14737674D01*
X16384111Y-14937674D02*
X16393635Y-14928150D01*
X16393635Y-14928150D02*
X16412682Y-14899579D01*
X16412682Y-14899579D02*
X16422206Y-14880531D01*
X16422206Y-14880531D02*
X16431730Y-14851960D01*
X16431730Y-14851960D02*
X16441254Y-14804341D01*
X16441254Y-14804341D02*
X16441254Y-14766246D01*
X16441254Y-14766246D02*
X16431730Y-14718627D01*
X16431730Y-14718627D02*
X16422206Y-14690055D01*
X16422206Y-14690055D02*
X16412682Y-14671008D01*
X16412682Y-14671008D02*
X16393635Y-14642436D01*
X16393635Y-14642436D02*
X16384111Y-14632912D01*
D12*
X9885002Y-14981501D02*
X9990000Y-15086499D01*
X9990000Y-14981501D02*
X9885002Y-15086499D01*
X9937501Y-14981501D02*
X9937501Y-15086499D01*
X9885002Y-15034000D02*
X9990000Y-15034000D01*
D10*
X10355539Y-15125484D02*
X10241253Y-15125484D01*
X10298396Y-15125484D02*
X10298396Y-14925484D01*
X10298396Y-14925484D02*
X10279348Y-14954055D01*
X10279348Y-14954055D02*
X10260301Y-14973103D01*
X10260301Y-14973103D02*
X10241253Y-14982627D01*
X10441253Y-15106436D02*
X10450777Y-15115960D01*
X10450777Y-15115960D02*
X10441253Y-15125484D01*
X10441253Y-15125484D02*
X10431729Y-15115960D01*
X10431729Y-15115960D02*
X10441253Y-15106436D01*
X10441253Y-15106436D02*
X10441253Y-15125484D01*
X10574586Y-14925484D02*
X10593634Y-14925484D01*
X10593634Y-14925484D02*
X10612682Y-14935008D01*
X10612682Y-14935008D02*
X10622205Y-14944531D01*
X10622205Y-14944531D02*
X10631729Y-14963579D01*
X10631729Y-14963579D02*
X10641253Y-15001674D01*
X10641253Y-15001674D02*
X10641253Y-15049293D01*
X10641253Y-15049293D02*
X10631729Y-15087388D01*
X10631729Y-15087388D02*
X10622205Y-15106436D01*
X10622205Y-15106436D02*
X10612682Y-15115960D01*
X10612682Y-15115960D02*
X10593634Y-15125484D01*
X10593634Y-15125484D02*
X10574586Y-15125484D01*
X10574586Y-15125484D02*
X10555539Y-15115960D01*
X10555539Y-15115960D02*
X10546015Y-15106436D01*
X10546015Y-15106436D02*
X10536491Y-15087388D01*
X10536491Y-15087388D02*
X10526967Y-15049293D01*
X10526967Y-15049293D02*
X10526967Y-15001674D01*
X10526967Y-15001674D02*
X10536491Y-14963579D01*
X10536491Y-14963579D02*
X10546015Y-14944531D01*
X10546015Y-14944531D02*
X10555539Y-14935008D01*
X10555539Y-14935008D02*
X10574586Y-14925484D01*
X10822205Y-14925484D02*
X10726967Y-14925484D01*
X10726967Y-14925484D02*
X10717444Y-15020722D01*
X10717444Y-15020722D02*
X10726967Y-15011198D01*
X10726967Y-15011198D02*
X10746015Y-15001674D01*
X10746015Y-15001674D02*
X10793634Y-15001674D01*
X10793634Y-15001674D02*
X10812682Y-15011198D01*
X10812682Y-15011198D02*
X10822205Y-15020722D01*
X10822205Y-15020722D02*
X10831729Y-15039769D01*
X10831729Y-15039769D02*
X10831729Y-15087388D01*
X10831729Y-15087388D02*
X10822205Y-15106436D01*
X10822205Y-15106436D02*
X10812682Y-15115960D01*
X10812682Y-15115960D02*
X10793634Y-15125484D01*
X10793634Y-15125484D02*
X10746015Y-15125484D01*
X10746015Y-15125484D02*
X10726967Y-15115960D01*
X10726967Y-15115960D02*
X10717444Y-15106436D01*
X10955539Y-14925484D02*
X10974586Y-14925484D01*
X10974586Y-14925484D02*
X10993634Y-14935008D01*
X10993634Y-14935008D02*
X11003158Y-14944531D01*
X11003158Y-14944531D02*
X11012682Y-14963579D01*
X11012682Y-14963579D02*
X11022205Y-15001674D01*
X11022205Y-15001674D02*
X11022205Y-15049293D01*
X11022205Y-15049293D02*
X11012682Y-15087388D01*
X11012682Y-15087388D02*
X11003158Y-15106436D01*
X11003158Y-15106436D02*
X10993634Y-15115960D01*
X10993634Y-15115960D02*
X10974586Y-15125484D01*
X10974586Y-15125484D02*
X10955539Y-15125484D01*
X10955539Y-15125484D02*
X10936491Y-15115960D01*
X10936491Y-15115960D02*
X10926967Y-15106436D01*
X10926967Y-15106436D02*
X10917444Y-15087388D01*
X10917444Y-15087388D02*
X10907920Y-15049293D01*
X10907920Y-15049293D02*
X10907920Y-15001674D01*
X10907920Y-15001674D02*
X10917444Y-14963579D01*
X10917444Y-14963579D02*
X10926967Y-14944531D01*
X10926967Y-14944531D02*
X10936491Y-14935008D01*
X10936491Y-14935008D02*
X10955539Y-14925484D01*
X11107920Y-15125484D02*
X11107920Y-14992150D01*
X11107920Y-15011198D02*
X11117444Y-15001674D01*
X11117444Y-15001674D02*
X11136491Y-14992150D01*
X11136491Y-14992150D02*
X11165063Y-14992150D01*
X11165063Y-14992150D02*
X11184110Y-15001674D01*
X11184110Y-15001674D02*
X11193634Y-15020722D01*
X11193634Y-15020722D02*
X11193634Y-15125484D01*
X11193634Y-15020722D02*
X11203158Y-15001674D01*
X11203158Y-15001674D02*
X11222205Y-14992150D01*
X11222205Y-14992150D02*
X11250777Y-14992150D01*
X11250777Y-14992150D02*
X11269824Y-15001674D01*
X11269824Y-15001674D02*
X11279348Y-15020722D01*
X11279348Y-15020722D02*
X11279348Y-15125484D01*
X11374586Y-15125484D02*
X11374586Y-14992150D01*
X11374586Y-15011198D02*
X11384110Y-15001674D01*
X11384110Y-15001674D02*
X11403158Y-14992150D01*
X11403158Y-14992150D02*
X11431729Y-14992150D01*
X11431729Y-14992150D02*
X11450777Y-15001674D01*
X11450777Y-15001674D02*
X11460301Y-15020722D01*
X11460301Y-15020722D02*
X11460301Y-15125484D01*
X11460301Y-15020722D02*
X11469824Y-15001674D01*
X11469824Y-15001674D02*
X11488872Y-14992150D01*
X11488872Y-14992150D02*
X11517443Y-14992150D01*
X11517443Y-14992150D02*
X11536491Y-15001674D01*
X11536491Y-15001674D02*
X11546015Y-15020722D01*
X11546015Y-15020722D02*
X11546015Y-15125484D01*
X11936491Y-14915960D02*
X11765063Y-15173103D01*
X12193634Y-14925484D02*
X12212682Y-14925484D01*
X12212682Y-14925484D02*
X12231729Y-14935008D01*
X12231729Y-14935008D02*
X12241253Y-14944531D01*
X12241253Y-14944531D02*
X12250777Y-14963579D01*
X12250777Y-14963579D02*
X12260301Y-15001674D01*
X12260301Y-15001674D02*
X12260301Y-15049293D01*
X12260301Y-15049293D02*
X12250777Y-15087388D01*
X12250777Y-15087388D02*
X12241253Y-15106436D01*
X12241253Y-15106436D02*
X12231729Y-15115960D01*
X12231729Y-15115960D02*
X12212682Y-15125484D01*
X12212682Y-15125484D02*
X12193634Y-15125484D01*
X12193634Y-15125484D02*
X12174586Y-15115960D01*
X12174586Y-15115960D02*
X12165063Y-15106436D01*
X12165063Y-15106436D02*
X12155539Y-15087388D01*
X12155539Y-15087388D02*
X12146015Y-15049293D01*
X12146015Y-15049293D02*
X12146015Y-15001674D01*
X12146015Y-15001674D02*
X12155539Y-14963579D01*
X12155539Y-14963579D02*
X12165063Y-14944531D01*
X12165063Y-14944531D02*
X12174586Y-14935008D01*
X12174586Y-14935008D02*
X12193634Y-14925484D01*
X12346015Y-15106436D02*
X12355539Y-15115960D01*
X12355539Y-15115960D02*
X12346015Y-15125484D01*
X12346015Y-15125484D02*
X12336491Y-15115960D01*
X12336491Y-15115960D02*
X12346015Y-15106436D01*
X12346015Y-15106436D02*
X12346015Y-15125484D01*
X12479348Y-14925484D02*
X12498396Y-14925484D01*
X12498396Y-14925484D02*
X12517444Y-14935008D01*
X12517444Y-14935008D02*
X12526967Y-14944531D01*
X12526967Y-14944531D02*
X12536491Y-14963579D01*
X12536491Y-14963579D02*
X12546015Y-15001674D01*
X12546015Y-15001674D02*
X12546015Y-15049293D01*
X12546015Y-15049293D02*
X12536491Y-15087388D01*
X12536491Y-15087388D02*
X12526967Y-15106436D01*
X12526967Y-15106436D02*
X12517444Y-15115960D01*
X12517444Y-15115960D02*
X12498396Y-15125484D01*
X12498396Y-15125484D02*
X12479348Y-15125484D01*
X12479348Y-15125484D02*
X12460301Y-15115960D01*
X12460301Y-15115960D02*
X12450777Y-15106436D01*
X12450777Y-15106436D02*
X12441253Y-15087388D01*
X12441253Y-15087388D02*
X12431729Y-15049293D01*
X12431729Y-15049293D02*
X12431729Y-15001674D01*
X12431729Y-15001674D02*
X12441253Y-14963579D01*
X12441253Y-14963579D02*
X12450777Y-14944531D01*
X12450777Y-14944531D02*
X12460301Y-14935008D01*
X12460301Y-14935008D02*
X12479348Y-14925484D01*
X12717444Y-14992150D02*
X12717444Y-15125484D01*
X12669825Y-14915960D02*
X12622206Y-15058817D01*
X12622206Y-15058817D02*
X12746015Y-15058817D01*
X12926967Y-15125484D02*
X12812682Y-15125484D01*
X12869825Y-15125484D02*
X12869825Y-14925484D01*
X12869825Y-14925484D02*
X12850777Y-14954055D01*
X12850777Y-14954055D02*
X12831729Y-14973103D01*
X12831729Y-14973103D02*
X12812682Y-14982627D01*
X12993634Y-14925484D02*
X13117444Y-14925484D01*
X13117444Y-14925484D02*
X13050777Y-15001674D01*
X13050777Y-15001674D02*
X13079348Y-15001674D01*
X13079348Y-15001674D02*
X13098396Y-15011198D01*
X13098396Y-15011198D02*
X13107920Y-15020722D01*
X13107920Y-15020722D02*
X13117444Y-15039769D01*
X13117444Y-15039769D02*
X13117444Y-15087388D01*
X13117444Y-15087388D02*
X13107920Y-15106436D01*
X13107920Y-15106436D02*
X13098396Y-15115960D01*
X13098396Y-15115960D02*
X13079348Y-15125484D01*
X13079348Y-15125484D02*
X13022206Y-15125484D01*
X13022206Y-15125484D02*
X13003158Y-15115960D01*
X13003158Y-15115960D02*
X12993634Y-15106436D01*
X13193634Y-14925484D02*
X13193634Y-14963579D01*
X13269825Y-14925484D02*
X13269825Y-14963579D01*
X13565063Y-15201674D02*
X13555539Y-15192150D01*
X13555539Y-15192150D02*
X13536491Y-15163579D01*
X13536491Y-15163579D02*
X13526968Y-15144531D01*
X13526968Y-15144531D02*
X13517444Y-15115960D01*
X13517444Y-15115960D02*
X13507920Y-15068341D01*
X13507920Y-15068341D02*
X13507920Y-15030246D01*
X13507920Y-15030246D02*
X13517444Y-14982627D01*
X13517444Y-14982627D02*
X13526968Y-14954055D01*
X13526968Y-14954055D02*
X13536491Y-14935008D01*
X13536491Y-14935008D02*
X13555539Y-14906436D01*
X13555539Y-14906436D02*
X13565063Y-14896912D01*
X13726968Y-14992150D02*
X13726968Y-15125484D01*
X13679348Y-14915960D02*
X13631729Y-15058817D01*
X13631729Y-15058817D02*
X13755539Y-15058817D01*
X13984110Y-15125484D02*
X13984110Y-14925484D01*
X14069825Y-15125484D02*
X14069825Y-15020722D01*
X14069825Y-15020722D02*
X14060301Y-15001674D01*
X14060301Y-15001674D02*
X14041253Y-14992150D01*
X14041253Y-14992150D02*
X14012682Y-14992150D01*
X14012682Y-14992150D02*
X13993634Y-15001674D01*
X13993634Y-15001674D02*
X13984110Y-15011198D01*
X14193634Y-15125484D02*
X14174587Y-15115960D01*
X14174587Y-15115960D02*
X14165063Y-15106436D01*
X14165063Y-15106436D02*
X14155539Y-15087388D01*
X14155539Y-15087388D02*
X14155539Y-15030246D01*
X14155539Y-15030246D02*
X14165063Y-15011198D01*
X14165063Y-15011198D02*
X14174587Y-15001674D01*
X14174587Y-15001674D02*
X14193634Y-14992150D01*
X14193634Y-14992150D02*
X14222206Y-14992150D01*
X14222206Y-14992150D02*
X14241253Y-15001674D01*
X14241253Y-15001674D02*
X14250777Y-15011198D01*
X14250777Y-15011198D02*
X14260301Y-15030246D01*
X14260301Y-15030246D02*
X14260301Y-15087388D01*
X14260301Y-15087388D02*
X14250777Y-15106436D01*
X14250777Y-15106436D02*
X14241253Y-15115960D01*
X14241253Y-15115960D02*
X14222206Y-15125484D01*
X14222206Y-15125484D02*
X14193634Y-15125484D01*
X14374587Y-15125484D02*
X14355539Y-15115960D01*
X14355539Y-15115960D02*
X14346015Y-15096912D01*
X14346015Y-15096912D02*
X14346015Y-14925484D01*
X14526968Y-15115960D02*
X14507920Y-15125484D01*
X14507920Y-15125484D02*
X14469825Y-15125484D01*
X14469825Y-15125484D02*
X14450777Y-15115960D01*
X14450777Y-15115960D02*
X14441253Y-15096912D01*
X14441253Y-15096912D02*
X14441253Y-15020722D01*
X14441253Y-15020722D02*
X14450777Y-15001674D01*
X14450777Y-15001674D02*
X14469825Y-14992150D01*
X14469825Y-14992150D02*
X14507920Y-14992150D01*
X14507920Y-14992150D02*
X14526968Y-15001674D01*
X14526968Y-15001674D02*
X14536491Y-15020722D01*
X14536491Y-15020722D02*
X14536491Y-15039769D01*
X14536491Y-15039769D02*
X14441253Y-15058817D01*
X14612682Y-15115960D02*
X14631730Y-15125484D01*
X14631730Y-15125484D02*
X14669825Y-15125484D01*
X14669825Y-15125484D02*
X14688872Y-15115960D01*
X14688872Y-15115960D02*
X14698396Y-15096912D01*
X14698396Y-15096912D02*
X14698396Y-15087388D01*
X14698396Y-15087388D02*
X14688872Y-15068341D01*
X14688872Y-15068341D02*
X14669825Y-15058817D01*
X14669825Y-15058817D02*
X14641253Y-15058817D01*
X14641253Y-15058817D02*
X14622206Y-15049293D01*
X14622206Y-15049293D02*
X14612682Y-15030246D01*
X14612682Y-15030246D02*
X14612682Y-15020722D01*
X14612682Y-15020722D02*
X14622206Y-15001674D01*
X14622206Y-15001674D02*
X14641253Y-14992150D01*
X14641253Y-14992150D02*
X14669825Y-14992150D01*
X14669825Y-14992150D02*
X14688872Y-15001674D01*
X14765063Y-15201674D02*
X14774587Y-15192150D01*
X14774587Y-15192150D02*
X14793634Y-15163579D01*
X14793634Y-15163579D02*
X14803158Y-15144531D01*
X14803158Y-15144531D02*
X14812682Y-15115960D01*
X14812682Y-15115960D02*
X14822206Y-15068341D01*
X14822206Y-15068341D02*
X14822206Y-15030246D01*
X14822206Y-15030246D02*
X14812682Y-14982627D01*
X14812682Y-14982627D02*
X14803158Y-14954055D01*
X14803158Y-14954055D02*
X14793634Y-14935008D01*
X14793634Y-14935008D02*
X14774587Y-14906436D01*
X14774587Y-14906436D02*
X14765063Y-14896912D01*
X9790000Y-15198000D02*
X9990000Y-15398000D01*
X9990000Y-15198000D02*
X9790000Y-15398000D01*
X9960711Y-15368711D02*
X9960711Y-15227289D01*
X9819289Y-15227289D01*
X9819289Y-15368711D01*
X9960711Y-15368711D01*
X10241253Y-15208531D02*
X10250777Y-15199008D01*
X10250777Y-15199008D02*
X10269824Y-15189484D01*
X10269824Y-15189484D02*
X10317444Y-15189484D01*
X10317444Y-15189484D02*
X10336491Y-15199008D01*
X10336491Y-15199008D02*
X10346015Y-15208531D01*
X10346015Y-15208531D02*
X10355539Y-15227579D01*
X10355539Y-15227579D02*
X10355539Y-15246627D01*
X10355539Y-15246627D02*
X10346015Y-15275198D01*
X10346015Y-15275198D02*
X10231729Y-15389484D01*
X10231729Y-15389484D02*
X10355539Y-15389484D01*
X10441253Y-15370436D02*
X10450777Y-15379960D01*
X10450777Y-15379960D02*
X10441253Y-15389484D01*
X10441253Y-15389484D02*
X10431729Y-15379960D01*
X10431729Y-15379960D02*
X10441253Y-15370436D01*
X10441253Y-15370436D02*
X10441253Y-15389484D01*
X10631729Y-15189484D02*
X10536491Y-15189484D01*
X10536491Y-15189484D02*
X10526967Y-15284722D01*
X10526967Y-15284722D02*
X10536491Y-15275198D01*
X10536491Y-15275198D02*
X10555539Y-15265674D01*
X10555539Y-15265674D02*
X10603158Y-15265674D01*
X10603158Y-15265674D02*
X10622205Y-15275198D01*
X10622205Y-15275198D02*
X10631729Y-15284722D01*
X10631729Y-15284722D02*
X10641253Y-15303769D01*
X10641253Y-15303769D02*
X10641253Y-15351388D01*
X10641253Y-15351388D02*
X10631729Y-15370436D01*
X10631729Y-15370436D02*
X10622205Y-15379960D01*
X10622205Y-15379960D02*
X10603158Y-15389484D01*
X10603158Y-15389484D02*
X10555539Y-15389484D01*
X10555539Y-15389484D02*
X10536491Y-15379960D01*
X10536491Y-15379960D02*
X10526967Y-15370436D01*
X10765063Y-15189484D02*
X10784110Y-15189484D01*
X10784110Y-15189484D02*
X10803158Y-15199008D01*
X10803158Y-15199008D02*
X10812682Y-15208531D01*
X10812682Y-15208531D02*
X10822205Y-15227579D01*
X10822205Y-15227579D02*
X10831729Y-15265674D01*
X10831729Y-15265674D02*
X10831729Y-15313293D01*
X10831729Y-15313293D02*
X10822205Y-15351388D01*
X10822205Y-15351388D02*
X10812682Y-15370436D01*
X10812682Y-15370436D02*
X10803158Y-15379960D01*
X10803158Y-15379960D02*
X10784110Y-15389484D01*
X10784110Y-15389484D02*
X10765063Y-15389484D01*
X10765063Y-15389484D02*
X10746015Y-15379960D01*
X10746015Y-15379960D02*
X10736491Y-15370436D01*
X10736491Y-15370436D02*
X10726967Y-15351388D01*
X10726967Y-15351388D02*
X10717444Y-15313293D01*
X10717444Y-15313293D02*
X10717444Y-15265674D01*
X10717444Y-15265674D02*
X10726967Y-15227579D01*
X10726967Y-15227579D02*
X10736491Y-15208531D01*
X10736491Y-15208531D02*
X10746015Y-15199008D01*
X10746015Y-15199008D02*
X10765063Y-15189484D01*
X10955539Y-15189484D02*
X10974586Y-15189484D01*
X10974586Y-15189484D02*
X10993634Y-15199008D01*
X10993634Y-15199008D02*
X11003158Y-15208531D01*
X11003158Y-15208531D02*
X11012682Y-15227579D01*
X11012682Y-15227579D02*
X11022205Y-15265674D01*
X11022205Y-15265674D02*
X11022205Y-15313293D01*
X11022205Y-15313293D02*
X11012682Y-15351388D01*
X11012682Y-15351388D02*
X11003158Y-15370436D01*
X11003158Y-15370436D02*
X10993634Y-15379960D01*
X10993634Y-15379960D02*
X10974586Y-15389484D01*
X10974586Y-15389484D02*
X10955539Y-15389484D01*
X10955539Y-15389484D02*
X10936491Y-15379960D01*
X10936491Y-15379960D02*
X10926967Y-15370436D01*
X10926967Y-15370436D02*
X10917444Y-15351388D01*
X10917444Y-15351388D02*
X10907920Y-15313293D01*
X10907920Y-15313293D02*
X10907920Y-15265674D01*
X10907920Y-15265674D02*
X10917444Y-15227579D01*
X10917444Y-15227579D02*
X10926967Y-15208531D01*
X10926967Y-15208531D02*
X10936491Y-15199008D01*
X10936491Y-15199008D02*
X10955539Y-15189484D01*
X11107920Y-15389484D02*
X11107920Y-15256150D01*
X11107920Y-15275198D02*
X11117444Y-15265674D01*
X11117444Y-15265674D02*
X11136491Y-15256150D01*
X11136491Y-15256150D02*
X11165063Y-15256150D01*
X11165063Y-15256150D02*
X11184110Y-15265674D01*
X11184110Y-15265674D02*
X11193634Y-15284722D01*
X11193634Y-15284722D02*
X11193634Y-15389484D01*
X11193634Y-15284722D02*
X11203158Y-15265674D01*
X11203158Y-15265674D02*
X11222205Y-15256150D01*
X11222205Y-15256150D02*
X11250777Y-15256150D01*
X11250777Y-15256150D02*
X11269824Y-15265674D01*
X11269824Y-15265674D02*
X11279348Y-15284722D01*
X11279348Y-15284722D02*
X11279348Y-15389484D01*
X11374586Y-15389484D02*
X11374586Y-15256150D01*
X11374586Y-15275198D02*
X11384110Y-15265674D01*
X11384110Y-15265674D02*
X11403158Y-15256150D01*
X11403158Y-15256150D02*
X11431729Y-15256150D01*
X11431729Y-15256150D02*
X11450777Y-15265674D01*
X11450777Y-15265674D02*
X11460301Y-15284722D01*
X11460301Y-15284722D02*
X11460301Y-15389484D01*
X11460301Y-15284722D02*
X11469824Y-15265674D01*
X11469824Y-15265674D02*
X11488872Y-15256150D01*
X11488872Y-15256150D02*
X11517443Y-15256150D01*
X11517443Y-15256150D02*
X11536491Y-15265674D01*
X11536491Y-15265674D02*
X11546015Y-15284722D01*
X11546015Y-15284722D02*
X11546015Y-15389484D01*
X11936491Y-15179960D02*
X11765063Y-15437103D01*
X12193634Y-15189484D02*
X12212682Y-15189484D01*
X12212682Y-15189484D02*
X12231729Y-15199008D01*
X12231729Y-15199008D02*
X12241253Y-15208531D01*
X12241253Y-15208531D02*
X12250777Y-15227579D01*
X12250777Y-15227579D02*
X12260301Y-15265674D01*
X12260301Y-15265674D02*
X12260301Y-15313293D01*
X12260301Y-15313293D02*
X12250777Y-15351388D01*
X12250777Y-15351388D02*
X12241253Y-15370436D01*
X12241253Y-15370436D02*
X12231729Y-15379960D01*
X12231729Y-15379960D02*
X12212682Y-15389484D01*
X12212682Y-15389484D02*
X12193634Y-15389484D01*
X12193634Y-15389484D02*
X12174586Y-15379960D01*
X12174586Y-15379960D02*
X12165063Y-15370436D01*
X12165063Y-15370436D02*
X12155539Y-15351388D01*
X12155539Y-15351388D02*
X12146015Y-15313293D01*
X12146015Y-15313293D02*
X12146015Y-15265674D01*
X12146015Y-15265674D02*
X12155539Y-15227579D01*
X12155539Y-15227579D02*
X12165063Y-15208531D01*
X12165063Y-15208531D02*
X12174586Y-15199008D01*
X12174586Y-15199008D02*
X12193634Y-15189484D01*
X12346015Y-15370436D02*
X12355539Y-15379960D01*
X12355539Y-15379960D02*
X12346015Y-15389484D01*
X12346015Y-15389484D02*
X12336491Y-15379960D01*
X12336491Y-15379960D02*
X12346015Y-15370436D01*
X12346015Y-15370436D02*
X12346015Y-15389484D01*
X12479348Y-15189484D02*
X12498396Y-15189484D01*
X12498396Y-15189484D02*
X12517444Y-15199008D01*
X12517444Y-15199008D02*
X12526967Y-15208531D01*
X12526967Y-15208531D02*
X12536491Y-15227579D01*
X12536491Y-15227579D02*
X12546015Y-15265674D01*
X12546015Y-15265674D02*
X12546015Y-15313293D01*
X12546015Y-15313293D02*
X12536491Y-15351388D01*
X12536491Y-15351388D02*
X12526967Y-15370436D01*
X12526967Y-15370436D02*
X12517444Y-15379960D01*
X12517444Y-15379960D02*
X12498396Y-15389484D01*
X12498396Y-15389484D02*
X12479348Y-15389484D01*
X12479348Y-15389484D02*
X12460301Y-15379960D01*
X12460301Y-15379960D02*
X12450777Y-15370436D01*
X12450777Y-15370436D02*
X12441253Y-15351388D01*
X12441253Y-15351388D02*
X12431729Y-15313293D01*
X12431729Y-15313293D02*
X12431729Y-15265674D01*
X12431729Y-15265674D02*
X12441253Y-15227579D01*
X12441253Y-15227579D02*
X12450777Y-15208531D01*
X12450777Y-15208531D02*
X12460301Y-15199008D01*
X12460301Y-15199008D02*
X12479348Y-15189484D01*
X12641253Y-15389484D02*
X12679348Y-15389484D01*
X12679348Y-15389484D02*
X12698396Y-15379960D01*
X12698396Y-15379960D02*
X12707920Y-15370436D01*
X12707920Y-15370436D02*
X12726967Y-15341865D01*
X12726967Y-15341865D02*
X12736491Y-15303769D01*
X12736491Y-15303769D02*
X12736491Y-15227579D01*
X12736491Y-15227579D02*
X12726967Y-15208531D01*
X12726967Y-15208531D02*
X12717444Y-15199008D01*
X12717444Y-15199008D02*
X12698396Y-15189484D01*
X12698396Y-15189484D02*
X12660301Y-15189484D01*
X12660301Y-15189484D02*
X12641253Y-15199008D01*
X12641253Y-15199008D02*
X12631729Y-15208531D01*
X12631729Y-15208531D02*
X12622206Y-15227579D01*
X12622206Y-15227579D02*
X12622206Y-15275198D01*
X12622206Y-15275198D02*
X12631729Y-15294246D01*
X12631729Y-15294246D02*
X12641253Y-15303769D01*
X12641253Y-15303769D02*
X12660301Y-15313293D01*
X12660301Y-15313293D02*
X12698396Y-15313293D01*
X12698396Y-15313293D02*
X12717444Y-15303769D01*
X12717444Y-15303769D02*
X12726967Y-15294246D01*
X12726967Y-15294246D02*
X12736491Y-15275198D01*
X12850777Y-15275198D02*
X12831729Y-15265674D01*
X12831729Y-15265674D02*
X12822206Y-15256150D01*
X12822206Y-15256150D02*
X12812682Y-15237103D01*
X12812682Y-15237103D02*
X12812682Y-15227579D01*
X12812682Y-15227579D02*
X12822206Y-15208531D01*
X12822206Y-15208531D02*
X12831729Y-15199008D01*
X12831729Y-15199008D02*
X12850777Y-15189484D01*
X12850777Y-15189484D02*
X12888872Y-15189484D01*
X12888872Y-15189484D02*
X12907920Y-15199008D01*
X12907920Y-15199008D02*
X12917444Y-15208531D01*
X12917444Y-15208531D02*
X12926967Y-15227579D01*
X12926967Y-15227579D02*
X12926967Y-15237103D01*
X12926967Y-15237103D02*
X12917444Y-15256150D01*
X12917444Y-15256150D02*
X12907920Y-15265674D01*
X12907920Y-15265674D02*
X12888872Y-15275198D01*
X12888872Y-15275198D02*
X12850777Y-15275198D01*
X12850777Y-15275198D02*
X12831729Y-15284722D01*
X12831729Y-15284722D02*
X12822206Y-15294246D01*
X12822206Y-15294246D02*
X12812682Y-15313293D01*
X12812682Y-15313293D02*
X12812682Y-15351388D01*
X12812682Y-15351388D02*
X12822206Y-15370436D01*
X12822206Y-15370436D02*
X12831729Y-15379960D01*
X12831729Y-15379960D02*
X12850777Y-15389484D01*
X12850777Y-15389484D02*
X12888872Y-15389484D01*
X12888872Y-15389484D02*
X12907920Y-15379960D01*
X12907920Y-15379960D02*
X12917444Y-15370436D01*
X12917444Y-15370436D02*
X12926967Y-15351388D01*
X12926967Y-15351388D02*
X12926967Y-15313293D01*
X12926967Y-15313293D02*
X12917444Y-15294246D01*
X12917444Y-15294246D02*
X12907920Y-15284722D01*
X12907920Y-15284722D02*
X12888872Y-15275198D01*
X13098396Y-15256150D02*
X13098396Y-15389484D01*
X13050777Y-15179960D02*
X13003158Y-15322817D01*
X13003158Y-15322817D02*
X13126967Y-15322817D01*
X13193634Y-15189484D02*
X13193634Y-15227579D01*
X13269825Y-15189484D02*
X13269825Y-15227579D01*
X13565063Y-15465674D02*
X13555539Y-15456150D01*
X13555539Y-15456150D02*
X13536491Y-15427579D01*
X13536491Y-15427579D02*
X13526968Y-15408531D01*
X13526968Y-15408531D02*
X13517444Y-15379960D01*
X13517444Y-15379960D02*
X13507920Y-15332341D01*
X13507920Y-15332341D02*
X13507920Y-15294246D01*
X13507920Y-15294246D02*
X13517444Y-15246627D01*
X13517444Y-15246627D02*
X13526968Y-15218055D01*
X13526968Y-15218055D02*
X13536491Y-15199008D01*
X13536491Y-15199008D02*
X13555539Y-15170436D01*
X13555539Y-15170436D02*
X13565063Y-15160912D01*
X13726968Y-15256150D02*
X13726968Y-15389484D01*
X13679348Y-15179960D02*
X13631729Y-15322817D01*
X13631729Y-15322817D02*
X13755539Y-15322817D01*
X13984110Y-15389484D02*
X13984110Y-15189484D01*
X14069825Y-15389484D02*
X14069825Y-15284722D01*
X14069825Y-15284722D02*
X14060301Y-15265674D01*
X14060301Y-15265674D02*
X14041253Y-15256150D01*
X14041253Y-15256150D02*
X14012682Y-15256150D01*
X14012682Y-15256150D02*
X13993634Y-15265674D01*
X13993634Y-15265674D02*
X13984110Y-15275198D01*
X14193634Y-15389484D02*
X14174587Y-15379960D01*
X14174587Y-15379960D02*
X14165063Y-15370436D01*
X14165063Y-15370436D02*
X14155539Y-15351388D01*
X14155539Y-15351388D02*
X14155539Y-15294246D01*
X14155539Y-15294246D02*
X14165063Y-15275198D01*
X14165063Y-15275198D02*
X14174587Y-15265674D01*
X14174587Y-15265674D02*
X14193634Y-15256150D01*
X14193634Y-15256150D02*
X14222206Y-15256150D01*
X14222206Y-15256150D02*
X14241253Y-15265674D01*
X14241253Y-15265674D02*
X14250777Y-15275198D01*
X14250777Y-15275198D02*
X14260301Y-15294246D01*
X14260301Y-15294246D02*
X14260301Y-15351388D01*
X14260301Y-15351388D02*
X14250777Y-15370436D01*
X14250777Y-15370436D02*
X14241253Y-15379960D01*
X14241253Y-15379960D02*
X14222206Y-15389484D01*
X14222206Y-15389484D02*
X14193634Y-15389484D01*
X14374587Y-15389484D02*
X14355539Y-15379960D01*
X14355539Y-15379960D02*
X14346015Y-15360912D01*
X14346015Y-15360912D02*
X14346015Y-15189484D01*
X14526968Y-15379960D02*
X14507920Y-15389484D01*
X14507920Y-15389484D02*
X14469825Y-15389484D01*
X14469825Y-15389484D02*
X14450777Y-15379960D01*
X14450777Y-15379960D02*
X14441253Y-15360912D01*
X14441253Y-15360912D02*
X14441253Y-15284722D01*
X14441253Y-15284722D02*
X14450777Y-15265674D01*
X14450777Y-15265674D02*
X14469825Y-15256150D01*
X14469825Y-15256150D02*
X14507920Y-15256150D01*
X14507920Y-15256150D02*
X14526968Y-15265674D01*
X14526968Y-15265674D02*
X14536491Y-15284722D01*
X14536491Y-15284722D02*
X14536491Y-15303769D01*
X14536491Y-15303769D02*
X14441253Y-15322817D01*
X14612682Y-15379960D02*
X14631730Y-15389484D01*
X14631730Y-15389484D02*
X14669825Y-15389484D01*
X14669825Y-15389484D02*
X14688872Y-15379960D01*
X14688872Y-15379960D02*
X14698396Y-15360912D01*
X14698396Y-15360912D02*
X14698396Y-15351388D01*
X14698396Y-15351388D02*
X14688872Y-15332341D01*
X14688872Y-15332341D02*
X14669825Y-15322817D01*
X14669825Y-15322817D02*
X14641253Y-15322817D01*
X14641253Y-15322817D02*
X14622206Y-15313293D01*
X14622206Y-15313293D02*
X14612682Y-15294246D01*
X14612682Y-15294246D02*
X14612682Y-15284722D01*
X14612682Y-15284722D02*
X14622206Y-15265674D01*
X14622206Y-15265674D02*
X14641253Y-15256150D01*
X14641253Y-15256150D02*
X14669825Y-15256150D01*
X14669825Y-15256150D02*
X14688872Y-15265674D01*
X14765063Y-15465674D02*
X14774587Y-15456150D01*
X14774587Y-15456150D02*
X14793634Y-15427579D01*
X14793634Y-15427579D02*
X14803158Y-15408531D01*
X14803158Y-15408531D02*
X14812682Y-15379960D01*
X14812682Y-15379960D02*
X14822206Y-15332341D01*
X14822206Y-15332341D02*
X14822206Y-15294246D01*
X14822206Y-15294246D02*
X14812682Y-15246627D01*
X14812682Y-15246627D02*
X14803158Y-15218055D01*
X14803158Y-15218055D02*
X14793634Y-15199008D01*
X14793634Y-15199008D02*
X14774587Y-15170436D01*
X14774587Y-15170436D02*
X14765063Y-15160912D01*
M02*
