%TF.GenerationSoftware,KiCad,Pcbnew,10.0.4*%
%TF.CreationDate,2026-08-29T12:42:30-07:00*%
%TF.ProjectId,halleffectsensor,68616c6c-6566-4666-9563-7473656e736f,rev?*%
%TF.SameCoordinates,Original*%
%TF.FileFunction,Legend,Top*%
%TF.FilePolarity,Positive*%
%FSLAX46Y46*%
G04 Gerber Fmt 4.6, Leading zero omitted, Abs format (unit mm)*
G04 Created by KiCad (PCBNEW 10.0.4) date 2026-08-29 12:42:30*
%MOMM*%
%LPD*%
G01*
G04 APERTURE LIST*
%ADD10C,0.100000*%
%ADD11C,0.150000*%
%ADD12C,0.106680*%
%ADD13C,0.120000*%
%ADD14C,0.300000*%
%ADD15C,0.127000*%
%ADD16C,0.504000*%
%ADD17C,0.250000*%
G04 APERTURE END LIST*
D10*
X105375312Y-114122419D02*
X105041979Y-113646228D01*
X104803884Y-114122419D02*
X104803884Y-113122419D01*
X104803884Y-113122419D02*
X105184836Y-113122419D01*
X105184836Y-113122419D02*
X105280074Y-113170038D01*
X105280074Y-113170038D02*
X105327693Y-113217657D01*
X105327693Y-113217657D02*
X105375312Y-113312895D01*
X105375312Y-113312895D02*
X105375312Y-113455752D01*
X105375312Y-113455752D02*
X105327693Y-113550990D01*
X105327693Y-113550990D02*
X105280074Y-113598609D01*
X105280074Y-113598609D02*
X105184836Y-113646228D01*
X105184836Y-113646228D02*
X104803884Y-113646228D01*
X105803884Y-113598609D02*
X106137217Y-113598609D01*
X106280074Y-114122419D02*
X105803884Y-114122419D01*
X105803884Y-114122419D02*
X105803884Y-113122419D01*
X105803884Y-113122419D02*
X106280074Y-113122419D01*
X107041979Y-113598609D02*
X106708646Y-113598609D01*
X106708646Y-114122419D02*
X106708646Y-113122419D01*
X106708646Y-113122419D02*
X107184836Y-113122419D01*
X107565789Y-113598609D02*
X107899122Y-113598609D01*
X108041979Y-114122419D02*
X107565789Y-114122419D01*
X107565789Y-114122419D02*
X107565789Y-113122419D01*
X107565789Y-113122419D02*
X108041979Y-113122419D01*
X109041979Y-114122419D02*
X108708646Y-113646228D01*
X108470551Y-114122419D02*
X108470551Y-113122419D01*
X108470551Y-113122419D02*
X108851503Y-113122419D01*
X108851503Y-113122419D02*
X108946741Y-113170038D01*
X108946741Y-113170038D02*
X108994360Y-113217657D01*
X108994360Y-113217657D02*
X109041979Y-113312895D01*
X109041979Y-113312895D02*
X109041979Y-113455752D01*
X109041979Y-113455752D02*
X108994360Y-113550990D01*
X108994360Y-113550990D02*
X108946741Y-113598609D01*
X108946741Y-113598609D02*
X108851503Y-113646228D01*
X108851503Y-113646228D02*
X108470551Y-113646228D01*
X109470551Y-113598609D02*
X109803884Y-113598609D01*
X109946741Y-114122419D02*
X109470551Y-114122419D01*
X109470551Y-114122419D02*
X109470551Y-113122419D01*
X109470551Y-113122419D02*
X109946741Y-113122419D01*
X110375313Y-114122419D02*
X110375313Y-113122419D01*
X110375313Y-113122419D02*
X110946741Y-114122419D01*
X110946741Y-114122419D02*
X110946741Y-113122419D01*
X111994360Y-114027180D02*
X111946741Y-114074800D01*
X111946741Y-114074800D02*
X111803884Y-114122419D01*
X111803884Y-114122419D02*
X111708646Y-114122419D01*
X111708646Y-114122419D02*
X111565789Y-114074800D01*
X111565789Y-114074800D02*
X111470551Y-113979561D01*
X111470551Y-113979561D02*
X111422932Y-113884323D01*
X111422932Y-113884323D02*
X111375313Y-113693847D01*
X111375313Y-113693847D02*
X111375313Y-113550990D01*
X111375313Y-113550990D02*
X111422932Y-113360514D01*
X111422932Y-113360514D02*
X111470551Y-113265276D01*
X111470551Y-113265276D02*
X111565789Y-113170038D01*
X111565789Y-113170038D02*
X111708646Y-113122419D01*
X111708646Y-113122419D02*
X111803884Y-113122419D01*
X111803884Y-113122419D02*
X111946741Y-113170038D01*
X111946741Y-113170038D02*
X111994360Y-113217657D01*
X112422932Y-113598609D02*
X112756265Y-113598609D01*
X112899122Y-114122419D02*
X112422932Y-114122419D01*
X112422932Y-114122419D02*
X112422932Y-113122419D01*
X112422932Y-113122419D02*
X112899122Y-113122419D01*
X117827693Y-113170038D02*
X117732455Y-113122419D01*
X117732455Y-113122419D02*
X117589598Y-113122419D01*
X117589598Y-113122419D02*
X117446741Y-113170038D01*
X117446741Y-113170038D02*
X117351503Y-113265276D01*
X117351503Y-113265276D02*
X117303884Y-113360514D01*
X117303884Y-113360514D02*
X117256265Y-113550990D01*
X117256265Y-113550990D02*
X117256265Y-113693847D01*
X117256265Y-113693847D02*
X117303884Y-113884323D01*
X117303884Y-113884323D02*
X117351503Y-113979561D01*
X117351503Y-113979561D02*
X117446741Y-114074800D01*
X117446741Y-114074800D02*
X117589598Y-114122419D01*
X117589598Y-114122419D02*
X117684836Y-114122419D01*
X117684836Y-114122419D02*
X117827693Y-114074800D01*
X117827693Y-114074800D02*
X117875312Y-114027180D01*
X117875312Y-114027180D02*
X117875312Y-113693847D01*
X117875312Y-113693847D02*
X117684836Y-113693847D01*
X118256265Y-113836704D02*
X118732455Y-113836704D01*
X118161027Y-114122419D02*
X118494360Y-113122419D01*
X118494360Y-113122419D02*
X118827693Y-114122419D01*
X119161027Y-114122419D02*
X119161027Y-113122419D01*
X119637217Y-114122419D02*
X119637217Y-113122419D01*
X119637217Y-113122419D02*
X120208645Y-114122419D01*
X120208645Y-114122419D02*
X120208645Y-113122419D01*
D11*
X147332142Y-127704819D02*
X146998809Y-127228628D01*
X146760714Y-127704819D02*
X146760714Y-126704819D01*
X146760714Y-126704819D02*
X147141666Y-126704819D01*
X147141666Y-126704819D02*
X147236904Y-126752438D01*
X147236904Y-126752438D02*
X147284523Y-126800057D01*
X147284523Y-126800057D02*
X147332142Y-126895295D01*
X147332142Y-126895295D02*
X147332142Y-127038152D01*
X147332142Y-127038152D02*
X147284523Y-127133390D01*
X147284523Y-127133390D02*
X147236904Y-127181009D01*
X147236904Y-127181009D02*
X147141666Y-127228628D01*
X147141666Y-127228628D02*
X146760714Y-127228628D01*
X148284523Y-127704819D02*
X147713095Y-127704819D01*
X147998809Y-127704819D02*
X147998809Y-126704819D01*
X147998809Y-126704819D02*
X147903571Y-126847676D01*
X147903571Y-126847676D02*
X147808333Y-126942914D01*
X147808333Y-126942914D02*
X147713095Y-126990533D01*
X149141666Y-127038152D02*
X149141666Y-127704819D01*
X148903571Y-126657200D02*
X148665476Y-127371485D01*
X148665476Y-127371485D02*
X149284523Y-127371485D01*
X147332142Y-121029819D02*
X146998809Y-120553628D01*
X146760714Y-121029819D02*
X146760714Y-120029819D01*
X146760714Y-120029819D02*
X147141666Y-120029819D01*
X147141666Y-120029819D02*
X147236904Y-120077438D01*
X147236904Y-120077438D02*
X147284523Y-120125057D01*
X147284523Y-120125057D02*
X147332142Y-120220295D01*
X147332142Y-120220295D02*
X147332142Y-120363152D01*
X147332142Y-120363152D02*
X147284523Y-120458390D01*
X147284523Y-120458390D02*
X147236904Y-120506009D01*
X147236904Y-120506009D02*
X147141666Y-120553628D01*
X147141666Y-120553628D02*
X146760714Y-120553628D01*
X148284523Y-121029819D02*
X147713095Y-121029819D01*
X147998809Y-121029819D02*
X147998809Y-120029819D01*
X147998809Y-120029819D02*
X147903571Y-120172676D01*
X147903571Y-120172676D02*
X147808333Y-120267914D01*
X147808333Y-120267914D02*
X147713095Y-120315533D01*
X148617857Y-120029819D02*
X149236904Y-120029819D01*
X149236904Y-120029819D02*
X148903571Y-120410771D01*
X148903571Y-120410771D02*
X149046428Y-120410771D01*
X149046428Y-120410771D02*
X149141666Y-120458390D01*
X149141666Y-120458390D02*
X149189285Y-120506009D01*
X149189285Y-120506009D02*
X149236904Y-120601247D01*
X149236904Y-120601247D02*
X149236904Y-120839342D01*
X149236904Y-120839342D02*
X149189285Y-120934580D01*
X149189285Y-120934580D02*
X149141666Y-120982200D01*
X149141666Y-120982200D02*
X149046428Y-121029819D01*
X149046428Y-121029819D02*
X148760714Y-121029819D01*
X148760714Y-121029819D02*
X148665476Y-120982200D01*
X148665476Y-120982200D02*
X148617857Y-120934580D01*
X141907200Y-101761904D02*
X141954819Y-101619047D01*
X141954819Y-101619047D02*
X141954819Y-101380952D01*
X141954819Y-101380952D02*
X141907200Y-101285714D01*
X141907200Y-101285714D02*
X141859580Y-101238095D01*
X141859580Y-101238095D02*
X141764342Y-101190476D01*
X141764342Y-101190476D02*
X141669104Y-101190476D01*
X141669104Y-101190476D02*
X141573866Y-101238095D01*
X141573866Y-101238095D02*
X141526247Y-101285714D01*
X141526247Y-101285714D02*
X141478628Y-101380952D01*
X141478628Y-101380952D02*
X141431009Y-101571428D01*
X141431009Y-101571428D02*
X141383390Y-101666666D01*
X141383390Y-101666666D02*
X141335771Y-101714285D01*
X141335771Y-101714285D02*
X141240533Y-101761904D01*
X141240533Y-101761904D02*
X141145295Y-101761904D01*
X141145295Y-101761904D02*
X141050057Y-101714285D01*
X141050057Y-101714285D02*
X141002438Y-101666666D01*
X141002438Y-101666666D02*
X140954819Y-101571428D01*
X140954819Y-101571428D02*
X140954819Y-101333333D01*
X140954819Y-101333333D02*
X141002438Y-101190476D01*
X141954819Y-100238095D02*
X141954819Y-100809523D01*
X141954819Y-100523809D02*
X140954819Y-100523809D01*
X140954819Y-100523809D02*
X141097676Y-100619047D01*
X141097676Y-100619047D02*
X141192914Y-100714285D01*
X141192914Y-100714285D02*
X141240533Y-100809523D01*
X106954819Y-102261904D02*
X107764342Y-102261904D01*
X107764342Y-102261904D02*
X107859580Y-102214285D01*
X107859580Y-102214285D02*
X107907200Y-102166666D01*
X107907200Y-102166666D02*
X107954819Y-102071428D01*
X107954819Y-102071428D02*
X107954819Y-101880952D01*
X107954819Y-101880952D02*
X107907200Y-101785714D01*
X107907200Y-101785714D02*
X107859580Y-101738095D01*
X107859580Y-101738095D02*
X107764342Y-101690476D01*
X107764342Y-101690476D02*
X106954819Y-101690476D01*
X107288152Y-100785714D02*
X107954819Y-100785714D01*
X106907200Y-101023809D02*
X107621485Y-101261904D01*
X107621485Y-101261904D02*
X107621485Y-100642857D01*
X114583333Y-111454819D02*
X114250000Y-110978628D01*
X114011905Y-111454819D02*
X114011905Y-110454819D01*
X114011905Y-110454819D02*
X114392857Y-110454819D01*
X114392857Y-110454819D02*
X114488095Y-110502438D01*
X114488095Y-110502438D02*
X114535714Y-110550057D01*
X114535714Y-110550057D02*
X114583333Y-110645295D01*
X114583333Y-110645295D02*
X114583333Y-110788152D01*
X114583333Y-110788152D02*
X114535714Y-110883390D01*
X114535714Y-110883390D02*
X114488095Y-110931009D01*
X114488095Y-110931009D02*
X114392857Y-110978628D01*
X114392857Y-110978628D02*
X114011905Y-110978628D01*
X115535714Y-111454819D02*
X114964286Y-111454819D01*
X115250000Y-111454819D02*
X115250000Y-110454819D01*
X115250000Y-110454819D02*
X115154762Y-110597676D01*
X115154762Y-110597676D02*
X115059524Y-110692914D01*
X115059524Y-110692914D02*
X114964286Y-110740533D01*
X106833333Y-105704819D02*
X106500000Y-105228628D01*
X106261905Y-105704819D02*
X106261905Y-104704819D01*
X106261905Y-104704819D02*
X106642857Y-104704819D01*
X106642857Y-104704819D02*
X106738095Y-104752438D01*
X106738095Y-104752438D02*
X106785714Y-104800057D01*
X106785714Y-104800057D02*
X106833333Y-104895295D01*
X106833333Y-104895295D02*
X106833333Y-105038152D01*
X106833333Y-105038152D02*
X106785714Y-105133390D01*
X106785714Y-105133390D02*
X106738095Y-105181009D01*
X106738095Y-105181009D02*
X106642857Y-105228628D01*
X106642857Y-105228628D02*
X106261905Y-105228628D01*
X107214286Y-104800057D02*
X107261905Y-104752438D01*
X107261905Y-104752438D02*
X107357143Y-104704819D01*
X107357143Y-104704819D02*
X107595238Y-104704819D01*
X107595238Y-104704819D02*
X107690476Y-104752438D01*
X107690476Y-104752438D02*
X107738095Y-104800057D01*
X107738095Y-104800057D02*
X107785714Y-104895295D01*
X107785714Y-104895295D02*
X107785714Y-104990533D01*
X107785714Y-104990533D02*
X107738095Y-105133390D01*
X107738095Y-105133390D02*
X107166667Y-105704819D01*
X107166667Y-105704819D02*
X107785714Y-105704819D01*
X141874819Y-124392857D02*
X141398628Y-124726190D01*
X141874819Y-124964285D02*
X140874819Y-124964285D01*
X140874819Y-124964285D02*
X140874819Y-124583333D01*
X140874819Y-124583333D02*
X140922438Y-124488095D01*
X140922438Y-124488095D02*
X140970057Y-124440476D01*
X140970057Y-124440476D02*
X141065295Y-124392857D01*
X141065295Y-124392857D02*
X141208152Y-124392857D01*
X141208152Y-124392857D02*
X141303390Y-124440476D01*
X141303390Y-124440476D02*
X141351009Y-124488095D01*
X141351009Y-124488095D02*
X141398628Y-124583333D01*
X141398628Y-124583333D02*
X141398628Y-124964285D01*
X141874819Y-123440476D02*
X141874819Y-124011904D01*
X141874819Y-123726190D02*
X140874819Y-123726190D01*
X140874819Y-123726190D02*
X141017676Y-123821428D01*
X141017676Y-123821428D02*
X141112914Y-123916666D01*
X141112914Y-123916666D02*
X141160533Y-124011904D01*
X140970057Y-123059523D02*
X140922438Y-123011904D01*
X140922438Y-123011904D02*
X140874819Y-122916666D01*
X140874819Y-122916666D02*
X140874819Y-122678571D01*
X140874819Y-122678571D02*
X140922438Y-122583333D01*
X140922438Y-122583333D02*
X140970057Y-122535714D01*
X140970057Y-122535714D02*
X141065295Y-122488095D01*
X141065295Y-122488095D02*
X141160533Y-122488095D01*
X141160533Y-122488095D02*
X141303390Y-122535714D01*
X141303390Y-122535714D02*
X141874819Y-123107142D01*
X141874819Y-123107142D02*
X141874819Y-122488095D01*
X102357142Y-105704819D02*
X102023809Y-105228628D01*
X101785714Y-105704819D02*
X101785714Y-104704819D01*
X101785714Y-104704819D02*
X102166666Y-104704819D01*
X102166666Y-104704819D02*
X102261904Y-104752438D01*
X102261904Y-104752438D02*
X102309523Y-104800057D01*
X102309523Y-104800057D02*
X102357142Y-104895295D01*
X102357142Y-104895295D02*
X102357142Y-105038152D01*
X102357142Y-105038152D02*
X102309523Y-105133390D01*
X102309523Y-105133390D02*
X102261904Y-105181009D01*
X102261904Y-105181009D02*
X102166666Y-105228628D01*
X102166666Y-105228628D02*
X101785714Y-105228628D01*
X103309523Y-105704819D02*
X102738095Y-105704819D01*
X103023809Y-105704819D02*
X103023809Y-104704819D01*
X103023809Y-104704819D02*
X102928571Y-104847676D01*
X102928571Y-104847676D02*
X102833333Y-104942914D01*
X102833333Y-104942914D02*
X102738095Y-104990533D01*
X104214285Y-104704819D02*
X103738095Y-104704819D01*
X103738095Y-104704819D02*
X103690476Y-105181009D01*
X103690476Y-105181009D02*
X103738095Y-105133390D01*
X103738095Y-105133390D02*
X103833333Y-105085771D01*
X103833333Y-105085771D02*
X104071428Y-105085771D01*
X104071428Y-105085771D02*
X104166666Y-105133390D01*
X104166666Y-105133390D02*
X104214285Y-105181009D01*
X104214285Y-105181009D02*
X104261904Y-105276247D01*
X104261904Y-105276247D02*
X104261904Y-105514342D01*
X104261904Y-105514342D02*
X104214285Y-105609580D01*
X104214285Y-105609580D02*
X104166666Y-105657200D01*
X104166666Y-105657200D02*
X104071428Y-105704819D01*
X104071428Y-105704819D02*
X103833333Y-105704819D01*
X103833333Y-105704819D02*
X103738095Y-105657200D01*
X103738095Y-105657200D02*
X103690476Y-105609580D01*
X145534819Y-118666666D02*
X145058628Y-118999999D01*
X145534819Y-119238094D02*
X144534819Y-119238094D01*
X144534819Y-119238094D02*
X144534819Y-118857142D01*
X144534819Y-118857142D02*
X144582438Y-118761904D01*
X144582438Y-118761904D02*
X144630057Y-118714285D01*
X144630057Y-118714285D02*
X144725295Y-118666666D01*
X144725295Y-118666666D02*
X144868152Y-118666666D01*
X144868152Y-118666666D02*
X144963390Y-118714285D01*
X144963390Y-118714285D02*
X145011009Y-118761904D01*
X145011009Y-118761904D02*
X145058628Y-118857142D01*
X145058628Y-118857142D02*
X145058628Y-119238094D01*
X144534819Y-118333332D02*
X144534819Y-117666666D01*
X144534819Y-117666666D02*
X145534819Y-118095237D01*
X103857142Y-111954819D02*
X103523809Y-111478628D01*
X103285714Y-111954819D02*
X103285714Y-110954819D01*
X103285714Y-110954819D02*
X103666666Y-110954819D01*
X103666666Y-110954819D02*
X103761904Y-111002438D01*
X103761904Y-111002438D02*
X103809523Y-111050057D01*
X103809523Y-111050057D02*
X103857142Y-111145295D01*
X103857142Y-111145295D02*
X103857142Y-111288152D01*
X103857142Y-111288152D02*
X103809523Y-111383390D01*
X103809523Y-111383390D02*
X103761904Y-111431009D01*
X103761904Y-111431009D02*
X103666666Y-111478628D01*
X103666666Y-111478628D02*
X103285714Y-111478628D01*
X104809523Y-111954819D02*
X104238095Y-111954819D01*
X104523809Y-111954819D02*
X104523809Y-110954819D01*
X104523809Y-110954819D02*
X104428571Y-111097676D01*
X104428571Y-111097676D02*
X104333333Y-111192914D01*
X104333333Y-111192914D02*
X104238095Y-111240533D01*
X105666666Y-110954819D02*
X105476190Y-110954819D01*
X105476190Y-110954819D02*
X105380952Y-111002438D01*
X105380952Y-111002438D02*
X105333333Y-111050057D01*
X105333333Y-111050057D02*
X105238095Y-111192914D01*
X105238095Y-111192914D02*
X105190476Y-111383390D01*
X105190476Y-111383390D02*
X105190476Y-111764342D01*
X105190476Y-111764342D02*
X105238095Y-111859580D01*
X105238095Y-111859580D02*
X105285714Y-111907200D01*
X105285714Y-111907200D02*
X105380952Y-111954819D01*
X105380952Y-111954819D02*
X105571428Y-111954819D01*
X105571428Y-111954819D02*
X105666666Y-111907200D01*
X105666666Y-111907200D02*
X105714285Y-111859580D01*
X105714285Y-111859580D02*
X105761904Y-111764342D01*
X105761904Y-111764342D02*
X105761904Y-111526247D01*
X105761904Y-111526247D02*
X105714285Y-111431009D01*
X105714285Y-111431009D02*
X105666666Y-111383390D01*
X105666666Y-111383390D02*
X105571428Y-111335771D01*
X105571428Y-111335771D02*
X105380952Y-111335771D01*
X105380952Y-111335771D02*
X105285714Y-111383390D01*
X105285714Y-111383390D02*
X105238095Y-111431009D01*
X105238095Y-111431009D02*
X105190476Y-111526247D01*
D10*
X106440476Y-117457419D02*
X106773809Y-118457419D01*
X106773809Y-118457419D02*
X107107142Y-117457419D01*
X108011904Y-118457419D02*
X107678571Y-117981228D01*
X107440476Y-118457419D02*
X107440476Y-117457419D01*
X107440476Y-117457419D02*
X107821428Y-117457419D01*
X107821428Y-117457419D02*
X107916666Y-117505038D01*
X107916666Y-117505038D02*
X107964285Y-117552657D01*
X107964285Y-117552657D02*
X108011904Y-117647895D01*
X108011904Y-117647895D02*
X108011904Y-117790752D01*
X108011904Y-117790752D02*
X107964285Y-117885990D01*
X107964285Y-117885990D02*
X107916666Y-117933609D01*
X107916666Y-117933609D02*
X107821428Y-117981228D01*
X107821428Y-117981228D02*
X107440476Y-117981228D01*
X108392857Y-117552657D02*
X108440476Y-117505038D01*
X108440476Y-117505038D02*
X108535714Y-117457419D01*
X108535714Y-117457419D02*
X108773809Y-117457419D01*
X108773809Y-117457419D02*
X108869047Y-117505038D01*
X108869047Y-117505038D02*
X108916666Y-117552657D01*
X108916666Y-117552657D02*
X108964285Y-117647895D01*
X108964285Y-117647895D02*
X108964285Y-117743133D01*
X108964285Y-117743133D02*
X108916666Y-117885990D01*
X108916666Y-117885990D02*
X108345238Y-118457419D01*
X108345238Y-118457419D02*
X108964285Y-118457419D01*
D11*
X135459819Y-102083333D02*
X136174104Y-102083333D01*
X136174104Y-102083333D02*
X136316961Y-102130952D01*
X136316961Y-102130952D02*
X136412200Y-102226190D01*
X136412200Y-102226190D02*
X136459819Y-102369047D01*
X136459819Y-102369047D02*
X136459819Y-102464285D01*
X135555057Y-101654761D02*
X135507438Y-101607142D01*
X135507438Y-101607142D02*
X135459819Y-101511904D01*
X135459819Y-101511904D02*
X135459819Y-101273809D01*
X135459819Y-101273809D02*
X135507438Y-101178571D01*
X135507438Y-101178571D02*
X135555057Y-101130952D01*
X135555057Y-101130952D02*
X135650295Y-101083333D01*
X135650295Y-101083333D02*
X135745533Y-101083333D01*
X135745533Y-101083333D02*
X135888390Y-101130952D01*
X135888390Y-101130952D02*
X136459819Y-101702380D01*
X136459819Y-101702380D02*
X136459819Y-101083333D01*
X101124819Y-119166666D02*
X100648628Y-119499999D01*
X101124819Y-119738094D02*
X100124819Y-119738094D01*
X100124819Y-119738094D02*
X100124819Y-119357142D01*
X100124819Y-119357142D02*
X100172438Y-119261904D01*
X100172438Y-119261904D02*
X100220057Y-119214285D01*
X100220057Y-119214285D02*
X100315295Y-119166666D01*
X100315295Y-119166666D02*
X100458152Y-119166666D01*
X100458152Y-119166666D02*
X100553390Y-119214285D01*
X100553390Y-119214285D02*
X100601009Y-119261904D01*
X100601009Y-119261904D02*
X100648628Y-119357142D01*
X100648628Y-119357142D02*
X100648628Y-119738094D01*
X101124819Y-118690475D02*
X101124819Y-118499999D01*
X101124819Y-118499999D02*
X101077200Y-118404761D01*
X101077200Y-118404761D02*
X101029580Y-118357142D01*
X101029580Y-118357142D02*
X100886723Y-118261904D01*
X100886723Y-118261904D02*
X100696247Y-118214285D01*
X100696247Y-118214285D02*
X100315295Y-118214285D01*
X100315295Y-118214285D02*
X100220057Y-118261904D01*
X100220057Y-118261904D02*
X100172438Y-118309523D01*
X100172438Y-118309523D02*
X100124819Y-118404761D01*
X100124819Y-118404761D02*
X100124819Y-118595237D01*
X100124819Y-118595237D02*
X100172438Y-118690475D01*
X100172438Y-118690475D02*
X100220057Y-118738094D01*
X100220057Y-118738094D02*
X100315295Y-118785713D01*
X100315295Y-118785713D02*
X100553390Y-118785713D01*
X100553390Y-118785713D02*
X100648628Y-118738094D01*
X100648628Y-118738094D02*
X100696247Y-118690475D01*
X100696247Y-118690475D02*
X100743866Y-118595237D01*
X100743866Y-118595237D02*
X100743866Y-118404761D01*
X100743866Y-118404761D02*
X100696247Y-118309523D01*
X100696247Y-118309523D02*
X100648628Y-118261904D01*
X100648628Y-118261904D02*
X100553390Y-118214285D01*
D12*
X128418450Y-102293491D02*
X128418450Y-102926798D01*
X128418450Y-102926798D02*
X128455704Y-103001304D01*
X128455704Y-103001304D02*
X128492957Y-103038558D01*
X128492957Y-103038558D02*
X128567464Y-103075811D01*
X128567464Y-103075811D02*
X128716477Y-103075811D01*
X128716477Y-103075811D02*
X128790984Y-103038558D01*
X128790984Y-103038558D02*
X128828237Y-103001304D01*
X128828237Y-103001304D02*
X128865490Y-102926798D01*
X128865490Y-102926798D02*
X128865490Y-102293491D01*
X129610557Y-102293491D02*
X129238023Y-102293491D01*
X129238023Y-102293491D02*
X129200770Y-102666024D01*
X129200770Y-102666024D02*
X129238023Y-102628771D01*
X129238023Y-102628771D02*
X129312530Y-102591518D01*
X129312530Y-102591518D02*
X129498797Y-102591518D01*
X129498797Y-102591518D02*
X129573303Y-102628771D01*
X129573303Y-102628771D02*
X129610557Y-102666024D01*
X129610557Y-102666024D02*
X129647810Y-102740531D01*
X129647810Y-102740531D02*
X129647810Y-102926798D01*
X129647810Y-102926798D02*
X129610557Y-103001304D01*
X129610557Y-103001304D02*
X129573303Y-103038558D01*
X129573303Y-103038558D02*
X129498797Y-103075811D01*
X129498797Y-103075811D02*
X129312530Y-103075811D01*
X129312530Y-103075811D02*
X129238023Y-103038558D01*
X129238023Y-103038558D02*
X129200770Y-103001304D01*
D11*
X119404761Y-124800057D02*
X119309523Y-124752438D01*
X119309523Y-124752438D02*
X119214285Y-124657200D01*
X119214285Y-124657200D02*
X119071428Y-124514342D01*
X119071428Y-124514342D02*
X118976190Y-124466723D01*
X118976190Y-124466723D02*
X118880952Y-124466723D01*
X118928571Y-124704819D02*
X118833333Y-124657200D01*
X118833333Y-124657200D02*
X118738095Y-124561961D01*
X118738095Y-124561961D02*
X118690476Y-124371485D01*
X118690476Y-124371485D02*
X118690476Y-124038152D01*
X118690476Y-124038152D02*
X118738095Y-123847676D01*
X118738095Y-123847676D02*
X118833333Y-123752438D01*
X118833333Y-123752438D02*
X118928571Y-123704819D01*
X118928571Y-123704819D02*
X119119047Y-123704819D01*
X119119047Y-123704819D02*
X119214285Y-123752438D01*
X119214285Y-123752438D02*
X119309523Y-123847676D01*
X119309523Y-123847676D02*
X119357142Y-124038152D01*
X119357142Y-124038152D02*
X119357142Y-124371485D01*
X119357142Y-124371485D02*
X119309523Y-124561961D01*
X119309523Y-124561961D02*
X119214285Y-124657200D01*
X119214285Y-124657200D02*
X119119047Y-124704819D01*
X119119047Y-124704819D02*
X118928571Y-124704819D01*
X120309523Y-124704819D02*
X119738095Y-124704819D01*
X120023809Y-124704819D02*
X120023809Y-123704819D01*
X120023809Y-123704819D02*
X119928571Y-123847676D01*
X119928571Y-123847676D02*
X119833333Y-123942914D01*
X119833333Y-123942914D02*
X119738095Y-123990533D01*
X150454819Y-102511904D02*
X151264342Y-102511904D01*
X151264342Y-102511904D02*
X151359580Y-102464285D01*
X151359580Y-102464285D02*
X151407200Y-102416666D01*
X151407200Y-102416666D02*
X151454819Y-102321428D01*
X151454819Y-102321428D02*
X151454819Y-102130952D01*
X151454819Y-102130952D02*
X151407200Y-102035714D01*
X151407200Y-102035714D02*
X151359580Y-101988095D01*
X151359580Y-101988095D02*
X151264342Y-101940476D01*
X151264342Y-101940476D02*
X150454819Y-101940476D01*
X150454819Y-101559523D02*
X150454819Y-100940476D01*
X150454819Y-100940476D02*
X150835771Y-101273809D01*
X150835771Y-101273809D02*
X150835771Y-101130952D01*
X150835771Y-101130952D02*
X150883390Y-101035714D01*
X150883390Y-101035714D02*
X150931009Y-100988095D01*
X150931009Y-100988095D02*
X151026247Y-100940476D01*
X151026247Y-100940476D02*
X151264342Y-100940476D01*
X151264342Y-100940476D02*
X151359580Y-100988095D01*
X151359580Y-100988095D02*
X151407200Y-101035714D01*
X151407200Y-101035714D02*
X151454819Y-101130952D01*
X151454819Y-101130952D02*
X151454819Y-101416666D01*
X151454819Y-101416666D02*
X151407200Y-101511904D01*
X151407200Y-101511904D02*
X151359580Y-101559523D01*
D10*
X114690476Y-117457419D02*
X115023809Y-118457419D01*
X115023809Y-118457419D02*
X115357142Y-117457419D01*
X116261904Y-118457419D02*
X115928571Y-117981228D01*
X115690476Y-118457419D02*
X115690476Y-117457419D01*
X115690476Y-117457419D02*
X116071428Y-117457419D01*
X116071428Y-117457419D02*
X116166666Y-117505038D01*
X116166666Y-117505038D02*
X116214285Y-117552657D01*
X116214285Y-117552657D02*
X116261904Y-117647895D01*
X116261904Y-117647895D02*
X116261904Y-117790752D01*
X116261904Y-117790752D02*
X116214285Y-117885990D01*
X116214285Y-117885990D02*
X116166666Y-117933609D01*
X116166666Y-117933609D02*
X116071428Y-117981228D01*
X116071428Y-117981228D02*
X115690476Y-117981228D01*
X117214285Y-118457419D02*
X116642857Y-118457419D01*
X116928571Y-118457419D02*
X116928571Y-117457419D01*
X116928571Y-117457419D02*
X116833333Y-117600276D01*
X116833333Y-117600276D02*
X116738095Y-117695514D01*
X116738095Y-117695514D02*
X116642857Y-117743133D01*
D11*
X147300057Y-116845238D02*
X147252438Y-116940476D01*
X147252438Y-116940476D02*
X147157200Y-117035714D01*
X147157200Y-117035714D02*
X147014342Y-117178571D01*
X147014342Y-117178571D02*
X146966723Y-117273809D01*
X146966723Y-117273809D02*
X146966723Y-117369047D01*
X147204819Y-117321428D02*
X147157200Y-117416666D01*
X147157200Y-117416666D02*
X147061961Y-117511904D01*
X147061961Y-117511904D02*
X146871485Y-117559523D01*
X146871485Y-117559523D02*
X146538152Y-117559523D01*
X146538152Y-117559523D02*
X146347676Y-117511904D01*
X146347676Y-117511904D02*
X146252438Y-117416666D01*
X146252438Y-117416666D02*
X146204819Y-117321428D01*
X146204819Y-117321428D02*
X146204819Y-117130952D01*
X146204819Y-117130952D02*
X146252438Y-117035714D01*
X146252438Y-117035714D02*
X146347676Y-116940476D01*
X146347676Y-116940476D02*
X146538152Y-116892857D01*
X146538152Y-116892857D02*
X146871485Y-116892857D01*
X146871485Y-116892857D02*
X147061961Y-116940476D01*
X147061961Y-116940476D02*
X147157200Y-117035714D01*
X147157200Y-117035714D02*
X147204819Y-117130952D01*
X147204819Y-117130952D02*
X147204819Y-117321428D01*
X146300057Y-116511904D02*
X146252438Y-116464285D01*
X146252438Y-116464285D02*
X146204819Y-116369047D01*
X146204819Y-116369047D02*
X146204819Y-116130952D01*
X146204819Y-116130952D02*
X146252438Y-116035714D01*
X146252438Y-116035714D02*
X146300057Y-115988095D01*
X146300057Y-115988095D02*
X146395295Y-115940476D01*
X146395295Y-115940476D02*
X146490533Y-115940476D01*
X146490533Y-115940476D02*
X146633390Y-115988095D01*
X146633390Y-115988095D02*
X147204819Y-116559523D01*
X147204819Y-116559523D02*
X147204819Y-115940476D01*
X102454819Y-115011904D02*
X103264342Y-115011904D01*
X103264342Y-115011904D02*
X103359580Y-114964285D01*
X103359580Y-114964285D02*
X103407200Y-114916666D01*
X103407200Y-114916666D02*
X103454819Y-114821428D01*
X103454819Y-114821428D02*
X103454819Y-114630952D01*
X103454819Y-114630952D02*
X103407200Y-114535714D01*
X103407200Y-114535714D02*
X103359580Y-114488095D01*
X103359580Y-114488095D02*
X103264342Y-114440476D01*
X103264342Y-114440476D02*
X102454819Y-114440476D01*
X103454819Y-113440476D02*
X103454819Y-114011904D01*
X103454819Y-113726190D02*
X102454819Y-113726190D01*
X102454819Y-113726190D02*
X102597676Y-113821428D01*
X102597676Y-113821428D02*
X102692914Y-113916666D01*
X102692914Y-113916666D02*
X102740533Y-114011904D01*
%TO.C,R14*%
D13*
X148702064Y-126625000D02*
X147247936Y-126625000D01*
X148702064Y-124805000D02*
X147247936Y-124805000D01*
%TO.C,R13*%
X147247936Y-121495000D02*
X148702064Y-121495000D01*
X147247936Y-123315000D02*
X148702064Y-123315000D01*
%TO.C,REF\u002A\u002A*%
X127250000Y-111803100D02*
G75*
G02*
X123850000Y-111803100I-1700000J0D01*
G01*
X123850000Y-111803100D02*
G75*
G02*
X127250000Y-111803100I1700000J0D01*
G01*
%TO.C,S1*%
X142350000Y-100150000D02*
X148350000Y-100150000D01*
X142350000Y-111350000D02*
X142350000Y-100150000D01*
X148350000Y-100150000D02*
X149150000Y-100950000D01*
X149150000Y-100950000D02*
X149150000Y-111350000D01*
X149150000Y-111350000D02*
X142350000Y-111350000D01*
%TO.C,U4*%
D11*
X110480000Y-101162500D02*
X113520000Y-101162500D01*
X110480000Y-109962500D02*
X110480000Y-101162500D01*
X113520000Y-101162500D02*
X113520000Y-109962500D01*
X113520000Y-109962500D02*
X110480000Y-109962500D01*
D14*
X112920000Y-109372500D02*
G75*
G02*
X112620000Y-109372500I-150000J0D01*
G01*
X112620000Y-109372500D02*
G75*
G02*
X112920000Y-109372500I150000J0D01*
G01*
X114880000Y-110122500D02*
G75*
G02*
X114580000Y-110122500I-150000J0D01*
G01*
X114580000Y-110122500D02*
G75*
G02*
X114880000Y-110122500I150000J0D01*
G01*
%TO.C,R1*%
D13*
X112227064Y-110340000D02*
X110772936Y-110340000D01*
X112227064Y-112160000D02*
X110772936Y-112160000D01*
%TO.C,R2*%
X106090000Y-108977064D02*
X106090000Y-107522936D01*
X107910000Y-108977064D02*
X107910000Y-107522936D01*
%TO.C,REF\u002A\u002A*%
X127250000Y-113683100D02*
G75*
G02*
X123850000Y-113683100I-1700000J0D01*
G01*
X123850000Y-113683100D02*
G75*
G02*
X127250000Y-113683100I1700000J0D01*
G01*
%TO.C,R12*%
X142340000Y-124477064D02*
X142340000Y-123022936D01*
X144160000Y-124477064D02*
X144160000Y-123022936D01*
%TO.C,R15*%
X102272936Y-108840000D02*
X103727064Y-108840000D01*
X102272936Y-110660000D02*
X103727064Y-110660000D01*
%TO.C,R7*%
X142340000Y-117772936D02*
X142340000Y-119227064D01*
X144160000Y-117772936D02*
X144160000Y-119227064D01*
%TO.C,R16*%
X103727064Y-106340000D02*
X102272936Y-106340000D01*
X103727064Y-108160000D02*
X102272936Y-108160000D01*
%TO.C,VR2*%
D10*
X104250000Y-115000000D02*
X111250000Y-115000000D01*
X111250000Y-122000000D01*
X104250000Y-122000000D01*
X104250000Y-115000000D01*
%TO.C,J2*%
D13*
X136940000Y-102910000D02*
X136940000Y-101750000D01*
X137750000Y-102910000D02*
X136940000Y-102910000D01*
X138560000Y-100590000D02*
X139765000Y-100590000D01*
X138560000Y-101083292D02*
X138560000Y-100590000D01*
X138560000Y-102910000D02*
X138560000Y-102416708D01*
X138560000Y-102910000D02*
X139765000Y-102910000D01*
X139765000Y-101432077D02*
X139765000Y-100590000D01*
X139765000Y-102910000D02*
X139765000Y-102067923D01*
%TO.C,R9*%
X101590000Y-119727064D02*
X101590000Y-118272936D01*
X103410000Y-119727064D02*
X103410000Y-118272936D01*
%TO.C,U5*%
D10*
X121050000Y-122526100D02*
X121050000Y-105381100D01*
X122955000Y-124431100D02*
X136925000Y-124431100D01*
D15*
X125445000Y-103476100D02*
X125448728Y-102465828D01*
X125948728Y-101966100D02*
X133944000Y-101966100D01*
X134444000Y-102466100D02*
X134444000Y-103476100D01*
D10*
X136925000Y-103476100D02*
X122955000Y-103476100D01*
X138830000Y-122526100D02*
X138830000Y-105381100D01*
X121050000Y-105377100D02*
G75*
G02*
X122955000Y-103472100I1905001J-1D01*
G01*
X122955000Y-124431100D02*
G75*
G02*
X121050000Y-122526100I0J1905000D01*
G01*
D15*
X125448728Y-102465828D02*
G75*
G02*
X125948728Y-101966098I500022J-292D01*
G01*
X133944000Y-101966100D02*
G75*
G02*
X134444000Y-102466100I-100J-500100D01*
G01*
D10*
X136925000Y-103476100D02*
G75*
G02*
X138830000Y-105381100I-50J-1905050D01*
G01*
X138830000Y-122526100D02*
G75*
G02*
X136925000Y-124431100I-1905000J0D01*
G01*
D16*
X121092000Y-103892100D02*
G75*
G02*
X120588000Y-103892100I-252000J0D01*
G01*
X120588000Y-103892100D02*
G75*
G02*
X121092000Y-103892100I252000J0D01*
G01*
X122366000Y-104609100D02*
G75*
G02*
X121862000Y-104609100I-252000J0D01*
G01*
X121862000Y-104609100D02*
G75*
G02*
X122366000Y-104609100I252000J0D01*
G01*
%TO.C,Q1*%
D13*
X113950000Y-127350000D02*
X117550000Y-127350000D01*
X113911522Y-127338478D02*
G75*
G02*
X115750000Y-122899999I1838478J1838478D01*
G01*
X115750000Y-122900000D02*
G75*
G02*
X117588478Y-127338478I0J-2600000D01*
G01*
%TO.C,U3*%
D17*
X151850000Y-100400000D02*
X179650000Y-100400000D01*
X151850000Y-127600000D02*
X151850000Y-100400000D01*
X175900000Y-107500000D02*
X175900000Y-120350000D01*
X175900000Y-120350000D02*
X179650000Y-120350000D01*
X179650000Y-100400000D02*
X179650000Y-107500000D01*
X179650000Y-107500000D02*
X175900000Y-107500000D01*
X179650000Y-120350000D02*
X179650000Y-127600000D01*
X179650000Y-127600000D02*
X151850000Y-127600000D01*
%TO.C,VR1*%
D10*
X112500000Y-115000000D02*
X119500000Y-115000000D01*
X119500000Y-122000000D01*
X112500000Y-122000000D01*
X112500000Y-115000000D01*
%TO.C,Q2*%
D13*
X147790000Y-113450000D02*
X147790000Y-117050000D01*
X147801522Y-113411522D02*
G75*
G02*
X152240001Y-115250000I1838478J-1838478D01*
G01*
X152240000Y-115250000D02*
G75*
G02*
X147801522Y-117088478I-2600000J0D01*
G01*
%TO.C,U1*%
D17*
X100350000Y-112600000D02*
X100750000Y-112200000D01*
X100350000Y-112650000D02*
X100350000Y-112600000D01*
X100350000Y-112650000D02*
X100350000Y-115850000D01*
X100350000Y-115850000D02*
X100800000Y-116300000D01*
X100750000Y-112200000D02*
X102070000Y-112200000D01*
X102070000Y-116300000D02*
X100800000Y-116300000D01*
X102070000Y-116300000D02*
X102070000Y-112200000D01*
%TD*%
M02*
