%TF.GenerationSoftware,KiCad,Pcbnew,10.0.4*%
%TF.CreationDate,2026-08-27T16:12:59-07:00*%
%TF.ProjectId,halleffectsensor,68616c6c-6566-4666-9563-7473656e736f,rev?*%
%TF.SameCoordinates,Original*%
%TF.FileFunction,Plated,1,2,PTH,Mixed*%
%TF.FilePolarity,Positive*%
%FSLAX46Y46*%
G04 Gerber Fmt 4.6, Leading zero omitted, Abs format (unit mm)*
G04 Created by KiCad (PCBNEW 10.0.4) date 2026-08-27 16:12:59*
%MOMM*%
%LPD*%
G01*
G04 APERTURE LIST*
%TA.AperFunction,ViaDrill*%
%ADD10C,0.300000*%
%TD*%
%TA.AperFunction,ComponentDrill*%
%ADD11C,0.599999*%
%TD*%
%TA.AperFunction,ComponentDrill*%
%ADD12C,0.650000*%
%TD*%
%TA.AperFunction,ComponentDrill*%
%ADD13C,0.700000*%
%TD*%
%TA.AperFunction,ComponentDrill*%
%ADD14C,0.750000*%
%TD*%
G04 aperture for slot hole*
%TA.AperFunction,ComponentDrill*%
%ADD15C,0.900000*%
%TD*%
%TA.AperFunction,ComponentDrill*%
%ADD16C,1.049985*%
%TD*%
%TA.AperFunction,ComponentDrill*%
%ADD17C,2.500000*%
%TD*%
G04 APERTURE END LIST*
D10*
X104750000Y-107750000D03*
X106320811Y-117600000D03*
X106977500Y-107977500D03*
X108230000Y-110250000D03*
X109375000Y-116125000D03*
X111950000Y-108080000D03*
X115250000Y-103000000D03*
X117000000Y-109000000D03*
X117250000Y-113250000D03*
X118750000Y-102750000D03*
X121750000Y-108250000D03*
X122945000Y-109250000D03*
X123000000Y-117000000D03*
X126000000Y-117000000D03*
X127750000Y-113250000D03*
X137875000Y-118375000D03*
X138500000Y-109500000D03*
X138500000Y-110750000D03*
X138500000Y-112000000D03*
X141750000Y-106500000D03*
X143500000Y-107250000D03*
X143500000Y-124750000D03*
X145750000Y-109250000D03*
X150500000Y-107500000D03*
X160500000Y-117750000D03*
X165000000Y-113250000D03*
D11*
%TO.C,U1*%
X101250000Y-112730000D03*
X101250000Y-114000000D03*
X101250000Y-115270000D03*
D12*
%TO.C,J1*%
X138480000Y-115250000D03*
%TO.C,J2*%
X138500000Y-104750000D03*
%TO.C,J1*%
X139750000Y-115250000D03*
%TO.C,J2*%
X139770000Y-104750000D03*
%TO.C,J1*%
X141020000Y-115250000D03*
D13*
%TO.C,R1*%
X106750000Y-110500000D03*
%TO.C,R2*%
X106785000Y-113300000D03*
%TO.C,R3*%
X106880000Y-116250000D03*
%TO.C,R4*%
X106880000Y-119250000D03*
%TO.C,R5*%
X106880000Y-122500000D03*
%TO.C,R6*%
X106880000Y-126000000D03*
%TO.C,R1*%
X114370000Y-110500000D03*
%TO.C,R2*%
X114405000Y-113300000D03*
%TO.C,R3*%
X114500000Y-116250000D03*
%TO.C,R4*%
X114500000Y-119250000D03*
%TO.C,R5*%
X114500000Y-122500000D03*
%TO.C,R6*%
X114500000Y-126000000D03*
%TO.C,R7*%
X141250000Y-118750000D03*
X141250000Y-126370000D03*
%TO.C,R10*%
X144750000Y-113130000D03*
X144750000Y-120750000D03*
%TO.C,R8*%
X147250000Y-113130000D03*
X147250000Y-120750000D03*
%TO.C,R9*%
X149500000Y-113190000D03*
X149500000Y-120810000D03*
D14*
%TO.C,Q1*%
X148140000Y-123480000D03*
X148140000Y-124750000D03*
X148140000Y-126020000D03*
%TO.C,REF\u002A\u002A*%
D15*
X123500000Y-112250000D02*
X122500000Y-112250000D01*
X123550000Y-114130000D02*
X122450000Y-114130000D01*
D16*
%TO.C,U3*%
X153290000Y-110190000D03*
X153290000Y-112730000D03*
X153290000Y-115270000D03*
X153290000Y-117810000D03*
D17*
X153850000Y-102350000D03*
X153850000Y-125650000D03*
X177650000Y-102350000D03*
X177650000Y-125650000D03*
M02*
