%TF.GenerationSoftware,KiCad,Pcbnew,10.0.4*%
%TF.CreationDate,2026-08-29T12:42:31-07:00*%
%TF.ProjectId,halleffectsensor,68616c6c-6566-4666-9563-7473656e736f,rev?*%
%TF.SameCoordinates,Original*%
%TF.FileFunction,Legend,Bot*%
%TF.FilePolarity,Positive*%
%FSLAX46Y46*%
G04 Gerber Fmt 4.6, Leading zero omitted, Abs format (unit mm)*
G04 Created by KiCad (PCBNEW 10.0.4) date 2026-08-29 12:42:31*
%MOMM*%
%LPD*%
G01*
G04 APERTURE LIST*
%ADD10C,0.250000*%
%ADD11C,0.300000*%
%ADD12C,0.150000*%
%ADD13C,0.120000*%
G04 APERTURE END LIST*
D10*
X146621241Y-109864619D02*
X147097431Y-109864619D01*
X147097431Y-109864619D02*
X147145050Y-110340809D01*
X147145050Y-110340809D02*
X147097431Y-110293190D01*
X147097431Y-110293190D02*
X147002193Y-110245571D01*
X147002193Y-110245571D02*
X146764098Y-110245571D01*
X146764098Y-110245571D02*
X146668860Y-110293190D01*
X146668860Y-110293190D02*
X146621241Y-110340809D01*
X146621241Y-110340809D02*
X146573622Y-110436047D01*
X146573622Y-110436047D02*
X146573622Y-110674142D01*
X146573622Y-110674142D02*
X146621241Y-110769380D01*
X146621241Y-110769380D02*
X146668860Y-110817000D01*
X146668860Y-110817000D02*
X146764098Y-110864619D01*
X146764098Y-110864619D02*
X147002193Y-110864619D01*
X147002193Y-110864619D02*
X147097431Y-110817000D01*
X147097431Y-110817000D02*
X147145050Y-110769380D01*
X146287907Y-109864619D02*
X145954574Y-110864619D01*
X145954574Y-110864619D02*
X145621241Y-109864619D01*
X144002193Y-109912238D02*
X144097431Y-109864619D01*
X144097431Y-109864619D02*
X144240288Y-109864619D01*
X144240288Y-109864619D02*
X144383145Y-109912238D01*
X144383145Y-109912238D02*
X144478383Y-110007476D01*
X144478383Y-110007476D02*
X144526002Y-110102714D01*
X144526002Y-110102714D02*
X144573621Y-110293190D01*
X144573621Y-110293190D02*
X144573621Y-110436047D01*
X144573621Y-110436047D02*
X144526002Y-110626523D01*
X144526002Y-110626523D02*
X144478383Y-110721761D01*
X144478383Y-110721761D02*
X144383145Y-110817000D01*
X144383145Y-110817000D02*
X144240288Y-110864619D01*
X144240288Y-110864619D02*
X144145050Y-110864619D01*
X144145050Y-110864619D02*
X144002193Y-110817000D01*
X144002193Y-110817000D02*
X143954574Y-110769380D01*
X143954574Y-110769380D02*
X143954574Y-110436047D01*
X143954574Y-110436047D02*
X144145050Y-110436047D01*
X143526002Y-110864619D02*
X143526002Y-109864619D01*
X143526002Y-109864619D02*
X142954574Y-110864619D01*
X142954574Y-110864619D02*
X142954574Y-109864619D01*
X142478383Y-110864619D02*
X142478383Y-109864619D01*
X142478383Y-109864619D02*
X142240288Y-109864619D01*
X142240288Y-109864619D02*
X142097431Y-109912238D01*
X142097431Y-109912238D02*
X142002193Y-110007476D01*
X142002193Y-110007476D02*
X141954574Y-110102714D01*
X141954574Y-110102714D02*
X141906955Y-110293190D01*
X141906955Y-110293190D02*
X141906955Y-110436047D01*
X141906955Y-110436047D02*
X141954574Y-110626523D01*
X141954574Y-110626523D02*
X142002193Y-110721761D01*
X142002193Y-110721761D02*
X142097431Y-110817000D01*
X142097431Y-110817000D02*
X142240288Y-110864619D01*
X142240288Y-110864619D02*
X142478383Y-110864619D01*
X140859335Y-109864619D02*
X140526002Y-110864619D01*
X140526002Y-110864619D02*
X140192669Y-109864619D01*
X139526002Y-110340809D02*
X139383145Y-110388428D01*
X139383145Y-110388428D02*
X139335526Y-110436047D01*
X139335526Y-110436047D02*
X139287907Y-110531285D01*
X139287907Y-110531285D02*
X139287907Y-110674142D01*
X139287907Y-110674142D02*
X139335526Y-110769380D01*
X139335526Y-110769380D02*
X139383145Y-110817000D01*
X139383145Y-110817000D02*
X139478383Y-110864619D01*
X139478383Y-110864619D02*
X139859335Y-110864619D01*
X139859335Y-110864619D02*
X139859335Y-109864619D01*
X139859335Y-109864619D02*
X139526002Y-109864619D01*
X139526002Y-109864619D02*
X139430764Y-109912238D01*
X139430764Y-109912238D02*
X139383145Y-109959857D01*
X139383145Y-109959857D02*
X139335526Y-110055095D01*
X139335526Y-110055095D02*
X139335526Y-110150333D01*
X139335526Y-110150333D02*
X139383145Y-110245571D01*
X139383145Y-110245571D02*
X139430764Y-110293190D01*
X139430764Y-110293190D02*
X139526002Y-110340809D01*
X139526002Y-110340809D02*
X139859335Y-110340809D01*
X138906954Y-110578904D02*
X138430764Y-110578904D01*
X139002192Y-110864619D02*
X138668859Y-109864619D01*
X138668859Y-109864619D02*
X138335526Y-110864619D01*
X138145049Y-109864619D02*
X137573621Y-109864619D01*
X137859335Y-110864619D02*
X137859335Y-109864619D01*
D11*
X141695489Y-101729400D02*
X140552632Y-101729400D01*
X136409775Y-101729400D02*
X135266918Y-101729400D01*
X135838346Y-102300828D02*
X135838346Y-101157971D01*
X127729400Y-109804510D02*
X127729400Y-110947368D01*
X127729400Y-115090224D02*
X127729400Y-116233082D01*
X128300828Y-115661653D02*
X127157971Y-115661653D01*
D12*
X103916666Y-110609580D02*
X103964285Y-110657200D01*
X103964285Y-110657200D02*
X104107142Y-110704819D01*
X104107142Y-110704819D02*
X104202380Y-110704819D01*
X104202380Y-110704819D02*
X104345237Y-110657200D01*
X104345237Y-110657200D02*
X104440475Y-110561961D01*
X104440475Y-110561961D02*
X104488094Y-110466723D01*
X104488094Y-110466723D02*
X104535713Y-110276247D01*
X104535713Y-110276247D02*
X104535713Y-110133390D01*
X104535713Y-110133390D02*
X104488094Y-109942914D01*
X104488094Y-109942914D02*
X104440475Y-109847676D01*
X104440475Y-109847676D02*
X104345237Y-109752438D01*
X104345237Y-109752438D02*
X104202380Y-109704819D01*
X104202380Y-109704819D02*
X104107142Y-109704819D01*
X104107142Y-109704819D02*
X103964285Y-109752438D01*
X103964285Y-109752438D02*
X103916666Y-109800057D01*
X102964285Y-110704819D02*
X103535713Y-110704819D01*
X103249999Y-110704819D02*
X103249999Y-109704819D01*
X103249999Y-109704819D02*
X103345237Y-109847676D01*
X103345237Y-109847676D02*
X103440475Y-109942914D01*
X103440475Y-109942914D02*
X103535713Y-109990533D01*
X116874819Y-103833333D02*
X116398628Y-103500000D01*
X116874819Y-103261905D02*
X115874819Y-103261905D01*
X115874819Y-103261905D02*
X115874819Y-103642857D01*
X115874819Y-103642857D02*
X115922438Y-103738095D01*
X115922438Y-103738095D02*
X115970057Y-103785714D01*
X115970057Y-103785714D02*
X116065295Y-103833333D01*
X116065295Y-103833333D02*
X116208152Y-103833333D01*
X116208152Y-103833333D02*
X116303390Y-103785714D01*
X116303390Y-103785714D02*
X116351009Y-103738095D01*
X116351009Y-103738095D02*
X116398628Y-103642857D01*
X116398628Y-103642857D02*
X116398628Y-103261905D01*
X115874819Y-104166667D02*
X115874819Y-104785714D01*
X115874819Y-104785714D02*
X116255771Y-104452381D01*
X116255771Y-104452381D02*
X116255771Y-104595238D01*
X116255771Y-104595238D02*
X116303390Y-104690476D01*
X116303390Y-104690476D02*
X116351009Y-104738095D01*
X116351009Y-104738095D02*
X116446247Y-104785714D01*
X116446247Y-104785714D02*
X116684342Y-104785714D01*
X116684342Y-104785714D02*
X116779580Y-104738095D01*
X116779580Y-104738095D02*
X116827200Y-104690476D01*
X116827200Y-104690476D02*
X116874819Y-104595238D01*
X116874819Y-104595238D02*
X116874819Y-104309524D01*
X116874819Y-104309524D02*
X116827200Y-104214286D01*
X116827200Y-104214286D02*
X116779580Y-104166667D01*
X114454819Y-115583333D02*
X113978628Y-115250000D01*
X114454819Y-115011905D02*
X113454819Y-115011905D01*
X113454819Y-115011905D02*
X113454819Y-115392857D01*
X113454819Y-115392857D02*
X113502438Y-115488095D01*
X113502438Y-115488095D02*
X113550057Y-115535714D01*
X113550057Y-115535714D02*
X113645295Y-115583333D01*
X113645295Y-115583333D02*
X113788152Y-115583333D01*
X113788152Y-115583333D02*
X113883390Y-115535714D01*
X113883390Y-115535714D02*
X113931009Y-115488095D01*
X113931009Y-115488095D02*
X113978628Y-115392857D01*
X113978628Y-115392857D02*
X113978628Y-115011905D01*
X113454819Y-116440476D02*
X113454819Y-116250000D01*
X113454819Y-116250000D02*
X113502438Y-116154762D01*
X113502438Y-116154762D02*
X113550057Y-116107143D01*
X113550057Y-116107143D02*
X113692914Y-116011905D01*
X113692914Y-116011905D02*
X113883390Y-115964286D01*
X113883390Y-115964286D02*
X114264342Y-115964286D01*
X114264342Y-115964286D02*
X114359580Y-116011905D01*
X114359580Y-116011905D02*
X114407200Y-116059524D01*
X114407200Y-116059524D02*
X114454819Y-116154762D01*
X114454819Y-116154762D02*
X114454819Y-116345238D01*
X114454819Y-116345238D02*
X114407200Y-116440476D01*
X114407200Y-116440476D02*
X114359580Y-116488095D01*
X114359580Y-116488095D02*
X114264342Y-116535714D01*
X114264342Y-116535714D02*
X114026247Y-116535714D01*
X114026247Y-116535714D02*
X113931009Y-116488095D01*
X113931009Y-116488095D02*
X113883390Y-116440476D01*
X113883390Y-116440476D02*
X113835771Y-116345238D01*
X113835771Y-116345238D02*
X113835771Y-116154762D01*
X113835771Y-116154762D02*
X113883390Y-116059524D01*
X113883390Y-116059524D02*
X113931009Y-116011905D01*
X113931009Y-116011905D02*
X114026247Y-115964286D01*
X118392857Y-109874819D02*
X118726190Y-109398628D01*
X118964285Y-109874819D02*
X118964285Y-108874819D01*
X118964285Y-108874819D02*
X118583333Y-108874819D01*
X118583333Y-108874819D02*
X118488095Y-108922438D01*
X118488095Y-108922438D02*
X118440476Y-108970057D01*
X118440476Y-108970057D02*
X118392857Y-109065295D01*
X118392857Y-109065295D02*
X118392857Y-109208152D01*
X118392857Y-109208152D02*
X118440476Y-109303390D01*
X118440476Y-109303390D02*
X118488095Y-109351009D01*
X118488095Y-109351009D02*
X118583333Y-109398628D01*
X118583333Y-109398628D02*
X118964285Y-109398628D01*
X117440476Y-109874819D02*
X118011904Y-109874819D01*
X117726190Y-109874819D02*
X117726190Y-108874819D01*
X117726190Y-108874819D02*
X117821428Y-109017676D01*
X117821428Y-109017676D02*
X117916666Y-109112914D01*
X117916666Y-109112914D02*
X118011904Y-109160533D01*
X116869047Y-109303390D02*
X116964285Y-109255771D01*
X116964285Y-109255771D02*
X117011904Y-109208152D01*
X117011904Y-109208152D02*
X117059523Y-109112914D01*
X117059523Y-109112914D02*
X117059523Y-109065295D01*
X117059523Y-109065295D02*
X117011904Y-108970057D01*
X117011904Y-108970057D02*
X116964285Y-108922438D01*
X116964285Y-108922438D02*
X116869047Y-108874819D01*
X116869047Y-108874819D02*
X116678571Y-108874819D01*
X116678571Y-108874819D02*
X116583333Y-108922438D01*
X116583333Y-108922438D02*
X116535714Y-108970057D01*
X116535714Y-108970057D02*
X116488095Y-109065295D01*
X116488095Y-109065295D02*
X116488095Y-109112914D01*
X116488095Y-109112914D02*
X116535714Y-109208152D01*
X116535714Y-109208152D02*
X116583333Y-109255771D01*
X116583333Y-109255771D02*
X116678571Y-109303390D01*
X116678571Y-109303390D02*
X116869047Y-109303390D01*
X116869047Y-109303390D02*
X116964285Y-109351009D01*
X116964285Y-109351009D02*
X117011904Y-109398628D01*
X117011904Y-109398628D02*
X117059523Y-109493866D01*
X117059523Y-109493866D02*
X117059523Y-109684342D01*
X117059523Y-109684342D02*
X117011904Y-109779580D01*
X117011904Y-109779580D02*
X116964285Y-109827200D01*
X116964285Y-109827200D02*
X116869047Y-109874819D01*
X116869047Y-109874819D02*
X116678571Y-109874819D01*
X116678571Y-109874819D02*
X116583333Y-109827200D01*
X116583333Y-109827200D02*
X116535714Y-109779580D01*
X116535714Y-109779580D02*
X116488095Y-109684342D01*
X116488095Y-109684342D02*
X116488095Y-109493866D01*
X116488095Y-109493866D02*
X116535714Y-109398628D01*
X116535714Y-109398628D02*
X116583333Y-109351009D01*
X116583333Y-109351009D02*
X116678571Y-109303390D01*
X147784819Y-103083333D02*
X147308628Y-102750000D01*
X147784819Y-102511905D02*
X146784819Y-102511905D01*
X146784819Y-102511905D02*
X146784819Y-102892857D01*
X146784819Y-102892857D02*
X146832438Y-102988095D01*
X146832438Y-102988095D02*
X146880057Y-103035714D01*
X146880057Y-103035714D02*
X146975295Y-103083333D01*
X146975295Y-103083333D02*
X147118152Y-103083333D01*
X147118152Y-103083333D02*
X147213390Y-103035714D01*
X147213390Y-103035714D02*
X147261009Y-102988095D01*
X147261009Y-102988095D02*
X147308628Y-102892857D01*
X147308628Y-102892857D02*
X147308628Y-102511905D01*
X147213390Y-103654762D02*
X147165771Y-103559524D01*
X147165771Y-103559524D02*
X147118152Y-103511905D01*
X147118152Y-103511905D02*
X147022914Y-103464286D01*
X147022914Y-103464286D02*
X146975295Y-103464286D01*
X146975295Y-103464286D02*
X146880057Y-103511905D01*
X146880057Y-103511905D02*
X146832438Y-103559524D01*
X146832438Y-103559524D02*
X146784819Y-103654762D01*
X146784819Y-103654762D02*
X146784819Y-103845238D01*
X146784819Y-103845238D02*
X146832438Y-103940476D01*
X146832438Y-103940476D02*
X146880057Y-103988095D01*
X146880057Y-103988095D02*
X146975295Y-104035714D01*
X146975295Y-104035714D02*
X147022914Y-104035714D01*
X147022914Y-104035714D02*
X147118152Y-103988095D01*
X147118152Y-103988095D02*
X147165771Y-103940476D01*
X147165771Y-103940476D02*
X147213390Y-103845238D01*
X147213390Y-103845238D02*
X147213390Y-103654762D01*
X147213390Y-103654762D02*
X147261009Y-103559524D01*
X147261009Y-103559524D02*
X147308628Y-103511905D01*
X147308628Y-103511905D02*
X147403866Y-103464286D01*
X147403866Y-103464286D02*
X147594342Y-103464286D01*
X147594342Y-103464286D02*
X147689580Y-103511905D01*
X147689580Y-103511905D02*
X147737200Y-103559524D01*
X147737200Y-103559524D02*
X147784819Y-103654762D01*
X147784819Y-103654762D02*
X147784819Y-103845238D01*
X147784819Y-103845238D02*
X147737200Y-103940476D01*
X147737200Y-103940476D02*
X147689580Y-103988095D01*
X147689580Y-103988095D02*
X147594342Y-104035714D01*
X147594342Y-104035714D02*
X147403866Y-104035714D01*
X147403866Y-104035714D02*
X147308628Y-103988095D01*
X147308628Y-103988095D02*
X147261009Y-103940476D01*
X147261009Y-103940476D02*
X147213390Y-103845238D01*
X133392857Y-116874819D02*
X133726190Y-116398628D01*
X133964285Y-116874819D02*
X133964285Y-115874819D01*
X133964285Y-115874819D02*
X133583333Y-115874819D01*
X133583333Y-115874819D02*
X133488095Y-115922438D01*
X133488095Y-115922438D02*
X133440476Y-115970057D01*
X133440476Y-115970057D02*
X133392857Y-116065295D01*
X133392857Y-116065295D02*
X133392857Y-116208152D01*
X133392857Y-116208152D02*
X133440476Y-116303390D01*
X133440476Y-116303390D02*
X133488095Y-116351009D01*
X133488095Y-116351009D02*
X133583333Y-116398628D01*
X133583333Y-116398628D02*
X133964285Y-116398628D01*
X132440476Y-116874819D02*
X133011904Y-116874819D01*
X132726190Y-116874819D02*
X132726190Y-115874819D01*
X132726190Y-115874819D02*
X132821428Y-116017676D01*
X132821428Y-116017676D02*
X132916666Y-116112914D01*
X132916666Y-116112914D02*
X133011904Y-116160533D01*
X131488095Y-116874819D02*
X132059523Y-116874819D01*
X131773809Y-116874819D02*
X131773809Y-115874819D01*
X131773809Y-115874819D02*
X131869047Y-116017676D01*
X131869047Y-116017676D02*
X131964285Y-116112914D01*
X131964285Y-116112914D02*
X132059523Y-116160533D01*
X107166666Y-112454819D02*
X107499999Y-111978628D01*
X107738094Y-112454819D02*
X107738094Y-111454819D01*
X107738094Y-111454819D02*
X107357142Y-111454819D01*
X107357142Y-111454819D02*
X107261904Y-111502438D01*
X107261904Y-111502438D02*
X107214285Y-111550057D01*
X107214285Y-111550057D02*
X107166666Y-111645295D01*
X107166666Y-111645295D02*
X107166666Y-111788152D01*
X107166666Y-111788152D02*
X107214285Y-111883390D01*
X107214285Y-111883390D02*
X107261904Y-111931009D01*
X107261904Y-111931009D02*
X107357142Y-111978628D01*
X107357142Y-111978628D02*
X107738094Y-111978628D01*
X106309523Y-111788152D02*
X106309523Y-112454819D01*
X106547618Y-111407200D02*
X106785713Y-112121485D01*
X106785713Y-112121485D02*
X106166666Y-112121485D01*
X116954819Y-113583333D02*
X116478628Y-113250000D01*
X116954819Y-113011905D02*
X115954819Y-113011905D01*
X115954819Y-113011905D02*
X115954819Y-113392857D01*
X115954819Y-113392857D02*
X116002438Y-113488095D01*
X116002438Y-113488095D02*
X116050057Y-113535714D01*
X116050057Y-113535714D02*
X116145295Y-113583333D01*
X116145295Y-113583333D02*
X116288152Y-113583333D01*
X116288152Y-113583333D02*
X116383390Y-113535714D01*
X116383390Y-113535714D02*
X116431009Y-113488095D01*
X116431009Y-113488095D02*
X116478628Y-113392857D01*
X116478628Y-113392857D02*
X116478628Y-113011905D01*
X115954819Y-114488095D02*
X115954819Y-114011905D01*
X115954819Y-114011905D02*
X116431009Y-113964286D01*
X116431009Y-113964286D02*
X116383390Y-114011905D01*
X116383390Y-114011905D02*
X116335771Y-114107143D01*
X116335771Y-114107143D02*
X116335771Y-114345238D01*
X116335771Y-114345238D02*
X116383390Y-114440476D01*
X116383390Y-114440476D02*
X116431009Y-114488095D01*
X116431009Y-114488095D02*
X116526247Y-114535714D01*
X116526247Y-114535714D02*
X116764342Y-114535714D01*
X116764342Y-114535714D02*
X116859580Y-114488095D01*
X116859580Y-114488095D02*
X116907200Y-114440476D01*
X116907200Y-114440476D02*
X116954819Y-114345238D01*
X116954819Y-114345238D02*
X116954819Y-114107143D01*
X116954819Y-114107143D02*
X116907200Y-114011905D01*
X116907200Y-114011905D02*
X116859580Y-113964286D01*
X138959819Y-112416666D02*
X139674104Y-112416666D01*
X139674104Y-112416666D02*
X139816961Y-112369047D01*
X139816961Y-112369047D02*
X139912200Y-112273809D01*
X139912200Y-112273809D02*
X139959819Y-112130952D01*
X139959819Y-112130952D02*
X139959819Y-112035714D01*
X139959819Y-113416666D02*
X139959819Y-112845238D01*
X139959819Y-113130952D02*
X138959819Y-113130952D01*
X138959819Y-113130952D02*
X139102676Y-113035714D01*
X139102676Y-113035714D02*
X139197914Y-112940476D01*
X139197914Y-112940476D02*
X139245533Y-112845238D01*
X108642857Y-118784819D02*
X108976190Y-118308628D01*
X109214285Y-118784819D02*
X109214285Y-117784819D01*
X109214285Y-117784819D02*
X108833333Y-117784819D01*
X108833333Y-117784819D02*
X108738095Y-117832438D01*
X108738095Y-117832438D02*
X108690476Y-117880057D01*
X108690476Y-117880057D02*
X108642857Y-117975295D01*
X108642857Y-117975295D02*
X108642857Y-118118152D01*
X108642857Y-118118152D02*
X108690476Y-118213390D01*
X108690476Y-118213390D02*
X108738095Y-118261009D01*
X108738095Y-118261009D02*
X108833333Y-118308628D01*
X108833333Y-118308628D02*
X109214285Y-118308628D01*
X107690476Y-118784819D02*
X108261904Y-118784819D01*
X107976190Y-118784819D02*
X107976190Y-117784819D01*
X107976190Y-117784819D02*
X108071428Y-117927676D01*
X108071428Y-117927676D02*
X108166666Y-118022914D01*
X108166666Y-118022914D02*
X108261904Y-118070533D01*
X107071428Y-117784819D02*
X106976190Y-117784819D01*
X106976190Y-117784819D02*
X106880952Y-117832438D01*
X106880952Y-117832438D02*
X106833333Y-117880057D01*
X106833333Y-117880057D02*
X106785714Y-117975295D01*
X106785714Y-117975295D02*
X106738095Y-118165771D01*
X106738095Y-118165771D02*
X106738095Y-118403866D01*
X106738095Y-118403866D02*
X106785714Y-118594342D01*
X106785714Y-118594342D02*
X106833333Y-118689580D01*
X106833333Y-118689580D02*
X106880952Y-118737200D01*
X106880952Y-118737200D02*
X106976190Y-118784819D01*
X106976190Y-118784819D02*
X107071428Y-118784819D01*
X107071428Y-118784819D02*
X107166666Y-118737200D01*
X107166666Y-118737200D02*
X107214285Y-118689580D01*
X107214285Y-118689580D02*
X107261904Y-118594342D01*
X107261904Y-118594342D02*
X107309523Y-118403866D01*
X107309523Y-118403866D02*
X107309523Y-118165771D01*
X107309523Y-118165771D02*
X107261904Y-117975295D01*
X107261904Y-117975295D02*
X107214285Y-117880057D01*
X107214285Y-117880057D02*
X107166666Y-117832438D01*
X107166666Y-117832438D02*
X107071428Y-117784819D01*
X113142857Y-109954819D02*
X113476190Y-109478628D01*
X113714285Y-109954819D02*
X113714285Y-108954819D01*
X113714285Y-108954819D02*
X113333333Y-108954819D01*
X113333333Y-108954819D02*
X113238095Y-109002438D01*
X113238095Y-109002438D02*
X113190476Y-109050057D01*
X113190476Y-109050057D02*
X113142857Y-109145295D01*
X113142857Y-109145295D02*
X113142857Y-109288152D01*
X113142857Y-109288152D02*
X113190476Y-109383390D01*
X113190476Y-109383390D02*
X113238095Y-109431009D01*
X113238095Y-109431009D02*
X113333333Y-109478628D01*
X113333333Y-109478628D02*
X113714285Y-109478628D01*
X112190476Y-109954819D02*
X112761904Y-109954819D01*
X112476190Y-109954819D02*
X112476190Y-108954819D01*
X112476190Y-108954819D02*
X112571428Y-109097676D01*
X112571428Y-109097676D02*
X112666666Y-109192914D01*
X112666666Y-109192914D02*
X112761904Y-109240533D01*
X111857142Y-108954819D02*
X111190476Y-108954819D01*
X111190476Y-108954819D02*
X111619047Y-109954819D01*
X110059580Y-105270833D02*
X110107200Y-105223214D01*
X110107200Y-105223214D02*
X110154819Y-105080357D01*
X110154819Y-105080357D02*
X110154819Y-104985119D01*
X110154819Y-104985119D02*
X110107200Y-104842262D01*
X110107200Y-104842262D02*
X110011961Y-104747024D01*
X110011961Y-104747024D02*
X109916723Y-104699405D01*
X109916723Y-104699405D02*
X109726247Y-104651786D01*
X109726247Y-104651786D02*
X109583390Y-104651786D01*
X109583390Y-104651786D02*
X109392914Y-104699405D01*
X109392914Y-104699405D02*
X109297676Y-104747024D01*
X109297676Y-104747024D02*
X109202438Y-104842262D01*
X109202438Y-104842262D02*
X109154819Y-104985119D01*
X109154819Y-104985119D02*
X109154819Y-105080357D01*
X109154819Y-105080357D02*
X109202438Y-105223214D01*
X109202438Y-105223214D02*
X109250057Y-105270833D01*
X109250057Y-105651786D02*
X109202438Y-105699405D01*
X109202438Y-105699405D02*
X109154819Y-105794643D01*
X109154819Y-105794643D02*
X109154819Y-106032738D01*
X109154819Y-106032738D02*
X109202438Y-106127976D01*
X109202438Y-106127976D02*
X109250057Y-106175595D01*
X109250057Y-106175595D02*
X109345295Y-106223214D01*
X109345295Y-106223214D02*
X109440533Y-106223214D01*
X109440533Y-106223214D02*
X109583390Y-106175595D01*
X109583390Y-106175595D02*
X110154819Y-105604167D01*
X110154819Y-105604167D02*
X110154819Y-106223214D01*
%TO.C,C1*%
D13*
X102390000Y-112788748D02*
X102390000Y-114211252D01*
X105110000Y-112788748D02*
X105110000Y-114211252D01*
%TO.C,R3*%
X117340000Y-103272936D02*
X117340000Y-104727064D01*
X119160000Y-103272936D02*
X119160000Y-104727064D01*
%TO.C,R6*%
X114840000Y-118177064D02*
X114840000Y-116722936D01*
X116660000Y-118177064D02*
X116660000Y-116722936D01*
%TO.C,R18*%
X117177064Y-110340000D02*
X115722936Y-110340000D01*
X117177064Y-112160000D02*
X115722936Y-112160000D01*
%TO.C,R8*%
X144590000Y-103977064D02*
X144590000Y-102522936D01*
X146410000Y-103977064D02*
X146410000Y-102522936D01*
%TO.C,R11*%
X133477064Y-117340000D02*
X132022936Y-117340000D01*
X133477064Y-119160000D02*
X132022936Y-119160000D01*
%TO.C,R4*%
X108727064Y-112840000D02*
X107272936Y-112840000D01*
X108727064Y-114660000D02*
X107272936Y-114660000D01*
%TO.C,R5*%
X117340000Y-114522936D02*
X117340000Y-115977064D01*
X119160000Y-114522936D02*
X119160000Y-115977064D01*
%TO.C,J1*%
X140440000Y-111590000D02*
X140440000Y-112750000D01*
X141250000Y-111590000D02*
X140440000Y-111590000D01*
X142060000Y-111590000D02*
X142060000Y-112083292D01*
X142060000Y-111590000D02*
X144535000Y-111590000D01*
X142060000Y-113416708D02*
X142060000Y-113910000D01*
X142060000Y-113910000D02*
X144535000Y-113910000D01*
X144535000Y-111590000D02*
X144535000Y-112432077D01*
X144535000Y-113067923D02*
X144535000Y-113910000D01*
%TO.C,R10*%
X107272936Y-115590000D02*
X108727064Y-115590000D01*
X107272936Y-117410000D02*
X108727064Y-117410000D01*
%TO.C,R17*%
X112227064Y-110340000D02*
X110772936Y-110340000D01*
X112227064Y-112160000D02*
X110772936Y-112160000D01*
%TO.C,C2*%
X110640000Y-104726248D02*
X110640000Y-106148752D01*
X113360000Y-104726248D02*
X113360000Y-106148752D01*
%TD*%
M02*
