M48
; DRILL file KiCad 10.0.4 date 2026-09-19T13:09:21
; FORMAT={-:-/ absolute / metric / decimal}
; #@! TF.CreationDate,2026-09-19T13:09:21-07:00
; #@! TF.GenerationSoftware,Kicad,Pcbnew,10.0.4
; #@! TF.FileFunction,Plated,1,2,PTH
FMAT,2
METRIC
; #@! TA.AperFunction,Plated,PTH,ViaDrill
T1C0.300
; #@! TA.AperFunction,Plated,PTH,ComponentDrill
T2C0.600
; #@! TA.AperFunction,Plated,PTH,ComponentDrill
T3C0.600
; #@! TA.AperFunction,Plated,PTH,ComponentDrill
T4C0.650
; #@! TA.AperFunction,Plated,PTH,ComponentDrill
T5C0.800
; #@! TA.AperFunction,Plated,PTH,ComponentDrill
T6C0.900
; #@! TA.AperFunction,Plated,PTH,ComponentDrill
T7C1.050
%
G90
G05
T1
X100.85Y-117.5
X101.25Y-105.5
X102.981Y-106.35
X103.0Y-107.5
X104.0Y-113.5
X104.75Y-116.5
X105.221Y-120.471
X107.5Y-104.25
X107.5Y-108.25
X108.5Y-111.0
X110.862Y-102.362
X111.25Y-105.5
X111.75Y-117.25
X112.25Y-102.5
X112.75Y-105.75
X114.5Y-113.25
X115.5Y-124.0
X116.25Y-102.0
X116.5Y-113.75
X116.75Y-108.0
X117.277Y-112.509
X117.75Y-121.25
X118.25Y-104.0
X119.5Y-110.0
X119.75Y-109.0
X124.25Y-119.0
X126.25Y-119.5
X129.5Y-118.25
X130.5Y-120.25
X134.0Y-120.25
X140.25Y-115.0
X141.25Y-118.75
X141.25Y-125.25
X141.5Y-110.0
X141.5Y-110.9
X141.75Y-105.25
X145.25Y-121.25
X145.5Y-103.0
X146.0Y-112.25
X147.0Y-114.75
X147.1Y-106.4
X148.0Y-122.25
X148.25Y-119.0
X149.25Y-110.25
T2
X101.25Y-112.98
X101.25Y-114.25
X101.25Y-115.52
T3
X107.25Y-125.25
X108.75Y-125.25
T4
X137.75Y-101.75
X139.02Y-101.75
X141.25Y-112.75
X142.52Y-112.75
X143.79Y-112.75
T5
X105.25Y-118.5
X107.75Y-121.0
X110.25Y-118.5
X113.5Y-118.5
X116.0Y-121.0
X118.5Y-118.5
T7
X153.29Y-110.19
X153.29Y-112.73
X153.29Y-115.27
X153.29Y-117.81
T6
G00X125.05Y-111.803
M15
G01X126.05Y-111.803
M16
G05
G00X125.0Y-113.683
M15
G01X126.1Y-113.683
M16
G05
M30
