%TF.GenerationSoftware,KiCad,Pcbnew,10.0.4*%
%TF.CreationDate,2026-08-27T16:13:03-07:00*%
%TF.ProjectId,halleffectsensor,68616c6c-6566-4666-9563-7473656e736f,rev?*%
%TF.SameCoordinates,Original*%
%TF.FileFunction,Soldermask,Top*%
%TF.FilePolarity,Negative*%
%FSLAX46Y46*%
G04 Gerber Fmt 4.6, Leading zero omitted, Abs format (unit mm)*
G04 Created by KiCad (PCBNEW 10.0.4) date 2026-08-27 16:13:03*
%MOMM*%
%LPD*%
G01*
G04 APERTURE LIST*
G04 Aperture macros list*
%AMRoundRect*
0 Rectangle with rounded corners*
0 $1 Rounding radius*
0 $2 $3 $4 $5 $6 $7 $8 $9 X,Y pos of 4 corners*
0 Add a 4 corners polygon primitive as box body*
4,1,4,$2,$3,$4,$5,$6,$7,$8,$9,$2,$3,0*
0 Add four circle primitives for the rounded corners*
1,1,$1+$1,$2,$3*
1,1,$1+$1,$4,$5*
1,1,$1+$1,$6,$7*
1,1,$1+$1,$8,$9*
0 Add four rect primitives between the rounded corners*
20,1,$1+$1,$2,$3,$4,$5,0*
20,1,$1+$1,$4,$5,$6,$7,0*
20,1,$1+$1,$6,$7,$8,$9,0*
20,1,$1+$1,$8,$9,$2,$3,0*%
G04 Aperture macros list end*
%ADD10RoundRect,0.137500X0.612500X0.137500X-0.612500X0.137500X-0.612500X-0.137500X0.612500X-0.137500X0*%
%ADD11C,2.200000*%
%ADD12C,1.400000*%
%ADD13R,1.500000X1.050000*%
%ADD14O,1.500000X1.050000*%
%ADD15O,2.800000X1.300000*%
%ADD16RoundRect,0.250000X-1.100000X0.412500X-1.100000X-0.412500X1.100000X-0.412500X1.100000X0.412500X0*%
%ADD17R,1.000000X1.000000*%
%ADD18C,1.000000*%
%ADD19RoundRect,0.550800X-0.875000X-0.500000X0.875000X-0.500000X0.875000X0.500000X-0.875000X0.500000X0*%
%ADD20C,1.700000*%
%ADD21RoundRect,0.275000X0.975000X0.275000X-0.975000X0.275000X-0.975000X-0.275000X0.975000X-0.275000X0*%
%ADD22RoundRect,0.275000X-0.275000X0.975000X-0.275000X-0.975000X0.275000X-0.975000X0.275000X0.975000X0*%
%ADD23C,3.000000*%
%ADD24C,1.800000*%
%ADD25R,0.900000X0.900000*%
%ADD26C,0.900000*%
%ADD27R,1.300000X2.200000*%
G04 APERTURE END LIST*
D10*
%TO.C,U2*%
X108100000Y-106905000D03*
X108100000Y-105635000D03*
X108100000Y-104365000D03*
X108100000Y-103095000D03*
X113400000Y-103095000D03*
X113400000Y-104365000D03*
X113400000Y-105635000D03*
X113400000Y-106905000D03*
%TD*%
D11*
%TO.C,REF\u002A\u002A*%
X103000000Y-103000000D03*
%TD*%
%TO.C,REF\u002A\u002A*%
X103000000Y-125000000D03*
%TD*%
D12*
%TO.C,R10*%
X144750000Y-120750000D03*
X144750000Y-113130000D03*
%TD*%
%TO.C,R9*%
X149500000Y-113190000D03*
X149500000Y-120810000D03*
%TD*%
%TO.C,R8*%
X147250000Y-120750000D03*
X147250000Y-113130000D03*
%TD*%
%TO.C,R7*%
X141250000Y-118750000D03*
X141250000Y-126370000D03*
%TD*%
D13*
%TO.C,Q1*%
X148140000Y-123480000D03*
D14*
X148140000Y-124750000D03*
X148140000Y-126020000D03*
%TD*%
D12*
%TO.C,R2*%
X106785000Y-113300000D03*
X114405000Y-113300000D03*
%TD*%
D15*
%TO.C,REF\u002A\u002A*%
X123000000Y-112250000D03*
%TD*%
D12*
%TO.C,R6*%
X106880000Y-126000000D03*
X114500000Y-126000000D03*
%TD*%
D16*
%TO.C,C1*%
X103750000Y-111687500D03*
X103750000Y-114812500D03*
%TD*%
D12*
%TO.C,R4*%
X106880000Y-119250000D03*
X114500000Y-119250000D03*
%TD*%
D15*
%TO.C,REF\u002A\u002A*%
X123000000Y-114130000D03*
%TD*%
D12*
%TO.C,R3*%
X106880000Y-116250000D03*
X114500000Y-116250000D03*
%TD*%
%TO.C,R1*%
X106750000Y-110500000D03*
X114370000Y-110500000D03*
%TD*%
%TO.C,R5*%
X106880000Y-122500000D03*
X114500000Y-122500000D03*
%TD*%
D17*
%TO.C,J2*%
X138500000Y-104750000D03*
D18*
X139770000Y-104750000D03*
%TD*%
D19*
%TO.C,U5*%
X119335000Y-106840000D03*
X119335000Y-109380000D03*
X119335000Y-111920000D03*
X119335000Y-114460000D03*
X119335000Y-117000000D03*
X119335000Y-119540000D03*
X119335000Y-122080000D03*
X135500000Y-122080000D03*
X135500000Y-119540000D03*
X135500000Y-117000000D03*
X135500000Y-114460000D03*
X135500000Y-111920000D03*
X135500000Y-109380000D03*
X135500000Y-106840000D03*
D20*
X126120000Y-105891500D03*
X128660000Y-105891500D03*
X126120000Y-108431500D03*
X128660000Y-108431500D03*
D21*
X122945000Y-114146500D03*
X122945000Y-112241500D03*
D22*
X131200000Y-123696900D03*
X133105000Y-123696900D03*
%TD*%
D23*
%TO.C,U3*%
X153850000Y-125650000D03*
X177650000Y-125650000D03*
X153850000Y-102350000D03*
X177650000Y-102350000D03*
D24*
X153290000Y-117810000D03*
X153290000Y-115270000D03*
X153290000Y-112730000D03*
X153290000Y-110190000D03*
%TD*%
D25*
%TO.C,U1*%
X101250000Y-112730000D03*
D26*
X101250000Y-114000000D03*
X101250000Y-115270000D03*
%TD*%
D17*
%TO.C,J1*%
X138480000Y-115250000D03*
D18*
X139750000Y-115250000D03*
X141020000Y-115250000D03*
%TD*%
D27*
%TO.C,S1*%
X143500000Y-101750000D03*
X143500000Y-109750000D03*
X148000000Y-101750000D03*
X148000000Y-109750000D03*
%TD*%
M02*
