%TF.GenerationSoftware,KiCad,Pcbnew,10.0.4*%
%TF.CreationDate,2026-09-19T13:09:24-07:00*%
%TF.ProjectId,halleffectsensor,68616c6c-6566-4666-9563-7473656e736f,rev?*%
%TF.SameCoordinates,Original*%
%TF.FileFunction,Copper,L2,Bot*%
%TF.FilePolarity,Positive*%
%FSLAX46Y46*%
G04 Gerber Fmt 4.6, Leading zero omitted, Abs format (unit mm)*
G04 Created by KiCad (PCBNEW 10.0.4) date 2026-09-19 13:09:24*
%MOMM*%
%LPD*%
G01*
G04 APERTURE LIST*
G04 Aperture macros list*
%AMRoundRect*
0 Rectangle with rounded corners*
0 $1 Rounding radius*
0 $2 $3 $4 $5 $6 $7 $8 $9 X,Y pos of 4 corners*
0 Add a 4 corners polygon primitive as box body*
4,1,4,$2,$3,$4,$5,$6,$7,$8,$9,$2,$3,0*
0 Add four circle primitives for the rounded corners*
1,1,$1+$1,$2,$3*
1,1,$1+$1,$4,$5*
1,1,$1+$1,$6,$7*
1,1,$1+$1,$8,$9*
0 Add four rect primitives between the rounded corners*
20,1,$1+$1,$2,$3,$4,$5,0*
20,1,$1+$1,$4,$5,$6,$7,0*
20,1,$1+$1,$6,$7,$8,$9,0*
20,1,$1+$1,$8,$9,$2,$3,0*%
G04 Aperture macros list end*
%TA.AperFunction,ComponentPad*%
%ADD10O,2.800000X1.300000*%
%TD*%
%TA.AperFunction,ComponentPad*%
%ADD11RoundRect,0.190500X-0.444500X-0.444500X0.444500X-0.444500X0.444500X0.444500X-0.444500X0.444500X0*%
%TD*%
%TA.AperFunction,ComponentPad*%
%ADD12R,1.000000X1.000000*%
%TD*%
%TA.AperFunction,ComponentPad*%
%ADD13C,1.000000*%
%TD*%
%TA.AperFunction,ComponentPad*%
%ADD14C,1.200000*%
%TD*%
%TA.AperFunction,WasherPad*%
%ADD15C,3.000000*%
%TD*%
%TA.AperFunction,ComponentPad*%
%ADD16C,1.800000*%
%TD*%
%TA.AperFunction,ComponentPad*%
%ADD17R,0.900000X0.900000*%
%TD*%
%TA.AperFunction,ComponentPad*%
%ADD18C,0.900000*%
%TD*%
%TA.AperFunction,SMDPad,CuDef*%
%ADD19RoundRect,0.250000X-1.100000X0.412500X-1.100000X-0.412500X1.100000X-0.412500X1.100000X0.412500X0*%
%TD*%
%TA.AperFunction,SMDPad,CuDef*%
%ADD20RoundRect,0.250000X-0.625000X0.400000X-0.625000X-0.400000X0.625000X-0.400000X0.625000X0.400000X0*%
%TD*%
%TA.AperFunction,SMDPad,CuDef*%
%ADD21RoundRect,0.250000X0.625000X-0.400000X0.625000X0.400000X-0.625000X0.400000X-0.625000X-0.400000X0*%
%TD*%
%TA.AperFunction,SMDPad,CuDef*%
%ADD22RoundRect,0.250000X0.400000X0.625000X-0.400000X0.625000X-0.400000X-0.625000X0.400000X-0.625000X0*%
%TD*%
%TA.AperFunction,SMDPad,CuDef*%
%ADD23RoundRect,0.150000X-0.587500X-0.150000X0.587500X-0.150000X0.587500X0.150000X-0.587500X0.150000X0*%
%TD*%
%TA.AperFunction,SMDPad,CuDef*%
%ADD24RoundRect,0.250000X-0.400000X-0.625000X0.400000X-0.625000X0.400000X0.625000X-0.400000X0.625000X0*%
%TD*%
%TA.AperFunction,SMDPad,CuDef*%
%ADD25RoundRect,0.250000X0.412500X1.100000X-0.412500X1.100000X-0.412500X-1.100000X0.412500X-1.100000X0*%
%TD*%
%TA.AperFunction,ViaPad*%
%ADD26C,0.600000*%
%TD*%
%TA.AperFunction,Conductor*%
%ADD27C,0.700000*%
%TD*%
G04 APERTURE END LIST*
D10*
%TO.P,REF\u002A\u002A,1*%
%TO.N,GND*%
X125550000Y-111803100D03*
%TD*%
%TO.P,REF\u002A\u002A,1*%
%TO.N,VBAT*%
X125550000Y-113683100D03*
%TD*%
D11*
%TO.P,VR2,1*%
%TO.N,Net-(R10-Pad2)*%
X110250000Y-118500000D03*
%TO.P,VR2,2*%
%TO.N,/REF_SIG_SCALED*%
X107750000Y-121000000D03*
%TO.P,VR2,3*%
%TO.N,Net-(R9-Pad1)*%
X105250000Y-118500000D03*
%TD*%
D12*
%TO.P,J2,1,Pin_1_1*%
%TO.N,VBAT*%
X137750000Y-101750000D03*
D13*
%TO.P,J2,2,Pin_2_2*%
%TO.N,GND*%
X139020000Y-101750000D03*
%TD*%
D14*
%TO.P,C4,1*%
%TO.N,GND*%
X107250000Y-125250000D03*
%TO.P,C4,2*%
%TO.N,5V*%
X108750000Y-125250000D03*
%TD*%
D15*
%TO.P,U3,*%
%TO.N,*%
X153850000Y-125650000D03*
X177650000Y-125650000D03*
X153850000Y-102350000D03*
X177650000Y-102350000D03*
D16*
%TO.P,U3,1,GND_1*%
%TO.N,GND*%
X153290000Y-117810000D03*
%TO.P,U3,2,VCC_2*%
%TO.N,Net-(Q2-D)*%
X153290000Y-115270000D03*
%TO.P,U3,3,SCL_3*%
%TO.N,/SDA*%
X153290000Y-112730000D03*
%TO.P,U3,4,SDA_4*%
%TO.N,/SCL*%
X153290000Y-110190000D03*
%TD*%
D11*
%TO.P,VR1,1*%
%TO.N,Net-(U4A--)*%
X118500000Y-118500000D03*
%TO.P,VR1,2*%
%TO.N,Net-(U4B--)*%
X116000000Y-121000000D03*
%TO.P,VR1,3*%
%TO.N,unconnected-(VR1-Pad3)*%
X113500000Y-118500000D03*
%TD*%
D17*
%TO.P,U1,1,VDD_1*%
%TO.N,5V*%
X101250000Y-112980000D03*
D18*
%TO.P,U1,2,GND_2*%
%TO.N,GND*%
X101250000Y-114250000D03*
%TO.P,U1,3,OUT_3*%
%TO.N,/RAW_OUT*%
X101250000Y-115520000D03*
%TD*%
D19*
%TO.P,C1,1*%
%TO.N,5V*%
X103750000Y-111937500D03*
%TO.P,C1,2*%
%TO.N,GND*%
X103750000Y-115062500D03*
%TD*%
D20*
%TO.P,R3,1*%
%TO.N,Net-(R3-Pad1)*%
X118250000Y-102450000D03*
%TO.P,R3,2*%
%TO.N,Net-(U4C--)*%
X118250000Y-105550000D03*
%TD*%
D21*
%TO.P,R6,1*%
%TO.N,Net-(U4B--)*%
X115750000Y-119000000D03*
%TO.P,R6,2*%
%TO.N,Net-(R3-Pad1)*%
X115750000Y-115900000D03*
%TD*%
D22*
%TO.P,R18,1*%
%TO.N,GND*%
X118000000Y-111250000D03*
%TO.P,R18,2*%
%TO.N,/OUT_3V3*%
X114900000Y-111250000D03*
%TD*%
D21*
%TO.P,R8,1*%
%TO.N,3V3*%
X145500000Y-104800000D03*
%TO.P,R8,2*%
%TO.N,Net-(R8-Pad2)*%
X145500000Y-101700000D03*
%TD*%
D22*
%TO.P,R11,1*%
%TO.N,/CTRL_PWR*%
X134300000Y-118250000D03*
%TO.P,R11,2*%
%TO.N,Net-(U5-D3)*%
X131200000Y-118250000D03*
%TD*%
D23*
%TO.P,Q2,1,G_1*%
%TO.N,Net-(Q1-D)*%
X148875000Y-115950000D03*
%TO.P,Q2,2,S_2*%
%TO.N,3V3*%
X148875000Y-114050000D03*
%TO.P,Q2,3,D_3*%
%TO.N,Net-(Q2-D)*%
X150750000Y-115000000D03*
%TD*%
D21*
%TO.P,R20,1*%
%TO.N,Net-(J1-Pin_1)*%
X117250000Y-126550000D03*
%TO.P,R20,2*%
%TO.N,Net-(Q3-D)*%
X117250000Y-123450000D03*
%TD*%
D22*
%TO.P,R4,1*%
%TO.N,Net-(U4C--)*%
X109550000Y-113750000D03*
%TO.P,R4,2*%
%TO.N,GND*%
X106450000Y-113750000D03*
%TD*%
D20*
%TO.P,R5,1*%
%TO.N,Net-(R1-Pad1)*%
X118250000Y-113700000D03*
%TO.P,R5,2*%
%TO.N,Net-(U4A--)*%
X118250000Y-116800000D03*
%TD*%
D12*
%TO.P,J1,1,Pin_1_1*%
%TO.N,Net-(J1-Pin_1)*%
X141250000Y-112750000D03*
D13*
%TO.P,J1,2,Pin_2_2*%
%TO.N,GND*%
X142520000Y-112750000D03*
%TO.P,J1,3,Pin_3_3*%
%TO.N,VBAT*%
X143790000Y-112750000D03*
%TD*%
D24*
%TO.P,R10,1*%
%TO.N,5V*%
X106450000Y-116500000D03*
%TO.P,R10,2*%
%TO.N,Net-(R10-Pad2)*%
X109550000Y-116500000D03*
%TD*%
D23*
%TO.P,Q1,1,G_1*%
%TO.N,/CTRL_OLED*%
X145562500Y-118450000D03*
%TO.P,Q1,2,S_2*%
%TO.N,GND*%
X145562500Y-116550000D03*
%TO.P,Q1,3,D_3*%
%TO.N,Net-(Q1-D)*%
X147437500Y-117500000D03*
%TD*%
D22*
%TO.P,R17,1*%
%TO.N,/OUT_3V3*%
X113050000Y-111250000D03*
%TO.P,R17,2*%
%TO.N,Net-(R17-Pad2)*%
X109950000Y-111250000D03*
%TD*%
D25*
%TO.P,C3,1*%
%TO.N,GND*%
X113562500Y-121500000D03*
%TO.P,C3,2*%
%TO.N,5V*%
X110437500Y-121500000D03*
%TD*%
D19*
%TO.P,C2,1*%
%TO.N,GND*%
X112000000Y-103875000D03*
%TO.P,C2,2*%
%TO.N,5V*%
X112000000Y-107000000D03*
%TD*%
D26*
%TO.N,/CTRL_OLED*%
X148000000Y-122250000D03*
%TO.N,GND*%
X117277208Y-112509494D03*
X103000000Y-107500000D03*
X105220752Y-120470752D03*
X111750000Y-117250000D03*
X111250000Y-105500000D03*
X141250000Y-118750000D03*
X100850000Y-117500000D03*
%TO.N,Net-(R8-Pad2)*%
X145500000Y-103000000D03*
%TO.N,Net-(R1-Pad1)*%
X116500000Y-113750000D03*
%TO.N,Net-(U4A--)*%
X116750000Y-108000000D03*
X119500000Y-110000000D03*
%TO.N,5V*%
X104000000Y-113500000D03*
X101250000Y-105500000D03*
X104750000Y-116500000D03*
X112750000Y-105750000D03*
X107500000Y-104250000D03*
%TO.N,Net-(U4B--)*%
X112250000Y-102500000D03*
%TO.N,Net-(R3-Pad1)*%
X116250000Y-102000000D03*
%TO.N,Net-(U4C--)*%
X107500000Y-108250000D03*
X118250000Y-104000000D03*
X110862101Y-102362101D03*
%TO.N,Net-(R17-Pad2)*%
X108500000Y-111000000D03*
%TO.N,VBAT*%
X141750000Y-105250000D03*
%TO.N,/CTRL_PWR*%
X134000000Y-120250000D03*
X117750000Y-121250000D03*
X130500000Y-120250000D03*
X141250000Y-125250000D03*
%TO.N,/RAW_OUT_3V3*%
X102981206Y-106350000D03*
X119750000Y-109000000D03*
%TO.N,Net-(U5-D10)*%
X145250000Y-121250000D03*
X140250000Y-115000000D03*
%TO.N,/OUT_3V3*%
X114500000Y-113250000D03*
%TO.N,Net-(U5-D3)*%
X129500000Y-118250000D03*
%TO.N,/SDA*%
X126250000Y-119500000D03*
X146000000Y-112250000D03*
X141500000Y-110900000D03*
%TO.N,/SCL*%
X141500000Y-110000000D03*
X124250000Y-119000000D03*
%TO.N,3V3*%
X147100000Y-106400000D03*
X147000000Y-114750000D03*
X149250000Y-110250000D03*
%TO.N,Net-(Q1-D)*%
X148250000Y-119000000D03*
%TO.N,Net-(Q3-D)*%
X115500000Y-124000000D03*
%TD*%
%TO.N,/CTRL_OLED*%
D27*
X145562500Y-118450000D02*
X145562500Y-119812500D01*
X145562500Y-119812500D02*
X148000000Y-122250000D01*
%TO.N,GND*%
X126750000Y-109000000D02*
X138500000Y-109000000D01*
X124996900Y-111250000D02*
X125550000Y-111803100D01*
X118000000Y-111250000D02*
X118000000Y-111786702D01*
X139020000Y-104130000D02*
X139020000Y-101750000D01*
X142520000Y-117480000D02*
X142520000Y-112750000D01*
X103000000Y-107500000D02*
X106450000Y-110950000D01*
X105137500Y-115062500D02*
X106450000Y-113750000D01*
X118000000Y-111250000D02*
X124996900Y-111250000D01*
X141250000Y-118750000D02*
X142520000Y-117480000D01*
X103750000Y-115062500D02*
X105137500Y-115062500D01*
X138500000Y-109000000D02*
X139020000Y-108480000D01*
X143450000Y-116550000D02*
X142520000Y-117480000D01*
X113562500Y-121500000D02*
X111750000Y-119687500D01*
X125550000Y-111803100D02*
X125550000Y-110200000D01*
X142890000Y-112110000D02*
X142890000Y-108000000D01*
X111750000Y-119687500D02*
X111750000Y-117250000D01*
X145562500Y-116550000D02*
X143450000Y-116550000D01*
X103287500Y-115062500D02*
X100850000Y-117500000D01*
X118000000Y-111786702D02*
X117277208Y-112509494D01*
X142520000Y-112480000D02*
X142890000Y-112110000D01*
X142890000Y-108000000D02*
X139020000Y-104130000D01*
X106450000Y-110950000D02*
X106450000Y-113750000D01*
X142520000Y-112750000D02*
X142520000Y-112480000D01*
X139020000Y-108480000D02*
X139020000Y-104130000D01*
X112000000Y-104750000D02*
X111250000Y-105500000D01*
X112000000Y-103875000D02*
X112000000Y-104750000D01*
X103750000Y-115062500D02*
X103287500Y-115062500D01*
X101250000Y-114250000D02*
X102937500Y-114250000D01*
X118500000Y-111250000D02*
X119750000Y-112500000D01*
X102937500Y-114250000D02*
X103750000Y-115062500D01*
X125550000Y-110200000D02*
X126750000Y-109000000D01*
X118000000Y-111250000D02*
X118500000Y-111250000D01*
%TO.N,Net-(R8-Pad2)*%
X145500000Y-101700000D02*
X145500000Y-103000000D01*
%TO.N,Net-(R1-Pad1)*%
X116500000Y-113750000D02*
X118200000Y-113750000D01*
X118200000Y-113750000D02*
X118250000Y-113700000D01*
%TO.N,Net-(U4A--)*%
X119325000Y-109825000D02*
X118575000Y-109825000D01*
X118500000Y-117050000D02*
X118250000Y-116800000D01*
X119500000Y-110000000D02*
X119325000Y-109825000D01*
X118575000Y-109825000D02*
X116750000Y-108000000D01*
X118500000Y-118500000D02*
X118500000Y-117050000D01*
%TO.N,5V*%
X110250000Y-107000000D02*
X107500000Y-104250000D01*
X110437500Y-121500000D02*
X106450000Y-117512500D01*
X104000000Y-113500000D02*
X104000000Y-112187500D01*
X110500000Y-121562500D02*
X110437500Y-121500000D01*
X112000000Y-107000000D02*
X110250000Y-107000000D01*
X101250000Y-112980000D02*
X102707500Y-112980000D01*
X102707500Y-112980000D02*
X103750000Y-111937500D01*
X101250000Y-105500000D02*
X101250000Y-109437500D01*
X106450000Y-117512500D02*
X106450000Y-116500000D01*
X106450000Y-116500000D02*
X104750000Y-116500000D01*
X104000000Y-112187500D02*
X103750000Y-111937500D01*
X112000000Y-107000000D02*
X112000000Y-106500000D01*
X101250000Y-109437500D02*
X103750000Y-111937500D01*
X110437500Y-123562500D02*
X108750000Y-125250000D01*
X110437500Y-121500000D02*
X110437500Y-123562500D01*
X112000000Y-106500000D02*
X112750000Y-105750000D01*
%TO.N,Net-(U4B--)*%
X111850000Y-114163298D02*
X111850000Y-110286702D01*
X115750000Y-119000000D02*
X115750000Y-118063298D01*
X116000000Y-119250000D02*
X115750000Y-119000000D01*
X113900000Y-103124202D02*
X113275798Y-102500000D01*
X111850000Y-110286702D02*
X112636702Y-109500000D01*
X115750000Y-118063298D02*
X111850000Y-114163298D01*
X113900000Y-108350000D02*
X113900000Y-103124202D01*
X113275798Y-102500000D02*
X112250000Y-102500000D01*
X112636702Y-109500000D02*
X112750000Y-109500000D01*
X116000000Y-121000000D02*
X116000000Y-119250000D01*
X112750000Y-109500000D02*
X113900000Y-108350000D01*
%TO.N,Net-(R3-Pad1)*%
X115600000Y-115750000D02*
X115600000Y-113377208D01*
X115750000Y-115900000D02*
X115600000Y-115750000D01*
X115850000Y-108372792D02*
X115850000Y-102400000D01*
X117800000Y-102000000D02*
X118250000Y-102450000D01*
X115850000Y-102400000D02*
X116250000Y-102000000D01*
X116250000Y-102000000D02*
X117800000Y-102000000D01*
X116377208Y-112600000D02*
X116377208Y-108900000D01*
X115600000Y-113377208D02*
X116377208Y-112600000D01*
X116377208Y-108900000D02*
X115850000Y-108372792D01*
%TO.N,Net-(U4C--)*%
X108115107Y-102362101D02*
X110862101Y-102362101D01*
X107500000Y-108250000D02*
X107500000Y-108750000D01*
X107500000Y-108750000D02*
X107500000Y-111700000D01*
X107500000Y-111700000D02*
X109550000Y-113750000D01*
X105750000Y-107000000D02*
X105750000Y-104727208D01*
X105750000Y-104727208D02*
X108115107Y-102362101D01*
X107500000Y-108750000D02*
X105750000Y-107000000D01*
X118250000Y-104000000D02*
X118250000Y-105550000D01*
%TO.N,Net-(R17-Pad2)*%
X109700000Y-111000000D02*
X109950000Y-111250000D01*
X108500000Y-111000000D02*
X109700000Y-111000000D01*
%TO.N,VBAT*%
X143790000Y-107290000D02*
X141750000Y-105250000D01*
X143790000Y-112750000D02*
X143790000Y-107290000D01*
%TO.N,/CTRL_PWR*%
X134000000Y-120250000D02*
X138994976Y-120250000D01*
X141250000Y-122750000D02*
X141250000Y-125250000D01*
X134000000Y-118550000D02*
X134300000Y-118250000D01*
X117750000Y-121250000D02*
X118500000Y-120500000D01*
X118500000Y-120500000D02*
X130250000Y-120500000D01*
X130250000Y-120500000D02*
X130500000Y-120250000D01*
X141250000Y-122505024D02*
X141250000Y-122750000D01*
X138994976Y-120250000D02*
X141250000Y-122505024D01*
X134000000Y-120250000D02*
X134000000Y-118550000D01*
%TO.N,/RAW_OUT_3V3*%
X108354416Y-100850000D02*
X118850000Y-100850000D01*
X102981206Y-106350000D02*
X102981206Y-106223210D01*
X118850000Y-100850000D02*
X120000000Y-102000000D01*
X120000000Y-102000000D02*
X120000000Y-108750000D01*
X120000000Y-108750000D02*
X119750000Y-109000000D01*
X102981206Y-106223210D02*
X108354416Y-100850000D01*
%TO.N,Net-(R10-Pad2)*%
X109550000Y-116500000D02*
X109550000Y-117800000D01*
X109550000Y-117800000D02*
X110250000Y-118500000D01*
%TO.N,Net-(U5-D10)*%
X145250000Y-121250000D02*
X142477208Y-121250000D01*
X140250000Y-119022792D02*
X140250000Y-115000000D01*
X142477208Y-121250000D02*
X140250000Y-119022792D01*
%TO.N,/OUT_3V3*%
X113050000Y-111250000D02*
X114900000Y-111250000D01*
X114500000Y-111650000D02*
X114500000Y-113250000D01*
X114900000Y-111250000D02*
X114500000Y-111650000D01*
%TO.N,Net-(U5-D3)*%
X129500000Y-118250000D02*
X131200000Y-118250000D01*
%TO.N,/SDA*%
X146000000Y-112250000D02*
X146250000Y-112250000D01*
X126250000Y-119500000D02*
X134850000Y-110900000D01*
X134850000Y-110900000D02*
X141500000Y-110900000D01*
X146250000Y-112250000D02*
X146730000Y-112730000D01*
X146730000Y-112730000D02*
X153290000Y-112730000D01*
%TO.N,/SCL*%
X133250000Y-110000000D02*
X141500000Y-110000000D01*
X124250000Y-119000000D02*
X133250000Y-110000000D01*
%TO.N,3V3*%
X148875000Y-114050000D02*
X147700000Y-114050000D01*
X147100000Y-106400000D02*
X149250000Y-108550000D01*
X147700000Y-114050000D02*
X147000000Y-114750000D01*
X147100000Y-106400000D02*
X145500000Y-104800000D01*
X149250000Y-108550000D02*
X149250000Y-110250000D01*
%TO.N,Net-(J1-Pin_1)*%
X120105024Y-121400000D02*
X132000000Y-121400000D01*
X132400000Y-117986702D02*
X134636702Y-115750000D01*
X132400000Y-121000000D02*
X132400000Y-117986702D01*
X119900000Y-123900000D02*
X117250000Y-126550000D01*
X138500000Y-113250000D02*
X139000000Y-112750000D01*
X132000000Y-121400000D02*
X132400000Y-121000000D01*
X138500000Y-115250000D02*
X138500000Y-113250000D01*
X134636702Y-115750000D02*
X138000000Y-115750000D01*
X138000000Y-115750000D02*
X138500000Y-115250000D01*
X139000000Y-112750000D02*
X141250000Y-112750000D01*
X119900000Y-121605024D02*
X119900000Y-123900000D01*
X120105024Y-121400000D02*
X119900000Y-121605024D01*
%TO.N,Net-(Q2-D)*%
X150750000Y-115000000D02*
X153020000Y-115000000D01*
X153020000Y-115000000D02*
X153290000Y-115270000D01*
%TO.N,Net-(Q1-D)*%
X147437500Y-118187500D02*
X148250000Y-119000000D01*
X147437500Y-117387500D02*
X148875000Y-115950000D01*
X147437500Y-117500000D02*
X147437500Y-118187500D01*
X147437500Y-117500000D02*
X147437500Y-117387500D01*
%TO.N,Net-(Q3-D)*%
X116700000Y-124000000D02*
X117250000Y-123450000D01*
X115500000Y-124000000D02*
X116700000Y-124000000D01*
%TD*%
%TA.AperFunction,Conductor*%
%TO.N,GND*%
G36*
X110944459Y-112475283D02*
G01*
X110989229Y-112528925D01*
X110997890Y-112598256D01*
X110967694Y-112661264D01*
X110938086Y-112685387D01*
X110834674Y-112745847D01*
X110998759Y-114239618D01*
X110998903Y-114241004D01*
X110999500Y-114247069D01*
X111032182Y-114411372D01*
X111032185Y-114411384D01*
X111040974Y-114432602D01*
X111096292Y-114566154D01*
X111096299Y-114566167D01*
X111189372Y-114705459D01*
X111189375Y-114705463D01*
X113636732Y-117152819D01*
X113670217Y-117214142D01*
X113665233Y-117283834D01*
X113623361Y-117339767D01*
X113557897Y-117364184D01*
X113549051Y-117364500D01*
X112999645Y-117364500D01*
X112930033Y-117370825D01*
X112930022Y-117370828D01*
X112769824Y-117420747D01*
X112769820Y-117420749D01*
X112626222Y-117507556D01*
X112626217Y-117507560D01*
X112507560Y-117626217D01*
X112507556Y-117626222D01*
X112420750Y-117769819D01*
X112420750Y-117769820D01*
X112420749Y-117769822D01*
X112408229Y-117810000D01*
X112370826Y-117930032D01*
X112370201Y-117936916D01*
X112364756Y-117996843D01*
X112364500Y-117999655D01*
X112364500Y-119000354D01*
X112370825Y-119069966D01*
X112370828Y-119069977D01*
X112420747Y-119230175D01*
X112420749Y-119230179D01*
X112507556Y-119373777D01*
X112507560Y-119373782D01*
X112626217Y-119492439D01*
X112626221Y-119492442D01*
X112738552Y-119560348D01*
X112785740Y-119611875D01*
X112797579Y-119680735D01*
X112770311Y-119745063D01*
X112739501Y-119772003D01*
X112681656Y-119807682D01*
X112557684Y-119931654D01*
X112465643Y-120080875D01*
X112465641Y-120080880D01*
X112410494Y-120247302D01*
X112410493Y-120247309D01*
X112400000Y-120350013D01*
X112400000Y-121250000D01*
X113438500Y-121250000D01*
X113505539Y-121269685D01*
X113551294Y-121322489D01*
X113562500Y-121374000D01*
X113562500Y-121500000D01*
X113688500Y-121500000D01*
X113755539Y-121519685D01*
X113801294Y-121572489D01*
X113812500Y-121624000D01*
X113812500Y-123349999D01*
X114024972Y-123349999D01*
X114024986Y-123349998D01*
X114127697Y-123339505D01*
X114294119Y-123284358D01*
X114294124Y-123284356D01*
X114443345Y-123192315D01*
X114567315Y-123068345D01*
X114659356Y-122919124D01*
X114659358Y-122919119D01*
X114714505Y-122752697D01*
X114714506Y-122752690D01*
X114724999Y-122649986D01*
X114724999Y-121851179D01*
X114744683Y-121784140D01*
X114797487Y-121738385D01*
X114866646Y-121728441D01*
X114930202Y-121757466D01*
X114955116Y-121787029D01*
X115007559Y-121873781D01*
X115126217Y-121992439D01*
X115126222Y-121992443D01*
X115208469Y-122042162D01*
X115269822Y-122079251D01*
X115430029Y-122129173D01*
X115499653Y-122135500D01*
X116240809Y-122135499D01*
X116307848Y-122155183D01*
X116353603Y-122207987D01*
X116363547Y-122277146D01*
X116334522Y-122340702D01*
X116305906Y-122365038D01*
X116156342Y-122457289D01*
X116032289Y-122581342D01*
X115940187Y-122730663D01*
X115940185Y-122730668D01*
X115919808Y-122792162D01*
X115885001Y-122897203D01*
X115885001Y-122897204D01*
X115885000Y-122897204D01*
X115874500Y-122999983D01*
X115874500Y-123025500D01*
X115854815Y-123092539D01*
X115802011Y-123138294D01*
X115750500Y-123149500D01*
X115416228Y-123149500D01*
X115251925Y-123182182D01*
X115251917Y-123182184D01*
X115097139Y-123246295D01*
X114957837Y-123339373D01*
X114839373Y-123457837D01*
X114746295Y-123597139D01*
X114682184Y-123751917D01*
X114682182Y-123751925D01*
X114649500Y-123916228D01*
X114649500Y-124083771D01*
X114682182Y-124248074D01*
X114682184Y-124248082D01*
X114746295Y-124402860D01*
X114839373Y-124542162D01*
X114957837Y-124660626D01*
X114992460Y-124683760D01*
X115097137Y-124753703D01*
X115097138Y-124753703D01*
X115097139Y-124753704D01*
X115120313Y-124763303D01*
X115251918Y-124817816D01*
X115416228Y-124850499D01*
X115416232Y-124850500D01*
X115416233Y-124850500D01*
X116783768Y-124850500D01*
X116783769Y-124850499D01*
X116838538Y-124839605D01*
X116948074Y-124817818D01*
X116948078Y-124817816D01*
X116948082Y-124817816D01*
X116993415Y-124799037D01*
X117102863Y-124753704D01*
X117242162Y-124660627D01*
X117265971Y-124636818D01*
X117327294Y-124603333D01*
X117353652Y-124600499D01*
X117697349Y-124600499D01*
X117764388Y-124620184D01*
X117810143Y-124672988D01*
X117820087Y-124742146D01*
X117791062Y-124805702D01*
X117785030Y-124812180D01*
X117234028Y-125363181D01*
X117172705Y-125396666D01*
X117146347Y-125399500D01*
X116574998Y-125399500D01*
X116574980Y-125399501D01*
X116472203Y-125410000D01*
X116472200Y-125410001D01*
X116305668Y-125465185D01*
X116305663Y-125465187D01*
X116156342Y-125557289D01*
X116032289Y-125681342D01*
X115940187Y-125830663D01*
X115940185Y-125830668D01*
X115923909Y-125879786D01*
X115885001Y-125997203D01*
X115885001Y-125997204D01*
X115885000Y-125997204D01*
X115874500Y-126099983D01*
X115874500Y-127000001D01*
X115874501Y-127000019D01*
X115885000Y-127102796D01*
X115885001Y-127102799D01*
X115940185Y-127269331D01*
X115940186Y-127269334D01*
X115965518Y-127310404D01*
X115983958Y-127377796D01*
X115963035Y-127444459D01*
X115909393Y-127489229D01*
X115859979Y-127499500D01*
X100624500Y-127499500D01*
X100557461Y-127479815D01*
X100511706Y-127427011D01*
X100500500Y-127375500D01*
X100500500Y-124893713D01*
X101649500Y-124893713D01*
X101649500Y-125106287D01*
X101654724Y-125139270D01*
X101678517Y-125289496D01*
X101682754Y-125316243D01*
X101741837Y-125498082D01*
X101748444Y-125518414D01*
X101844951Y-125707820D01*
X101969890Y-125879786D01*
X102120213Y-126030109D01*
X102292179Y-126155048D01*
X102292181Y-126155049D01*
X102292184Y-126155051D01*
X102481588Y-126251557D01*
X102683757Y-126317246D01*
X102893713Y-126350500D01*
X102893714Y-126350500D01*
X103106286Y-126350500D01*
X103106287Y-126350500D01*
X103316243Y-126317246D01*
X103518412Y-126251557D01*
X103707816Y-126155051D01*
X103758770Y-126118031D01*
X103879786Y-126030109D01*
X103879788Y-126030106D01*
X103879792Y-126030104D01*
X104030104Y-125879792D01*
X104030106Y-125879788D01*
X104030109Y-125879786D01*
X104155048Y-125707820D01*
X104155047Y-125707820D01*
X104155051Y-125707816D01*
X104251557Y-125518412D01*
X104317246Y-125316243D01*
X104341450Y-125163428D01*
X106150000Y-125163428D01*
X106150000Y-125336571D01*
X106177085Y-125507584D01*
X106230592Y-125672259D01*
X106309196Y-125826525D01*
X106313709Y-125832736D01*
X106313709Y-125832737D01*
X106896446Y-125250000D01*
X106896446Y-125249999D01*
X106313709Y-124667261D01*
X106313708Y-124667261D01*
X106309203Y-124673463D01*
X106309193Y-124673480D01*
X106230592Y-124827740D01*
X106177085Y-124992415D01*
X106150000Y-125163428D01*
X104341450Y-125163428D01*
X104350500Y-125106287D01*
X104350500Y-124893713D01*
X104317246Y-124683757D01*
X104251557Y-124481588D01*
X104155051Y-124292184D01*
X104155049Y-124292181D01*
X104155048Y-124292179D01*
X104030109Y-124120213D01*
X103879786Y-123969890D01*
X103707820Y-123844951D01*
X103518414Y-123748444D01*
X103518413Y-123748443D01*
X103518412Y-123748443D01*
X103316243Y-123682754D01*
X103316241Y-123682753D01*
X103316240Y-123682753D01*
X103154957Y-123657208D01*
X103106287Y-123649500D01*
X102893713Y-123649500D01*
X102845042Y-123657208D01*
X102683760Y-123682753D01*
X102481585Y-123748444D01*
X102292179Y-123844951D01*
X102120213Y-123969890D01*
X101969890Y-124120213D01*
X101844951Y-124292179D01*
X101748444Y-124481585D01*
X101682753Y-124683760D01*
X101659978Y-124827555D01*
X101649500Y-124893713D01*
X100500500Y-124893713D01*
X100500500Y-116394344D01*
X100520185Y-116327305D01*
X100572989Y-116281550D01*
X100642147Y-116271606D01*
X100693389Y-116291241D01*
X100799769Y-116362322D01*
X100972749Y-116433973D01*
X101156379Y-116470499D01*
X101156383Y-116470500D01*
X101156384Y-116470500D01*
X101343617Y-116470500D01*
X101343618Y-116470499D01*
X101527251Y-116433973D01*
X101700231Y-116362322D01*
X101855908Y-116258302D01*
X101988302Y-116125908D01*
X102006123Y-116099235D01*
X102059733Y-116054431D01*
X102129057Y-116045722D01*
X102174225Y-116065605D01*
X102175509Y-116063525D01*
X102330875Y-116159356D01*
X102330880Y-116159358D01*
X102497302Y-116214505D01*
X102497309Y-116214506D01*
X102600019Y-116224999D01*
X103499999Y-116224999D01*
X103500000Y-116224998D01*
X103500000Y-115312500D01*
X102275719Y-115312500D01*
X102208680Y-115292815D01*
X102162925Y-115240011D01*
X102161158Y-115235953D01*
X102121438Y-115140062D01*
X102092322Y-115069769D01*
X102092319Y-115069764D01*
X102092315Y-115069757D01*
X102049307Y-115005390D01*
X102028429Y-114938713D01*
X102046914Y-114871333D01*
X102098893Y-114824643D01*
X102152409Y-114812500D01*
X103626000Y-114812500D01*
X103693039Y-114832185D01*
X103738794Y-114884989D01*
X103750000Y-114936500D01*
X103750000Y-115062500D01*
X103876000Y-115062500D01*
X103943039Y-115082185D01*
X103988794Y-115134989D01*
X104000000Y-115186500D01*
X104000000Y-116063531D01*
X103990561Y-116110984D01*
X103932184Y-116251917D01*
X103932182Y-116251925D01*
X103899500Y-116416228D01*
X103899500Y-116583771D01*
X103932182Y-116748074D01*
X103932184Y-116748082D01*
X103996295Y-116902860D01*
X104089373Y-117042162D01*
X104207837Y-117160626D01*
X104287930Y-117214142D01*
X104347137Y-117253703D01*
X104347138Y-117253703D01*
X104347139Y-117253704D01*
X104347141Y-117253705D01*
X104387053Y-117270237D01*
X104441457Y-117314077D01*
X104463522Y-117380371D01*
X104446243Y-117448071D01*
X104403752Y-117490914D01*
X104376221Y-117507557D01*
X104376217Y-117507560D01*
X104257560Y-117626217D01*
X104257556Y-117626222D01*
X104170750Y-117769819D01*
X104170750Y-117769820D01*
X104170749Y-117769822D01*
X104158229Y-117810000D01*
X104120826Y-117930032D01*
X104120201Y-117936916D01*
X104114756Y-117996843D01*
X104114500Y-117999655D01*
X104114500Y-119000354D01*
X104120825Y-119069966D01*
X104120828Y-119069977D01*
X104170747Y-119230175D01*
X104170749Y-119230179D01*
X104257556Y-119373777D01*
X104257560Y-119373782D01*
X104376217Y-119492439D01*
X104376222Y-119492443D01*
X104496172Y-119564954D01*
X104519822Y-119579251D01*
X104680029Y-119629173D01*
X104749653Y-119635500D01*
X105750346Y-119635499D01*
X105750353Y-119635499D01*
X105819966Y-119629174D01*
X105819969Y-119629173D01*
X105819971Y-119629173D01*
X105947695Y-119589373D01*
X105980175Y-119579252D01*
X105980175Y-119579251D01*
X105980178Y-119579251D01*
X106098285Y-119507853D01*
X106123777Y-119492443D01*
X106123778Y-119492441D01*
X106123783Y-119492439D01*
X106242439Y-119373783D01*
X106329251Y-119230178D01*
X106379173Y-119069971D01*
X106385500Y-119000347D01*
X106385499Y-118950149D01*
X106405182Y-118883113D01*
X106457985Y-118837357D01*
X106527144Y-118827412D01*
X106590700Y-118856436D01*
X106597180Y-118862469D01*
X107387530Y-119652819D01*
X107421015Y-119714142D01*
X107416031Y-119783834D01*
X107374159Y-119839767D01*
X107308695Y-119864184D01*
X107299851Y-119864500D01*
X107249645Y-119864500D01*
X107180033Y-119870825D01*
X107180022Y-119870828D01*
X107019824Y-119920747D01*
X107019820Y-119920749D01*
X106876222Y-120007556D01*
X106876217Y-120007560D01*
X106757560Y-120126217D01*
X106757556Y-120126222D01*
X106670750Y-120269819D01*
X106620826Y-120430032D01*
X106617517Y-120466448D01*
X106614928Y-120494949D01*
X106614500Y-120499655D01*
X106614500Y-121500354D01*
X106620825Y-121569966D01*
X106620828Y-121569977D01*
X106670747Y-121730175D01*
X106670749Y-121730179D01*
X106757556Y-121873777D01*
X106757560Y-121873782D01*
X106876217Y-121992439D01*
X106876222Y-121992443D01*
X106958469Y-122042162D01*
X107019822Y-122079251D01*
X107180029Y-122129173D01*
X107249653Y-122135500D01*
X108250346Y-122135499D01*
X108250353Y-122135499D01*
X108319966Y-122129174D01*
X108319969Y-122129173D01*
X108319971Y-122129173D01*
X108480178Y-122079251D01*
X108554089Y-122034570D01*
X108623777Y-121992443D01*
X108623778Y-121992441D01*
X108623783Y-121992439D01*
X108742439Y-121873783D01*
X108758547Y-121847138D01*
X108796630Y-121784140D01*
X108829251Y-121730178D01*
X108879173Y-121569971D01*
X108885500Y-121500347D01*
X108885499Y-121450149D01*
X108891737Y-121428904D01*
X108893317Y-121406816D01*
X108901388Y-121396034D01*
X108905182Y-121383113D01*
X108921917Y-121368610D01*
X108935189Y-121350883D01*
X108947806Y-121346176D01*
X108957985Y-121337357D01*
X108979903Y-121334205D01*
X109000653Y-121326466D01*
X109013813Y-121329328D01*
X109027144Y-121327412D01*
X109047287Y-121336610D01*
X109068926Y-121341318D01*
X109086650Y-121354586D01*
X109090700Y-121356436D01*
X109097180Y-121362469D01*
X109238181Y-121503470D01*
X109271666Y-121564793D01*
X109274500Y-121591151D01*
X109274500Y-122650001D01*
X109274501Y-122650019D01*
X109285000Y-122752796D01*
X109285001Y-122752799D01*
X109332852Y-122897203D01*
X109340186Y-122919334D01*
X109432096Y-123068345D01*
X109432289Y-123068657D01*
X109492740Y-123129108D01*
X109526225Y-123190431D01*
X109521241Y-123260123D01*
X109492740Y-123304470D01*
X108673249Y-124123960D01*
X108611926Y-124157445D01*
X108604967Y-124158752D01*
X108492301Y-124176597D01*
X108327552Y-124230128D01*
X108173207Y-124308770D01*
X108072459Y-124381968D01*
X108006653Y-124405448D01*
X107938599Y-124389622D01*
X107926689Y-124381968D01*
X107826528Y-124309198D01*
X107672257Y-124230591D01*
X107507584Y-124177085D01*
X107336571Y-124150000D01*
X107163429Y-124150000D01*
X106992415Y-124177085D01*
X106827740Y-124230592D01*
X106673480Y-124309193D01*
X106673463Y-124309203D01*
X106667261Y-124313708D01*
X106667261Y-124313709D01*
X107308697Y-124955145D01*
X107289496Y-124950000D01*
X107210504Y-124950000D01*
X107134204Y-124970444D01*
X107065795Y-125009940D01*
X107009940Y-125065795D01*
X106970444Y-125134204D01*
X106950000Y-125210504D01*
X106950000Y-125289496D01*
X106970444Y-125365796D01*
X107009940Y-125434205D01*
X107065795Y-125490060D01*
X107134204Y-125529556D01*
X107210504Y-125550000D01*
X107289496Y-125550000D01*
X107308696Y-125544855D01*
X106667261Y-126186289D01*
X106667262Y-126186290D01*
X106673471Y-126190801D01*
X106827742Y-126269408D01*
X106992415Y-126322914D01*
X107163429Y-126350000D01*
X107336571Y-126350000D01*
X107507584Y-126322914D01*
X107672257Y-126269408D01*
X107826525Y-126190803D01*
X107926688Y-126118031D01*
X107992495Y-126094551D01*
X108060549Y-126110376D01*
X108072458Y-126118029D01*
X108173212Y-126191232D01*
X108327555Y-126269873D01*
X108492299Y-126323402D01*
X108663389Y-126350500D01*
X108663390Y-126350500D01*
X108836610Y-126350500D01*
X108836611Y-126350500D01*
X109007701Y-126323402D01*
X109172445Y-126269873D01*
X109326788Y-126191232D01*
X109466928Y-126089414D01*
X109589414Y-125966928D01*
X109691232Y-125826788D01*
X109769873Y-125672445D01*
X109823402Y-125507701D01*
X109841247Y-125395028D01*
X109871174Y-125331898D01*
X109876020Y-125326767D01*
X111098126Y-124104662D01*
X111191203Y-123965363D01*
X111209513Y-123921158D01*
X111255316Y-123810582D01*
X111288000Y-123646267D01*
X111288000Y-123274730D01*
X111307685Y-123207691D01*
X111324319Y-123187049D01*
X111382260Y-123129108D01*
X111442712Y-123068656D01*
X111534814Y-122919334D01*
X111589999Y-122752797D01*
X111600500Y-122650009D01*
X111600500Y-122649986D01*
X112400001Y-122649986D01*
X112410494Y-122752697D01*
X112465641Y-122919119D01*
X112465643Y-122919124D01*
X112557684Y-123068345D01*
X112681654Y-123192315D01*
X112830875Y-123284356D01*
X112830880Y-123284358D01*
X112997302Y-123339505D01*
X112997309Y-123339506D01*
X113100019Y-123349999D01*
X113312499Y-123349999D01*
X113312500Y-123349998D01*
X113312500Y-121750000D01*
X112400001Y-121750000D01*
X112400001Y-122649986D01*
X111600500Y-122649986D01*
X111600499Y-121500000D01*
X111600499Y-120349998D01*
X111600498Y-120349981D01*
X111589999Y-120247203D01*
X111589998Y-120247200D01*
X111534814Y-120080666D01*
X111442712Y-119931344D01*
X111318656Y-119807288D01*
X111189571Y-119727668D01*
X111169336Y-119715187D01*
X111169331Y-119715185D01*
X111156985Y-119711094D01*
X111099541Y-119671319D01*
X111072721Y-119606802D01*
X111085038Y-119538027D01*
X111119522Y-119495777D01*
X111123777Y-119492442D01*
X111123783Y-119492439D01*
X111242439Y-119373783D01*
X111329251Y-119230178D01*
X111379173Y-119069971D01*
X111385500Y-119000347D01*
X111385499Y-117999654D01*
X111385499Y-117999651D01*
X111385499Y-117999645D01*
X111379174Y-117930033D01*
X111379171Y-117930022D01*
X111329252Y-117769824D01*
X111329250Y-117769820D01*
X111242443Y-117626222D01*
X111242439Y-117626217D01*
X111123782Y-117507560D01*
X111123777Y-117507556D01*
X110980180Y-117420750D01*
X110980179Y-117420749D01*
X110980178Y-117420749D01*
X110819971Y-117370827D01*
X110806654Y-117369616D01*
X110741673Y-117343945D01*
X110700886Y-117287216D01*
X110694522Y-117233523D01*
X110697859Y-117200857D01*
X110700500Y-117175009D01*
X110700499Y-115824992D01*
X110692838Y-115750000D01*
X110689999Y-115722203D01*
X110689998Y-115722200D01*
X110665908Y-115649501D01*
X110634814Y-115555666D01*
X110542712Y-115406344D01*
X110418656Y-115282288D01*
X110418655Y-115282287D01*
X110334757Y-115230539D01*
X110288032Y-115178591D01*
X110276809Y-115109629D01*
X110304653Y-115045546D01*
X110334757Y-115019461D01*
X110369418Y-114998082D01*
X110418656Y-114967712D01*
X110542712Y-114843656D01*
X110634814Y-114694334D01*
X110689999Y-114527797D01*
X110700500Y-114425009D01*
X110700499Y-113074992D01*
X110689999Y-112972203D01*
X110634814Y-112805666D01*
X110634741Y-112805547D01*
X110597091Y-112744506D01*
X110578651Y-112677113D01*
X110599574Y-112610450D01*
X110653216Y-112565681D01*
X110663598Y-112561714D01*
X110669334Y-112559814D01*
X110810407Y-112472799D01*
X110877795Y-112454361D01*
X110944459Y-112475283D01*
G37*
%TD.AperFunction*%
%TA.AperFunction,Conductor*%
G36*
X144380809Y-100520185D02*
G01*
X144426564Y-100572989D01*
X144436508Y-100642147D01*
X144407483Y-100705703D01*
X144401451Y-100712181D01*
X144282289Y-100831342D01*
X144190187Y-100980663D01*
X144190185Y-100980668D01*
X144174452Y-101028148D01*
X144135001Y-101147203D01*
X144135001Y-101147204D01*
X144135000Y-101147204D01*
X144124500Y-101249983D01*
X144124500Y-102150001D01*
X144124501Y-102150019D01*
X144135000Y-102252796D01*
X144135001Y-102252799D01*
X144190185Y-102419331D01*
X144190186Y-102419334D01*
X144282288Y-102568656D01*
X144406344Y-102692712D01*
X144555666Y-102784814D01*
X144564498Y-102787740D01*
X144621944Y-102827508D01*
X144648771Y-102892022D01*
X144649500Y-102905448D01*
X144649500Y-103083771D01*
X144682182Y-103248074D01*
X144682184Y-103248082D01*
X144746296Y-103402861D01*
X144746298Y-103402865D01*
X144792138Y-103471470D01*
X144813016Y-103538147D01*
X144794531Y-103605527D01*
X144742552Y-103652217D01*
X144728041Y-103658066D01*
X144555666Y-103715186D01*
X144555663Y-103715187D01*
X144406342Y-103807289D01*
X144282289Y-103931342D01*
X144190187Y-104080663D01*
X144190186Y-104080666D01*
X144135001Y-104247203D01*
X144135001Y-104247204D01*
X144135000Y-104247204D01*
X144124500Y-104349983D01*
X144124500Y-105250001D01*
X144124501Y-105250019D01*
X144135000Y-105352796D01*
X144135001Y-105352799D01*
X144183141Y-105498073D01*
X144190186Y-105519334D01*
X144282288Y-105668656D01*
X144406344Y-105792712D01*
X144555666Y-105884814D01*
X144722203Y-105939999D01*
X144824991Y-105950500D01*
X145396348Y-105950499D01*
X145463387Y-105970183D01*
X145484029Y-105986818D01*
X146439373Y-106942162D01*
X148363181Y-108865969D01*
X148396666Y-108927292D01*
X148399500Y-108953650D01*
X148399500Y-110333771D01*
X148432182Y-110498074D01*
X148432184Y-110498082D01*
X148496295Y-110652860D01*
X148589373Y-110792162D01*
X148707837Y-110910626D01*
X148800494Y-110972537D01*
X148847137Y-111003703D01*
X148847138Y-111003703D01*
X148847139Y-111003704D01*
X148882201Y-111018227D01*
X149001918Y-111067816D01*
X149166228Y-111100499D01*
X149166232Y-111100500D01*
X149166233Y-111100500D01*
X149333768Y-111100500D01*
X149333769Y-111100499D01*
X149498082Y-111067816D01*
X149652863Y-111003703D01*
X149792162Y-110910626D01*
X149910626Y-110792162D01*
X150003703Y-110652863D01*
X150067816Y-110498082D01*
X150100500Y-110333767D01*
X150100500Y-108466233D01*
X150067816Y-108301918D01*
X150038135Y-108230263D01*
X150003704Y-108147137D01*
X149910626Y-108007838D01*
X149910622Y-108007834D01*
X149910620Y-108007831D01*
X146911818Y-105009029D01*
X146878333Y-104947706D01*
X146875499Y-104921348D01*
X146875499Y-104349998D01*
X146875498Y-104349981D01*
X146864999Y-104247203D01*
X146864998Y-104247200D01*
X146809814Y-104080666D01*
X146717712Y-103931344D01*
X146593656Y-103807288D01*
X146444334Y-103715186D01*
X146277797Y-103660001D01*
X146271958Y-103658066D01*
X146214514Y-103618293D01*
X146187691Y-103553777D01*
X146200006Y-103485001D01*
X146207856Y-103471477D01*
X146253703Y-103402863D01*
X146317816Y-103248082D01*
X146350500Y-103083767D01*
X146350500Y-102905448D01*
X146370185Y-102838409D01*
X146422989Y-102792654D01*
X146435488Y-102787744D01*
X146444334Y-102784814D01*
X146593656Y-102692712D01*
X146717712Y-102568656D01*
X146809814Y-102419334D01*
X146864999Y-102252797D01*
X146875500Y-102150009D01*
X146875499Y-101249992D01*
X146874578Y-101240979D01*
X146864999Y-101147203D01*
X146864998Y-101147200D01*
X146825545Y-101028140D01*
X146809814Y-100980666D01*
X146717712Y-100831344D01*
X146598549Y-100712181D01*
X146565064Y-100650858D01*
X146570048Y-100581166D01*
X146611920Y-100525233D01*
X146677384Y-100500816D01*
X146686230Y-100500500D01*
X152608843Y-100500500D01*
X152675882Y-100520185D01*
X152721637Y-100572989D01*
X152731581Y-100642147D01*
X152702556Y-100705703D01*
X152684330Y-100722875D01*
X152528148Y-100842718D01*
X152342718Y-101028148D01*
X152183075Y-101236196D01*
X152051958Y-101463299D01*
X152051953Y-101463309D01*
X151951605Y-101705571D01*
X151951603Y-101705578D01*
X151951602Y-101705581D01*
X151888106Y-101942555D01*
X151883730Y-101958885D01*
X151849500Y-102218872D01*
X151849500Y-102481127D01*
X151869915Y-102636187D01*
X151883730Y-102741116D01*
X151951583Y-102994347D01*
X151951602Y-102994418D01*
X151951605Y-102994428D01*
X152051953Y-103236690D01*
X152051958Y-103236700D01*
X152183075Y-103463803D01*
X152342718Y-103671851D01*
X152342726Y-103671860D01*
X152528140Y-103857274D01*
X152528148Y-103857281D01*
X152528149Y-103857282D01*
X152576554Y-103894424D01*
X152736196Y-104016924D01*
X152963299Y-104148041D01*
X152963309Y-104148046D01*
X153202696Y-104247203D01*
X153205581Y-104248398D01*
X153458884Y-104316270D01*
X153718880Y-104350500D01*
X153718887Y-104350500D01*
X153981113Y-104350500D01*
X153981120Y-104350500D01*
X154241116Y-104316270D01*
X154494419Y-104248398D01*
X154719778Y-104155051D01*
X154736690Y-104148046D01*
X154736691Y-104148045D01*
X154736697Y-104148043D01*
X154963803Y-104016924D01*
X155171851Y-103857282D01*
X155171855Y-103857277D01*
X155171860Y-103857274D01*
X155357274Y-103671860D01*
X155357277Y-103671855D01*
X155357282Y-103671851D01*
X155516924Y-103463803D01*
X155648043Y-103236697D01*
X155657266Y-103214432D01*
X155728622Y-103042162D01*
X155748398Y-102994419D01*
X155756226Y-102965204D01*
X155792590Y-102905546D01*
X155855436Y-102875016D01*
X155924812Y-102883310D01*
X155978690Y-102927795D01*
X155999965Y-102994347D01*
X156000000Y-102997299D01*
X156000000Y-125002700D01*
X155980315Y-125069739D01*
X155927511Y-125115494D01*
X155858353Y-125125438D01*
X155794797Y-125096413D01*
X155757023Y-125037635D01*
X155756237Y-125034837D01*
X155748398Y-125005581D01*
X155747205Y-125002700D01*
X155648046Y-124763309D01*
X155648041Y-124763299D01*
X155516924Y-124536196D01*
X155357281Y-124328148D01*
X155357274Y-124328140D01*
X155171860Y-124142726D01*
X155171851Y-124142718D01*
X154963803Y-123983075D01*
X154736700Y-123851958D01*
X154736690Y-123851953D01*
X154494428Y-123751605D01*
X154494421Y-123751603D01*
X154494419Y-123751602D01*
X154241116Y-123683730D01*
X154183339Y-123676123D01*
X153981127Y-123649500D01*
X153981120Y-123649500D01*
X153718880Y-123649500D01*
X153718872Y-123649500D01*
X153487772Y-123679926D01*
X153458884Y-123683730D01*
X153224032Y-123746658D01*
X153205581Y-123751602D01*
X153205571Y-123751605D01*
X152963309Y-123851953D01*
X152963299Y-123851958D01*
X152736196Y-123983075D01*
X152528148Y-124142718D01*
X152342718Y-124328148D01*
X152183075Y-124536196D01*
X152051958Y-124763299D01*
X152051953Y-124763309D01*
X151951605Y-125005571D01*
X151951603Y-125005578D01*
X151951602Y-125005581D01*
X151886111Y-125250000D01*
X151883730Y-125258885D01*
X151849500Y-125518872D01*
X151849500Y-125781127D01*
X151866550Y-125910626D01*
X151883730Y-126041116D01*
X151945025Y-126269873D01*
X151951601Y-126294414D01*
X151951605Y-126294428D01*
X152051953Y-126536690D01*
X152051958Y-126536700D01*
X152183075Y-126763803D01*
X152342718Y-126971851D01*
X152342726Y-126971860D01*
X152528140Y-127157274D01*
X152528148Y-127157281D01*
X152684330Y-127277125D01*
X152725532Y-127333553D01*
X152729687Y-127403299D01*
X152695474Y-127464219D01*
X152633757Y-127496971D01*
X152608843Y-127499500D01*
X140124000Y-127499500D01*
X140056961Y-127479815D01*
X140011206Y-127427011D01*
X140000000Y-127375500D01*
X140000000Y-122757175D01*
X140006238Y-122735929D01*
X140007818Y-122713841D01*
X140015890Y-122703057D01*
X140019685Y-122690136D01*
X140036418Y-122675636D01*
X140049690Y-122657908D01*
X140062310Y-122653200D01*
X140072489Y-122644381D01*
X140094406Y-122641229D01*
X140115154Y-122633491D01*
X140128314Y-122636353D01*
X140141647Y-122634437D01*
X140161790Y-122643636D01*
X140183427Y-122648343D01*
X140201152Y-122661611D01*
X140205203Y-122663462D01*
X140211681Y-122669494D01*
X140363181Y-122820994D01*
X140396666Y-122882317D01*
X140399500Y-122908675D01*
X140399500Y-125333771D01*
X140432182Y-125498074D01*
X140432184Y-125498082D01*
X140496295Y-125652860D01*
X140589373Y-125792162D01*
X140707837Y-125910626D01*
X140800494Y-125972537D01*
X140847137Y-126003703D01*
X141001918Y-126067816D01*
X141136325Y-126094551D01*
X141166228Y-126100499D01*
X141166232Y-126100500D01*
X141166233Y-126100500D01*
X141333768Y-126100500D01*
X141333769Y-126100499D01*
X141498082Y-126067816D01*
X141652863Y-126003703D01*
X141792162Y-125910626D01*
X141910626Y-125792162D01*
X142003703Y-125652863D01*
X142067816Y-125498082D01*
X142100500Y-125333767D01*
X142100500Y-122666233D01*
X142100500Y-122421257D01*
X142067816Y-122256942D01*
X142054404Y-122224564D01*
X142046936Y-122155097D01*
X142078211Y-122092618D01*
X142138299Y-122056965D01*
X142208125Y-122059458D01*
X142216411Y-122062549D01*
X142229126Y-122067816D01*
X142393436Y-122100499D01*
X142393440Y-122100500D01*
X142393441Y-122100500D01*
X145333768Y-122100500D01*
X145333769Y-122100499D01*
X145498082Y-122067816D01*
X145652863Y-122003703D01*
X145792162Y-121910626D01*
X145910626Y-121792162D01*
X145998417Y-121660773D01*
X146052025Y-121615972D01*
X146121350Y-121607264D01*
X146184378Y-121637418D01*
X146189197Y-121641986D01*
X147457834Y-122910624D01*
X147457842Y-122910630D01*
X147597136Y-123003703D01*
X147597139Y-123003705D01*
X147716852Y-123053291D01*
X147751919Y-123067816D01*
X147751921Y-123067816D01*
X147751926Y-123067818D01*
X147916229Y-123100499D01*
X147916233Y-123100500D01*
X147916234Y-123100500D01*
X148083768Y-123100500D01*
X148083769Y-123100499D01*
X148138538Y-123089605D01*
X148248074Y-123067818D01*
X148248077Y-123067816D01*
X148248082Y-123067816D01*
X148402863Y-123003704D01*
X148542162Y-122910627D01*
X148660627Y-122792162D01*
X148753704Y-122652863D01*
X148754890Y-122650001D01*
X148783329Y-122581342D01*
X148817816Y-122498082D01*
X148825931Y-122457288D01*
X148844280Y-122365038D01*
X148850500Y-122333767D01*
X148850500Y-122166234D01*
X148844387Y-122135500D01*
X148817818Y-122001926D01*
X148817815Y-122001917D01*
X148753705Y-121847139D01*
X148753703Y-121847136D01*
X148660630Y-121707842D01*
X148660624Y-121707834D01*
X146449319Y-119496529D01*
X146434615Y-119469601D01*
X146418023Y-119443783D01*
X146417131Y-119437582D01*
X146415834Y-119435206D01*
X146413000Y-119408848D01*
X146413000Y-119270933D01*
X146432685Y-119203894D01*
X146473877Y-119164202D01*
X146551865Y-119118081D01*
X146668081Y-119001865D01*
X146728293Y-118900050D01*
X146779359Y-118852370D01*
X146848101Y-118839866D01*
X146912690Y-118866511D01*
X146922704Y-118875493D01*
X147707834Y-119660624D01*
X147707842Y-119660630D01*
X147847136Y-119753703D01*
X147847139Y-119753705D01*
X147950829Y-119796654D01*
X148001919Y-119817816D01*
X148001921Y-119817816D01*
X148001926Y-119817818D01*
X148166229Y-119850499D01*
X148166233Y-119850500D01*
X148166234Y-119850500D01*
X148333768Y-119850500D01*
X148333769Y-119850499D01*
X148411360Y-119835066D01*
X148498074Y-119817818D01*
X148498077Y-119817816D01*
X148498082Y-119817816D01*
X148652863Y-119753704D01*
X148792162Y-119660627D01*
X148910627Y-119542162D01*
X149003704Y-119402863D01*
X149067816Y-119248082D01*
X149071378Y-119230178D01*
X149093675Y-119118081D01*
X149100500Y-119083767D01*
X149100500Y-118916234D01*
X149084811Y-118837357D01*
X149067818Y-118751926D01*
X149067815Y-118751917D01*
X149003705Y-118597139D01*
X149003703Y-118597136D01*
X148910630Y-118457842D01*
X148910624Y-118457834D01*
X148596813Y-118144023D01*
X148563328Y-118082700D01*
X148568312Y-118013008D01*
X148577758Y-117993228D01*
X148626744Y-117910398D01*
X148667585Y-117769824D01*
X148672597Y-117752573D01*
X148672598Y-117752567D01*
X148675500Y-117715694D01*
X148675500Y-117403651D01*
X148695185Y-117336612D01*
X148711819Y-117315970D01*
X149240970Y-116786819D01*
X149302293Y-116753334D01*
X149328651Y-116750500D01*
X149528186Y-116750500D01*
X149528194Y-116750500D01*
X149565069Y-116747598D01*
X149565071Y-116747597D01*
X149565073Y-116747597D01*
X149611223Y-116734189D01*
X149722898Y-116701744D01*
X149864365Y-116618081D01*
X149980581Y-116501865D01*
X150064244Y-116360398D01*
X150110098Y-116202569D01*
X150113000Y-116165694D01*
X150113000Y-115924500D01*
X150115550Y-115915814D01*
X150114262Y-115906853D01*
X150125240Y-115882812D01*
X150132685Y-115857461D01*
X150139525Y-115851533D01*
X150143287Y-115843297D01*
X150165521Y-115829007D01*
X150185489Y-115811706D01*
X150196003Y-115809418D01*
X150202065Y-115805523D01*
X150237000Y-115800500D01*
X150435449Y-115800500D01*
X150482900Y-115809938D01*
X150501918Y-115817816D01*
X150630021Y-115843297D01*
X150666228Y-115850499D01*
X150666232Y-115850500D01*
X150666233Y-115850500D01*
X151937974Y-115850500D01*
X152005013Y-115870185D01*
X152048458Y-115918204D01*
X152090588Y-116000888D01*
X152092187Y-116004025D01*
X152221752Y-116182358D01*
X152221756Y-116182363D01*
X152377640Y-116338247D01*
X152517679Y-116439990D01*
X152560345Y-116495319D01*
X152566324Y-116564933D01*
X152533719Y-116626728D01*
X152517679Y-116640626D01*
X152492485Y-116658930D01*
X152492485Y-116658932D01*
X153140183Y-117306630D01*
X153087360Y-117320785D01*
X152967647Y-117389901D01*
X152869901Y-117487647D01*
X152800785Y-117607360D01*
X152786630Y-117660183D01*
X152138932Y-117012485D01*
X152138931Y-117012485D01*
X152092616Y-117076233D01*
X151992567Y-117272589D01*
X151924473Y-117482164D01*
X151890000Y-117699818D01*
X151890000Y-117920181D01*
X151924473Y-118137835D01*
X151992567Y-118347410D01*
X152092611Y-118543756D01*
X152138932Y-118607513D01*
X152786630Y-117959815D01*
X152800785Y-118012640D01*
X152869901Y-118132353D01*
X152967647Y-118230099D01*
X153087360Y-118299215D01*
X153140183Y-118313369D01*
X152492485Y-118961065D01*
X152492485Y-118961066D01*
X152556243Y-119007388D01*
X152752589Y-119107432D01*
X152962164Y-119175526D01*
X153179819Y-119210000D01*
X153400181Y-119210000D01*
X153617835Y-119175526D01*
X153827410Y-119107432D01*
X154023760Y-119007386D01*
X154087513Y-118961066D01*
X154087514Y-118961066D01*
X153439816Y-118313369D01*
X153492640Y-118299215D01*
X153612353Y-118230099D01*
X153710099Y-118132353D01*
X153779215Y-118012640D01*
X153793369Y-117959816D01*
X154441066Y-118607514D01*
X154441066Y-118607513D01*
X154487386Y-118543760D01*
X154587432Y-118347410D01*
X154655526Y-118137835D01*
X154690000Y-117920181D01*
X154690000Y-117699818D01*
X154655526Y-117482164D01*
X154587432Y-117272589D01*
X154487388Y-117076243D01*
X154441066Y-117012485D01*
X154441065Y-117012485D01*
X153793369Y-117660182D01*
X153779215Y-117607360D01*
X153710099Y-117487647D01*
X153612353Y-117389901D01*
X153492640Y-117320785D01*
X153439814Y-117306630D01*
X154087513Y-116658932D01*
X154062319Y-116640628D01*
X154019653Y-116585298D01*
X154013674Y-116515685D01*
X154046279Y-116453889D01*
X154062313Y-116439994D01*
X154202365Y-116338242D01*
X154358242Y-116182365D01*
X154487815Y-116004022D01*
X154587895Y-115807606D01*
X154656015Y-115597951D01*
X154690500Y-115380222D01*
X154690500Y-115159778D01*
X154656015Y-114942049D01*
X154611574Y-114805271D01*
X154587896Y-114732396D01*
X154587895Y-114732393D01*
X154549925Y-114657875D01*
X154487815Y-114535978D01*
X154463068Y-114501917D01*
X154358247Y-114357641D01*
X154358243Y-114357636D01*
X154202363Y-114201756D01*
X154202358Y-114201752D01*
X154062745Y-114100318D01*
X154020079Y-114044989D01*
X154014100Y-113975375D01*
X154046705Y-113913580D01*
X154062745Y-113899682D01*
X154202358Y-113798247D01*
X154202356Y-113798247D01*
X154202365Y-113798242D01*
X154358242Y-113642365D01*
X154487815Y-113464022D01*
X154587895Y-113267606D01*
X154656015Y-113057951D01*
X154690500Y-112840222D01*
X154690500Y-112619778D01*
X154656015Y-112402049D01*
X154615088Y-112276086D01*
X154587896Y-112192396D01*
X154587895Y-112192393D01*
X154542276Y-112102863D01*
X154487815Y-111995978D01*
X154453019Y-111948085D01*
X154358247Y-111817641D01*
X154358243Y-111817636D01*
X154202363Y-111661756D01*
X154202358Y-111661752D01*
X154062745Y-111560318D01*
X154020079Y-111504989D01*
X154014100Y-111435375D01*
X154046705Y-111373580D01*
X154062745Y-111359682D01*
X154202358Y-111258247D01*
X154202356Y-111258247D01*
X154202365Y-111258242D01*
X154358242Y-111102365D01*
X154487815Y-110924022D01*
X154587895Y-110727606D01*
X154656015Y-110517951D01*
X154690500Y-110300222D01*
X154690500Y-110079778D01*
X154656015Y-109862049D01*
X154620232Y-109751918D01*
X154587896Y-109652396D01*
X154587895Y-109652393D01*
X154553237Y-109584375D01*
X154487815Y-109455978D01*
X154403102Y-109339380D01*
X154358247Y-109277641D01*
X154358243Y-109277636D01*
X154202363Y-109121756D01*
X154202358Y-109121752D01*
X154024025Y-108992187D01*
X154024024Y-108992186D01*
X154024022Y-108992185D01*
X153948394Y-108953650D01*
X153827606Y-108892104D01*
X153827603Y-108892103D01*
X153617952Y-108823985D01*
X153509086Y-108806742D01*
X153400222Y-108789500D01*
X153179778Y-108789500D01*
X153140513Y-108795719D01*
X152962047Y-108823985D01*
X152752396Y-108892103D01*
X152752393Y-108892104D01*
X152555974Y-108992187D01*
X152377641Y-109121752D01*
X152377636Y-109121756D01*
X152221756Y-109277636D01*
X152221752Y-109277641D01*
X152092187Y-109455974D01*
X151992104Y-109652393D01*
X151992103Y-109652396D01*
X151923985Y-109862047D01*
X151889500Y-110079778D01*
X151889500Y-110300221D01*
X151923985Y-110517952D01*
X151992103Y-110727603D01*
X151992104Y-110727606D01*
X152049467Y-110840185D01*
X152085359Y-110910626D01*
X152092187Y-110924025D01*
X152221752Y-111102358D01*
X152221756Y-111102363D01*
X152377636Y-111258243D01*
X152377641Y-111258247D01*
X152517254Y-111359682D01*
X152559920Y-111415012D01*
X152565899Y-111484625D01*
X152533293Y-111546420D01*
X152517254Y-111560318D01*
X152377641Y-111661752D01*
X152377636Y-111661756D01*
X152221759Y-111817633D01*
X152221757Y-111817636D01*
X152213946Y-111828387D01*
X152158615Y-111871052D01*
X152113629Y-111879500D01*
X147133651Y-111879500D01*
X147066612Y-111859815D01*
X147045970Y-111843181D01*
X146792165Y-111589375D01*
X146792161Y-111589372D01*
X146652866Y-111496297D01*
X146652863Y-111496296D01*
X146539886Y-111449500D01*
X146498082Y-111432184D01*
X146498074Y-111432182D01*
X146333771Y-111399500D01*
X146333767Y-111399500D01*
X145916233Y-111399500D01*
X145916228Y-111399500D01*
X145751925Y-111432182D01*
X145751917Y-111432184D01*
X145597139Y-111496295D01*
X145457837Y-111589373D01*
X145339373Y-111707837D01*
X145246295Y-111847139D01*
X145182184Y-112001917D01*
X145182182Y-112001925D01*
X145149500Y-112166228D01*
X145149500Y-112333771D01*
X145182182Y-112498074D01*
X145182184Y-112498082D01*
X145246295Y-112652860D01*
X145339373Y-112792162D01*
X145457837Y-112910626D01*
X145549990Y-112972200D01*
X145597137Y-113003703D01*
X145597138Y-113003703D01*
X145597139Y-113003704D01*
X145625725Y-113015544D01*
X145751918Y-113067816D01*
X145856220Y-113088562D01*
X145918129Y-113120946D01*
X145919709Y-113122498D01*
X146187834Y-113390624D01*
X146187842Y-113390630D01*
X146327134Y-113483702D01*
X146327136Y-113483703D01*
X146327138Y-113483704D01*
X146385403Y-113507838D01*
X146481918Y-113547816D01*
X146617215Y-113574728D01*
X146646228Y-113580499D01*
X146646232Y-113580500D01*
X146646233Y-113580500D01*
X146646234Y-113580500D01*
X146667349Y-113580500D01*
X146734388Y-113600185D01*
X146780143Y-113652989D01*
X146790087Y-113722147D01*
X146761062Y-113785703D01*
X146755030Y-113792181D01*
X146339375Y-114207834D01*
X146339372Y-114207838D01*
X146246297Y-114347133D01*
X146246296Y-114347136D01*
X146182184Y-114501917D01*
X146182181Y-114501926D01*
X146149500Y-114666228D01*
X146149500Y-114833771D01*
X146182181Y-114998073D01*
X146182184Y-114998082D01*
X146246296Y-115152863D01*
X146246297Y-115152866D01*
X146339372Y-115292161D01*
X146339375Y-115292165D01*
X146457834Y-115410624D01*
X146457838Y-115410627D01*
X146597133Y-115503702D01*
X146597135Y-115503702D01*
X146597137Y-115503704D01*
X146751919Y-115567816D01*
X146751921Y-115567816D01*
X146751926Y-115567818D01*
X146916228Y-115600499D01*
X146916232Y-115600500D01*
X146916233Y-115600500D01*
X147083768Y-115600500D01*
X147083769Y-115600499D01*
X147138538Y-115589605D01*
X147248073Y-115567818D01*
X147248076Y-115567816D01*
X147248081Y-115567816D01*
X147402863Y-115503704D01*
X147402866Y-115503701D01*
X147402868Y-115503701D01*
X147483953Y-115449521D01*
X147550630Y-115428642D01*
X147618011Y-115447126D01*
X147664701Y-115499104D01*
X147675878Y-115568074D01*
X147671922Y-115587216D01*
X147639901Y-115697432D01*
X147637000Y-115734298D01*
X147637000Y-115933849D01*
X147617315Y-116000888D01*
X147600681Y-116021530D01*
X146959030Y-116663181D01*
X146897707Y-116696666D01*
X146871349Y-116699500D01*
X146784298Y-116699500D01*
X146747432Y-116702401D01*
X146747426Y-116702402D01*
X146589606Y-116748254D01*
X146589603Y-116748255D01*
X146531306Y-116782732D01*
X146468185Y-116800000D01*
X145812500Y-116800000D01*
X145812500Y-117350000D01*
X146075500Y-117350000D01*
X146084185Y-117352550D01*
X146093147Y-117351262D01*
X146117187Y-117362240D01*
X146142539Y-117369685D01*
X146148466Y-117376525D01*
X146156703Y-117380287D01*
X146170992Y-117402521D01*
X146188294Y-117422489D01*
X146190581Y-117433003D01*
X146194477Y-117439065D01*
X146199500Y-117474000D01*
X146199500Y-117525500D01*
X146179815Y-117592539D01*
X146127011Y-117638294D01*
X146075500Y-117649500D01*
X145877051Y-117649500D01*
X145829599Y-117640061D01*
X145810582Y-117632184D01*
X145810574Y-117632182D01*
X145646271Y-117599500D01*
X145646267Y-117599500D01*
X145478733Y-117599500D01*
X145478728Y-117599500D01*
X145314425Y-117632182D01*
X145314417Y-117632184D01*
X145301929Y-117637356D01*
X145295400Y-117640061D01*
X145247949Y-117649500D01*
X144909298Y-117649500D01*
X144872432Y-117652401D01*
X144872426Y-117652402D01*
X144714606Y-117698254D01*
X144714603Y-117698255D01*
X144573137Y-117781917D01*
X144573129Y-117781923D01*
X144456923Y-117898129D01*
X144456917Y-117898137D01*
X144373255Y-118039603D01*
X144373254Y-118039606D01*
X144327402Y-118197426D01*
X144327401Y-118197432D01*
X144324500Y-118234298D01*
X144324500Y-118665701D01*
X144327401Y-118702567D01*
X144327402Y-118702573D01*
X144373254Y-118860393D01*
X144373255Y-118860396D01*
X144456020Y-119000346D01*
X144456918Y-119001864D01*
X144456923Y-119001870D01*
X144573129Y-119118076D01*
X144573135Y-119118081D01*
X144651121Y-119164202D01*
X144698804Y-119215269D01*
X144712000Y-119270933D01*
X144712000Y-119896271D01*
X144744682Y-120060575D01*
X144744685Y-120060585D01*
X144759668Y-120096758D01*
X144759733Y-120096914D01*
X144759826Y-120097137D01*
X144808796Y-120215363D01*
X144810869Y-120218466D01*
X144814635Y-120227417D01*
X144817941Y-120256655D01*
X144823936Y-120285464D01*
X144821822Y-120290977D01*
X144822486Y-120296844D01*
X144809460Y-120323227D01*
X144798928Y-120350705D01*
X144794169Y-120354200D01*
X144791556Y-120359494D01*
X144766335Y-120374646D01*
X144742618Y-120392069D01*
X144735153Y-120393380D01*
X144731665Y-120395477D01*
X144724464Y-120395259D01*
X144700337Y-120399500D01*
X142880859Y-120399500D01*
X142813820Y-120379815D01*
X142793178Y-120363181D01*
X141136819Y-118706822D01*
X141103334Y-118645499D01*
X141100500Y-118619141D01*
X141100500Y-116800001D01*
X144327704Y-116800001D01*
X144327899Y-116802486D01*
X144373718Y-116960198D01*
X144457314Y-117101552D01*
X144457321Y-117101561D01*
X144573438Y-117217678D01*
X144573447Y-117217685D01*
X144714803Y-117301282D01*
X144714806Y-117301283D01*
X144872504Y-117347099D01*
X144872510Y-117347100D01*
X144909350Y-117349999D01*
X144909366Y-117350000D01*
X145312500Y-117350000D01*
X145312500Y-116800000D01*
X144327705Y-116800000D01*
X144327704Y-116800001D01*
X141100500Y-116800001D01*
X141100500Y-116299998D01*
X144327704Y-116299998D01*
X144327705Y-116300000D01*
X145312500Y-116300000D01*
X145812500Y-116300000D01*
X146797295Y-116300000D01*
X146797295Y-116299998D01*
X146797100Y-116297513D01*
X146751281Y-116139801D01*
X146667685Y-115998447D01*
X146667678Y-115998438D01*
X146551561Y-115882321D01*
X146551552Y-115882314D01*
X146410196Y-115798717D01*
X146410193Y-115798716D01*
X146252495Y-115752900D01*
X146252489Y-115752899D01*
X146215649Y-115750000D01*
X145812500Y-115750000D01*
X145812500Y-116300000D01*
X145312500Y-116300000D01*
X145312500Y-115750000D01*
X144909350Y-115750000D01*
X144872510Y-115752899D01*
X144872504Y-115752900D01*
X144714806Y-115798716D01*
X144714803Y-115798717D01*
X144573447Y-115882314D01*
X144573438Y-115882321D01*
X144457321Y-115998438D01*
X144457314Y-115998447D01*
X144373718Y-116139801D01*
X144327899Y-116297513D01*
X144327704Y-116299998D01*
X141100500Y-116299998D01*
X141100500Y-114916232D01*
X141100499Y-114916228D01*
X141097684Y-114902075D01*
X141067816Y-114751918D01*
X141007453Y-114606190D01*
X141003704Y-114597139D01*
X140984672Y-114568656D01*
X140957370Y-114527795D01*
X140910626Y-114457837D01*
X140792162Y-114339373D01*
X140652860Y-114246295D01*
X140498082Y-114182184D01*
X140498074Y-114182182D01*
X140333771Y-114149500D01*
X140333767Y-114149500D01*
X140166233Y-114149500D01*
X140166228Y-114149500D01*
X140001925Y-114182182D01*
X140001917Y-114182184D01*
X139847139Y-114246295D01*
X139707837Y-114339373D01*
X139589376Y-114457834D01*
X139589371Y-114457840D01*
X139577601Y-114475456D01*
X139523989Y-114520260D01*
X139454664Y-114528967D01*
X139391636Y-114498812D01*
X139354918Y-114439368D01*
X139350500Y-114406564D01*
X139350500Y-113724500D01*
X139370185Y-113657461D01*
X139422989Y-113611706D01*
X139474500Y-113600500D01*
X140341769Y-113600500D01*
X140408808Y-113620185D01*
X140416080Y-113625233D01*
X140507668Y-113693795D01*
X140507671Y-113693797D01*
X140642517Y-113744091D01*
X140642516Y-113744091D01*
X140649444Y-113744835D01*
X140702127Y-113750500D01*
X141797872Y-113750499D01*
X141857483Y-113744091D01*
X141992331Y-113693796D01*
X142004575Y-113684629D01*
X142070035Y-113660210D01*
X142126339Y-113669333D01*
X142228309Y-113711570D01*
X142228318Y-113711573D01*
X142421504Y-113749999D01*
X142421508Y-113750000D01*
X142618492Y-113750000D01*
X142618495Y-113749999D01*
X142811681Y-113711572D01*
X142811693Y-113711569D01*
X142993673Y-113636191D01*
X142993676Y-113636189D01*
X143085657Y-113574729D01*
X143152334Y-113553850D01*
X143219715Y-113572334D01*
X143223440Y-113574728D01*
X143316079Y-113636628D01*
X143316092Y-113636635D01*
X143497011Y-113711573D01*
X143498165Y-113712051D01*
X143498169Y-113712051D01*
X143498170Y-113712052D01*
X143691456Y-113750500D01*
X143691459Y-113750500D01*
X143888543Y-113750500D01*
X144019250Y-113724500D01*
X144081835Y-113712051D01*
X144263914Y-113636632D01*
X144427782Y-113527139D01*
X144567139Y-113387782D01*
X144676632Y-113223914D01*
X144752051Y-113041835D01*
X144773862Y-112932184D01*
X144790500Y-112848543D01*
X144790500Y-112651456D01*
X144752052Y-112458170D01*
X144752051Y-112458169D01*
X144752051Y-112458165D01*
X144717134Y-112373868D01*
X144676635Y-112276093D01*
X144676634Y-112276092D01*
X144676632Y-112276086D01*
X144661396Y-112253284D01*
X144640520Y-112186607D01*
X144640500Y-112184395D01*
X144640500Y-107206232D01*
X144640499Y-107206228D01*
X144629215Y-107149500D01*
X144607816Y-107041918D01*
X144580305Y-106975501D01*
X144543704Y-106887137D01*
X144543702Y-106887135D01*
X144543702Y-106887133D01*
X144450627Y-106747838D01*
X144450624Y-106747834D01*
X142292165Y-104589375D01*
X142292161Y-104589372D01*
X142152866Y-104496297D01*
X142152863Y-104496296D01*
X141998082Y-104432184D01*
X141998073Y-104432181D01*
X141833771Y-104399500D01*
X141833767Y-104399500D01*
X141666233Y-104399500D01*
X141666228Y-104399500D01*
X141501926Y-104432181D01*
X141501917Y-104432184D01*
X141347136Y-104496296D01*
X141347133Y-104496297D01*
X141207838Y-104589372D01*
X141207834Y-104589375D01*
X141089375Y-104707834D01*
X141089372Y-104707838D01*
X140996297Y-104847133D01*
X140996296Y-104847136D01*
X140932184Y-105001917D01*
X140932181Y-105001926D01*
X140899500Y-105166228D01*
X140899500Y-105333771D01*
X140932181Y-105498073D01*
X140932184Y-105498082D01*
X140996296Y-105652863D01*
X140996297Y-105652866D01*
X141089372Y-105792161D01*
X141089375Y-105792165D01*
X142903181Y-107605970D01*
X142936666Y-107667293D01*
X142939500Y-107693651D01*
X142939500Y-111662757D01*
X142919815Y-111729796D01*
X142867011Y-111775551D01*
X142797853Y-111785495D01*
X142791310Y-111784375D01*
X142618490Y-111750000D01*
X142421504Y-111750000D01*
X142228317Y-111788427D01*
X142228300Y-111788432D01*
X142126340Y-111830665D01*
X142116181Y-111831757D01*
X142107297Y-111836806D01*
X142082029Y-111835429D01*
X142056870Y-111838134D01*
X142045876Y-111833458D01*
X142037531Y-111833004D01*
X142009355Y-111817928D01*
X142006272Y-111816617D01*
X142005383Y-111815974D01*
X141992331Y-111806204D01*
X141991354Y-111805839D01*
X141984063Y-111800572D01*
X141967252Y-111778892D01*
X141947852Y-111759495D01*
X141946150Y-111751678D01*
X141941249Y-111745357D01*
X141938827Y-111718029D01*
X141932994Y-111691223D01*
X141935788Y-111683727D01*
X141935083Y-111675760D01*
X141947821Y-111651459D01*
X141957406Y-111625757D01*
X141965137Y-111618428D01*
X141967523Y-111613877D01*
X141973553Y-111610449D01*
X141987785Y-111596959D01*
X142042162Y-111560626D01*
X142160626Y-111442162D01*
X142253703Y-111302863D01*
X142317816Y-111148082D01*
X142350500Y-110983767D01*
X142350500Y-110816233D01*
X142317816Y-110651918D01*
X142262325Y-110517951D01*
X142253834Y-110497453D01*
X142246365Y-110427984D01*
X142253834Y-110402547D01*
X142282323Y-110333768D01*
X142317816Y-110248082D01*
X142350500Y-110083767D01*
X142350500Y-109916233D01*
X142317816Y-109751918D01*
X142253703Y-109597137D01*
X142222537Y-109550494D01*
X142160626Y-109457837D01*
X142042162Y-109339373D01*
X141902860Y-109246295D01*
X141748082Y-109182184D01*
X141748074Y-109182182D01*
X141583771Y-109149500D01*
X141583767Y-109149500D01*
X133166233Y-109149500D01*
X133166228Y-109149500D01*
X133001925Y-109182182D01*
X133001918Y-109182184D01*
X132983664Y-109189745D01*
X132983663Y-109189744D01*
X132847143Y-109246292D01*
X132847137Y-109246295D01*
X132847137Y-109246296D01*
X132707840Y-109339373D01*
X132707831Y-109339379D01*
X132707830Y-109339380D01*
X123589375Y-118457834D01*
X123589372Y-118457838D01*
X123496297Y-118597133D01*
X123496296Y-118597136D01*
X123432184Y-118751917D01*
X123432181Y-118751926D01*
X123399500Y-118916228D01*
X123399500Y-119083771D01*
X123432181Y-119248073D01*
X123432184Y-119248082D01*
X123496295Y-119402862D01*
X123509208Y-119422187D01*
X123532208Y-119456609D01*
X123553086Y-119523286D01*
X123534602Y-119590666D01*
X123482624Y-119637357D01*
X123429106Y-119649500D01*
X119516084Y-119649500D01*
X119449045Y-119629815D01*
X119403290Y-119577011D01*
X119393346Y-119507853D01*
X119422371Y-119444297D01*
X119428403Y-119437819D01*
X119458691Y-119407531D01*
X119492439Y-119373783D01*
X119579251Y-119230178D01*
X119629173Y-119069971D01*
X119635500Y-119000347D01*
X119635499Y-117999654D01*
X119635499Y-117999651D01*
X119635499Y-117999645D01*
X119629174Y-117930033D01*
X119629171Y-117930022D01*
X119579252Y-117769825D01*
X119579251Y-117769824D01*
X119579251Y-117769822D01*
X119532327Y-117692200D01*
X119514492Y-117624648D01*
X119532907Y-117562956D01*
X119559814Y-117519334D01*
X119614999Y-117352797D01*
X119625500Y-117250009D01*
X119625499Y-116349992D01*
X119614999Y-116247203D01*
X119559814Y-116080666D01*
X119467712Y-115931344D01*
X119343656Y-115807288D01*
X119217932Y-115729741D01*
X119194336Y-115715187D01*
X119194331Y-115715185D01*
X119145210Y-115698908D01*
X119027797Y-115660001D01*
X119027795Y-115660000D01*
X118925010Y-115649500D01*
X117574998Y-115649500D01*
X117574981Y-115649501D01*
X117472203Y-115660000D01*
X117472200Y-115660001D01*
X117305660Y-115715188D01*
X117301897Y-115716943D01*
X117299069Y-115717372D01*
X117298811Y-115717458D01*
X117298796Y-115717413D01*
X117232819Y-115727431D01*
X117169037Y-115698908D01*
X117130801Y-115640429D01*
X117125499Y-115604558D01*
X117125499Y-115449998D01*
X117125498Y-115449981D01*
X117114999Y-115347203D01*
X117114998Y-115347200D01*
X117104807Y-115316445D01*
X117059814Y-115180666D01*
X116967712Y-115031344D01*
X116843656Y-114907288D01*
X116718413Y-114830038D01*
X116717614Y-114829150D01*
X116716472Y-114828815D01*
X116694341Y-114803274D01*
X116671690Y-114778091D01*
X116671498Y-114776912D01*
X116670717Y-114776011D01*
X116665903Y-114742537D01*
X116660467Y-114709129D01*
X116660942Y-114708033D01*
X116660773Y-114706853D01*
X116674831Y-114676069D01*
X116688311Y-114645046D01*
X116689302Y-114644382D01*
X116689798Y-114643297D01*
X116718259Y-114625005D01*
X116746379Y-114606190D01*
X116747901Y-114605956D01*
X116748576Y-114605523D01*
X116783511Y-114600500D01*
X117012770Y-114600500D01*
X117079809Y-114620185D01*
X117100451Y-114636819D01*
X117156344Y-114692712D01*
X117305666Y-114784814D01*
X117472203Y-114839999D01*
X117574991Y-114850500D01*
X118925008Y-114850499D01*
X119027797Y-114839999D01*
X119194334Y-114784814D01*
X119343656Y-114692712D01*
X119467712Y-114568656D01*
X119559814Y-114419334D01*
X119614999Y-114252797D01*
X119625500Y-114150009D01*
X119625499Y-113592548D01*
X123649500Y-113592548D01*
X123649500Y-113773651D01*
X123677829Y-113952510D01*
X123733787Y-114124736D01*
X123733788Y-114124739D01*
X123816006Y-114286097D01*
X123922441Y-114432594D01*
X123922445Y-114432599D01*
X124050500Y-114560654D01*
X124050505Y-114560658D01*
X124132438Y-114620185D01*
X124197006Y-114667096D01*
X124277349Y-114708033D01*
X124358360Y-114749311D01*
X124358363Y-114749312D01*
X124443310Y-114776912D01*
X124530591Y-114805271D01*
X124613429Y-114818391D01*
X124709449Y-114833600D01*
X124709454Y-114833600D01*
X126390551Y-114833600D01*
X126477259Y-114819865D01*
X126569409Y-114805271D01*
X126741639Y-114749311D01*
X126902994Y-114667096D01*
X127049501Y-114560653D01*
X127177553Y-114432601D01*
X127283996Y-114286094D01*
X127366211Y-114124739D01*
X127422171Y-113952509D01*
X127438830Y-113847328D01*
X127450500Y-113773651D01*
X127450500Y-113592548D01*
X127430143Y-113464025D01*
X127422171Y-113413691D01*
X127366211Y-113241461D01*
X127366211Y-113241460D01*
X127327880Y-113166233D01*
X127283996Y-113080106D01*
X127228487Y-113003704D01*
X127177558Y-112933605D01*
X127177554Y-112933600D01*
X127074381Y-112830427D01*
X127040896Y-112769104D01*
X127045880Y-112699412D01*
X127074381Y-112655065D01*
X127177172Y-112552273D01*
X127177176Y-112552269D01*
X127283565Y-112405834D01*
X127365747Y-112244547D01*
X127365749Y-112244541D01*
X127421681Y-112072395D01*
X127421684Y-112072385D01*
X127424739Y-112053100D01*
X126425278Y-112053100D01*
X126469333Y-111976794D01*
X126500000Y-111862344D01*
X126500000Y-111743856D01*
X126469333Y-111629406D01*
X126425278Y-111553100D01*
X127424739Y-111553100D01*
X127421684Y-111533814D01*
X127421681Y-111533804D01*
X127365749Y-111361658D01*
X127365747Y-111361652D01*
X127283565Y-111200365D01*
X127177176Y-111053930D01*
X127049169Y-110925923D01*
X126902734Y-110819534D01*
X126741447Y-110737352D01*
X126741444Y-110737351D01*
X126569293Y-110681417D01*
X126390506Y-110653100D01*
X125800000Y-110653100D01*
X125800000Y-111353100D01*
X125300000Y-111353100D01*
X125300000Y-110653100D01*
X124709494Y-110653100D01*
X124530706Y-110681417D01*
X124358555Y-110737351D01*
X124358552Y-110737352D01*
X124197265Y-110819534D01*
X124050830Y-110925923D01*
X123922823Y-111053930D01*
X123816434Y-111200365D01*
X123734252Y-111361652D01*
X123734250Y-111361658D01*
X123678318Y-111533804D01*
X123678315Y-111533814D01*
X123675261Y-111553100D01*
X124674722Y-111553100D01*
X124630667Y-111629406D01*
X124600000Y-111743856D01*
X124600000Y-111862344D01*
X124630667Y-111976794D01*
X124674722Y-112053100D01*
X123675261Y-112053100D01*
X123678315Y-112072385D01*
X123678318Y-112072395D01*
X123734250Y-112244541D01*
X123734252Y-112244547D01*
X123816434Y-112405834D01*
X123922823Y-112552269D01*
X124025619Y-112655065D01*
X124059104Y-112716388D01*
X124054120Y-112786080D01*
X124025619Y-112830427D01*
X123922445Y-112933600D01*
X123922441Y-112933605D01*
X123816006Y-113080102D01*
X123733788Y-113241460D01*
X123733787Y-113241463D01*
X123677829Y-113413689D01*
X123649500Y-113592548D01*
X119625499Y-113592548D01*
X119625499Y-113249992D01*
X119624627Y-113241460D01*
X119614999Y-113147203D01*
X119614998Y-113147200D01*
X119613069Y-113141379D01*
X119559814Y-112980666D01*
X119467712Y-112831344D01*
X119343656Y-112707288D01*
X119194334Y-112615186D01*
X119044938Y-112565681D01*
X119029243Y-112560480D01*
X118971799Y-112520707D01*
X118944976Y-112456191D01*
X118957291Y-112387415D01*
X118980569Y-112355090D01*
X118992317Y-112343341D01*
X119084356Y-112194124D01*
X119084358Y-112194119D01*
X119139505Y-112027697D01*
X119139506Y-112027690D01*
X119149999Y-111924986D01*
X119150000Y-111924973D01*
X119150000Y-111500000D01*
X118124000Y-111500000D01*
X118056961Y-111480315D01*
X118011206Y-111427511D01*
X118000000Y-111376000D01*
X118000000Y-111124000D01*
X118019685Y-111056961D01*
X118072489Y-111011206D01*
X118124000Y-111000000D01*
X119149999Y-111000000D01*
X119149999Y-110948636D01*
X119169684Y-110881597D01*
X119222488Y-110835842D01*
X119291646Y-110825898D01*
X119298190Y-110827019D01*
X119416230Y-110850498D01*
X119416232Y-110850499D01*
X119416233Y-110850499D01*
X119583767Y-110850499D01*
X119583768Y-110850498D01*
X119638537Y-110839604D01*
X119748073Y-110817817D01*
X119748076Y-110817815D01*
X119748081Y-110817815D01*
X119902863Y-110753703D01*
X120042162Y-110660626D01*
X120160626Y-110542162D01*
X120253703Y-110402863D01*
X120317815Y-110248081D01*
X120317815Y-110248076D01*
X120317817Y-110248073D01*
X120344648Y-110113181D01*
X120350499Y-110083766D01*
X120350499Y-109916233D01*
X120317815Y-109751918D01*
X120315270Y-109745775D01*
X120307799Y-109676308D01*
X120339072Y-109613827D01*
X120342125Y-109610663D01*
X120660626Y-109292162D01*
X120753703Y-109152863D01*
X120774066Y-109103703D01*
X120817816Y-108998082D01*
X120850500Y-108833767D01*
X120850500Y-101916233D01*
X120817816Y-101751918D01*
X120798618Y-101705571D01*
X120783344Y-101668695D01*
X120753705Y-101597140D01*
X120753700Y-101597131D01*
X120660627Y-101457838D01*
X120660624Y-101457834D01*
X120489277Y-101286487D01*
X120404925Y-101202135D01*
X136749500Y-101202135D01*
X136749500Y-102297870D01*
X136749501Y-102297876D01*
X136755908Y-102357483D01*
X136806202Y-102492328D01*
X136806206Y-102492335D01*
X136892452Y-102607544D01*
X136892455Y-102607547D01*
X137007664Y-102693793D01*
X137007671Y-102693797D01*
X137142517Y-102744091D01*
X137142516Y-102744091D01*
X137149444Y-102744835D01*
X137202127Y-102750500D01*
X138297872Y-102750499D01*
X138357483Y-102744091D01*
X138492331Y-102693796D01*
X138504575Y-102684629D01*
X138570035Y-102660210D01*
X138626339Y-102669333D01*
X138728309Y-102711570D01*
X138728318Y-102711573D01*
X138921504Y-102749999D01*
X138921508Y-102750000D01*
X139118492Y-102750000D01*
X139118495Y-102749999D01*
X139311681Y-102711572D01*
X139311693Y-102711569D01*
X139493676Y-102636190D01*
X139493680Y-102636187D01*
X139529019Y-102612573D01*
X139529020Y-102612572D01*
X138991447Y-102075000D01*
X139062787Y-102075000D01*
X139145445Y-102052851D01*
X139219554Y-102010064D01*
X139280064Y-101949554D01*
X139322851Y-101875445D01*
X139345000Y-101792787D01*
X139345000Y-101749999D01*
X139373553Y-101749999D01*
X139373553Y-101750001D01*
X139882572Y-102259020D01*
X139882573Y-102259019D01*
X139906187Y-102223680D01*
X139906190Y-102223676D01*
X139981569Y-102041693D01*
X139981572Y-102041681D01*
X140019999Y-101848495D01*
X140020000Y-101848492D01*
X140020000Y-101651508D01*
X140019999Y-101651504D01*
X139981572Y-101458318D01*
X139981569Y-101458306D01*
X139906192Y-101276328D01*
X139882572Y-101240979D01*
X139373553Y-101749999D01*
X139345000Y-101749999D01*
X139345000Y-101707213D01*
X139322851Y-101624555D01*
X139280064Y-101550446D01*
X139219554Y-101489936D01*
X139145445Y-101447149D01*
X139062787Y-101425000D01*
X138991446Y-101425000D01*
X139529019Y-100887426D01*
X139493675Y-100863809D01*
X139493673Y-100863808D01*
X139311693Y-100788430D01*
X139311681Y-100788427D01*
X139118495Y-100750000D01*
X138921504Y-100750000D01*
X138728317Y-100788427D01*
X138728300Y-100788432D01*
X138626340Y-100830665D01*
X138556870Y-100838134D01*
X138504578Y-100815372D01*
X138492330Y-100806203D01*
X138492328Y-100806202D01*
X138357482Y-100755908D01*
X138357483Y-100755908D01*
X138297883Y-100749501D01*
X138297881Y-100749500D01*
X138297873Y-100749500D01*
X138297864Y-100749500D01*
X137202129Y-100749500D01*
X137202123Y-100749501D01*
X137142516Y-100755908D01*
X137007671Y-100806202D01*
X137007664Y-100806206D01*
X136892455Y-100892452D01*
X136892452Y-100892455D01*
X136806206Y-101007664D01*
X136806202Y-101007671D01*
X136755908Y-101142517D01*
X136749501Y-101202116D01*
X136749500Y-101202135D01*
X120404925Y-101202135D01*
X119914970Y-100712181D01*
X119881485Y-100650858D01*
X119886469Y-100581167D01*
X119928340Y-100525233D01*
X119993805Y-100500816D01*
X120002651Y-100500500D01*
X144313770Y-100500500D01*
X144380809Y-100520185D01*
G37*
%TD.AperFunction*%
%TA.AperFunction,Conductor*%
G36*
X104818834Y-105690884D02*
G01*
X104874767Y-105732756D01*
X104899184Y-105798220D01*
X104899500Y-105807066D01*
X104899500Y-107083771D01*
X104922719Y-107200501D01*
X104932181Y-107248074D01*
X104932184Y-107248083D01*
X104996296Y-107402863D01*
X104996297Y-107402866D01*
X105089372Y-107542161D01*
X105089375Y-107542165D01*
X106613181Y-109065970D01*
X106646666Y-109127293D01*
X106649500Y-109153651D01*
X106649500Y-111783771D01*
X106677593Y-111925006D01*
X106677594Y-111925006D01*
X106677594Y-111925008D01*
X106682184Y-111948081D01*
X106682185Y-111948083D01*
X106682185Y-111948085D01*
X106746296Y-112102863D01*
X106746297Y-112102866D01*
X106799246Y-112182109D01*
X106820124Y-112248787D01*
X106801640Y-112316167D01*
X106749661Y-112362857D01*
X106701131Y-112373868D01*
X106700000Y-112375000D01*
X106700000Y-113500000D01*
X107599999Y-113500000D01*
X107599999Y-113302150D01*
X107619684Y-113235111D01*
X107672488Y-113189356D01*
X107741646Y-113179412D01*
X107805202Y-113208437D01*
X107811680Y-113214469D01*
X108363181Y-113765970D01*
X108396666Y-113827293D01*
X108399500Y-113853651D01*
X108399500Y-114425001D01*
X108399501Y-114425019D01*
X108410000Y-114527796D01*
X108410001Y-114527799D01*
X108465185Y-114694331D01*
X108465187Y-114694336D01*
X108500069Y-114750888D01*
X108557288Y-114843656D01*
X108681344Y-114967712D01*
X108730582Y-114998082D01*
X108765243Y-115019461D01*
X108811967Y-115071409D01*
X108823190Y-115140372D01*
X108795346Y-115204454D01*
X108765243Y-115230539D01*
X108681342Y-115282289D01*
X108557289Y-115406342D01*
X108465187Y-115555663D01*
X108465186Y-115555666D01*
X108410001Y-115722203D01*
X108410001Y-115722204D01*
X108410000Y-115722204D01*
X108399500Y-115824983D01*
X108399500Y-117175001D01*
X108399501Y-117175018D01*
X108410000Y-117277796D01*
X108410001Y-117277799D01*
X108465185Y-117444331D01*
X108465187Y-117444336D01*
X108493917Y-117490914D01*
X108545769Y-117574981D01*
X108557289Y-117593657D01*
X108663181Y-117699549D01*
X108696666Y-117760872D01*
X108699500Y-117787230D01*
X108699500Y-117883771D01*
X108731004Y-118042153D01*
X108732183Y-118048081D01*
X108796296Y-118202863D01*
X108796297Y-118202866D01*
X108889372Y-118342161D01*
X108889375Y-118342165D01*
X109078181Y-118530970D01*
X109092884Y-118557897D01*
X109109477Y-118583716D01*
X109110368Y-118589916D01*
X109111666Y-118592293D01*
X109114500Y-118618651D01*
X109114500Y-118674849D01*
X109094815Y-118741888D01*
X109042011Y-118787643D01*
X108972853Y-118797587D01*
X108909297Y-118768562D01*
X108902819Y-118762530D01*
X107601293Y-117461004D01*
X107567808Y-117399681D01*
X107571268Y-117334320D01*
X107589999Y-117277797D01*
X107600500Y-117175009D01*
X107600499Y-115824992D01*
X107592838Y-115750000D01*
X107589999Y-115722203D01*
X107589998Y-115722200D01*
X107565908Y-115649501D01*
X107534814Y-115555666D01*
X107442712Y-115406344D01*
X107318656Y-115282288D01*
X107234279Y-115230244D01*
X107187556Y-115178297D01*
X107176333Y-115109334D01*
X107204177Y-115045252D01*
X107234281Y-115019167D01*
X107318343Y-114967317D01*
X107442315Y-114843345D01*
X107534356Y-114694124D01*
X107534358Y-114694119D01*
X107589505Y-114527697D01*
X107589506Y-114527690D01*
X107599999Y-114424986D01*
X107600000Y-114424973D01*
X107600000Y-114000000D01*
X105260018Y-114000000D01*
X105194969Y-113981568D01*
X105169125Y-113965643D01*
X105169117Y-113965640D01*
X105002700Y-113910495D01*
X105002690Y-113910493D01*
X104925343Y-113902591D01*
X104860651Y-113876195D01*
X104820500Y-113819014D01*
X104817846Y-113754299D01*
X104816628Y-113754057D01*
X104846816Y-113602289D01*
X104850500Y-113583767D01*
X104850500Y-113217534D01*
X104870185Y-113150495D01*
X104922989Y-113104740D01*
X104942236Y-113097805D01*
X104951915Y-113095196D01*
X105002797Y-113089999D01*
X105140348Y-113044418D01*
X105143736Y-113043506D01*
X105175284Y-113044211D01*
X105206824Y-113043127D01*
X105209950Y-113044987D01*
X105213588Y-113045069D01*
X105239738Y-113062714D01*
X105266866Y-113078858D01*
X105268491Y-113082115D01*
X105271506Y-113084150D01*
X105283965Y-113113130D01*
X105298059Y-113141379D01*
X105298566Y-113147093D01*
X105299102Y-113148339D01*
X105298824Y-113150001D01*
X105300000Y-113163235D01*
X105300000Y-113500000D01*
X106200000Y-113500000D01*
X106200000Y-112375000D01*
X106000029Y-112375000D01*
X106000012Y-112375001D01*
X105897302Y-112385494D01*
X105763503Y-112429831D01*
X105693675Y-112432233D01*
X105633633Y-112396501D01*
X105602440Y-112333981D01*
X105600499Y-112312135D01*
X105600499Y-111474992D01*
X105597145Y-111442162D01*
X105589999Y-111372203D01*
X105589998Y-111372200D01*
X105554571Y-111265290D01*
X105534814Y-111205666D01*
X105442712Y-111056344D01*
X105318656Y-110932288D01*
X105169334Y-110840186D01*
X105002797Y-110785001D01*
X105002795Y-110785000D01*
X104900016Y-110774500D01*
X104900009Y-110774500D01*
X103841151Y-110774500D01*
X103774112Y-110754815D01*
X103753470Y-110738181D01*
X102136819Y-109121530D01*
X102103334Y-109060207D01*
X102100500Y-109033849D01*
X102100500Y-106970551D01*
X102120185Y-106903512D01*
X102172989Y-106857757D01*
X102242147Y-106847813D01*
X102305703Y-106876838D01*
X102320354Y-106891887D01*
X102320582Y-106892165D01*
X102439043Y-107010626D01*
X102485886Y-107041925D01*
X102578343Y-107103703D01*
X102733124Y-107167816D01*
X102897434Y-107200499D01*
X102897438Y-107200500D01*
X102897439Y-107200500D01*
X103064974Y-107200500D01*
X103064975Y-107200499D01*
X103229288Y-107167816D01*
X103384069Y-107103703D01*
X103523368Y-107010626D01*
X103641832Y-106892162D01*
X103734909Y-106752863D01*
X103736991Y-106747838D01*
X103760948Y-106689998D01*
X103782440Y-106638110D01*
X103809317Y-106597886D01*
X104687819Y-105719385D01*
X104749142Y-105685900D01*
X104818834Y-105690884D01*
G37*
%TD.AperFunction*%
%TA.AperFunction,Conductor*%
G36*
X101824480Y-114470927D02*
G01*
X101857965Y-114532250D01*
X101852981Y-114601942D01*
X101811109Y-114657875D01*
X101745645Y-114682292D01*
X101689346Y-114673169D01*
X101527251Y-114606027D01*
X101527243Y-114606025D01*
X101343620Y-114569500D01*
X101343616Y-114569500D01*
X101267308Y-114569500D01*
X101237867Y-114560855D01*
X101207881Y-114554332D01*
X101202865Y-114550577D01*
X101200269Y-114549815D01*
X101195514Y-114545983D01*
X101210504Y-114550000D01*
X101289496Y-114550000D01*
X101365796Y-114529556D01*
X101434205Y-114490060D01*
X101490060Y-114434205D01*
X101529556Y-114365796D01*
X101550000Y-114289496D01*
X101550000Y-114210504D01*
X101544854Y-114191301D01*
X101824480Y-114470927D01*
G37*
%TD.AperFunction*%
%TA.AperFunction,Conductor*%
G36*
X110100150Y-103232286D02*
G01*
X110145905Y-103285090D01*
X110156469Y-103349204D01*
X110150000Y-103412514D01*
X110150000Y-103625000D01*
X111876000Y-103625000D01*
X111943039Y-103644685D01*
X111988794Y-103697489D01*
X112000000Y-103749000D01*
X112000000Y-103875000D01*
X112126000Y-103875000D01*
X112193039Y-103894685D01*
X112238794Y-103947489D01*
X112250000Y-103999000D01*
X112250000Y-104996124D01*
X112230315Y-105063163D01*
X112211444Y-105084365D01*
X112212145Y-105085066D01*
X111496528Y-105800681D01*
X111435205Y-105834166D01*
X111408847Y-105837000D01*
X110849998Y-105837000D01*
X110849980Y-105837001D01*
X110747203Y-105847500D01*
X110747200Y-105847501D01*
X110580666Y-105902686D01*
X110524830Y-105937125D01*
X110457437Y-105955564D01*
X110390774Y-105934640D01*
X110372054Y-105919266D01*
X108790275Y-104337486D01*
X110150001Y-104337486D01*
X110160494Y-104440197D01*
X110215641Y-104606619D01*
X110215643Y-104606624D01*
X110307684Y-104755845D01*
X110431654Y-104879815D01*
X110580875Y-104971856D01*
X110580880Y-104971858D01*
X110747302Y-105027005D01*
X110747309Y-105027006D01*
X110850019Y-105037499D01*
X111749999Y-105037499D01*
X111750000Y-105037498D01*
X111750000Y-104125000D01*
X110150001Y-104125000D01*
X110150001Y-104337486D01*
X108790275Y-104337486D01*
X108614108Y-104161319D01*
X108154073Y-103701284D01*
X108120588Y-103639961D01*
X108125572Y-103570269D01*
X108154073Y-103525922D01*
X108267482Y-103412514D01*
X108431076Y-103248920D01*
X108492399Y-103215435D01*
X108518757Y-103212601D01*
X110033111Y-103212601D01*
X110100150Y-103232286D01*
G37*
%TD.AperFunction*%
%TD*%
M02*
