%TF.GenerationSoftware,KiCad,Pcbnew,10.0.4*%
%TF.CreationDate,2026-08-29T12:42:31-07:00*%
%TF.ProjectId,halleffectsensor,68616c6c-6566-4666-9563-7473656e736f,rev?*%
%TF.SameCoordinates,Original*%
%TF.FileFunction,Soldermask,Bot*%
%TF.FilePolarity,Negative*%
%FSLAX46Y46*%
G04 Gerber Fmt 4.6, Leading zero omitted, Abs format (unit mm)*
G04 Created by KiCad (PCBNEW 10.0.4) date 2026-08-29 12:42:31*
%MOMM*%
%LPD*%
G01*
G04 APERTURE LIST*
G04 Aperture macros list*
%AMRoundRect*
0 Rectangle with rounded corners*
0 $1 Rounding radius*
0 $2 $3 $4 $5 $6 $7 $8 $9 X,Y pos of 4 corners*
0 Add a 4 corners polygon primitive as box body*
4,1,4,$2,$3,$4,$5,$6,$7,$8,$9,$2,$3,0*
0 Add four circle primitives for the rounded corners*
1,1,$1+$1,$2,$3*
1,1,$1+$1,$4,$5*
1,1,$1+$1,$6,$7*
1,1,$1+$1,$8,$9*
0 Add four rect primitives between the rounded corners*
20,1,$1+$1,$2,$3,$4,$5,0*
20,1,$1+$1,$4,$5,$6,$7,0*
20,1,$1+$1,$6,$7,$8,$9,0*
20,1,$1+$1,$8,$9,$2,$3,0*%
G04 Aperture macros list end*
%ADD10O,2.800000X1.300000*%
%ADD11C,2.200000*%
%ADD12RoundRect,0.190500X-0.444500X-0.444500X0.444500X-0.444500X0.444500X0.444500X-0.444500X0.444500X0*%
%ADD13R,1.000000X1.000000*%
%ADD14C,1.000000*%
%ADD15R,1.050000X1.500000*%
%ADD16O,1.050000X1.500000*%
%ADD17C,3.000000*%
%ADD18C,1.800000*%
%ADD19R,1.500000X1.050000*%
%ADD20O,1.500000X1.050000*%
%ADD21R,0.900000X0.900000*%
%ADD22C,0.900000*%
%ADD23RoundRect,0.250000X-1.100000X0.412500X-1.100000X-0.412500X1.100000X-0.412500X1.100000X0.412500X0*%
%ADD24RoundRect,0.250000X-0.625000X0.400000X-0.625000X-0.400000X0.625000X-0.400000X0.625000X0.400000X0*%
%ADD25RoundRect,0.250000X0.625000X-0.400000X0.625000X0.400000X-0.625000X0.400000X-0.625000X-0.400000X0*%
%ADD26RoundRect,0.250000X0.400000X0.625000X-0.400000X0.625000X-0.400000X-0.625000X0.400000X-0.625000X0*%
%ADD27RoundRect,0.250000X-0.400000X-0.625000X0.400000X-0.625000X0.400000X0.625000X-0.400000X0.625000X0*%
G04 APERTURE END LIST*
D10*
%TO.C,REF\u002A\u002A*%
X125550000Y-111803100D03*
%TD*%
D11*
%TO.C,REF\u002A\u002A*%
X103000000Y-125000000D03*
%TD*%
D10*
%TO.C,REF\u002A\u002A*%
X125550000Y-113683100D03*
%TD*%
D12*
%TO.C,VR2*%
X110250000Y-118500000D03*
X107750000Y-121000000D03*
X105250000Y-118500000D03*
%TD*%
D11*
%TO.C,REF\u002A\u002A*%
X103000000Y-103000000D03*
%TD*%
D13*
%TO.C,J2*%
X137750000Y-101750000D03*
D14*
X139020000Y-101750000D03*
%TD*%
D15*
%TO.C,Q1*%
X114480000Y-125500000D03*
D16*
X115750000Y-125500000D03*
X117020000Y-125500000D03*
%TD*%
D17*
%TO.C,U3*%
X153850000Y-125650000D03*
X177650000Y-125650000D03*
X153850000Y-102350000D03*
X177650000Y-102350000D03*
D18*
X153290000Y-117810000D03*
X153290000Y-115270000D03*
X153290000Y-112730000D03*
X153290000Y-110190000D03*
%TD*%
D12*
%TO.C,VR1*%
X118500000Y-118500000D03*
X116000000Y-121000000D03*
X113500000Y-118500000D03*
%TD*%
D19*
%TO.C,Q2*%
X149640000Y-113980000D03*
D20*
X149640000Y-115250000D03*
X149640000Y-116520000D03*
%TD*%
D21*
%TO.C,U1*%
X101250000Y-112980000D03*
D22*
X101250000Y-114250000D03*
X101250000Y-115520000D03*
%TD*%
D23*
%TO.C,C1*%
X103750000Y-111937500D03*
X103750000Y-115062500D03*
%TD*%
D24*
%TO.C,R3*%
X118250000Y-102450000D03*
X118250000Y-105550000D03*
%TD*%
D25*
%TO.C,R6*%
X115750000Y-119000000D03*
X115750000Y-115900000D03*
%TD*%
D26*
%TO.C,R18*%
X118000000Y-111250000D03*
X114900000Y-111250000D03*
%TD*%
D25*
%TO.C,R8*%
X145500000Y-104800000D03*
X145500000Y-101700000D03*
%TD*%
D26*
%TO.C,R11*%
X134300000Y-118250000D03*
X131200000Y-118250000D03*
%TD*%
%TO.C,R4*%
X109550000Y-113750000D03*
X106450000Y-113750000D03*
%TD*%
D24*
%TO.C,R5*%
X118250000Y-113700000D03*
X118250000Y-116800000D03*
%TD*%
D13*
%TO.C,J1*%
X141250000Y-112750000D03*
D14*
X142520000Y-112750000D03*
X143790000Y-112750000D03*
%TD*%
D27*
%TO.C,R10*%
X106450000Y-116500000D03*
X109550000Y-116500000D03*
%TD*%
D26*
%TO.C,R17*%
X113050000Y-111250000D03*
X109950000Y-111250000D03*
%TD*%
D23*
%TO.C,C2*%
X112000000Y-103875000D03*
X112000000Y-107000000D03*
%TD*%
M02*
