ISO-10303-21;
HEADER;
FILE_DESCRIPTION(('FreeCAD Model'),'2;1');
FILE_NAME('Open CASCADE Shape Model','2026-08-28T17:04:35',(''),(''),
  'Open CASCADE STEP processor 7.8','FreeCAD','Unknown');
FILE_SCHEMA(('AUTOMOTIVE_DESIGN { 1 0 10303 214 1 1 1 1 }'));
ENDSEC;
DATA;
#1 = APPLICATION_PROTOCOL_DEFINITION('international standard',
  'automotive_design',2000,#2);
#2 = APPLICATION_CONTEXT(
  'core data for automotive mechanical design processes');
#3 = SHAPE_DEFINITION_REPRESENTATION(#4,#10);
#4 = PRODUCT_DEFINITION_SHAPE('','',#5);
#5 = PRODUCT_DEFINITION('design','',#6,#9);
#6 = PRODUCT_DEFINITION_FORMATION('','',#7);
#7 = PRODUCT('bottom','bottom','',(#8));
#8 = PRODUCT_CONTEXT('',#2,'mechanical');
#9 = PRODUCT_DEFINITION_CONTEXT('part definition',#2,'design');
#10 = ADVANCED_BREP_SHAPE_REPRESENTATION('',(#11,#15),#2187);
#11 = AXIS2_PLACEMENT_3D('',#12,#13,#14);
#12 = CARTESIAN_POINT('',(0.,0.,0.));
#13 = DIRECTION('',(0.,0.,1.));
#14 = DIRECTION('',(1.,0.,-0.));
#15 = MANIFOLD_SOLID_BREP('',#16);
#16 = CLOSED_SHELL('',(#17,#57,#120,#151,#368,#440,#464,#586,#603,#615,
    #662,#686,#710,#734,#758,#791,#822,#846,#870,#894,#918,#935,#982,
    #1006,#1030,#1054,#1078,#1111,#1142,#1166,#1190,#1214,#1238,#1255,
    #1272,#1289,#1306,#1323,#1335,#1366,#1390,#1414,#1438,#1462,#1518,
    #1542,#1559,#1670,#1710,#1736,#1761,#1801,#1827,#1852,#1981,#1993,
    #2005,#2022,#2039,#2056,#2073,#2090,#2107,#2119,#2136,#2153,#2170));
#17 = ADVANCED_FACE('',(#18),#52,.F.);
#18 = FACE_BOUND('',#19,.F.);
#19 = EDGE_LOOP('',(#20,#30,#38,#46));
#20 = ORIENTED_EDGE('',*,*,#21,.T.);
#21 = EDGE_CURVE('',#22,#24,#26,.T.);
#22 = VERTEX_POINT('',#23);
#23 = CARTESIAN_POINT('',(0.,0.,0.));
#24 = VERTEX_POINT('',#25);
#25 = CARTESIAN_POINT('',(0.,0.,20.));
#26 = LINE('',#27,#28);
#27 = CARTESIAN_POINT('',(0.,0.,0.));
#28 = VECTOR('',#29,1.);
#29 = DIRECTION('',(0.,0.,1.));
#30 = ORIENTED_EDGE('',*,*,#31,.T.);
#31 = EDGE_CURVE('',#24,#32,#34,.T.);
#32 = VERTEX_POINT('',#33);
#33 = CARTESIAN_POINT('',(88.,0.,20.));
#34 = LINE('',#35,#36);
#35 = CARTESIAN_POINT('',(0.,0.,20.));
#36 = VECTOR('',#37,1.);
#37 = DIRECTION('',(1.,0.,0.));
#38 = ORIENTED_EDGE('',*,*,#39,.F.);
#39 = EDGE_CURVE('',#40,#32,#42,.T.);
#40 = VERTEX_POINT('',#41);
#41 = CARTESIAN_POINT('',(88.,0.,0.));
#42 = LINE('',#43,#44);
#43 = CARTESIAN_POINT('',(88.,0.,0.));
#44 = VECTOR('',#45,1.);
#45 = DIRECTION('',(0.,0.,1.));
#46 = ORIENTED_EDGE('',*,*,#47,.F.);
#47 = EDGE_CURVE('',#22,#40,#48,.T.);
#48 = LINE('',#49,#50);
#49 = CARTESIAN_POINT('',(0.,0.,0.));
#50 = VECTOR('',#51,1.);
#51 = DIRECTION('',(1.,0.,0.));
#52 = PLANE('',#53);
#53 = AXIS2_PLACEMENT_3D('',#54,#55,#56);
#54 = CARTESIAN_POINT('',(0.,0.,0.));
#55 = DIRECTION('',(0.,1.,0.));
#56 = DIRECTION('',(1.,0.,0.));
#57 = ADVANCED_FACE('',(#58),#115,.F.);
#58 = FACE_BOUND('',#59,.F.);
#59 = EDGE_LOOP('',(#60,#68,#76,#84,#92,#100,#108,#114));
#60 = ORIENTED_EDGE('',*,*,#61,.F.);
#61 = EDGE_CURVE('',#62,#22,#64,.T.);
#62 = VERTEX_POINT('',#63);
#63 = CARTESIAN_POINT('',(0.,36.,0.));
#64 = LINE('',#65,#66);
#65 = CARTESIAN_POINT('',(0.,36.,0.));
#66 = VECTOR('',#67,1.);
#67 = DIRECTION('',(0.,-1.,0.));
#68 = ORIENTED_EDGE('',*,*,#69,.T.);
#69 = EDGE_CURVE('',#62,#70,#72,.T.);
#70 = VERTEX_POINT('',#71);
#71 = CARTESIAN_POINT('',(0.,36.,20.));
#72 = LINE('',#73,#74);
#73 = CARTESIAN_POINT('',(0.,36.,0.));
#74 = VECTOR('',#75,1.);
#75 = DIRECTION('',(0.,0.,1.));
#76 = ORIENTED_EDGE('',*,*,#77,.T.);
#77 = EDGE_CURVE('',#70,#78,#80,.T.);
#78 = VERTEX_POINT('',#79);
#79 = CARTESIAN_POINT('',(0.,23.,20.));
#80 = LINE('',#81,#82);
#81 = CARTESIAN_POINT('',(0.,36.,20.));
#82 = VECTOR('',#83,1.);
#83 = DIRECTION('',(0.,-1.,0.));
#84 = ORIENTED_EDGE('',*,*,#85,.T.);
#85 = EDGE_CURVE('',#78,#86,#88,.T.);
#86 = VERTEX_POINT('',#87);
#87 = CARTESIAN_POINT('',(0.,23.,17.));
#88 = LINE('',#89,#90);
#89 = CARTESIAN_POINT('',(0.,23.,20.));
#90 = VECTOR('',#91,1.);
#91 = DIRECTION('',(-0.,-0.,-1.));
#92 = ORIENTED_EDGE('',*,*,#93,.T.);
#93 = EDGE_CURVE('',#86,#94,#96,.T.);
#94 = VERTEX_POINT('',#95);
#95 = CARTESIAN_POINT('',(0.,13.,17.));
#96 = LINE('',#97,#98);
#97 = CARTESIAN_POINT('',(0.,23.,17.));
#98 = VECTOR('',#99,1.);
#99 = DIRECTION('',(0.,-1.,0.));
#100 = ORIENTED_EDGE('',*,*,#101,.F.);
#101 = EDGE_CURVE('',#102,#94,#104,.T.);
#102 = VERTEX_POINT('',#103);
#103 = CARTESIAN_POINT('',(0.,13.,20.));
#104 = LINE('',#105,#106);
#105 = CARTESIAN_POINT('',(0.,13.,20.));
#106 = VECTOR('',#107,1.);
#107 = DIRECTION('',(-0.,-0.,-1.));
#108 = ORIENTED_EDGE('',*,*,#109,.T.);
#109 = EDGE_CURVE('',#102,#24,#110,.T.);
#110 = LINE('',#111,#112);
#111 = CARTESIAN_POINT('',(0.,36.,20.));
#112 = VECTOR('',#113,1.);
#113 = DIRECTION('',(0.,-1.,0.));
#114 = ORIENTED_EDGE('',*,*,#21,.F.);
#115 = PLANE('',#116);
#116 = AXIS2_PLACEMENT_3D('',#117,#118,#119);
#117 = CARTESIAN_POINT('',(0.,36.,0.));
#118 = DIRECTION('',(1.,0.,0.));
#119 = DIRECTION('',(0.,-1.,0.));
#120 = ADVANCED_FACE('',(#121),#146,.F.);
#121 = FACE_BOUND('',#122,.F.);
#122 = EDGE_LOOP('',(#123,#124,#132,#140));
#123 = ORIENTED_EDGE('',*,*,#39,.T.);
#124 = ORIENTED_EDGE('',*,*,#125,.T.);
#125 = EDGE_CURVE('',#32,#126,#128,.T.);
#126 = VERTEX_POINT('',#127);
#127 = CARTESIAN_POINT('',(88.,36.,20.));
#128 = LINE('',#129,#130);
#129 = CARTESIAN_POINT('',(88.,0.,20.));
#130 = VECTOR('',#131,1.);
#131 = DIRECTION('',(0.,1.,0.));
#132 = ORIENTED_EDGE('',*,*,#133,.F.);
#133 = EDGE_CURVE('',#134,#126,#136,.T.);
#134 = VERTEX_POINT('',#135);
#135 = CARTESIAN_POINT('',(88.,36.,0.));
#136 = LINE('',#137,#138);
#137 = CARTESIAN_POINT('',(88.,36.,0.));
#138 = VECTOR('',#139,1.);
#139 = DIRECTION('',(0.,0.,1.));
#140 = ORIENTED_EDGE('',*,*,#141,.F.);
#141 = EDGE_CURVE('',#40,#134,#142,.T.);
#142 = LINE('',#143,#144);
#143 = CARTESIAN_POINT('',(88.,0.,0.));
#144 = VECTOR('',#145,1.);
#145 = DIRECTION('',(0.,1.,0.));
#146 = PLANE('',#147);
#147 = AXIS2_PLACEMENT_3D('',#148,#149,#150);
#148 = CARTESIAN_POINT('',(88.,0.,0.));
#149 = DIRECTION('',(-1.,0.,0.));
#150 = DIRECTION('',(0.,1.,0.));
#151 = ADVANCED_FACE('',(#152,#163,#213,#263,#313),#363,.F.);
#152 = FACE_BOUND('',#153,.F.);
#153 = EDGE_LOOP('',(#154,#155,#156,#162));
#154 = ORIENTED_EDGE('',*,*,#47,.T.);
#155 = ORIENTED_EDGE('',*,*,#141,.T.);
#156 = ORIENTED_EDGE('',*,*,#157,.T.);
#157 = EDGE_CURVE('',#134,#62,#158,.T.);
#158 = LINE('',#159,#160);
#159 = CARTESIAN_POINT('',(88.,36.,0.));
#160 = VECTOR('',#161,1.);
#161 = DIRECTION('',(-1.,0.,0.));
#162 = ORIENTED_EDGE('',*,*,#61,.T.);
#163 = FACE_BOUND('',#164,.F.);
#164 = EDGE_LOOP('',(#165,#175,#183,#191,#199,#207));
#165 = ORIENTED_EDGE('',*,*,#166,.T.);
#166 = EDGE_CURVE('',#167,#169,#171,.T.);
#167 = VERTEX_POINT('',#168);
#168 = CARTESIAN_POINT('',(8.074999999987,8.861954618144,0.));
#169 = VERTEX_POINT('',#170);
#170 = CARTESIAN_POINT('',(9.15,6.999999999988,0.));
#171 = LINE('',#172,#173);
#172 = CARTESIAN_POINT('',(8.074999999987,8.861954618144,0.));
#173 = VECTOR('',#174,1.);
#174 = DIRECTION('',(0.500000000001,-0.866025403784,0.));
#175 = ORIENTED_EDGE('',*,*,#176,.T.);
#176 = EDGE_CURVE('',#169,#177,#179,.T.);
#177 = VERTEX_POINT('',#178);
#178 = CARTESIAN_POINT('',(8.074999999991,5.138045381858,0.));
#179 = LINE('',#180,#181);
#180 = CARTESIAN_POINT('',(9.15,6.999999999988,0.));
#181 = VECTOR('',#182,1.);
#182 = DIRECTION('',(-0.500000000004,-0.866025403782,0.));
#183 = ORIENTED_EDGE('',*,*,#184,.T.);
#184 = EDGE_CURVE('',#177,#185,#187,.T.);
#185 = VERTEX_POINT('',#186);
#186 = CARTESIAN_POINT('',(5.925000000009,5.138045381858,0.));
#187 = LINE('',#188,#189);
#188 = CARTESIAN_POINT('',(8.074999999991,5.138045381858,0.));
#189 = VECTOR('',#190,1.);
#190 = DIRECTION('',(-1.,0.,0.));
#191 = ORIENTED_EDGE('',*,*,#192,.T.);
#192 = EDGE_CURVE('',#185,#193,#195,.T.);
#193 = VERTEX_POINT('',#194);
#194 = CARTESIAN_POINT('',(4.85,6.999999999988,0.));
#195 = LINE('',#196,#197);
#196 = CARTESIAN_POINT('',(5.925000000009,5.138045381858,0.));
#197 = VECTOR('',#198,1.);
#198 = DIRECTION('',(-0.500000000004,0.866025403782,-0.));
#199 = ORIENTED_EDGE('',*,*,#200,.T.);
#200 = EDGE_CURVE('',#193,#201,#203,.T.);
#201 = VERTEX_POINT('',#202);
#202 = CARTESIAN_POINT('',(5.924999999989,8.86195461813,0.));
#203 = LINE('',#204,#205);
#204 = CARTESIAN_POINT('',(4.85,6.999999999988,0.));
#205 = VECTOR('',#206,1.);
#206 = DIRECTION('',(0.499999999995,0.866025403787,0.));
#207 = ORIENTED_EDGE('',*,*,#208,.T.);
#208 = EDGE_CURVE('',#201,#167,#209,.T.);
#209 = LINE('',#210,#211);
#210 = CARTESIAN_POINT('',(5.924999999989,8.86195461813,0.));
#211 = VECTOR('',#212,1.);
#212 = DIRECTION('',(1.,6.41389E-12,0.));
#213 = FACE_BOUND('',#214,.F.);
#214 = EDGE_LOOP('',(#215,#225,#233,#241,#249,#257));
#215 = ORIENTED_EDGE('',*,*,#216,.T.);
#216 = EDGE_CURVE('',#217,#219,#221,.T.);
#217 = VERTEX_POINT('',#218);
#218 = CARTESIAN_POINT('',(82.719999999994,8.21195461814,0.));
#219 = VERTEX_POINT('',#220);
#220 = CARTESIAN_POINT('',(83.795,6.349999999992,0.));
#221 = LINE('',#222,#223);
#222 = CARTESIAN_POINT('',(82.719999999994,8.21195461814,0.));
#223 = VECTOR('',#224,1.);
#224 = DIRECTION('',(0.5,-0.866025403785,0.));
#225 = ORIENTED_EDGE('',*,*,#226,.T.);
#226 = EDGE_CURVE('',#219,#227,#229,.T.);
#227 = VERTEX_POINT('',#228);
#228 = CARTESIAN_POINT('',(82.719999999993,4.488045381859,0.));
#229 = LINE('',#230,#231);
#230 = CARTESIAN_POINT('',(83.795,6.349999999992,0.));
#231 = VECTOR('',#232,1.);
#232 = DIRECTION('',(-0.500000000003,-0.866025403783,0.));
#233 = ORIENTED_EDGE('',*,*,#234,.T.);
#234 = EDGE_CURVE('',#227,#235,#237,.T.);
#235 = VERTEX_POINT('',#236);
#236 = CARTESIAN_POINT('',(80.570000000007,4.488045381859,0.));
#237 = LINE('',#238,#239);
#238 = CARTESIAN_POINT('',(82.719999999993,4.488045381859,0.));
#239 = VECTOR('',#240,1.);
#240 = DIRECTION('',(-1.,0.,0.));
#241 = ORIENTED_EDGE('',*,*,#242,.T.);
#242 = EDGE_CURVE('',#235,#243,#245,.T.);
#243 = VERTEX_POINT('',#244);
#244 = CARTESIAN_POINT('',(79.495,6.349999999992,0.));
#245 = LINE('',#246,#247);
#246 = CARTESIAN_POINT('',(80.570000000007,4.488045381859,0.));
#247 = VECTOR('',#248,1.);
#248 = DIRECTION('',(-0.500000000003,0.866025403783,-0.));
#249 = ORIENTED_EDGE('',*,*,#250,.T.);
#250 = EDGE_CURVE('',#243,#251,#253,.T.);
#251 = VERTEX_POINT('',#252);
#252 = CARTESIAN_POINT('',(80.569999999994,8.211954618133,0.));
#253 = LINE('',#254,#255);
#254 = CARTESIAN_POINT('',(79.495,6.349999999992,0.));
#255 = VECTOR('',#256,1.);
#256 = DIRECTION('',(0.499999999997,0.866025403786,0.));
#257 = ORIENTED_EDGE('',*,*,#258,.T.);
#258 = EDGE_CURVE('',#251,#217,#259,.T.);
#259 = LINE('',#260,#261);
#260 = CARTESIAN_POINT('',(80.569999999994,8.211954618133,0.));
#261 = VECTOR('',#262,1.);
#262 = DIRECTION('',(1.,3.25362E-12,0.));
#263 = FACE_BOUND('',#264,.F.);
#264 = EDGE_LOOP('',(#265,#275,#283,#291,#299,#307));
#265 = ORIENTED_EDGE('',*,*,#266,.T.);
#266 = EDGE_CURVE('',#267,#269,#271,.T.);
#267 = VERTEX_POINT('',#268);
#268 = CARTESIAN_POINT('',(8.074999999994,30.86195461814,0.));
#269 = VERTEX_POINT('',#270);
#270 = CARTESIAN_POINT('',(9.15,28.999999999992,0.));
#271 = LINE('',#272,#273);
#272 = CARTESIAN_POINT('',(8.074999999994,30.86195461814,0.));
#273 = VECTOR('',#274,1.);
#274 = DIRECTION('',(0.5,-0.866025403785,0.));
#275 = ORIENTED_EDGE('',*,*,#276,.T.);
#276 = EDGE_CURVE('',#269,#277,#279,.T.);
#277 = VERTEX_POINT('',#278);
#278 = CARTESIAN_POINT('',(8.074999999993,27.138045381859,0.));
#279 = LINE('',#280,#281);
#280 = CARTESIAN_POINT('',(9.15,28.999999999992,0.));
#281 = VECTOR('',#282,1.);
#282 = DIRECTION('',(-0.500000000003,-0.866025403783,0.));
#283 = ORIENTED_EDGE('',*,*,#284,.T.);
#284 = EDGE_CURVE('',#277,#285,#287,.T.);
#285 = VERTEX_POINT('',#286);
#286 = CARTESIAN_POINT('',(5.925000000007,27.138045381859,0.));
#287 = LINE('',#288,#289);
#288 = CARTESIAN_POINT('',(8.074999999993,27.138045381859,0.));
#289 = VECTOR('',#290,1.);
#290 = DIRECTION('',(-1.,0.,0.));
#291 = ORIENTED_EDGE('',*,*,#292,.T.);
#292 = EDGE_CURVE('',#285,#293,#295,.T.);
#293 = VERTEX_POINT('',#294);
#294 = CARTESIAN_POINT('',(4.85,28.999999999992,0.));
#295 = LINE('',#296,#297);
#296 = CARTESIAN_POINT('',(5.925000000007,27.138045381859,0.));
#297 = VECTOR('',#298,1.);
#298 = DIRECTION('',(-0.500000000003,0.866025403783,-0.));
#299 = ORIENTED_EDGE('',*,*,#300,.T.);
#300 = EDGE_CURVE('',#293,#301,#303,.T.);
#301 = VERTEX_POINT('',#302);
#302 = CARTESIAN_POINT('',(5.924999999994,30.861954618133,0.));
#303 = LINE('',#304,#305);
#304 = CARTESIAN_POINT('',(4.85,28.999999999992,0.));
#305 = VECTOR('',#306,1.);
#306 = DIRECTION('',(0.499999999997,0.866025403786,0.));
#307 = ORIENTED_EDGE('',*,*,#308,.T.);
#308 = EDGE_CURVE('',#301,#267,#309,.T.);
#309 = LINE('',#310,#311);
#310 = CARTESIAN_POINT('',(5.924999999994,30.861954618133,0.));
#311 = VECTOR('',#312,1.);
#312 = DIRECTION('',(1.,3.25362E-12,0.));
#313 = FACE_BOUND('',#314,.F.);
#314 = EDGE_LOOP('',(#315,#325,#333,#341,#349,#357));
#315 = ORIENTED_EDGE('',*,*,#316,.T.);
#316 = EDGE_CURVE('',#317,#319,#321,.T.);
#317 = VERTEX_POINT('',#318);
#318 = CARTESIAN_POINT('',(82.724999999994,31.51195461814,0.));
#319 = VERTEX_POINT('',#320);
#320 = CARTESIAN_POINT('',(83.8,29.649999999992,0.));
#321 = LINE('',#322,#323);
#322 = CARTESIAN_POINT('',(82.724999999994,31.51195461814,0.));
#323 = VECTOR('',#324,1.);
#324 = DIRECTION('',(0.5,-0.866025403785,0.));
#325 = ORIENTED_EDGE('',*,*,#326,.T.);
#326 = EDGE_CURVE('',#319,#327,#329,.T.);
#327 = VERTEX_POINT('',#328);
#328 = CARTESIAN_POINT('',(82.724999999993,27.788045381859,0.));
#329 = LINE('',#330,#331);
#330 = CARTESIAN_POINT('',(83.8,29.649999999992,0.));
#331 = VECTOR('',#332,1.);
#332 = DIRECTION('',(-0.500000000003,-0.866025403783,0.));
#333 = ORIENTED_EDGE('',*,*,#334,.T.);
#334 = EDGE_CURVE('',#327,#335,#337,.T.);
#335 = VERTEX_POINT('',#336);
#336 = CARTESIAN_POINT('',(80.575000000007,27.788045381859,0.));
#337 = LINE('',#338,#339);
#338 = CARTESIAN_POINT('',(82.724999999993,27.788045381859,0.));
#339 = VECTOR('',#340,1.);
#340 = DIRECTION('',(-1.,0.,0.));
#341 = ORIENTED_EDGE('',*,*,#342,.T.);
#342 = EDGE_CURVE('',#335,#343,#345,.T.);
#343 = VERTEX_POINT('',#344);
#344 = CARTESIAN_POINT('',(79.5,29.649999999992,0.));
#345 = LINE('',#346,#347);
#346 = CARTESIAN_POINT('',(80.575000000007,27.788045381859,0.));
#347 = VECTOR('',#348,1.);
#348 = DIRECTION('',(-0.500000000003,0.866025403783,-0.));
#349 = ORIENTED_EDGE('',*,*,#350,.T.);
#350 = EDGE_CURVE('',#343,#351,#353,.T.);
#351 = VERTEX_POINT('',#352);
#352 = CARTESIAN_POINT('',(80.574999999994,31.511954618133,0.));
#353 = LINE('',#354,#355);
#354 = CARTESIAN_POINT('',(79.5,29.649999999992,0.));
#355 = VECTOR('',#356,1.);
#356 = DIRECTION('',(0.499999999997,0.866025403786,0.));
#357 = ORIENTED_EDGE('',*,*,#358,.T.);
#358 = EDGE_CURVE('',#351,#317,#359,.T.);
#359 = LINE('',#360,#361);
#360 = CARTESIAN_POINT('',(80.574999999994,31.511954618133,0.));
#361 = VECTOR('',#362,1.);
#362 = DIRECTION('',(1.,3.25362E-12,0.));
#363 = PLANE('',#364);
#364 = AXIS2_PLACEMENT_3D('',#365,#366,#367);
#365 = CARTESIAN_POINT('',(44.,18.,0.));
#366 = DIRECTION('',(0.,0.,1.));
#367 = DIRECTION('',(1.,0.,0.));
#368 = ADVANCED_FACE('',(#369),#435,.T.);
#369 = FACE_BOUND('',#370,.T.);
#370 = EDGE_LOOP('',(#371,#372,#373,#374,#380,#381,#389,#397,#405,#413,
    #421,#429));
#371 = ORIENTED_EDGE('',*,*,#109,.T.);
#372 = ORIENTED_EDGE('',*,*,#31,.T.);
#373 = ORIENTED_EDGE('',*,*,#125,.T.);
#374 = ORIENTED_EDGE('',*,*,#375,.T.);
#375 = EDGE_CURVE('',#126,#70,#376,.T.);
#376 = LINE('',#377,#378);
#377 = CARTESIAN_POINT('',(88.,36.,20.));
#378 = VECTOR('',#379,1.);
#379 = DIRECTION('',(-1.,0.,0.));
#380 = ORIENTED_EDGE('',*,*,#77,.T.);
#381 = ORIENTED_EDGE('',*,*,#382,.F.);
#382 = EDGE_CURVE('',#383,#78,#385,.T.);
#383 = VERTEX_POINT('',#384);
#384 = CARTESIAN_POINT('',(1.333333333333,23.,20.));
#385 = LINE('',#386,#387);
#386 = CARTESIAN_POINT('',(1.333333333333,23.,20.));
#387 = VECTOR('',#388,1.);
#388 = DIRECTION('',(-1.,0.,0.));
#389 = ORIENTED_EDGE('',*,*,#390,.F.);
#390 = EDGE_CURVE('',#391,#383,#393,.T.);
#391 = VERTEX_POINT('',#392);
#392 = CARTESIAN_POINT('',(1.333333333333,34.666666666667,20.));
#393 = LINE('',#394,#395);
#394 = CARTESIAN_POINT('',(1.333333333333,34.666666666667,20.));
#395 = VECTOR('',#396,1.);
#396 = DIRECTION('',(0.,-1.,0.));
#397 = ORIENTED_EDGE('',*,*,#398,.F.);
#398 = EDGE_CURVE('',#399,#391,#401,.T.);
#399 = VERTEX_POINT('',#400);
#400 = CARTESIAN_POINT('',(86.666666666667,34.666666666667,20.));
#401 = LINE('',#402,#403);
#402 = CARTESIAN_POINT('',(86.666666666667,34.666666666667,20.));
#403 = VECTOR('',#404,1.);
#404 = DIRECTION('',(-1.,0.,0.));
#405 = ORIENTED_EDGE('',*,*,#406,.F.);
#406 = EDGE_CURVE('',#407,#399,#409,.T.);
#407 = VERTEX_POINT('',#408);
#408 = CARTESIAN_POINT('',(86.666666666667,1.333333333333,20.));
#409 = LINE('',#410,#411);
#410 = CARTESIAN_POINT('',(86.666666666667,1.333333333333,20.));
#411 = VECTOR('',#412,1.);
#412 = DIRECTION('',(0.,1.,0.));
#413 = ORIENTED_EDGE('',*,*,#414,.F.);
#414 = EDGE_CURVE('',#415,#407,#417,.T.);
#415 = VERTEX_POINT('',#416);
#416 = CARTESIAN_POINT('',(1.333333333333,1.333333333333,20.));
#417 = LINE('',#418,#419);
#418 = CARTESIAN_POINT('',(1.333333333333,1.333333333333,20.));
#419 = VECTOR('',#420,1.);
#420 = DIRECTION('',(1.,0.,0.));
#421 = ORIENTED_EDGE('',*,*,#422,.T.);
#422 = EDGE_CURVE('',#415,#423,#425,.T.);
#423 = VERTEX_POINT('',#424);
#424 = CARTESIAN_POINT('',(1.333333333333,13.,20.));
#425 = LINE('',#426,#427);
#426 = CARTESIAN_POINT('',(1.333333333333,1.333333333333,20.));
#427 = VECTOR('',#428,1.);
#428 = DIRECTION('',(0.,1.,0.));
#429 = ORIENTED_EDGE('',*,*,#430,.F.);
#430 = EDGE_CURVE('',#102,#423,#431,.T.);
#431 = LINE('',#432,#433);
#432 = CARTESIAN_POINT('',(0.,13.,20.));
#433 = VECTOR('',#434,1.);
#434 = DIRECTION('',(1.,0.,0.));
#435 = PLANE('',#436);
#436 = AXIS2_PLACEMENT_3D('',#437,#438,#439);
#437 = CARTESIAN_POINT('',(44.,18.,20.));
#438 = DIRECTION('',(0.,0.,1.));
#439 = DIRECTION('',(1.,0.,0.));
#440 = ADVANCED_FACE('',(#441),#459,.F.);
#441 = FACE_BOUND('',#442,.F.);
#442 = EDGE_LOOP('',(#443,#444,#452,#458));
#443 = ORIENTED_EDGE('',*,*,#101,.T.);
#444 = ORIENTED_EDGE('',*,*,#445,.T.);
#445 = EDGE_CURVE('',#94,#446,#448,.T.);
#446 = VERTEX_POINT('',#447);
#447 = CARTESIAN_POINT('',(1.333333333333,13.,17.));
#448 = LINE('',#449,#450);
#449 = CARTESIAN_POINT('',(0.,13.,17.));
#450 = VECTOR('',#451,1.);
#451 = DIRECTION('',(1.,0.,0.));
#452 = ORIENTED_EDGE('',*,*,#453,.F.);
#453 = EDGE_CURVE('',#423,#446,#454,.T.);
#454 = LINE('',#455,#456);
#455 = CARTESIAN_POINT('',(1.333333333333,13.,20.));
#456 = VECTOR('',#457,1.);
#457 = DIRECTION('',(-0.,-0.,-1.));
#458 = ORIENTED_EDGE('',*,*,#430,.F.);
#459 = PLANE('',#460);
#460 = AXIS2_PLACEMENT_3D('',#461,#462,#463);
#461 = CARTESIAN_POINT('',(0.,13.,20.));
#462 = DIRECTION('',(0.,-1.,0.));
#463 = DIRECTION('',(1.,0.,0.));
#464 = ADVANCED_FACE('',(#465,#515),#581,.T.);
#465 = FACE_BOUND('',#466,.T.);
#466 = EDGE_LOOP('',(#467,#477,#485,#493,#501,#507,#508,#509));
#467 = ORIENTED_EDGE('',*,*,#468,.T.);
#468 = EDGE_CURVE('',#469,#471,#473,.T.);
#469 = VERTEX_POINT('',#470);
#470 = CARTESIAN_POINT('',(1.333333333333,1.333333333333,17.));
#471 = VERTEX_POINT('',#472);
#472 = CARTESIAN_POINT('',(86.666666666667,1.333333333333,17.));
#473 = LINE('',#474,#475);
#474 = CARTESIAN_POINT('',(1.333333333333,1.333333333333,17.));
#475 = VECTOR('',#476,1.);
#476 = DIRECTION('',(1.,0.,0.));
#477 = ORIENTED_EDGE('',*,*,#478,.T.);
#478 = EDGE_CURVE('',#471,#479,#481,.T.);
#479 = VERTEX_POINT('',#480);
#480 = CARTESIAN_POINT('',(86.666666666667,34.666666666667,17.));
#481 = LINE('',#482,#483);
#482 = CARTESIAN_POINT('',(86.666666666667,1.333333333333,17.));
#483 = VECTOR('',#484,1.);
#484 = DIRECTION('',(0.,1.,0.));
#485 = ORIENTED_EDGE('',*,*,#486,.T.);
#486 = EDGE_CURVE('',#479,#487,#489,.T.);
#487 = VERTEX_POINT('',#488);
#488 = CARTESIAN_POINT('',(1.333333333333,34.666666666667,17.));
#489 = LINE('',#490,#491);
#490 = CARTESIAN_POINT('',(86.666666666667,34.666666666667,17.));
#491 = VECTOR('',#492,1.);
#492 = DIRECTION('',(-1.,0.,0.));
#493 = ORIENTED_EDGE('',*,*,#494,.T.);
#494 = EDGE_CURVE('',#487,#495,#497,.T.);
#495 = VERTEX_POINT('',#496);
#496 = CARTESIAN_POINT('',(1.333333333333,23.,17.));
#497 = LINE('',#498,#499);
#498 = CARTESIAN_POINT('',(1.333333333333,34.666666666667,17.));
#499 = VECTOR('',#500,1.);
#500 = DIRECTION('',(0.,-1.,0.));
#501 = ORIENTED_EDGE('',*,*,#502,.T.);
#502 = EDGE_CURVE('',#495,#86,#503,.T.);
#503 = LINE('',#504,#505);
#504 = CARTESIAN_POINT('',(1.333333333333,23.,17.));
#505 = VECTOR('',#506,1.);
#506 = DIRECTION('',(-1.,0.,0.));
#507 = ORIENTED_EDGE('',*,*,#93,.T.);
#508 = ORIENTED_EDGE('',*,*,#445,.T.);
#509 = ORIENTED_EDGE('',*,*,#510,.F.);
#510 = EDGE_CURVE('',#469,#446,#511,.T.);
#511 = LINE('',#512,#513);
#512 = CARTESIAN_POINT('',(1.333333333333,1.333333333333,17.));
#513 = VECTOR('',#514,1.);
#514 = DIRECTION('',(0.,1.,0.));
#515 = FACE_BOUND('',#516,.F.);
#516 = EDGE_LOOP('',(#517,#527,#535,#543,#551,#559,#567,#575));
#517 = ORIENTED_EDGE('',*,*,#518,.T.);
#518 = EDGE_CURVE('',#519,#521,#523,.T.);
#519 = VERTEX_POINT('',#520);
#520 = CARTESIAN_POINT('',(2.666666666667,2.666666666667,17.));
#521 = VERTEX_POINT('',#522);
#522 = CARTESIAN_POINT('',(85.333333333333,2.666666666667,17.));
#523 = LINE('',#524,#525);
#524 = CARTESIAN_POINT('',(2.666666666667,2.666666666667,17.));
#525 = VECTOR('',#526,1.);
#526 = DIRECTION('',(1.,0.,0.));
#527 = ORIENTED_EDGE('',*,*,#528,.T.);
#528 = EDGE_CURVE('',#521,#529,#531,.T.);
#529 = VERTEX_POINT('',#530);
#530 = CARTESIAN_POINT('',(85.333333333333,33.333333333333,17.));
#531 = LINE('',#532,#533);
#532 = CARTESIAN_POINT('',(85.333333333333,2.666666666667,17.));
#533 = VECTOR('',#534,1.);
#534 = DIRECTION('',(0.,1.,0.));
#535 = ORIENTED_EDGE('',*,*,#536,.T.);
#536 = EDGE_CURVE('',#529,#537,#539,.T.);
#537 = VERTEX_POINT('',#538);
#538 = CARTESIAN_POINT('',(2.666666666667,33.333333333333,17.));
#539 = LINE('',#540,#541);
#540 = CARTESIAN_POINT('',(85.333333333333,33.333333333333,17.));
#541 = VECTOR('',#542,1.);
#542 = DIRECTION('',(-1.,0.,0.));
#543 = ORIENTED_EDGE('',*,*,#544,.F.);
#544 = EDGE_CURVE('',#545,#537,#547,.T.);
#545 = VERTEX_POINT('',#546);
#546 = CARTESIAN_POINT('',(2.666666666667,23.,17.));
#547 = LINE('',#548,#549);
#548 = CARTESIAN_POINT('',(2.666666666667,23.,17.));
#549 = VECTOR('',#550,1.);
#550 = DIRECTION('',(0.,1.,0.));
#551 = ORIENTED_EDGE('',*,*,#552,.F.);
#552 = EDGE_CURVE('',#553,#545,#555,.T.);
#553 = VERTEX_POINT('',#554);
#554 = CARTESIAN_POINT('',(4.,23.,17.));
#555 = LINE('',#556,#557);
#556 = CARTESIAN_POINT('',(4.,23.,17.));
#557 = VECTOR('',#558,1.);
#558 = DIRECTION('',(-1.,0.,0.));
#559 = ORIENTED_EDGE('',*,*,#560,.F.);
#560 = EDGE_CURVE('',#561,#553,#563,.T.);
#561 = VERTEX_POINT('',#562);
#562 = CARTESIAN_POINT('',(4.,13.,17.));
#563 = LINE('',#564,#565);
#564 = CARTESIAN_POINT('',(4.,13.,17.));
#565 = VECTOR('',#566,1.);
#566 = DIRECTION('',(0.,1.,0.));
#567 = ORIENTED_EDGE('',*,*,#568,.F.);
#568 = EDGE_CURVE('',#569,#561,#571,.T.);
#569 = VERTEX_POINT('',#570);
#570 = CARTESIAN_POINT('',(2.666666666667,13.,17.));
#571 = LINE('',#572,#573);
#572 = CARTESIAN_POINT('',(2.666666666667,13.,17.));
#573 = VECTOR('',#574,1.);
#574 = DIRECTION('',(1.,0.,0.));
#575 = ORIENTED_EDGE('',*,*,#576,.T.);
#576 = EDGE_CURVE('',#569,#519,#577,.T.);
#577 = LINE('',#578,#579);
#578 = CARTESIAN_POINT('',(2.666666666667,13.,17.));
#579 = VECTOR('',#580,1.);
#580 = DIRECTION('',(0.,-1.,0.));
#581 = PLANE('',#582);
#582 = AXIS2_PLACEMENT_3D('',#583,#584,#585);
#583 = CARTESIAN_POINT('',(43.522727272727,18.,17.));
#584 = DIRECTION('',(0.,0.,1.));
#585 = DIRECTION('',(1.,0.,0.));
#586 = ADVANCED_FACE('',(#587),#598,.F.);
#587 = FACE_BOUND('',#588,.F.);
#588 = EDGE_LOOP('',(#589,#595,#596,#597));
#589 = ORIENTED_EDGE('',*,*,#590,.T.);
#590 = EDGE_CURVE('',#383,#495,#591,.T.);
#591 = LINE('',#592,#593);
#592 = CARTESIAN_POINT('',(1.333333333333,23.,20.));
#593 = VECTOR('',#594,1.);
#594 = DIRECTION('',(-0.,-0.,-1.));
#595 = ORIENTED_EDGE('',*,*,#502,.T.);
#596 = ORIENTED_EDGE('',*,*,#85,.F.);
#597 = ORIENTED_EDGE('',*,*,#382,.F.);
#598 = PLANE('',#599);
#599 = AXIS2_PLACEMENT_3D('',#600,#601,#602);
#600 = CARTESIAN_POINT('',(1.333333333333,23.,20.));
#601 = DIRECTION('',(0.,1.,0.));
#602 = DIRECTION('',(-1.,0.,0.));
#603 = ADVANCED_FACE('',(#604),#610,.F.);
#604 = FACE_BOUND('',#605,.F.);
#605 = EDGE_LOOP('',(#606,#607,#608,#609));
#606 = ORIENTED_EDGE('',*,*,#133,.T.);
#607 = ORIENTED_EDGE('',*,*,#375,.T.);
#608 = ORIENTED_EDGE('',*,*,#69,.F.);
#609 = ORIENTED_EDGE('',*,*,#157,.F.);
#610 = PLANE('',#611);
#611 = AXIS2_PLACEMENT_3D('',#612,#613,#614);
#612 = CARTESIAN_POINT('',(88.,36.,0.));
#613 = DIRECTION('',(0.,-1.,0.));
#614 = DIRECTION('',(-1.,0.,0.));
#615 = ADVANCED_FACE('',(#616),#657,.F.);
#616 = FACE_BOUND('',#617,.F.);
#617 = EDGE_LOOP('',(#618,#619,#627,#635,#643,#651));
#618 = ORIENTED_EDGE('',*,*,#166,.F.);
#619 = ORIENTED_EDGE('',*,*,#620,.T.);
#620 = EDGE_CURVE('',#167,#621,#623,.T.);
#621 = VERTEX_POINT('',#622);
#622 = CARTESIAN_POINT('',(8.074999999987,8.861954618144,17.));
#623 = LINE('',#624,#625);
#624 = CARTESIAN_POINT('',(8.074999999987,8.861954618144,0.));
#625 = VECTOR('',#626,1.);
#626 = DIRECTION('',(0.,0.,1.));
#627 = ORIENTED_EDGE('',*,*,#628,.T.);
#628 = EDGE_CURVE('',#621,#629,#631,.T.);
#629 = VERTEX_POINT('',#630);
#630 = CARTESIAN_POINT('',(9.,7.259807621123,17.));
#631 = LINE('',#632,#633);
#632 = CARTESIAN_POINT('',(8.074999999987,8.861954618144,17.));
#633 = VECTOR('',#634,1.);
#634 = DIRECTION('',(0.500000000001,-0.866025403784,0.));
#635 = ORIENTED_EDGE('',*,*,#636,.T.);
#636 = EDGE_CURVE('',#629,#637,#639,.T.);
#637 = VERTEX_POINT('',#638);
#638 = CARTESIAN_POINT('',(9.,7.259807621123,2.));
#639 = LINE('',#640,#641);
#640 = CARTESIAN_POINT('',(9.,7.259807621123,10.));
#641 = VECTOR('',#642,1.);
#642 = DIRECTION('',(0.,0.,-1.));
#643 = ORIENTED_EDGE('',*,*,#644,.F.);
#644 = EDGE_CURVE('',#645,#637,#647,.T.);
#645 = VERTEX_POINT('',#646);
#646 = CARTESIAN_POINT('',(9.15,6.999999999988,2.));
#647 = LINE('',#648,#649);
#648 = CARTESIAN_POINT('',(10.591071783261,4.50399045403,2.));
#649 = VECTOR('',#650,1.);
#650 = DIRECTION('',(-0.500000000001,0.866025403784,0.));
#651 = ORIENTED_EDGE('',*,*,#652,.F.);
#652 = EDGE_CURVE('',#169,#645,#653,.T.);
#653 = LINE('',#654,#655);
#654 = CARTESIAN_POINT('',(9.15,6.999999999988,0.));
#655 = VECTOR('',#656,1.);
#656 = DIRECTION('',(0.,0.,1.));
#657 = PLANE('',#658);
#658 = AXIS2_PLACEMENT_3D('',#659,#660,#661);
#659 = CARTESIAN_POINT('',(8.074999999987,8.861954618144,0.));
#660 = DIRECTION('',(0.866025403784,0.500000000001,0.));
#661 = DIRECTION('',(0.500000000001,-0.866025403784,0.));
#662 = ADVANCED_FACE('',(#663),#681,.F.);
#663 = FACE_BOUND('',#664,.F.);
#664 = EDGE_LOOP('',(#665,#673,#679,#680));
#665 = ORIENTED_EDGE('',*,*,#666,.T.);
#666 = EDGE_CURVE('',#201,#667,#669,.T.);
#667 = VERTEX_POINT('',#668);
#668 = CARTESIAN_POINT('',(5.924999999989,8.86195461813,17.));
#669 = LINE('',#670,#671);
#670 = CARTESIAN_POINT('',(5.924999999989,8.86195461813,0.));
#671 = VECTOR('',#672,1.);
#672 = DIRECTION('',(0.,0.,1.));
#673 = ORIENTED_EDGE('',*,*,#674,.T.);
#674 = EDGE_CURVE('',#667,#621,#675,.T.);
#675 = LINE('',#676,#677);
#676 = CARTESIAN_POINT('',(5.924999999989,8.86195461813,17.));
#677 = VECTOR('',#678,1.);
#678 = DIRECTION('',(1.,6.41389E-12,0.));
#679 = ORIENTED_EDGE('',*,*,#620,.F.);
#680 = ORIENTED_EDGE('',*,*,#208,.F.);
#681 = PLANE('',#682);
#682 = AXIS2_PLACEMENT_3D('',#683,#684,#685);
#683 = CARTESIAN_POINT('',(5.924999999989,8.86195461813,0.));
#684 = DIRECTION('',(-6.41389E-12,1.,0.));
#685 = DIRECTION('',(1.,6.41389E-12,0.));
#686 = ADVANCED_FACE('',(#687),#705,.F.);
#687 = FACE_BOUND('',#688,.F.);
#688 = EDGE_LOOP('',(#689,#697,#703,#704));
#689 = ORIENTED_EDGE('',*,*,#690,.T.);
#690 = EDGE_CURVE('',#193,#691,#693,.T.);
#691 = VERTEX_POINT('',#692);
#692 = CARTESIAN_POINT('',(4.85,6.999999999988,17.));
#693 = LINE('',#694,#695);
#694 = CARTESIAN_POINT('',(4.85,6.999999999988,0.));
#695 = VECTOR('',#696,1.);
#696 = DIRECTION('',(0.,0.,1.));
#697 = ORIENTED_EDGE('',*,*,#698,.T.);
#698 = EDGE_CURVE('',#691,#667,#699,.T.);
#699 = LINE('',#700,#701);
#700 = CARTESIAN_POINT('',(4.85,6.999999999988,17.));
#701 = VECTOR('',#702,1.);
#702 = DIRECTION('',(0.499999999995,0.866025403787,0.));
#703 = ORIENTED_EDGE('',*,*,#666,.F.);
#704 = ORIENTED_EDGE('',*,*,#200,.F.);
#705 = PLANE('',#706);
#706 = AXIS2_PLACEMENT_3D('',#707,#708,#709);
#707 = CARTESIAN_POINT('',(4.85,6.999999999988,0.));
#708 = DIRECTION('',(-0.866025403787,0.499999999995,0.));
#709 = DIRECTION('',(0.499999999995,0.866025403787,0.));
#710 = ADVANCED_FACE('',(#711),#729,.F.);
#711 = FACE_BOUND('',#712,.F.);
#712 = EDGE_LOOP('',(#713,#721,#727,#728));
#713 = ORIENTED_EDGE('',*,*,#714,.T.);
#714 = EDGE_CURVE('',#185,#715,#717,.T.);
#715 = VERTEX_POINT('',#716);
#716 = CARTESIAN_POINT('',(5.925000000009,5.138045381858,17.));
#717 = LINE('',#718,#719);
#718 = CARTESIAN_POINT('',(5.925000000009,5.138045381858,0.));
#719 = VECTOR('',#720,1.);
#720 = DIRECTION('',(0.,0.,1.));
#721 = ORIENTED_EDGE('',*,*,#722,.T.);
#722 = EDGE_CURVE('',#715,#691,#723,.T.);
#723 = LINE('',#724,#725);
#724 = CARTESIAN_POINT('',(5.925000000009,5.138045381858,17.));
#725 = VECTOR('',#726,1.);
#726 = DIRECTION('',(-0.500000000004,0.866025403782,-0.));
#727 = ORIENTED_EDGE('',*,*,#690,.F.);
#728 = ORIENTED_EDGE('',*,*,#192,.F.);
#729 = PLANE('',#730);
#730 = AXIS2_PLACEMENT_3D('',#731,#732,#733);
#731 = CARTESIAN_POINT('',(5.925000000009,5.138045381858,0.));
#732 = DIRECTION('',(-0.866025403782,-0.500000000004,0.));
#733 = DIRECTION('',(-0.500000000004,0.866025403782,0.));
#734 = ADVANCED_FACE('',(#735),#753,.F.);
#735 = FACE_BOUND('',#736,.F.);
#736 = EDGE_LOOP('',(#737,#745,#751,#752));
#737 = ORIENTED_EDGE('',*,*,#738,.T.);
#738 = EDGE_CURVE('',#177,#739,#741,.T.);
#739 = VERTEX_POINT('',#740);
#740 = CARTESIAN_POINT('',(8.074999999991,5.138045381858,17.));
#741 = LINE('',#742,#743);
#742 = CARTESIAN_POINT('',(8.074999999991,5.138045381858,0.));
#743 = VECTOR('',#744,1.);
#744 = DIRECTION('',(0.,0.,1.));
#745 = ORIENTED_EDGE('',*,*,#746,.T.);
#746 = EDGE_CURVE('',#739,#715,#747,.T.);
#747 = LINE('',#748,#749);
#748 = CARTESIAN_POINT('',(8.074999999991,5.138045381858,17.));
#749 = VECTOR('',#750,1.);
#750 = DIRECTION('',(-1.,0.,0.));
#751 = ORIENTED_EDGE('',*,*,#714,.F.);
#752 = ORIENTED_EDGE('',*,*,#184,.F.);
#753 = PLANE('',#754);
#754 = AXIS2_PLACEMENT_3D('',#755,#756,#757);
#755 = CARTESIAN_POINT('',(8.074999999991,5.138045381858,0.));
#756 = DIRECTION('',(0.,-1.,0.));
#757 = DIRECTION('',(-1.,0.,0.));
#758 = ADVANCED_FACE('',(#759),#786,.F.);
#759 = FACE_BOUND('',#760,.F.);
#760 = EDGE_LOOP('',(#761,#762,#763,#771,#779,#785));
#761 = ORIENTED_EDGE('',*,*,#176,.F.);
#762 = ORIENTED_EDGE('',*,*,#652,.T.);
#763 = ORIENTED_EDGE('',*,*,#764,.F.);
#764 = EDGE_CURVE('',#765,#645,#767,.T.);
#765 = VERTEX_POINT('',#766);
#766 = CARTESIAN_POINT('',(9.,6.740192378856,2.));
#767 = LINE('',#768,#769);
#768 = CARTESIAN_POINT('',(15.891625832826,18.676838467925,2.));
#769 = VECTOR('',#770,1.);
#770 = DIRECTION('',(0.500000000004,0.866025403782,0.));
#771 = ORIENTED_EDGE('',*,*,#772,.T.);
#772 = EDGE_CURVE('',#765,#773,#775,.T.);
#773 = VERTEX_POINT('',#774);
#774 = CARTESIAN_POINT('',(9.,6.740192378856,17.));
#775 = LINE('',#776,#777);
#776 = CARTESIAN_POINT('',(9.,6.740192378856,10.));
#777 = VECTOR('',#778,1.);
#778 = DIRECTION('',(0.,0.,1.));
#779 = ORIENTED_EDGE('',*,*,#780,.T.);
#780 = EDGE_CURVE('',#773,#739,#781,.T.);
#781 = LINE('',#782,#783);
#782 = CARTESIAN_POINT('',(9.15,6.999999999988,17.));
#783 = VECTOR('',#784,1.);
#784 = DIRECTION('',(-0.500000000004,-0.866025403782,0.));
#785 = ORIENTED_EDGE('',*,*,#738,.F.);
#786 = PLANE('',#787);
#787 = AXIS2_PLACEMENT_3D('',#788,#789,#790);
#788 = CARTESIAN_POINT('',(9.15,6.999999999988,0.));
#789 = DIRECTION('',(0.866025403782,-0.500000000004,0.));
#790 = DIRECTION('',(-0.500000000004,-0.866025403782,0.));
#791 = ADVANCED_FACE('',(#792),#817,.F.);
#792 = FACE_BOUND('',#793,.F.);
#793 = EDGE_LOOP('',(#794,#802,#810,#816));
#794 = ORIENTED_EDGE('',*,*,#795,.T.);
#795 = EDGE_CURVE('',#217,#796,#798,.T.);
#796 = VERTEX_POINT('',#797);
#797 = CARTESIAN_POINT('',(82.719999999994,8.21195461814,17.));
#798 = LINE('',#799,#800);
#799 = CARTESIAN_POINT('',(82.719999999994,8.21195461814,0.));
#800 = VECTOR('',#801,1.);
#801 = DIRECTION('',(0.,0.,1.));
#802 = ORIENTED_EDGE('',*,*,#803,.T.);
#803 = EDGE_CURVE('',#796,#804,#806,.T.);
#804 = VERTEX_POINT('',#805);
#805 = CARTESIAN_POINT('',(83.795,6.349999999992,17.));
#806 = LINE('',#807,#808);
#807 = CARTESIAN_POINT('',(82.719999999994,8.21195461814,17.));
#808 = VECTOR('',#809,1.);
#809 = DIRECTION('',(0.5,-0.866025403785,0.));
#810 = ORIENTED_EDGE('',*,*,#811,.F.);
#811 = EDGE_CURVE('',#219,#804,#812,.T.);
#812 = LINE('',#813,#814);
#813 = CARTESIAN_POINT('',(83.795,6.349999999992,0.));
#814 = VECTOR('',#815,1.);
#815 = DIRECTION('',(0.,0.,1.));
#816 = ORIENTED_EDGE('',*,*,#216,.F.);
#817 = PLANE('',#818);
#818 = AXIS2_PLACEMENT_3D('',#819,#820,#821);
#819 = CARTESIAN_POINT('',(82.719999999994,8.21195461814,0.));
#820 = DIRECTION('',(0.866025403785,0.5,0.));
#821 = DIRECTION('',(0.5,-0.866025403785,0.));
#822 = ADVANCED_FACE('',(#823),#841,.F.);
#823 = FACE_BOUND('',#824,.F.);
#824 = EDGE_LOOP('',(#825,#833,#839,#840));
#825 = ORIENTED_EDGE('',*,*,#826,.T.);
#826 = EDGE_CURVE('',#251,#827,#829,.T.);
#827 = VERTEX_POINT('',#828);
#828 = CARTESIAN_POINT('',(80.569999999994,8.211954618133,17.));
#829 = LINE('',#830,#831);
#830 = CARTESIAN_POINT('',(80.569999999994,8.211954618133,0.));
#831 = VECTOR('',#832,1.);
#832 = DIRECTION('',(0.,0.,1.));
#833 = ORIENTED_EDGE('',*,*,#834,.T.);
#834 = EDGE_CURVE('',#827,#796,#835,.T.);
#835 = LINE('',#836,#837);
#836 = CARTESIAN_POINT('',(80.569999999994,8.211954618133,17.));
#837 = VECTOR('',#838,1.);
#838 = DIRECTION('',(1.,3.25362E-12,0.));
#839 = ORIENTED_EDGE('',*,*,#795,.F.);
#840 = ORIENTED_EDGE('',*,*,#258,.F.);
#841 = PLANE('',#842);
#842 = AXIS2_PLACEMENT_3D('',#843,#844,#845);
#843 = CARTESIAN_POINT('',(80.569999999994,8.211954618133,0.));
#844 = DIRECTION('',(-3.25362E-12,1.,0.));
#845 = DIRECTION('',(1.,3.25362E-12,0.));
#846 = ADVANCED_FACE('',(#847),#865,.F.);
#847 = FACE_BOUND('',#848,.F.);
#848 = EDGE_LOOP('',(#849,#857,#863,#864));
#849 = ORIENTED_EDGE('',*,*,#850,.T.);
#850 = EDGE_CURVE('',#243,#851,#853,.T.);
#851 = VERTEX_POINT('',#852);
#852 = CARTESIAN_POINT('',(79.495,6.349999999992,17.));
#853 = LINE('',#854,#855);
#854 = CARTESIAN_POINT('',(79.495,6.349999999992,0.));
#855 = VECTOR('',#856,1.);
#856 = DIRECTION('',(0.,0.,1.));
#857 = ORIENTED_EDGE('',*,*,#858,.T.);
#858 = EDGE_CURVE('',#851,#827,#859,.T.);
#859 = LINE('',#860,#861);
#860 = CARTESIAN_POINT('',(79.495,6.349999999992,17.));
#861 = VECTOR('',#862,1.);
#862 = DIRECTION('',(0.499999999997,0.866025403786,0.));
#863 = ORIENTED_EDGE('',*,*,#826,.F.);
#864 = ORIENTED_EDGE('',*,*,#250,.F.);
#865 = PLANE('',#866);
#866 = AXIS2_PLACEMENT_3D('',#867,#868,#869);
#867 = CARTESIAN_POINT('',(79.495,6.349999999992,0.));
#868 = DIRECTION('',(-0.866025403786,0.499999999997,0.));
#869 = DIRECTION('',(0.499999999997,0.866025403786,0.));
#870 = ADVANCED_FACE('',(#871),#889,.F.);
#871 = FACE_BOUND('',#872,.F.);
#872 = EDGE_LOOP('',(#873,#881,#887,#888));
#873 = ORIENTED_EDGE('',*,*,#874,.T.);
#874 = EDGE_CURVE('',#235,#875,#877,.T.);
#875 = VERTEX_POINT('',#876);
#876 = CARTESIAN_POINT('',(80.570000000007,4.488045381859,17.));
#877 = LINE('',#878,#879);
#878 = CARTESIAN_POINT('',(80.570000000007,4.488045381859,0.));
#879 = VECTOR('',#880,1.);
#880 = DIRECTION('',(0.,0.,1.));
#881 = ORIENTED_EDGE('',*,*,#882,.T.);
#882 = EDGE_CURVE('',#875,#851,#883,.T.);
#883 = LINE('',#884,#885);
#884 = CARTESIAN_POINT('',(80.570000000007,4.488045381859,17.));
#885 = VECTOR('',#886,1.);
#886 = DIRECTION('',(-0.500000000003,0.866025403783,-0.));
#887 = ORIENTED_EDGE('',*,*,#850,.F.);
#888 = ORIENTED_EDGE('',*,*,#242,.F.);
#889 = PLANE('',#890);
#890 = AXIS2_PLACEMENT_3D('',#891,#892,#893);
#891 = CARTESIAN_POINT('',(80.570000000007,4.488045381859,0.));
#892 = DIRECTION('',(-0.866025403783,-0.500000000003,0.));
#893 = DIRECTION('',(-0.500000000003,0.866025403783,0.));
#894 = ADVANCED_FACE('',(#895),#913,.F.);
#895 = FACE_BOUND('',#896,.F.);
#896 = EDGE_LOOP('',(#897,#905,#911,#912));
#897 = ORIENTED_EDGE('',*,*,#898,.T.);
#898 = EDGE_CURVE('',#227,#899,#901,.T.);
#899 = VERTEX_POINT('',#900);
#900 = CARTESIAN_POINT('',(82.719999999993,4.488045381859,17.));
#901 = LINE('',#902,#903);
#902 = CARTESIAN_POINT('',(82.719999999993,4.488045381859,0.));
#903 = VECTOR('',#904,1.);
#904 = DIRECTION('',(0.,0.,1.));
#905 = ORIENTED_EDGE('',*,*,#906,.T.);
#906 = EDGE_CURVE('',#899,#875,#907,.T.);
#907 = LINE('',#908,#909);
#908 = CARTESIAN_POINT('',(82.719999999993,4.488045381859,17.));
#909 = VECTOR('',#910,1.);
#910 = DIRECTION('',(-1.,0.,0.));
#911 = ORIENTED_EDGE('',*,*,#874,.F.);
#912 = ORIENTED_EDGE('',*,*,#234,.F.);
#913 = PLANE('',#914);
#914 = AXIS2_PLACEMENT_3D('',#915,#916,#917);
#915 = CARTESIAN_POINT('',(82.719999999993,4.488045381859,0.));
#916 = DIRECTION('',(0.,-1.,0.));
#917 = DIRECTION('',(-1.,0.,0.));
#918 = ADVANCED_FACE('',(#919),#930,.F.);
#919 = FACE_BOUND('',#920,.F.);
#920 = EDGE_LOOP('',(#921,#922,#928,#929));
#921 = ORIENTED_EDGE('',*,*,#811,.T.);
#922 = ORIENTED_EDGE('',*,*,#923,.T.);
#923 = EDGE_CURVE('',#804,#899,#924,.T.);
#924 = LINE('',#925,#926);
#925 = CARTESIAN_POINT('',(83.795,6.349999999992,17.));
#926 = VECTOR('',#927,1.);
#927 = DIRECTION('',(-0.500000000003,-0.866025403783,0.));
#928 = ORIENTED_EDGE('',*,*,#898,.F.);
#929 = ORIENTED_EDGE('',*,*,#226,.F.);
#930 = PLANE('',#931);
#931 = AXIS2_PLACEMENT_3D('',#932,#933,#934);
#932 = CARTESIAN_POINT('',(83.795,6.349999999992,0.));
#933 = DIRECTION('',(0.866025403783,-0.500000000003,0.));
#934 = DIRECTION('',(-0.500000000003,-0.866025403783,0.));
#935 = ADVANCED_FACE('',(#936),#977,.F.);
#936 = FACE_BOUND('',#937,.F.);
#937 = EDGE_LOOP('',(#938,#939,#947,#955,#963,#971));
#938 = ORIENTED_EDGE('',*,*,#266,.F.);
#939 = ORIENTED_EDGE('',*,*,#940,.T.);
#940 = EDGE_CURVE('',#267,#941,#943,.T.);
#941 = VERTEX_POINT('',#942);
#942 = CARTESIAN_POINT('',(8.074999999994,30.86195461814,17.));
#943 = LINE('',#944,#945);
#944 = CARTESIAN_POINT('',(8.074999999994,30.86195461814,0.));
#945 = VECTOR('',#946,1.);
#946 = DIRECTION('',(0.,0.,1.));
#947 = ORIENTED_EDGE('',*,*,#948,.T.);
#948 = EDGE_CURVE('',#941,#949,#951,.T.);
#949 = VERTEX_POINT('',#950);
#950 = CARTESIAN_POINT('',(9.,29.259807621128,17.));
#951 = LINE('',#952,#953);
#952 = CARTESIAN_POINT('',(8.074999999994,30.86195461814,17.));
#953 = VECTOR('',#954,1.);
#954 = DIRECTION('',(0.5,-0.866025403785,0.));
#955 = ORIENTED_EDGE('',*,*,#956,.F.);
#956 = EDGE_CURVE('',#957,#949,#959,.T.);
#957 = VERTEX_POINT('',#958);
#958 = CARTESIAN_POINT('',(9.,29.259807621128,2.));
#959 = LINE('',#960,#961);
#960 = CARTESIAN_POINT('',(9.,29.259807621128,10.));
#961 = VECTOR('',#962,1.);
#962 = DIRECTION('',(0.,0.,1.));
#963 = ORIENTED_EDGE('',*,*,#964,.F.);
#964 = EDGE_CURVE('',#965,#957,#967,.T.);
#965 = VERTEX_POINT('',#966);
#966 = CARTESIAN_POINT('',(9.15,28.999999999992,2.));
#967 = LINE('',#968,#969);
#968 = CARTESIAN_POINT('',(15.354211504066,18.253990454039,2.));
#969 = VECTOR('',#970,1.);
#970 = DIRECTION('',(-0.5,0.866025403785,0.));
#971 = ORIENTED_EDGE('',*,*,#972,.F.);
#972 = EDGE_CURVE('',#269,#965,#973,.T.);
#973 = LINE('',#974,#975);
#974 = CARTESIAN_POINT('',(9.15,28.999999999992,0.));
#975 = VECTOR('',#976,1.);
#976 = DIRECTION('',(0.,0.,1.));
#977 = PLANE('',#978);
#978 = AXIS2_PLACEMENT_3D('',#979,#980,#981);
#979 = CARTESIAN_POINT('',(8.074999999994,30.86195461814,0.));
#980 = DIRECTION('',(0.866025403785,0.5,0.));
#981 = DIRECTION('',(0.5,-0.866025403785,0.));
#982 = ADVANCED_FACE('',(#983),#1001,.F.);
#983 = FACE_BOUND('',#984,.F.);
#984 = EDGE_LOOP('',(#985,#993,#999,#1000));
#985 = ORIENTED_EDGE('',*,*,#986,.T.);
#986 = EDGE_CURVE('',#301,#987,#989,.T.);
#987 = VERTEX_POINT('',#988);
#988 = CARTESIAN_POINT('',(5.924999999994,30.861954618133,17.));
#989 = LINE('',#990,#991);
#990 = CARTESIAN_POINT('',(5.924999999994,30.861954618133,0.));
#991 = VECTOR('',#992,1.);
#992 = DIRECTION('',(0.,0.,1.));
#993 = ORIENTED_EDGE('',*,*,#994,.T.);
#994 = EDGE_CURVE('',#987,#941,#995,.T.);
#995 = LINE('',#996,#997);
#996 = CARTESIAN_POINT('',(5.924999999994,30.861954618133,17.));
#997 = VECTOR('',#998,1.);
#998 = DIRECTION('',(1.,3.25362E-12,0.));
#999 = ORIENTED_EDGE('',*,*,#940,.F.);
#1000 = ORIENTED_EDGE('',*,*,#308,.F.);
#1001 = PLANE('',#1002);
#1002 = AXIS2_PLACEMENT_3D('',#1003,#1004,#1005);
#1003 = CARTESIAN_POINT('',(5.924999999994,30.861954618133,0.));
#1004 = DIRECTION('',(-3.25362E-12,1.,0.));
#1005 = DIRECTION('',(1.,3.25362E-12,0.));
#1006 = ADVANCED_FACE('',(#1007),#1025,.F.);
#1007 = FACE_BOUND('',#1008,.F.);
#1008 = EDGE_LOOP('',(#1009,#1017,#1023,#1024));
#1009 = ORIENTED_EDGE('',*,*,#1010,.T.);
#1010 = EDGE_CURVE('',#293,#1011,#1013,.T.);
#1011 = VERTEX_POINT('',#1012);
#1012 = CARTESIAN_POINT('',(4.85,28.999999999992,17.));
#1013 = LINE('',#1014,#1015);
#1014 = CARTESIAN_POINT('',(4.85,28.999999999992,0.));
#1015 = VECTOR('',#1016,1.);
#1016 = DIRECTION('',(0.,0.,1.));
#1017 = ORIENTED_EDGE('',*,*,#1018,.T.);
#1018 = EDGE_CURVE('',#1011,#987,#1019,.T.);
#1019 = LINE('',#1020,#1021);
#1020 = CARTESIAN_POINT('',(4.85,28.999999999992,17.));
#1021 = VECTOR('',#1022,1.);
#1022 = DIRECTION('',(0.499999999997,0.866025403786,0.));
#1023 = ORIENTED_EDGE('',*,*,#986,.F.);
#1024 = ORIENTED_EDGE('',*,*,#300,.F.);
#1025 = PLANE('',#1026);
#1026 = AXIS2_PLACEMENT_3D('',#1027,#1028,#1029);
#1027 = CARTESIAN_POINT('',(4.85,28.999999999992,0.));
#1028 = DIRECTION('',(-0.866025403786,0.499999999997,0.));
#1029 = DIRECTION('',(0.499999999997,0.866025403786,0.));
#1030 = ADVANCED_FACE('',(#1031),#1049,.F.);
#1031 = FACE_BOUND('',#1032,.F.);
#1032 = EDGE_LOOP('',(#1033,#1041,#1047,#1048));
#1033 = ORIENTED_EDGE('',*,*,#1034,.T.);
#1034 = EDGE_CURVE('',#285,#1035,#1037,.T.);
#1035 = VERTEX_POINT('',#1036);
#1036 = CARTESIAN_POINT('',(5.925000000007,27.138045381859,17.));
#1037 = LINE('',#1038,#1039);
#1038 = CARTESIAN_POINT('',(5.925000000007,27.138045381859,0.));
#1039 = VECTOR('',#1040,1.);
#1040 = DIRECTION('',(0.,0.,1.));
#1041 = ORIENTED_EDGE('',*,*,#1042,.T.);
#1042 = EDGE_CURVE('',#1035,#1011,#1043,.T.);
#1043 = LINE('',#1044,#1045);
#1044 = CARTESIAN_POINT('',(5.925000000007,27.138045381859,17.));
#1045 = VECTOR('',#1046,1.);
#1046 = DIRECTION('',(-0.500000000003,0.866025403783,-0.));
#1047 = ORIENTED_EDGE('',*,*,#1010,.F.);
#1048 = ORIENTED_EDGE('',*,*,#292,.F.);
#1049 = PLANE('',#1050);
#1050 = AXIS2_PLACEMENT_3D('',#1051,#1052,#1053);
#1051 = CARTESIAN_POINT('',(5.925000000007,27.138045381859,0.));
#1052 = DIRECTION('',(-0.866025403783,-0.500000000003,0.));
#1053 = DIRECTION('',(-0.500000000003,0.866025403783,0.));
#1054 = ADVANCED_FACE('',(#1055),#1073,.F.);
#1055 = FACE_BOUND('',#1056,.F.);
#1056 = EDGE_LOOP('',(#1057,#1065,#1071,#1072));
#1057 = ORIENTED_EDGE('',*,*,#1058,.T.);
#1058 = EDGE_CURVE('',#277,#1059,#1061,.T.);
#1059 = VERTEX_POINT('',#1060);
#1060 = CARTESIAN_POINT('',(8.074999999993,27.138045381859,17.));
#1061 = LINE('',#1062,#1063);
#1062 = CARTESIAN_POINT('',(8.074999999993,27.138045381859,0.));
#1063 = VECTOR('',#1064,1.);
#1064 = DIRECTION('',(0.,0.,1.));
#1065 = ORIENTED_EDGE('',*,*,#1066,.T.);
#1066 = EDGE_CURVE('',#1059,#1035,#1067,.T.);
#1067 = LINE('',#1068,#1069);
#1068 = CARTESIAN_POINT('',(8.074999999993,27.138045381859,17.));
#1069 = VECTOR('',#1070,1.);
#1070 = DIRECTION('',(-1.,0.,0.));
#1071 = ORIENTED_EDGE('',*,*,#1034,.F.);
#1072 = ORIENTED_EDGE('',*,*,#284,.F.);
#1073 = PLANE('',#1074);
#1074 = AXIS2_PLACEMENT_3D('',#1075,#1076,#1077);
#1075 = CARTESIAN_POINT('',(8.074999999993,27.138045381859,0.));
#1076 = DIRECTION('',(0.,-1.,0.));
#1077 = DIRECTION('',(-1.,0.,0.));
#1078 = ADVANCED_FACE('',(#1079),#1106,.F.);
#1079 = FACE_BOUND('',#1080,.F.);
#1080 = EDGE_LOOP('',(#1081,#1082,#1083,#1091,#1099,#1105));
#1081 = ORIENTED_EDGE('',*,*,#276,.F.);
#1082 = ORIENTED_EDGE('',*,*,#972,.T.);
#1083 = ORIENTED_EDGE('',*,*,#1084,.F.);
#1084 = EDGE_CURVE('',#1085,#965,#1087,.T.);
#1085 = VERTEX_POINT('',#1086);
#1086 = CARTESIAN_POINT('',(9.,28.740192378859,2.));
#1087 = LINE('',#1088,#1089);
#1088 = CARTESIAN_POINT('',(11.128486111968,32.42683846796,2.));
#1089 = VECTOR('',#1090,1.);
#1090 = DIRECTION('',(0.500000000003,0.866025403783,0.));
#1091 = ORIENTED_EDGE('',*,*,#1092,.F.);
#1092 = EDGE_CURVE('',#1093,#1085,#1095,.T.);
#1093 = VERTEX_POINT('',#1094);
#1094 = CARTESIAN_POINT('',(9.,28.740192378859,17.));
#1095 = LINE('',#1096,#1097);
#1096 = CARTESIAN_POINT('',(9.,28.740192378859,10.));
#1097 = VECTOR('',#1098,1.);
#1098 = DIRECTION('',(0.,0.,-1.));
#1099 = ORIENTED_EDGE('',*,*,#1100,.T.);
#1100 = EDGE_CURVE('',#1093,#1059,#1101,.T.);
#1101 = LINE('',#1102,#1103);
#1102 = CARTESIAN_POINT('',(9.15,28.999999999992,17.));
#1103 = VECTOR('',#1104,1.);
#1104 = DIRECTION('',(-0.500000000003,-0.866025403783,0.));
#1105 = ORIENTED_EDGE('',*,*,#1058,.F.);
#1106 = PLANE('',#1107);
#1107 = AXIS2_PLACEMENT_3D('',#1108,#1109,#1110);
#1108 = CARTESIAN_POINT('',(9.15,28.999999999992,0.));
#1109 = DIRECTION('',(0.866025403783,-0.500000000003,0.));
#1110 = DIRECTION('',(-0.500000000003,-0.866025403783,0.));
#1111 = ADVANCED_FACE('',(#1112),#1137,.F.);
#1112 = FACE_BOUND('',#1113,.F.);
#1113 = EDGE_LOOP('',(#1114,#1122,#1130,#1136));
#1114 = ORIENTED_EDGE('',*,*,#1115,.T.);
#1115 = EDGE_CURVE('',#317,#1116,#1118,.T.);
#1116 = VERTEX_POINT('',#1117);
#1117 = CARTESIAN_POINT('',(82.724999999994,31.51195461814,17.));
#1118 = LINE('',#1119,#1120);
#1119 = CARTESIAN_POINT('',(82.724999999994,31.51195461814,0.));
#1120 = VECTOR('',#1121,1.);
#1121 = DIRECTION('',(0.,0.,1.));
#1122 = ORIENTED_EDGE('',*,*,#1123,.T.);
#1123 = EDGE_CURVE('',#1116,#1124,#1126,.T.);
#1124 = VERTEX_POINT('',#1125);
#1125 = CARTESIAN_POINT('',(83.8,29.649999999992,17.));
#1126 = LINE('',#1127,#1128);
#1127 = CARTESIAN_POINT('',(82.724999999994,31.51195461814,17.));
#1128 = VECTOR('',#1129,1.);
#1129 = DIRECTION('',(0.5,-0.866025403785,0.));
#1130 = ORIENTED_EDGE('',*,*,#1131,.F.);
#1131 = EDGE_CURVE('',#319,#1124,#1132,.T.);
#1132 = LINE('',#1133,#1134);
#1133 = CARTESIAN_POINT('',(83.8,29.649999999992,0.));
#1134 = VECTOR('',#1135,1.);
#1135 = DIRECTION('',(0.,0.,1.));
#1136 = ORIENTED_EDGE('',*,*,#316,.F.);
#1137 = PLANE('',#1138);
#1138 = AXIS2_PLACEMENT_3D('',#1139,#1140,#1141);
#1139 = CARTESIAN_POINT('',(82.724999999994,31.51195461814,0.));
#1140 = DIRECTION('',(0.866025403785,0.5,0.));
#1141 = DIRECTION('',(0.5,-0.866025403785,0.));
#1142 = ADVANCED_FACE('',(#1143),#1161,.F.);
#1143 = FACE_BOUND('',#1144,.F.);
#1144 = EDGE_LOOP('',(#1145,#1153,#1159,#1160));
#1145 = ORIENTED_EDGE('',*,*,#1146,.T.);
#1146 = EDGE_CURVE('',#351,#1147,#1149,.T.);
#1147 = VERTEX_POINT('',#1148);
#1148 = CARTESIAN_POINT('',(80.574999999994,31.511954618133,17.));
#1149 = LINE('',#1150,#1151);
#1150 = CARTESIAN_POINT('',(80.574999999994,31.511954618133,0.));
#1151 = VECTOR('',#1152,1.);
#1152 = DIRECTION('',(0.,0.,1.));
#1153 = ORIENTED_EDGE('',*,*,#1154,.T.);
#1154 = EDGE_CURVE('',#1147,#1116,#1155,.T.);
#1155 = LINE('',#1156,#1157);
#1156 = CARTESIAN_POINT('',(80.574999999994,31.511954618133,17.));
#1157 = VECTOR('',#1158,1.);
#1158 = DIRECTION('',(1.,3.25362E-12,0.));
#1159 = ORIENTED_EDGE('',*,*,#1115,.F.);
#1160 = ORIENTED_EDGE('',*,*,#358,.F.);
#1161 = PLANE('',#1162);
#1162 = AXIS2_PLACEMENT_3D('',#1163,#1164,#1165);
#1163 = CARTESIAN_POINT('',(80.574999999994,31.511954618133,0.));
#1164 = DIRECTION('',(-3.25362E-12,1.,0.));
#1165 = DIRECTION('',(1.,3.25362E-12,0.));
#1166 = ADVANCED_FACE('',(#1167),#1185,.F.);
#1167 = FACE_BOUND('',#1168,.F.);
#1168 = EDGE_LOOP('',(#1169,#1177,#1183,#1184));
#1169 = ORIENTED_EDGE('',*,*,#1170,.T.);
#1170 = EDGE_CURVE('',#343,#1171,#1173,.T.);
#1171 = VERTEX_POINT('',#1172);
#1172 = CARTESIAN_POINT('',(79.5,29.649999999992,17.));
#1173 = LINE('',#1174,#1175);
#1174 = CARTESIAN_POINT('',(79.5,29.649999999992,0.));
#1175 = VECTOR('',#1176,1.);
#1176 = DIRECTION('',(0.,0.,1.));
#1177 = ORIENTED_EDGE('',*,*,#1178,.T.);
#1178 = EDGE_CURVE('',#1171,#1147,#1179,.T.);
#1179 = LINE('',#1180,#1181);
#1180 = CARTESIAN_POINT('',(79.5,29.649999999992,17.));
#1181 = VECTOR('',#1182,1.);
#1182 = DIRECTION('',(0.499999999997,0.866025403786,0.));
#1183 = ORIENTED_EDGE('',*,*,#1146,.F.);
#1184 = ORIENTED_EDGE('',*,*,#350,.F.);
#1185 = PLANE('',#1186);
#1186 = AXIS2_PLACEMENT_3D('',#1187,#1188,#1189);
#1187 = CARTESIAN_POINT('',(79.5,29.649999999992,0.));
#1188 = DIRECTION('',(-0.866025403786,0.499999999997,0.));
#1189 = DIRECTION('',(0.499999999997,0.866025403786,0.));
#1190 = ADVANCED_FACE('',(#1191),#1209,.F.);
#1191 = FACE_BOUND('',#1192,.F.);
#1192 = EDGE_LOOP('',(#1193,#1201,#1207,#1208));
#1193 = ORIENTED_EDGE('',*,*,#1194,.T.);
#1194 = EDGE_CURVE('',#335,#1195,#1197,.T.);
#1195 = VERTEX_POINT('',#1196);
#1196 = CARTESIAN_POINT('',(80.575000000007,27.788045381859,17.));
#1197 = LINE('',#1198,#1199);
#1198 = CARTESIAN_POINT('',(80.575000000007,27.788045381859,0.));
#1199 = VECTOR('',#1200,1.);
#1200 = DIRECTION('',(0.,0.,1.));
#1201 = ORIENTED_EDGE('',*,*,#1202,.T.);
#1202 = EDGE_CURVE('',#1195,#1171,#1203,.T.);
#1203 = LINE('',#1204,#1205);
#1204 = CARTESIAN_POINT('',(80.575000000007,27.788045381859,17.));
#1205 = VECTOR('',#1206,1.);
#1206 = DIRECTION('',(-0.500000000003,0.866025403783,-0.));
#1207 = ORIENTED_EDGE('',*,*,#1170,.F.);
#1208 = ORIENTED_EDGE('',*,*,#342,.F.);
#1209 = PLANE('',#1210);
#1210 = AXIS2_PLACEMENT_3D('',#1211,#1212,#1213);
#1211 = CARTESIAN_POINT('',(80.575000000007,27.788045381859,0.));
#1212 = DIRECTION('',(-0.866025403783,-0.500000000003,0.));
#1213 = DIRECTION('',(-0.500000000003,0.866025403783,0.));
#1214 = ADVANCED_FACE('',(#1215),#1233,.F.);
#1215 = FACE_BOUND('',#1216,.F.);
#1216 = EDGE_LOOP('',(#1217,#1225,#1231,#1232));
#1217 = ORIENTED_EDGE('',*,*,#1218,.T.);
#1218 = EDGE_CURVE('',#327,#1219,#1221,.T.);
#1219 = VERTEX_POINT('',#1220);
#1220 = CARTESIAN_POINT('',(82.724999999993,27.788045381859,17.));
#1221 = LINE('',#1222,#1223);
#1222 = CARTESIAN_POINT('',(82.724999999993,27.788045381859,0.));
#1223 = VECTOR('',#1224,1.);
#1224 = DIRECTION('',(0.,0.,1.));
#1225 = ORIENTED_EDGE('',*,*,#1226,.T.);
#1226 = EDGE_CURVE('',#1219,#1195,#1227,.T.);
#1227 = LINE('',#1228,#1229);
#1228 = CARTESIAN_POINT('',(82.724999999993,27.788045381859,17.));
#1229 = VECTOR('',#1230,1.);
#1230 = DIRECTION('',(-1.,0.,0.));
#1231 = ORIENTED_EDGE('',*,*,#1194,.F.);
#1232 = ORIENTED_EDGE('',*,*,#334,.F.);
#1233 = PLANE('',#1234);
#1234 = AXIS2_PLACEMENT_3D('',#1235,#1236,#1237);
#1235 = CARTESIAN_POINT('',(82.724999999993,27.788045381859,0.));
#1236 = DIRECTION('',(0.,-1.,0.));
#1237 = DIRECTION('',(-1.,0.,0.));
#1238 = ADVANCED_FACE('',(#1239),#1250,.F.);
#1239 = FACE_BOUND('',#1240,.F.);
#1240 = EDGE_LOOP('',(#1241,#1242,#1248,#1249));
#1241 = ORIENTED_EDGE('',*,*,#1131,.T.);
#1242 = ORIENTED_EDGE('',*,*,#1243,.T.);
#1243 = EDGE_CURVE('',#1124,#1219,#1244,.T.);
#1244 = LINE('',#1245,#1246);
#1245 = CARTESIAN_POINT('',(83.8,29.649999999992,17.));
#1246 = VECTOR('',#1247,1.);
#1247 = DIRECTION('',(-0.500000000003,-0.866025403783,0.));
#1248 = ORIENTED_EDGE('',*,*,#1218,.F.);
#1249 = ORIENTED_EDGE('',*,*,#326,.F.);
#1250 = PLANE('',#1251);
#1251 = AXIS2_PLACEMENT_3D('',#1252,#1253,#1254);
#1252 = CARTESIAN_POINT('',(83.8,29.649999999992,0.));
#1253 = DIRECTION('',(0.866025403783,-0.500000000003,0.));
#1254 = DIRECTION('',(-0.500000000003,-0.866025403783,0.));
#1255 = ADVANCED_FACE('',(#1256),#1267,.T.);
#1256 = FACE_BOUND('',#1257,.T.);
#1257 = EDGE_LOOP('',(#1258,#1264,#1265,#1266));
#1258 = ORIENTED_EDGE('',*,*,#1259,.T.);
#1259 = EDGE_CURVE('',#415,#469,#1260,.T.);
#1260 = LINE('',#1261,#1262);
#1261 = CARTESIAN_POINT('',(1.333333333333,1.333333333333,20.));
#1262 = VECTOR('',#1263,1.);
#1263 = DIRECTION('',(-0.,-0.,-1.));
#1264 = ORIENTED_EDGE('',*,*,#510,.T.);
#1265 = ORIENTED_EDGE('',*,*,#453,.F.);
#1266 = ORIENTED_EDGE('',*,*,#422,.F.);
#1267 = PLANE('',#1268);
#1268 = AXIS2_PLACEMENT_3D('',#1269,#1270,#1271);
#1269 = CARTESIAN_POINT('',(1.333333333333,1.333333333333,20.));
#1270 = DIRECTION('',(1.,0.,0.));
#1271 = DIRECTION('',(0.,1.,0.));
#1272 = ADVANCED_FACE('',(#1273),#1284,.F.);
#1273 = FACE_BOUND('',#1274,.F.);
#1274 = EDGE_LOOP('',(#1275,#1276,#1277,#1283));
#1275 = ORIENTED_EDGE('',*,*,#1259,.T.);
#1276 = ORIENTED_EDGE('',*,*,#468,.T.);
#1277 = ORIENTED_EDGE('',*,*,#1278,.F.);
#1278 = EDGE_CURVE('',#407,#471,#1279,.T.);
#1279 = LINE('',#1280,#1281);
#1280 = CARTESIAN_POINT('',(86.666666666667,1.333333333333,20.));
#1281 = VECTOR('',#1282,1.);
#1282 = DIRECTION('',(-0.,-0.,-1.));
#1283 = ORIENTED_EDGE('',*,*,#414,.F.);
#1284 = PLANE('',#1285);
#1285 = AXIS2_PLACEMENT_3D('',#1286,#1287,#1288);
#1286 = CARTESIAN_POINT('',(1.333333333333,1.333333333333,20.));
#1287 = DIRECTION('',(0.,-1.,0.));
#1288 = DIRECTION('',(1.,0.,0.));
#1289 = ADVANCED_FACE('',(#1290),#1301,.F.);
#1290 = FACE_BOUND('',#1291,.F.);
#1291 = EDGE_LOOP('',(#1292,#1293,#1294,#1300));
#1292 = ORIENTED_EDGE('',*,*,#1278,.T.);
#1293 = ORIENTED_EDGE('',*,*,#478,.T.);
#1294 = ORIENTED_EDGE('',*,*,#1295,.F.);
#1295 = EDGE_CURVE('',#399,#479,#1296,.T.);
#1296 = LINE('',#1297,#1298);
#1297 = CARTESIAN_POINT('',(86.666666666667,34.666666666667,20.));
#1298 = VECTOR('',#1299,1.);
#1299 = DIRECTION('',(-0.,-0.,-1.));
#1300 = ORIENTED_EDGE('',*,*,#406,.F.);
#1301 = PLANE('',#1302);
#1302 = AXIS2_PLACEMENT_3D('',#1303,#1304,#1305);
#1303 = CARTESIAN_POINT('',(86.666666666667,1.333333333333,20.));
#1304 = DIRECTION('',(1.,0.,0.));
#1305 = DIRECTION('',(0.,1.,0.));
#1306 = ADVANCED_FACE('',(#1307),#1318,.F.);
#1307 = FACE_BOUND('',#1308,.F.);
#1308 = EDGE_LOOP('',(#1309,#1310,#1311,#1317));
#1309 = ORIENTED_EDGE('',*,*,#1295,.T.);
#1310 = ORIENTED_EDGE('',*,*,#486,.T.);
#1311 = ORIENTED_EDGE('',*,*,#1312,.F.);
#1312 = EDGE_CURVE('',#391,#487,#1313,.T.);
#1313 = LINE('',#1314,#1315);
#1314 = CARTESIAN_POINT('',(1.333333333333,34.666666666667,20.));
#1315 = VECTOR('',#1316,1.);
#1316 = DIRECTION('',(-0.,-0.,-1.));
#1317 = ORIENTED_EDGE('',*,*,#398,.F.);
#1318 = PLANE('',#1319);
#1319 = AXIS2_PLACEMENT_3D('',#1320,#1321,#1322);
#1320 = CARTESIAN_POINT('',(86.666666666667,34.666666666667,20.));
#1321 = DIRECTION('',(0.,1.,0.));
#1322 = DIRECTION('',(-1.,0.,0.));
#1323 = ADVANCED_FACE('',(#1324),#1330,.F.);
#1324 = FACE_BOUND('',#1325,.F.);
#1325 = EDGE_LOOP('',(#1326,#1327,#1328,#1329));
#1326 = ORIENTED_EDGE('',*,*,#1312,.T.);
#1327 = ORIENTED_EDGE('',*,*,#494,.T.);
#1328 = ORIENTED_EDGE('',*,*,#590,.F.);
#1329 = ORIENTED_EDGE('',*,*,#390,.F.);
#1330 = PLANE('',#1331);
#1331 = AXIS2_PLACEMENT_3D('',#1332,#1333,#1334);
#1332 = CARTESIAN_POINT('',(1.333333333333,34.666666666667,20.));
#1333 = DIRECTION('',(-1.,0.,0.));
#1334 = DIRECTION('',(0.,-1.,0.));
#1335 = ADVANCED_FACE('',(#1336),#1361,.T.);
#1336 = FACE_BOUND('',#1337,.T.);
#1337 = EDGE_LOOP('',(#1338,#1346,#1347,#1355));
#1338 = ORIENTED_EDGE('',*,*,#1339,.T.);
#1339 = EDGE_CURVE('',#1340,#519,#1342,.T.);
#1340 = VERTEX_POINT('',#1341);
#1341 = CARTESIAN_POINT('',(2.666666666667,2.666666666667,20.));
#1342 = LINE('',#1343,#1344);
#1343 = CARTESIAN_POINT('',(2.666666666667,2.666666666667,20.));
#1344 = VECTOR('',#1345,1.);
#1345 = DIRECTION('',(-0.,-0.,-1.));
#1346 = ORIENTED_EDGE('',*,*,#518,.T.);
#1347 = ORIENTED_EDGE('',*,*,#1348,.F.);
#1348 = EDGE_CURVE('',#1349,#521,#1351,.T.);
#1349 = VERTEX_POINT('',#1350);
#1350 = CARTESIAN_POINT('',(85.333333333333,2.666666666667,20.));
#1351 = LINE('',#1352,#1353);
#1352 = CARTESIAN_POINT('',(85.333333333333,2.666666666667,20.));
#1353 = VECTOR('',#1354,1.);
#1354 = DIRECTION('',(-0.,-0.,-1.));
#1355 = ORIENTED_EDGE('',*,*,#1356,.F.);
#1356 = EDGE_CURVE('',#1340,#1349,#1357,.T.);
#1357 = LINE('',#1358,#1359);
#1358 = CARTESIAN_POINT('',(2.666666666667,2.666666666667,20.));
#1359 = VECTOR('',#1360,1.);
#1360 = DIRECTION('',(1.,0.,0.));
#1361 = PLANE('',#1362);
#1362 = AXIS2_PLACEMENT_3D('',#1363,#1364,#1365);
#1363 = CARTESIAN_POINT('',(2.666666666667,2.666666666667,20.));
#1364 = DIRECTION('',(0.,-1.,0.));
#1365 = DIRECTION('',(1.,0.,0.));
#1366 = ADVANCED_FACE('',(#1367),#1385,.T.);
#1367 = FACE_BOUND('',#1368,.T.);
#1368 = EDGE_LOOP('',(#1369,#1370,#1371,#1379));
#1369 = ORIENTED_EDGE('',*,*,#1348,.T.);
#1370 = ORIENTED_EDGE('',*,*,#528,.T.);
#1371 = ORIENTED_EDGE('',*,*,#1372,.F.);
#1372 = EDGE_CURVE('',#1373,#529,#1375,.T.);
#1373 = VERTEX_POINT('',#1374);
#1374 = CARTESIAN_POINT('',(85.333333333333,33.333333333333,20.));
#1375 = LINE('',#1376,#1377);
#1376 = CARTESIAN_POINT('',(85.333333333333,33.333333333333,20.));
#1377 = VECTOR('',#1378,1.);
#1378 = DIRECTION('',(-0.,-0.,-1.));
#1379 = ORIENTED_EDGE('',*,*,#1380,.F.);
#1380 = EDGE_CURVE('',#1349,#1373,#1381,.T.);
#1381 = LINE('',#1382,#1383);
#1382 = CARTESIAN_POINT('',(85.333333333333,2.666666666667,20.));
#1383 = VECTOR('',#1384,1.);
#1384 = DIRECTION('',(0.,1.,0.));
#1385 = PLANE('',#1386);
#1386 = AXIS2_PLACEMENT_3D('',#1387,#1388,#1389);
#1387 = CARTESIAN_POINT('',(85.333333333333,2.666666666667,20.));
#1388 = DIRECTION('',(1.,0.,0.));
#1389 = DIRECTION('',(0.,1.,0.));
#1390 = ADVANCED_FACE('',(#1391),#1409,.T.);
#1391 = FACE_BOUND('',#1392,.T.);
#1392 = EDGE_LOOP('',(#1393,#1394,#1395,#1403));
#1393 = ORIENTED_EDGE('',*,*,#1372,.T.);
#1394 = ORIENTED_EDGE('',*,*,#536,.T.);
#1395 = ORIENTED_EDGE('',*,*,#1396,.F.);
#1396 = EDGE_CURVE('',#1397,#537,#1399,.T.);
#1397 = VERTEX_POINT('',#1398);
#1398 = CARTESIAN_POINT('',(2.666666666667,33.333333333333,20.));
#1399 = LINE('',#1400,#1401);
#1400 = CARTESIAN_POINT('',(2.666666666667,33.333333333333,20.));
#1401 = VECTOR('',#1402,1.);
#1402 = DIRECTION('',(-0.,-0.,-1.));
#1403 = ORIENTED_EDGE('',*,*,#1404,.F.);
#1404 = EDGE_CURVE('',#1373,#1397,#1405,.T.);
#1405 = LINE('',#1406,#1407);
#1406 = CARTESIAN_POINT('',(85.333333333333,33.333333333333,20.));
#1407 = VECTOR('',#1408,1.);
#1408 = DIRECTION('',(-1.,0.,0.));
#1409 = PLANE('',#1410);
#1410 = AXIS2_PLACEMENT_3D('',#1411,#1412,#1413);
#1411 = CARTESIAN_POINT('',(85.333333333333,33.333333333333,20.));
#1412 = DIRECTION('',(0.,1.,0.));
#1413 = DIRECTION('',(-1.,0.,0.));
#1414 = ADVANCED_FACE('',(#1415),#1433,.F.);
#1415 = FACE_BOUND('',#1416,.F.);
#1416 = EDGE_LOOP('',(#1417,#1425,#1426,#1427));
#1417 = ORIENTED_EDGE('',*,*,#1418,.T.);
#1418 = EDGE_CURVE('',#1419,#545,#1421,.T.);
#1419 = VERTEX_POINT('',#1420);
#1420 = CARTESIAN_POINT('',(2.666666666667,23.,20.));
#1421 = LINE('',#1422,#1423);
#1422 = CARTESIAN_POINT('',(2.666666666667,23.,20.));
#1423 = VECTOR('',#1424,1.);
#1424 = DIRECTION('',(-0.,-0.,-1.));
#1425 = ORIENTED_EDGE('',*,*,#544,.T.);
#1426 = ORIENTED_EDGE('',*,*,#1396,.F.);
#1427 = ORIENTED_EDGE('',*,*,#1428,.F.);
#1428 = EDGE_CURVE('',#1419,#1397,#1429,.T.);
#1429 = LINE('',#1430,#1431);
#1430 = CARTESIAN_POINT('',(2.666666666667,23.,20.));
#1431 = VECTOR('',#1432,1.);
#1432 = DIRECTION('',(0.,1.,0.));
#1433 = PLANE('',#1434);
#1434 = AXIS2_PLACEMENT_3D('',#1435,#1436,#1437);
#1435 = CARTESIAN_POINT('',(2.666666666667,23.,20.));
#1436 = DIRECTION('',(1.,0.,0.));
#1437 = DIRECTION('',(0.,1.,0.));
#1438 = ADVANCED_FACE('',(#1439),#1457,.F.);
#1439 = FACE_BOUND('',#1440,.F.);
#1440 = EDGE_LOOP('',(#1441,#1449,#1450,#1451));
#1441 = ORIENTED_EDGE('',*,*,#1442,.T.);
#1442 = EDGE_CURVE('',#1443,#553,#1445,.T.);
#1443 = VERTEX_POINT('',#1444);
#1444 = CARTESIAN_POINT('',(4.,23.,20.));
#1445 = LINE('',#1446,#1447);
#1446 = CARTESIAN_POINT('',(4.,23.,20.));
#1447 = VECTOR('',#1448,1.);
#1448 = DIRECTION('',(-0.,-0.,-1.));
#1449 = ORIENTED_EDGE('',*,*,#552,.T.);
#1450 = ORIENTED_EDGE('',*,*,#1418,.F.);
#1451 = ORIENTED_EDGE('',*,*,#1452,.F.);
#1452 = EDGE_CURVE('',#1443,#1419,#1453,.T.);
#1453 = LINE('',#1454,#1455);
#1454 = CARTESIAN_POINT('',(4.,23.,20.));
#1455 = VECTOR('',#1456,1.);
#1456 = DIRECTION('',(-1.,0.,0.));
#1457 = PLANE('',#1458);
#1458 = AXIS2_PLACEMENT_3D('',#1459,#1460,#1461);
#1459 = CARTESIAN_POINT('',(4.,23.,20.));
#1460 = DIRECTION('',(0.,1.,0.));
#1461 = DIRECTION('',(-1.,0.,0.));
#1462 = ADVANCED_FACE('',(#1463),#1513,.F.);
#1463 = FACE_BOUND('',#1464,.F.);
#1464 = EDGE_LOOP('',(#1465,#1473,#1481,#1489,#1497,#1505,#1511,#1512));
#1465 = ORIENTED_EDGE('',*,*,#1466,.F.);
#1466 = EDGE_CURVE('',#1467,#1443,#1469,.T.);
#1467 = VERTEX_POINT('',#1468);
#1468 = CARTESIAN_POINT('',(4.,27.,20.));
#1469 = LINE('',#1470,#1471);
#1470 = CARTESIAN_POINT('',(4.,27.,20.));
#1471 = VECTOR('',#1472,1.);
#1472 = DIRECTION('',(0.,-1.,0.));
#1473 = ORIENTED_EDGE('',*,*,#1474,.T.);
#1474 = EDGE_CURVE('',#1467,#1475,#1477,.T.);
#1475 = VERTEX_POINT('',#1476);
#1476 = CARTESIAN_POINT('',(4.,27.,2.));
#1477 = LINE('',#1478,#1479);
#1478 = CARTESIAN_POINT('',(4.,27.,20.));
#1479 = VECTOR('',#1480,1.);
#1480 = DIRECTION('',(-0.,-0.,-1.));
#1481 = ORIENTED_EDGE('',*,*,#1482,.T.);
#1482 = EDGE_CURVE('',#1475,#1483,#1485,.T.);
#1483 = VERTEX_POINT('',#1484);
#1484 = CARTESIAN_POINT('',(4.,9.,2.));
#1485 = LINE('',#1486,#1487);
#1486 = CARTESIAN_POINT('',(4.,27.,2.));
#1487 = VECTOR('',#1488,1.);
#1488 = DIRECTION('',(0.,-1.,0.));
#1489 = ORIENTED_EDGE('',*,*,#1490,.F.);
#1490 = EDGE_CURVE('',#1491,#1483,#1493,.T.);
#1491 = VERTEX_POINT('',#1492);
#1492 = CARTESIAN_POINT('',(4.,9.,20.));
#1493 = LINE('',#1494,#1495);
#1494 = CARTESIAN_POINT('',(4.,9.,20.));
#1495 = VECTOR('',#1496,1.);
#1496 = DIRECTION('',(-0.,-0.,-1.));
#1497 = ORIENTED_EDGE('',*,*,#1498,.F.);
#1498 = EDGE_CURVE('',#1499,#1491,#1501,.T.);
#1499 = VERTEX_POINT('',#1500);
#1500 = CARTESIAN_POINT('',(4.,13.,20.));
#1501 = LINE('',#1502,#1503);
#1502 = CARTESIAN_POINT('',(4.,27.,20.));
#1503 = VECTOR('',#1504,1.);
#1504 = DIRECTION('',(0.,-1.,0.));
#1505 = ORIENTED_EDGE('',*,*,#1506,.T.);
#1506 = EDGE_CURVE('',#1499,#561,#1507,.T.);
#1507 = LINE('',#1508,#1509);
#1508 = CARTESIAN_POINT('',(4.,13.,20.));
#1509 = VECTOR('',#1510,1.);
#1510 = DIRECTION('',(-0.,-0.,-1.));
#1511 = ORIENTED_EDGE('',*,*,#560,.T.);
#1512 = ORIENTED_EDGE('',*,*,#1442,.F.);
#1513 = PLANE('',#1514);
#1514 = AXIS2_PLACEMENT_3D('',#1515,#1516,#1517);
#1515 = CARTESIAN_POINT('',(4.,27.,20.));
#1516 = DIRECTION('',(-1.,0.,0.));
#1517 = DIRECTION('',(0.,-1.,0.));
#1518 = ADVANCED_FACE('',(#1519),#1537,.F.);
#1519 = FACE_BOUND('',#1520,.F.);
#1520 = EDGE_LOOP('',(#1521,#1529,#1530,#1531));
#1521 = ORIENTED_EDGE('',*,*,#1522,.T.);
#1522 = EDGE_CURVE('',#1523,#569,#1525,.T.);
#1523 = VERTEX_POINT('',#1524);
#1524 = CARTESIAN_POINT('',(2.666666666667,13.,20.));
#1525 = LINE('',#1526,#1527);
#1526 = CARTESIAN_POINT('',(2.666666666667,13.,20.));
#1527 = VECTOR('',#1528,1.);
#1528 = DIRECTION('',(-0.,-0.,-1.));
#1529 = ORIENTED_EDGE('',*,*,#568,.T.);
#1530 = ORIENTED_EDGE('',*,*,#1506,.F.);
#1531 = ORIENTED_EDGE('',*,*,#1532,.F.);
#1532 = EDGE_CURVE('',#1523,#1499,#1533,.T.);
#1533 = LINE('',#1534,#1535);
#1534 = CARTESIAN_POINT('',(2.666666666667,13.,20.));
#1535 = VECTOR('',#1536,1.);
#1536 = DIRECTION('',(1.,0.,0.));
#1537 = PLANE('',#1538);
#1538 = AXIS2_PLACEMENT_3D('',#1539,#1540,#1541);
#1539 = CARTESIAN_POINT('',(2.666666666667,13.,20.));
#1540 = DIRECTION('',(0.,-1.,0.));
#1541 = DIRECTION('',(1.,0.,0.));
#1542 = ADVANCED_FACE('',(#1543),#1554,.T.);
#1543 = FACE_BOUND('',#1544,.T.);
#1544 = EDGE_LOOP('',(#1545,#1546,#1547,#1548));
#1545 = ORIENTED_EDGE('',*,*,#1522,.T.);
#1546 = ORIENTED_EDGE('',*,*,#576,.T.);
#1547 = ORIENTED_EDGE('',*,*,#1339,.F.);
#1548 = ORIENTED_EDGE('',*,*,#1549,.F.);
#1549 = EDGE_CURVE('',#1523,#1340,#1550,.T.);
#1550 = LINE('',#1551,#1552);
#1551 = CARTESIAN_POINT('',(2.666666666667,13.,20.));
#1552 = VECTOR('',#1553,1.);
#1553 = DIRECTION('',(0.,-1.,0.));
#1554 = PLANE('',#1555);
#1555 = AXIS2_PLACEMENT_3D('',#1556,#1557,#1558);
#1556 = CARTESIAN_POINT('',(2.666666666667,13.,20.));
#1557 = DIRECTION('',(-1.,0.,0.));
#1558 = DIRECTION('',(0.,-1.,0.));
#1559 = ADVANCED_FACE('',(#1560),#1665,.T.);
#1560 = FACE_BOUND('',#1561,.T.);
#1561 = EDGE_LOOP('',(#1562,#1570,#1571,#1579,#1585,#1586,#1587,#1595,
    #1603,#1611,#1619,#1627,#1635,#1643,#1651,#1657,#1658,#1659));
#1562 = ORIENTED_EDGE('',*,*,#1563,.F.);
#1563 = EDGE_CURVE('',#1475,#1564,#1566,.T.);
#1564 = VERTEX_POINT('',#1565);
#1565 = CARTESIAN_POINT('',(9.,27.,2.));
#1566 = LINE('',#1567,#1568);
#1567 = CARTESIAN_POINT('',(4.,27.,2.));
#1568 = VECTOR('',#1569,1.);
#1569 = DIRECTION('',(1.,0.,0.));
#1570 = ORIENTED_EDGE('',*,*,#1482,.T.);
#1571 = ORIENTED_EDGE('',*,*,#1572,.T.);
#1572 = EDGE_CURVE('',#1483,#1573,#1575,.T.);
#1573 = VERTEX_POINT('',#1574);
#1574 = CARTESIAN_POINT('',(9.,9.,2.));
#1575 = LINE('',#1576,#1577);
#1576 = CARTESIAN_POINT('',(4.,9.,2.));
#1577 = VECTOR('',#1578,1.);
#1578 = DIRECTION('',(1.,0.,0.));
#1579 = ORIENTED_EDGE('',*,*,#1580,.T.);
#1580 = EDGE_CURVE('',#1573,#637,#1581,.T.);
#1581 = LINE('',#1582,#1583);
#1582 = CARTESIAN_POINT('',(9.,9.,2.));
#1583 = VECTOR('',#1584,1.);
#1584 = DIRECTION('',(0.,-1.,0.));
#1585 = ORIENTED_EDGE('',*,*,#644,.F.);
#1586 = ORIENTED_EDGE('',*,*,#764,.F.);
#1587 = ORIENTED_EDGE('',*,*,#1588,.T.);
#1588 = EDGE_CURVE('',#765,#1589,#1591,.T.);
#1589 = VERTEX_POINT('',#1590);
#1590 = CARTESIAN_POINT('',(9.,4.,2.));
#1591 = LINE('',#1592,#1593);
#1592 = CARTESIAN_POINT('',(9.,9.,2.));
#1593 = VECTOR('',#1594,1.);
#1594 = DIRECTION('',(0.,-1.,0.));
#1595 = ORIENTED_EDGE('',*,*,#1596,.F.);
#1596 = EDGE_CURVE('',#1597,#1589,#1599,.T.);
#1597 = VERTEX_POINT('',#1598);
#1598 = CARTESIAN_POINT('',(78.995278564684,4.,2.));
#1599 = LINE('',#1600,#1601);
#1600 = CARTESIAN_POINT('',(78.995278564684,4.,2.));
#1601 = VECTOR('',#1602,1.);
#1602 = DIRECTION('',(-1.,0.,0.));
#1603 = ORIENTED_EDGE('',*,*,#1604,.T.);
#1604 = EDGE_CURVE('',#1597,#1605,#1607,.T.);
#1605 = VERTEX_POINT('',#1606);
#1606 = CARTESIAN_POINT('',(78.995278564684,8.995278564684,2.));
#1607 = LINE('',#1608,#1609);
#1608 = CARTESIAN_POINT('',(78.995278564684,4.,2.));
#1609 = VECTOR('',#1610,1.);
#1610 = DIRECTION('',(0.,1.,0.));
#1611 = ORIENTED_EDGE('',*,*,#1612,.T.);
#1612 = EDGE_CURVE('',#1605,#1613,#1615,.T.);
#1613 = VERTEX_POINT('',#1614);
#1614 = CARTESIAN_POINT('',(84.,8.995278564684,2.));
#1615 = LINE('',#1616,#1617);
#1616 = CARTESIAN_POINT('',(78.995278564684,8.995278564684,2.));
#1617 = VECTOR('',#1618,1.);
#1618 = DIRECTION('',(1.,0.,0.));
#1619 = ORIENTED_EDGE('',*,*,#1620,.F.);
#1620 = EDGE_CURVE('',#1621,#1613,#1623,.T.);
#1621 = VERTEX_POINT('',#1622);
#1622 = CARTESIAN_POINT('',(84.,26.995278564684,2.));
#1623 = LINE('',#1624,#1625);
#1624 = CARTESIAN_POINT('',(84.,26.995278564684,2.));
#1625 = VECTOR('',#1626,1.);
#1626 = DIRECTION('',(0.,-1.,0.));
#1627 = ORIENTED_EDGE('',*,*,#1628,.F.);
#1628 = EDGE_CURVE('',#1629,#1621,#1631,.T.);
#1629 = VERTEX_POINT('',#1630);
#1630 = CARTESIAN_POINT('',(78.995278564684,26.995278564684,2.));
#1631 = LINE('',#1632,#1633);
#1632 = CARTESIAN_POINT('',(78.995278564684,26.995278564684,2.));
#1633 = VECTOR('',#1634,1.);
#1634 = DIRECTION('',(1.,0.,0.));
#1635 = ORIENTED_EDGE('',*,*,#1636,.F.);
#1636 = EDGE_CURVE('',#1637,#1629,#1639,.T.);
#1637 = VERTEX_POINT('',#1638);
#1638 = CARTESIAN_POINT('',(78.995278564684,32.,2.));
#1639 = LINE('',#1640,#1641);
#1640 = CARTESIAN_POINT('',(78.995278564684,32.,2.));
#1641 = VECTOR('',#1642,1.);
#1642 = DIRECTION('',(0.,-1.,0.));
#1643 = ORIENTED_EDGE('',*,*,#1644,.F.);
#1644 = EDGE_CURVE('',#1645,#1637,#1647,.T.);
#1645 = VERTEX_POINT('',#1646);
#1646 = CARTESIAN_POINT('',(9.,32.,2.));
#1647 = LINE('',#1648,#1649);
#1648 = CARTESIAN_POINT('',(9.,32.,2.));
#1649 = VECTOR('',#1650,1.);
#1650 = DIRECTION('',(1.,0.,0.));
#1651 = ORIENTED_EDGE('',*,*,#1652,.F.);
#1652 = EDGE_CURVE('',#957,#1645,#1653,.T.);
#1653 = LINE('',#1654,#1655);
#1654 = CARTESIAN_POINT('',(9.,27.,2.));
#1655 = VECTOR('',#1656,1.);
#1656 = DIRECTION('',(0.,1.,0.));
#1657 = ORIENTED_EDGE('',*,*,#964,.F.);
#1658 = ORIENTED_EDGE('',*,*,#1084,.F.);
#1659 = ORIENTED_EDGE('',*,*,#1660,.F.);
#1660 = EDGE_CURVE('',#1564,#1085,#1661,.T.);
#1661 = LINE('',#1662,#1663);
#1662 = CARTESIAN_POINT('',(9.,27.,2.));
#1663 = VECTOR('',#1664,1.);
#1664 = DIRECTION('',(0.,1.,0.));
#1665 = PLANE('',#1666);
#1666 = AXIS2_PLACEMENT_3D('',#1667,#1668,#1669);
#1667 = CARTESIAN_POINT('',(44.030790463979,17.999802150509,2.));
#1668 = DIRECTION('',(0.,0.,1.));
#1669 = DIRECTION('',(1.,0.,0.));
#1670 = ADVANCED_FACE('',(#1671),#1705,.F.);
#1671 = FACE_BOUND('',#1672,.F.);
#1672 = EDGE_LOOP('',(#1673,#1683,#1689,#1690,#1691,#1697,#1698,#1699));
#1673 = ORIENTED_EDGE('',*,*,#1674,.F.);
#1674 = EDGE_CURVE('',#1675,#1677,#1679,.T.);
#1675 = VERTEX_POINT('',#1676);
#1676 = CARTESIAN_POINT('',(9.,9.,20.));
#1677 = VERTEX_POINT('',#1678);
#1678 = CARTESIAN_POINT('',(9.,4.,20.));
#1679 = LINE('',#1680,#1681);
#1680 = CARTESIAN_POINT('',(9.,9.,20.));
#1681 = VECTOR('',#1682,1.);
#1682 = DIRECTION('',(0.,-1.,0.));
#1683 = ORIENTED_EDGE('',*,*,#1684,.T.);
#1684 = EDGE_CURVE('',#1675,#1573,#1685,.T.);
#1685 = LINE('',#1686,#1687);
#1686 = CARTESIAN_POINT('',(9.,9.,20.));
#1687 = VECTOR('',#1688,1.);
#1688 = DIRECTION('',(-0.,-0.,-1.));
#1689 = ORIENTED_EDGE('',*,*,#1580,.T.);
#1690 = ORIENTED_EDGE('',*,*,#636,.F.);
#1691 = ORIENTED_EDGE('',*,*,#1692,.F.);
#1692 = EDGE_CURVE('',#773,#629,#1693,.T.);
#1693 = LINE('',#1694,#1695);
#1694 = CARTESIAN_POINT('',(9.,13.499999999999,17.));
#1695 = VECTOR('',#1696,1.);
#1696 = DIRECTION('',(0.,1.,0.));
#1697 = ORIENTED_EDGE('',*,*,#772,.F.);
#1698 = ORIENTED_EDGE('',*,*,#1588,.T.);
#1699 = ORIENTED_EDGE('',*,*,#1700,.F.);
#1700 = EDGE_CURVE('',#1677,#1589,#1701,.T.);
#1701 = LINE('',#1702,#1703);
#1702 = CARTESIAN_POINT('',(9.,4.,20.));
#1703 = VECTOR('',#1704,1.);
#1704 = DIRECTION('',(-0.,-0.,-1.));
#1705 = PLANE('',#1706);
#1706 = AXIS2_PLACEMENT_3D('',#1707,#1708,#1709);
#1707 = CARTESIAN_POINT('',(9.,9.,20.));
#1708 = DIRECTION('',(-1.,0.,0.));
#1709 = DIRECTION('',(0.,-1.,0.));
#1710 = ADVANCED_FACE('',(#1711,#1720),#1731,.F.);
#1711 = FACE_BOUND('',#1712,.F.);
#1712 = EDGE_LOOP('',(#1713,#1714,#1715,#1716,#1717,#1718,#1719));
#1713 = ORIENTED_EDGE('',*,*,#780,.F.);
#1714 = ORIENTED_EDGE('',*,*,#1692,.T.);
#1715 = ORIENTED_EDGE('',*,*,#628,.F.);
#1716 = ORIENTED_EDGE('',*,*,#674,.F.);
#1717 = ORIENTED_EDGE('',*,*,#698,.F.);
#1718 = ORIENTED_EDGE('',*,*,#722,.F.);
#1719 = ORIENTED_EDGE('',*,*,#746,.F.);
#1720 = FACE_BOUND('',#1721,.F.);
#1721 = EDGE_LOOP('',(#1722));
#1722 = ORIENTED_EDGE('',*,*,#1723,.F.);
#1723 = EDGE_CURVE('',#1724,#1724,#1726,.T.);
#1724 = VERTEX_POINT('',#1725);
#1725 = CARTESIAN_POINT('',(8.1,7.,17.));
#1726 = CIRCLE('',#1727,1.1);
#1727 = AXIS2_PLACEMENT_3D('',#1728,#1729,#1730);
#1728 = CARTESIAN_POINT('',(7.,7.,17.));
#1729 = DIRECTION('',(0.,0.,1.));
#1730 = DIRECTION('',(1.,0.,-0.));
#1731 = PLANE('',#1732);
#1732 = AXIS2_PLACEMENT_3D('',#1733,#1734,#1735);
#1733 = CARTESIAN_POINT('',(44.323749999999,17.999999999999,17.));
#1734 = DIRECTION('',(0.,0.,1.));
#1735 = DIRECTION('',(1.,0.,0.));
#1736 = ADVANCED_FACE('',(#1737,#1745),#1756,.F.);
#1737 = FACE_BOUND('',#1738,.F.);
#1738 = EDGE_LOOP('',(#1739,#1740,#1741,#1742,#1743,#1744));
#1739 = ORIENTED_EDGE('',*,*,#923,.F.);
#1740 = ORIENTED_EDGE('',*,*,#803,.F.);
#1741 = ORIENTED_EDGE('',*,*,#834,.F.);
#1742 = ORIENTED_EDGE('',*,*,#858,.F.);
#1743 = ORIENTED_EDGE('',*,*,#882,.F.);
#1744 = ORIENTED_EDGE('',*,*,#906,.F.);
#1745 = FACE_BOUND('',#1746,.F.);
#1746 = EDGE_LOOP('',(#1747));
#1747 = ORIENTED_EDGE('',*,*,#1748,.F.);
#1748 = EDGE_CURVE('',#1749,#1749,#1751,.T.);
#1749 = VERTEX_POINT('',#1750);
#1750 = CARTESIAN_POINT('',(82.745,6.35,17.));
#1751 = CIRCLE('',#1752,1.1);
#1752 = AXIS2_PLACEMENT_3D('',#1753,#1754,#1755);
#1753 = CARTESIAN_POINT('',(81.645,6.35,17.));
#1754 = DIRECTION('',(0.,0.,1.));
#1755 = DIRECTION('',(1.,0.,-0.));
#1756 = PLANE('',#1757);
#1757 = AXIS2_PLACEMENT_3D('',#1758,#1759,#1760);
#1758 = CARTESIAN_POINT('',(44.323749999999,17.999999999999,17.));
#1759 = DIRECTION('',(0.,0.,1.));
#1760 = DIRECTION('',(1.,0.,0.));
#1761 = ADVANCED_FACE('',(#1762),#1796,.T.);
#1762 = FACE_BOUND('',#1763,.T.);
#1763 = EDGE_LOOP('',(#1764,#1774,#1780,#1781,#1782,#1788,#1789,#1790));
#1764 = ORIENTED_EDGE('',*,*,#1765,.F.);
#1765 = EDGE_CURVE('',#1766,#1768,#1770,.T.);
#1766 = VERTEX_POINT('',#1767);
#1767 = CARTESIAN_POINT('',(9.,27.,20.));
#1768 = VERTEX_POINT('',#1769);
#1769 = CARTESIAN_POINT('',(9.,32.,20.));
#1770 = LINE('',#1771,#1772);
#1771 = CARTESIAN_POINT('',(9.,27.,20.));
#1772 = VECTOR('',#1773,1.);
#1773 = DIRECTION('',(0.,1.,0.));
#1774 = ORIENTED_EDGE('',*,*,#1775,.T.);
#1775 = EDGE_CURVE('',#1766,#1564,#1776,.T.);
#1776 = LINE('',#1777,#1778);
#1777 = CARTESIAN_POINT('',(9.,27.,20.));
#1778 = VECTOR('',#1779,1.);
#1779 = DIRECTION('',(-0.,-0.,-1.));
#1780 = ORIENTED_EDGE('',*,*,#1660,.T.);
#1781 = ORIENTED_EDGE('',*,*,#1092,.F.);
#1782 = ORIENTED_EDGE('',*,*,#1783,.F.);
#1783 = EDGE_CURVE('',#949,#1093,#1784,.T.);
#1784 = LINE('',#1785,#1786);
#1785 = CARTESIAN_POINT('',(9.,22.499999999999,17.));
#1786 = VECTOR('',#1787,1.);
#1787 = DIRECTION('',(0.,-1.,0.));
#1788 = ORIENTED_EDGE('',*,*,#956,.F.);
#1789 = ORIENTED_EDGE('',*,*,#1652,.T.);
#1790 = ORIENTED_EDGE('',*,*,#1791,.F.);
#1791 = EDGE_CURVE('',#1768,#1645,#1792,.T.);
#1792 = LINE('',#1793,#1794);
#1793 = CARTESIAN_POINT('',(9.,32.,20.));
#1794 = VECTOR('',#1795,1.);
#1795 = DIRECTION('',(-0.,-0.,-1.));
#1796 = PLANE('',#1797);
#1797 = AXIS2_PLACEMENT_3D('',#1798,#1799,#1800);
#1798 = CARTESIAN_POINT('',(9.,27.,20.));
#1799 = DIRECTION('',(1.,0.,0.));
#1800 = DIRECTION('',(0.,1.,0.));
#1801 = ADVANCED_FACE('',(#1802,#1811),#1822,.F.);
#1802 = FACE_BOUND('',#1803,.F.);
#1803 = EDGE_LOOP('',(#1804,#1805,#1806,#1807,#1808,#1809,#1810));
#1804 = ORIENTED_EDGE('',*,*,#1100,.F.);
#1805 = ORIENTED_EDGE('',*,*,#1783,.F.);
#1806 = ORIENTED_EDGE('',*,*,#948,.F.);
#1807 = ORIENTED_EDGE('',*,*,#994,.F.);
#1808 = ORIENTED_EDGE('',*,*,#1018,.F.);
#1809 = ORIENTED_EDGE('',*,*,#1042,.F.);
#1810 = ORIENTED_EDGE('',*,*,#1066,.F.);
#1811 = FACE_BOUND('',#1812,.F.);
#1812 = EDGE_LOOP('',(#1813));
#1813 = ORIENTED_EDGE('',*,*,#1814,.F.);
#1814 = EDGE_CURVE('',#1815,#1815,#1817,.T.);
#1815 = VERTEX_POINT('',#1816);
#1816 = CARTESIAN_POINT('',(8.1,29.,17.));
#1817 = CIRCLE('',#1818,1.1);
#1818 = AXIS2_PLACEMENT_3D('',#1819,#1820,#1821);
#1819 = CARTESIAN_POINT('',(7.,29.,17.));
#1820 = DIRECTION('',(0.,0.,1.));
#1821 = DIRECTION('',(1.,0.,-0.));
#1822 = PLANE('',#1823);
#1823 = AXIS2_PLACEMENT_3D('',#1824,#1825,#1826);
#1824 = CARTESIAN_POINT('',(44.323749999999,17.999999999999,17.));
#1825 = DIRECTION('',(0.,0.,1.));
#1826 = DIRECTION('',(1.,0.,0.));
#1827 = ADVANCED_FACE('',(#1828,#1836),#1847,.F.);
#1828 = FACE_BOUND('',#1829,.F.);
#1829 = EDGE_LOOP('',(#1830,#1831,#1832,#1833,#1834,#1835));
#1830 = ORIENTED_EDGE('',*,*,#1243,.F.);
#1831 = ORIENTED_EDGE('',*,*,#1123,.F.);
#1832 = ORIENTED_EDGE('',*,*,#1154,.F.);
#1833 = ORIENTED_EDGE('',*,*,#1178,.F.);
#1834 = ORIENTED_EDGE('',*,*,#1202,.F.);
#1835 = ORIENTED_EDGE('',*,*,#1226,.F.);
#1836 = FACE_BOUND('',#1837,.F.);
#1837 = EDGE_LOOP('',(#1838));
#1838 = ORIENTED_EDGE('',*,*,#1839,.F.);
#1839 = EDGE_CURVE('',#1840,#1840,#1842,.T.);
#1840 = VERTEX_POINT('',#1841);
#1841 = CARTESIAN_POINT('',(82.75,29.65,17.));
#1842 = CIRCLE('',#1843,1.1);
#1843 = AXIS2_PLACEMENT_3D('',#1844,#1845,#1846);
#1844 = CARTESIAN_POINT('',(81.65,29.65,17.));
#1845 = DIRECTION('',(0.,0.,1.));
#1846 = DIRECTION('',(1.,0.,-0.));
#1847 = PLANE('',#1848);
#1848 = AXIS2_PLACEMENT_3D('',#1849,#1850,#1851);
#1849 = CARTESIAN_POINT('',(44.323749999999,17.999999999999,17.));
#1850 = DIRECTION('',(0.,0.,1.));
#1851 = DIRECTION('',(1.,0.,0.));
#1852 = ADVANCED_FACE('',(#1853,#1932,#1943,#1954,#1965),#1976,.T.);
#1853 = FACE_BOUND('',#1854,.T.);
#1854 = EDGE_LOOP('',(#1855,#1856,#1862,#1863,#1871,#1879,#1887,#1895,
    #1903,#1911,#1917,#1918,#1924,#1925,#1926,#1927,#1928,#1929,#1930,
    #1931));
#1855 = ORIENTED_EDGE('',*,*,#1466,.F.);
#1856 = ORIENTED_EDGE('',*,*,#1857,.T.);
#1857 = EDGE_CURVE('',#1467,#1766,#1858,.T.);
#1858 = LINE('',#1859,#1860);
#1859 = CARTESIAN_POINT('',(4.,27.,20.));
#1860 = VECTOR('',#1861,1.);
#1861 = DIRECTION('',(1.,0.,0.));
#1862 = ORIENTED_EDGE('',*,*,#1765,.T.);
#1863 = ORIENTED_EDGE('',*,*,#1864,.T.);
#1864 = EDGE_CURVE('',#1768,#1865,#1867,.T.);
#1865 = VERTEX_POINT('',#1866);
#1866 = CARTESIAN_POINT('',(78.995278564684,32.,20.));
#1867 = LINE('',#1868,#1869);
#1868 = CARTESIAN_POINT('',(9.,32.,20.));
#1869 = VECTOR('',#1870,1.);
#1870 = DIRECTION('',(1.,0.,0.));
#1871 = ORIENTED_EDGE('',*,*,#1872,.T.);
#1872 = EDGE_CURVE('',#1865,#1873,#1875,.T.);
#1873 = VERTEX_POINT('',#1874);
#1874 = CARTESIAN_POINT('',(78.995278564684,26.995278564684,20.));
#1875 = LINE('',#1876,#1877);
#1876 = CARTESIAN_POINT('',(78.995278564684,32.,20.));
#1877 = VECTOR('',#1878,1.);
#1878 = DIRECTION('',(0.,-1.,0.));
#1879 = ORIENTED_EDGE('',*,*,#1880,.T.);
#1880 = EDGE_CURVE('',#1873,#1881,#1883,.T.);
#1881 = VERTEX_POINT('',#1882);
#1882 = CARTESIAN_POINT('',(84.,26.995278564684,20.));
#1883 = LINE('',#1884,#1885);
#1884 = CARTESIAN_POINT('',(78.995278564684,26.995278564684,20.));
#1885 = VECTOR('',#1886,1.);
#1886 = DIRECTION('',(1.,0.,0.));
#1887 = ORIENTED_EDGE('',*,*,#1888,.T.);
#1888 = EDGE_CURVE('',#1881,#1889,#1891,.T.);
#1889 = VERTEX_POINT('',#1890);
#1890 = CARTESIAN_POINT('',(84.,8.995278564684,20.));
#1891 = LINE('',#1892,#1893);
#1892 = CARTESIAN_POINT('',(84.,26.995278564684,20.));
#1893 = VECTOR('',#1894,1.);
#1894 = DIRECTION('',(0.,-1.,0.));
#1895 = ORIENTED_EDGE('',*,*,#1896,.F.);
#1896 = EDGE_CURVE('',#1897,#1889,#1899,.T.);
#1897 = VERTEX_POINT('',#1898);
#1898 = CARTESIAN_POINT('',(78.995278564684,8.995278564684,20.));
#1899 = LINE('',#1900,#1901);
#1900 = CARTESIAN_POINT('',(78.995278564684,8.995278564684,20.));
#1901 = VECTOR('',#1902,1.);
#1902 = DIRECTION('',(1.,0.,0.));
#1903 = ORIENTED_EDGE('',*,*,#1904,.F.);
#1904 = EDGE_CURVE('',#1905,#1897,#1907,.T.);
#1905 = VERTEX_POINT('',#1906);
#1906 = CARTESIAN_POINT('',(78.995278564684,4.,20.));
#1907 = LINE('',#1908,#1909);
#1908 = CARTESIAN_POINT('',(78.995278564684,4.,20.));
#1909 = VECTOR('',#1910,1.);
#1910 = DIRECTION('',(0.,1.,0.));
#1911 = ORIENTED_EDGE('',*,*,#1912,.T.);
#1912 = EDGE_CURVE('',#1905,#1677,#1913,.T.);
#1913 = LINE('',#1914,#1915);
#1914 = CARTESIAN_POINT('',(78.995278564684,4.,20.));
#1915 = VECTOR('',#1916,1.);
#1916 = DIRECTION('',(-1.,0.,0.));
#1917 = ORIENTED_EDGE('',*,*,#1674,.F.);
#1918 = ORIENTED_EDGE('',*,*,#1919,.F.);
#1919 = EDGE_CURVE('',#1491,#1675,#1920,.T.);
#1920 = LINE('',#1921,#1922);
#1921 = CARTESIAN_POINT('',(4.,9.,20.));
#1922 = VECTOR('',#1923,1.);
#1923 = DIRECTION('',(1.,0.,0.));
#1924 = ORIENTED_EDGE('',*,*,#1498,.F.);
#1925 = ORIENTED_EDGE('',*,*,#1532,.F.);
#1926 = ORIENTED_EDGE('',*,*,#1549,.T.);
#1927 = ORIENTED_EDGE('',*,*,#1356,.T.);
#1928 = ORIENTED_EDGE('',*,*,#1380,.T.);
#1929 = ORIENTED_EDGE('',*,*,#1404,.T.);
#1930 = ORIENTED_EDGE('',*,*,#1428,.F.);
#1931 = ORIENTED_EDGE('',*,*,#1452,.F.);
#1932 = FACE_BOUND('',#1933,.T.);
#1933 = EDGE_LOOP('',(#1934));
#1934 = ORIENTED_EDGE('',*,*,#1935,.F.);
#1935 = EDGE_CURVE('',#1936,#1936,#1938,.T.);
#1936 = VERTEX_POINT('',#1937);
#1937 = CARTESIAN_POINT('',(8.1,7.,20.));
#1938 = CIRCLE('',#1939,1.1);
#1939 = AXIS2_PLACEMENT_3D('',#1940,#1941,#1942);
#1940 = CARTESIAN_POINT('',(7.,7.,20.));
#1941 = DIRECTION('',(0.,0.,1.));
#1942 = DIRECTION('',(1.,0.,0.));
#1943 = FACE_BOUND('',#1944,.T.);
#1944 = EDGE_LOOP('',(#1945));
#1945 = ORIENTED_EDGE('',*,*,#1946,.F.);
#1946 = EDGE_CURVE('',#1947,#1947,#1949,.T.);
#1947 = VERTEX_POINT('',#1948);
#1948 = CARTESIAN_POINT('',(82.745,6.35,20.));
#1949 = CIRCLE('',#1950,1.1);
#1950 = AXIS2_PLACEMENT_3D('',#1951,#1952,#1953);
#1951 = CARTESIAN_POINT('',(81.645,6.35,20.));
#1952 = DIRECTION('',(0.,0.,1.));
#1953 = DIRECTION('',(1.,0.,0.));
#1954 = FACE_BOUND('',#1955,.T.);
#1955 = EDGE_LOOP('',(#1956));
#1956 = ORIENTED_EDGE('',*,*,#1957,.F.);
#1957 = EDGE_CURVE('',#1958,#1958,#1960,.T.);
#1958 = VERTEX_POINT('',#1959);
#1959 = CARTESIAN_POINT('',(8.1,29.,20.));
#1960 = CIRCLE('',#1961,1.1);
#1961 = AXIS2_PLACEMENT_3D('',#1962,#1963,#1964);
#1962 = CARTESIAN_POINT('',(7.,29.,20.));
#1963 = DIRECTION('',(0.,0.,1.));
#1964 = DIRECTION('',(1.,0.,0.));
#1965 = FACE_BOUND('',#1966,.T.);
#1966 = EDGE_LOOP('',(#1967));
#1967 = ORIENTED_EDGE('',*,*,#1968,.F.);
#1968 = EDGE_CURVE('',#1969,#1969,#1971,.T.);
#1969 = VERTEX_POINT('',#1970);
#1970 = CARTESIAN_POINT('',(82.75,29.65,20.));
#1971 = CIRCLE('',#1972,1.1);
#1972 = AXIS2_PLACEMENT_3D('',#1973,#1974,#1975);
#1973 = CARTESIAN_POINT('',(81.65,29.65,20.));
#1974 = DIRECTION('',(0.,0.,1.));
#1975 = DIRECTION('',(1.,0.,0.));
#1976 = PLANE('',#1977);
#1977 = AXIS2_PLACEMENT_3D('',#1978,#1979,#1980);
#1978 = CARTESIAN_POINT('',(44.,18.,20.));
#1979 = DIRECTION('',(0.,0.,1.));
#1980 = DIRECTION('',(1.,0.,0.));
#1981 = ADVANCED_FACE('',(#1982),#1988,.F.);
#1982 = FACE_BOUND('',#1983,.F.);
#1983 = EDGE_LOOP('',(#1984,#1985,#1986,#1987));
#1984 = ORIENTED_EDGE('',*,*,#1490,.T.);
#1985 = ORIENTED_EDGE('',*,*,#1572,.T.);
#1986 = ORIENTED_EDGE('',*,*,#1684,.F.);
#1987 = ORIENTED_EDGE('',*,*,#1919,.F.);
#1988 = PLANE('',#1989);
#1989 = AXIS2_PLACEMENT_3D('',#1990,#1991,#1992);
#1990 = CARTESIAN_POINT('',(4.,9.,20.));
#1991 = DIRECTION('',(0.,-1.,0.));
#1992 = DIRECTION('',(1.,0.,0.));
#1993 = ADVANCED_FACE('',(#1994),#2000,.T.);
#1994 = FACE_BOUND('',#1995,.T.);
#1995 = EDGE_LOOP('',(#1996,#1997,#1998,#1999));
#1996 = ORIENTED_EDGE('',*,*,#1474,.T.);
#1997 = ORIENTED_EDGE('',*,*,#1563,.T.);
#1998 = ORIENTED_EDGE('',*,*,#1775,.F.);
#1999 = ORIENTED_EDGE('',*,*,#1857,.F.);
#2000 = PLANE('',#2001);
#2001 = AXIS2_PLACEMENT_3D('',#2002,#2003,#2004);
#2002 = CARTESIAN_POINT('',(4.,27.,20.));
#2003 = DIRECTION('',(0.,-1.,0.));
#2004 = DIRECTION('',(1.,0.,0.));
#2005 = ADVANCED_FACE('',(#2006),#2017,.T.);
#2006 = FACE_BOUND('',#2007,.T.);
#2007 = EDGE_LOOP('',(#2008,#2009,#2010,#2016));
#2008 = ORIENTED_EDGE('',*,*,#1791,.T.);
#2009 = ORIENTED_EDGE('',*,*,#1644,.T.);
#2010 = ORIENTED_EDGE('',*,*,#2011,.F.);
#2011 = EDGE_CURVE('',#1865,#1637,#2012,.T.);
#2012 = LINE('',#2013,#2014);
#2013 = CARTESIAN_POINT('',(78.995278564684,32.,20.));
#2014 = VECTOR('',#2015,1.);
#2015 = DIRECTION('',(-0.,-0.,-1.));
#2016 = ORIENTED_EDGE('',*,*,#1864,.F.);
#2017 = PLANE('',#2018);
#2018 = AXIS2_PLACEMENT_3D('',#2019,#2020,#2021);
#2019 = CARTESIAN_POINT('',(9.,32.,20.));
#2020 = DIRECTION('',(0.,-1.,0.));
#2021 = DIRECTION('',(1.,0.,0.));
#2022 = ADVANCED_FACE('',(#2023),#2034,.T.);
#2023 = FACE_BOUND('',#2024,.T.);
#2024 = EDGE_LOOP('',(#2025,#2026,#2027,#2033));
#2025 = ORIENTED_EDGE('',*,*,#2011,.T.);
#2026 = ORIENTED_EDGE('',*,*,#1636,.T.);
#2027 = ORIENTED_EDGE('',*,*,#2028,.F.);
#2028 = EDGE_CURVE('',#1873,#1629,#2029,.T.);
#2029 = LINE('',#2030,#2031);
#2030 = CARTESIAN_POINT('',(78.995278564684,26.995278564684,20.));
#2031 = VECTOR('',#2032,1.);
#2032 = DIRECTION('',(-0.,-0.,-1.));
#2033 = ORIENTED_EDGE('',*,*,#1872,.F.);
#2034 = PLANE('',#2035);
#2035 = AXIS2_PLACEMENT_3D('',#2036,#2037,#2038);
#2036 = CARTESIAN_POINT('',(78.995278564684,32.,20.));
#2037 = DIRECTION('',(-1.,0.,0.));
#2038 = DIRECTION('',(0.,-1.,0.));
#2039 = ADVANCED_FACE('',(#2040),#2051,.T.);
#2040 = FACE_BOUND('',#2041,.T.);
#2041 = EDGE_LOOP('',(#2042,#2043,#2044,#2050));
#2042 = ORIENTED_EDGE('',*,*,#2028,.T.);
#2043 = ORIENTED_EDGE('',*,*,#1628,.T.);
#2044 = ORIENTED_EDGE('',*,*,#2045,.F.);
#2045 = EDGE_CURVE('',#1881,#1621,#2046,.T.);
#2046 = LINE('',#2047,#2048);
#2047 = CARTESIAN_POINT('',(84.,26.995278564684,20.));
#2048 = VECTOR('',#2049,1.);
#2049 = DIRECTION('',(-0.,-0.,-1.));
#2050 = ORIENTED_EDGE('',*,*,#1880,.F.);
#2051 = PLANE('',#2052);
#2052 = AXIS2_PLACEMENT_3D('',#2053,#2054,#2055);
#2053 = CARTESIAN_POINT('',(78.995278564684,26.995278564684,20.));
#2054 = DIRECTION('',(0.,-1.,0.));
#2055 = DIRECTION('',(1.,0.,0.));
#2056 = ADVANCED_FACE('',(#2057),#2068,.T.);
#2057 = FACE_BOUND('',#2058,.T.);
#2058 = EDGE_LOOP('',(#2059,#2060,#2061,#2067));
#2059 = ORIENTED_EDGE('',*,*,#2045,.T.);
#2060 = ORIENTED_EDGE('',*,*,#1620,.T.);
#2061 = ORIENTED_EDGE('',*,*,#2062,.F.);
#2062 = EDGE_CURVE('',#1889,#1613,#2063,.T.);
#2063 = LINE('',#2064,#2065);
#2064 = CARTESIAN_POINT('',(84.,8.995278564684,20.));
#2065 = VECTOR('',#2066,1.);
#2066 = DIRECTION('',(-0.,-0.,-1.));
#2067 = ORIENTED_EDGE('',*,*,#1888,.F.);
#2068 = PLANE('',#2069);
#2069 = AXIS2_PLACEMENT_3D('',#2070,#2071,#2072);
#2070 = CARTESIAN_POINT('',(84.,26.995278564684,20.));
#2071 = DIRECTION('',(-1.,0.,0.));
#2072 = DIRECTION('',(0.,-1.,0.));
#2073 = ADVANCED_FACE('',(#2074),#2085,.F.);
#2074 = FACE_BOUND('',#2075,.F.);
#2075 = EDGE_LOOP('',(#2076,#2082,#2083,#2084));
#2076 = ORIENTED_EDGE('',*,*,#2077,.T.);
#2077 = EDGE_CURVE('',#1897,#1605,#2078,.T.);
#2078 = LINE('',#2079,#2080);
#2079 = CARTESIAN_POINT('',(78.995278564684,8.995278564684,20.));
#2080 = VECTOR('',#2081,1.);
#2081 = DIRECTION('',(-0.,-0.,-1.));
#2082 = ORIENTED_EDGE('',*,*,#1612,.T.);
#2083 = ORIENTED_EDGE('',*,*,#2062,.F.);
#2084 = ORIENTED_EDGE('',*,*,#1896,.F.);
#2085 = PLANE('',#2086);
#2086 = AXIS2_PLACEMENT_3D('',#2087,#2088,#2089);
#2087 = CARTESIAN_POINT('',(78.995278564684,8.995278564684,20.));
#2088 = DIRECTION('',(0.,-1.,0.));
#2089 = DIRECTION('',(1.,0.,0.));
#2090 = ADVANCED_FACE('',(#2091),#2102,.F.);
#2091 = FACE_BOUND('',#2092,.F.);
#2092 = EDGE_LOOP('',(#2093,#2099,#2100,#2101));
#2093 = ORIENTED_EDGE('',*,*,#2094,.T.);
#2094 = EDGE_CURVE('',#1905,#1597,#2095,.T.);
#2095 = LINE('',#2096,#2097);
#2096 = CARTESIAN_POINT('',(78.995278564684,4.,20.));
#2097 = VECTOR('',#2098,1.);
#2098 = DIRECTION('',(-0.,-0.,-1.));
#2099 = ORIENTED_EDGE('',*,*,#1604,.T.);
#2100 = ORIENTED_EDGE('',*,*,#2077,.F.);
#2101 = ORIENTED_EDGE('',*,*,#1904,.F.);
#2102 = PLANE('',#2103);
#2103 = AXIS2_PLACEMENT_3D('',#2104,#2105,#2106);
#2104 = CARTESIAN_POINT('',(78.995278564684,4.,20.));
#2105 = DIRECTION('',(1.,0.,0.));
#2106 = DIRECTION('',(0.,1.,0.));
#2107 = ADVANCED_FACE('',(#2108),#2114,.T.);
#2108 = FACE_BOUND('',#2109,.T.);
#2109 = EDGE_LOOP('',(#2110,#2111,#2112,#2113));
#2110 = ORIENTED_EDGE('',*,*,#2094,.T.);
#2111 = ORIENTED_EDGE('',*,*,#1596,.T.);
#2112 = ORIENTED_EDGE('',*,*,#1700,.F.);
#2113 = ORIENTED_EDGE('',*,*,#1912,.F.);
#2114 = PLANE('',#2115);
#2115 = AXIS2_PLACEMENT_3D('',#2116,#2117,#2118);
#2116 = CARTESIAN_POINT('',(78.995278564684,4.,20.));
#2117 = DIRECTION('',(0.,1.,0.));
#2118 = DIRECTION('',(-1.,0.,0.));
#2119 = ADVANCED_FACE('',(#2120),#2131,.F.);
#2120 = FACE_BOUND('',#2121,.F.);
#2121 = EDGE_LOOP('',(#2122,#2123,#2129,#2130));
#2122 = ORIENTED_EDGE('',*,*,#1935,.F.);
#2123 = ORIENTED_EDGE('',*,*,#2124,.T.);
#2124 = EDGE_CURVE('',#1936,#1724,#2125,.T.);
#2125 = LINE('',#2126,#2127);
#2126 = CARTESIAN_POINT('',(8.1,7.,20.));
#2127 = VECTOR('',#2128,1.);
#2128 = DIRECTION('',(-0.,-0.,-1.));
#2129 = ORIENTED_EDGE('',*,*,#1723,.T.);
#2130 = ORIENTED_EDGE('',*,*,#2124,.F.);
#2131 = CYLINDRICAL_SURFACE('',#2132,1.1);
#2132 = AXIS2_PLACEMENT_3D('',#2133,#2134,#2135);
#2133 = CARTESIAN_POINT('',(7.,7.,20.));
#2134 = DIRECTION('',(0.,0.,1.));
#2135 = DIRECTION('',(1.,0.,0.));
#2136 = ADVANCED_FACE('',(#2137),#2148,.F.);
#2137 = FACE_BOUND('',#2138,.F.);
#2138 = EDGE_LOOP('',(#2139,#2140,#2146,#2147));
#2139 = ORIENTED_EDGE('',*,*,#1946,.F.);
#2140 = ORIENTED_EDGE('',*,*,#2141,.T.);
#2141 = EDGE_CURVE('',#1947,#1749,#2142,.T.);
#2142 = LINE('',#2143,#2144);
#2143 = CARTESIAN_POINT('',(82.745,6.35,20.));
#2144 = VECTOR('',#2145,1.);
#2145 = DIRECTION('',(-0.,-0.,-1.));
#2146 = ORIENTED_EDGE('',*,*,#1748,.T.);
#2147 = ORIENTED_EDGE('',*,*,#2141,.F.);
#2148 = CYLINDRICAL_SURFACE('',#2149,1.1);
#2149 = AXIS2_PLACEMENT_3D('',#2150,#2151,#2152);
#2150 = CARTESIAN_POINT('',(81.645,6.35,20.));
#2151 = DIRECTION('',(0.,0.,1.));
#2152 = DIRECTION('',(1.,0.,0.));
#2153 = ADVANCED_FACE('',(#2154),#2165,.F.);
#2154 = FACE_BOUND('',#2155,.F.);
#2155 = EDGE_LOOP('',(#2156,#2157,#2163,#2164));
#2156 = ORIENTED_EDGE('',*,*,#1957,.F.);
#2157 = ORIENTED_EDGE('',*,*,#2158,.T.);
#2158 = EDGE_CURVE('',#1958,#1815,#2159,.T.);
#2159 = LINE('',#2160,#2161);
#2160 = CARTESIAN_POINT('',(8.1,29.,20.));
#2161 = VECTOR('',#2162,1.);
#2162 = DIRECTION('',(-0.,-0.,-1.));
#2163 = ORIENTED_EDGE('',*,*,#1814,.T.);
#2164 = ORIENTED_EDGE('',*,*,#2158,.F.);
#2165 = CYLINDRICAL_SURFACE('',#2166,1.1);
#2166 = AXIS2_PLACEMENT_3D('',#2167,#2168,#2169);
#2167 = CARTESIAN_POINT('',(7.,29.,20.));
#2168 = DIRECTION('',(0.,0.,1.));
#2169 = DIRECTION('',(1.,0.,0.));
#2170 = ADVANCED_FACE('',(#2171),#2182,.F.);
#2171 = FACE_BOUND('',#2172,.F.);
#2172 = EDGE_LOOP('',(#2173,#2174,#2180,#2181));
#2173 = ORIENTED_EDGE('',*,*,#1968,.F.);
#2174 = ORIENTED_EDGE('',*,*,#2175,.T.);
#2175 = EDGE_CURVE('',#1969,#1840,#2176,.T.);
#2176 = LINE('',#2177,#2178);
#2177 = CARTESIAN_POINT('',(82.75,29.65,20.));
#2178 = VECTOR('',#2179,1.);
#2179 = DIRECTION('',(-0.,-0.,-1.));
#2180 = ORIENTED_EDGE('',*,*,#1839,.T.);
#2181 = ORIENTED_EDGE('',*,*,#2175,.F.);
#2182 = CYLINDRICAL_SURFACE('',#2183,1.1);
#2183 = AXIS2_PLACEMENT_3D('',#2184,#2185,#2186);
#2184 = CARTESIAN_POINT('',(81.65,29.65,20.));
#2185 = DIRECTION('',(0.,0.,1.));
#2186 = DIRECTION('',(1.,0.,0.));
#2187 = ( GEOMETRIC_REPRESENTATION_CONTEXT(3) 
GLOBAL_UNCERTAINTY_ASSIGNED_CONTEXT((#2191)) 
GLOBAL_UNIT_ASSIGNED_CONTEXT((#2188,#2189,#2190)) REPRESENTATION_CONTEXT
('Context #1','3D Context with UNIT and UNCERTAINTY') );
#2188 = ( LENGTH_UNIT() NAMED_UNIT(*) SI_UNIT(.MILLI.,.METRE.) );
#2189 = ( NAMED_UNIT(*) PLANE_ANGLE_UNIT() SI_UNIT($,.RADIAN.) );
#2190 = ( NAMED_UNIT(*) SI_UNIT($,.STERADIAN.) SOLID_ANGLE_UNIT() );
#2191 = UNCERTAINTY_MEASURE_WITH_UNIT(LENGTH_MEASURE(2.E-06),#2188,
  'distance_accuracy_value','confusion accuracy');
#2192 = PRODUCT_RELATED_PRODUCT_CATEGORY('part',$,(#7));
#2193 = MECHANICAL_DESIGN_GEOMETRIC_PRESENTATION_REPRESENTATION('',(
    #2194),#2187);
#2194 = STYLED_ITEM('color',(#2195),#15);
#2195 = PRESENTATION_STYLE_ASSIGNMENT((#2196,#2204));
#2196 = SURFACE_STYLE_USAGE(.BOTH.,#2197);
#2197 = SURFACE_SIDE_STYLE('',(#2198,#2202));
#2198 = SURFACE_STYLE_FILL_AREA(#2199);
#2199 = FILL_AREA_STYLE('',(#2200));
#2200 = FILL_AREA_STYLE_COLOUR('',#2201);
#2201 = COLOUR_RGB('',0.97254901356,0.772549044697,0.14117647753);
#2202 = SURFACE_STYLE_RENDERING_WITH_PROPERTIES(.NORMAL_SHADING.,#2201,(
    #2203));
#2203 = SURFACE_STYLE_TRANSPARENT(0.699999988079);
#2204 = CURVE_STYLE('',#2205,POSITIVE_LENGTH_MEASURE(0.1),#2206);
#2205 = DRAUGHTING_PRE_DEFINED_CURVE_FONT('continuous');
#2206 = COLOUR_RGB('',9.803921802644E-02,9.803921802644E-02,
  9.803921802644E-02);
ENDSEC;
END-ISO-10303-21;
