ISO-10303-21;
HEADER;
FILE_DESCRIPTION(('FreeCAD Model'),'2;1');
FILE_NAME('Open CASCADE Shape Model','2026-08-27T16:29:09',(''),(''),
  'Open CASCADE STEP processor 7.8','FreeCAD','Unknown');
FILE_SCHEMA(('AUTOMOTIVE_DESIGN { 1 0 10303 214 1 1 1 1 }'));
ENDSEC;
DATA;
#1 = APPLICATION_PROTOCOL_DEFINITION('international standard',
  'automotive_design',2000,#2);
#2 = APPLICATION_CONTEXT(
  'core data for automotive mechanical design processes');
#3 = SHAPE_DEFINITION_REPRESENTATION(#4,#10);
#4 = PRODUCT_DEFINITION_SHAPE('','',#5);
#5 = PRODUCT_DEFINITION('design','',#6,#9);
#6 = PRODUCT_DEFINITION_FORMATION('','',#7);
#7 = PRODUCT('bottom','bottom','',(#8));
#8 = PRODUCT_CONTEXT('',#2,'mechanical');
#9 = PRODUCT_DEFINITION_CONTEXT('part definition',#2,'design');
#10 = ADVANCED_BREP_SHAPE_REPRESENTATION('',(#11,#15),#1355);
#11 = AXIS2_PLACEMENT_3D('',#12,#13,#14);
#12 = CARTESIAN_POINT('',(0.,0.,0.));
#13 = DIRECTION('',(0.,0.,1.));
#14 = DIRECTION('',(1.,0.,-0.));
#15 = MANIFOLD_SOLID_BREP('',#16);
#16 = CLOSED_SHELL('',(#17,#57,#120,#151,#212,#284,#308,#430,#447,#459,
    #484,#509,#534,#559,#576,#593,#610,#627,#639,#670,#694,#718,#742,
    #766,#822,#846,#863,#888,#913,#938,#963,#1078,#1102,#1190,#1207,
    #1224,#1241,#1258,#1275,#1292,#1309,#1326,#1343));
#17 = ADVANCED_FACE('',(#18),#52,.F.);
#18 = FACE_BOUND('',#19,.F.);
#19 = EDGE_LOOP('',(#20,#30,#38,#46));
#20 = ORIENTED_EDGE('',*,*,#21,.T.);
#21 = EDGE_CURVE('',#22,#24,#26,.T.);
#22 = VERTEX_POINT('',#23);
#23 = CARTESIAN_POINT('',(0.,0.,0.));
#24 = VERTEX_POINT('',#25);
#25 = CARTESIAN_POINT('',(0.,0.,20.));
#26 = LINE('',#27,#28);
#27 = CARTESIAN_POINT('',(0.,0.,0.));
#28 = VECTOR('',#29,1.);
#29 = DIRECTION('',(0.,0.,1.));
#30 = ORIENTED_EDGE('',*,*,#31,.T.);
#31 = EDGE_CURVE('',#24,#32,#34,.T.);
#32 = VERTEX_POINT('',#33);
#33 = CARTESIAN_POINT('',(88.,0.,20.));
#34 = LINE('',#35,#36);
#35 = CARTESIAN_POINT('',(0.,0.,20.));
#36 = VECTOR('',#37,1.);
#37 = DIRECTION('',(1.,0.,0.));
#38 = ORIENTED_EDGE('',*,*,#39,.F.);
#39 = EDGE_CURVE('',#40,#32,#42,.T.);
#40 = VERTEX_POINT('',#41);
#41 = CARTESIAN_POINT('',(88.,0.,0.));
#42 = LINE('',#43,#44);
#43 = CARTESIAN_POINT('',(88.,0.,0.));
#44 = VECTOR('',#45,1.);
#45 = DIRECTION('',(0.,0.,1.));
#46 = ORIENTED_EDGE('',*,*,#47,.F.);
#47 = EDGE_CURVE('',#22,#40,#48,.T.);
#48 = LINE('',#49,#50);
#49 = CARTESIAN_POINT('',(0.,0.,0.));
#50 = VECTOR('',#51,1.);
#51 = DIRECTION('',(1.,0.,0.));
#52 = PLANE('',#53);
#53 = AXIS2_PLACEMENT_3D('',#54,#55,#56);
#54 = CARTESIAN_POINT('',(0.,0.,0.));
#55 = DIRECTION('',(0.,1.,0.));
#56 = DIRECTION('',(1.,0.,0.));
#57 = ADVANCED_FACE('',(#58),#115,.F.);
#58 = FACE_BOUND('',#59,.F.);
#59 = EDGE_LOOP('',(#60,#68,#76,#84,#92,#100,#108,#114));
#60 = ORIENTED_EDGE('',*,*,#61,.F.);
#61 = EDGE_CURVE('',#62,#22,#64,.T.);
#62 = VERTEX_POINT('',#63);
#63 = CARTESIAN_POINT('',(0.,36.,0.));
#64 = LINE('',#65,#66);
#65 = CARTESIAN_POINT('',(0.,36.,0.));
#66 = VECTOR('',#67,1.);
#67 = DIRECTION('',(0.,-1.,0.));
#68 = ORIENTED_EDGE('',*,*,#69,.T.);
#69 = EDGE_CURVE('',#62,#70,#72,.T.);
#70 = VERTEX_POINT('',#71);
#71 = CARTESIAN_POINT('',(0.,36.,20.));
#72 = LINE('',#73,#74);
#73 = CARTESIAN_POINT('',(0.,36.,0.));
#74 = VECTOR('',#75,1.);
#75 = DIRECTION('',(0.,0.,1.));
#76 = ORIENTED_EDGE('',*,*,#77,.T.);
#77 = EDGE_CURVE('',#70,#78,#80,.T.);
#78 = VERTEX_POINT('',#79);
#79 = CARTESIAN_POINT('',(0.,23.,20.));
#80 = LINE('',#81,#82);
#81 = CARTESIAN_POINT('',(0.,36.,20.));
#82 = VECTOR('',#83,1.);
#83 = DIRECTION('',(0.,-1.,0.));
#84 = ORIENTED_EDGE('',*,*,#85,.T.);
#85 = EDGE_CURVE('',#78,#86,#88,.T.);
#86 = VERTEX_POINT('',#87);
#87 = CARTESIAN_POINT('',(0.,23.,17.));
#88 = LINE('',#89,#90);
#89 = CARTESIAN_POINT('',(0.,23.,20.));
#90 = VECTOR('',#91,1.);
#91 = DIRECTION('',(-0.,-0.,-1.));
#92 = ORIENTED_EDGE('',*,*,#93,.T.);
#93 = EDGE_CURVE('',#86,#94,#96,.T.);
#94 = VERTEX_POINT('',#95);
#95 = CARTESIAN_POINT('',(0.,13.,17.));
#96 = LINE('',#97,#98);
#97 = CARTESIAN_POINT('',(0.,23.,17.));
#98 = VECTOR('',#99,1.);
#99 = DIRECTION('',(0.,-1.,0.));
#100 = ORIENTED_EDGE('',*,*,#101,.F.);
#101 = EDGE_CURVE('',#102,#94,#104,.T.);
#102 = VERTEX_POINT('',#103);
#103 = CARTESIAN_POINT('',(0.,13.,20.));
#104 = LINE('',#105,#106);
#105 = CARTESIAN_POINT('',(0.,13.,20.));
#106 = VECTOR('',#107,1.);
#107 = DIRECTION('',(-0.,-0.,-1.));
#108 = ORIENTED_EDGE('',*,*,#109,.T.);
#109 = EDGE_CURVE('',#102,#24,#110,.T.);
#110 = LINE('',#111,#112);
#111 = CARTESIAN_POINT('',(0.,36.,20.));
#112 = VECTOR('',#113,1.);
#113 = DIRECTION('',(0.,-1.,0.));
#114 = ORIENTED_EDGE('',*,*,#21,.F.);
#115 = PLANE('',#116);
#116 = AXIS2_PLACEMENT_3D('',#117,#118,#119);
#117 = CARTESIAN_POINT('',(0.,36.,0.));
#118 = DIRECTION('',(1.,0.,0.));
#119 = DIRECTION('',(0.,-1.,0.));
#120 = ADVANCED_FACE('',(#121),#146,.F.);
#121 = FACE_BOUND('',#122,.F.);
#122 = EDGE_LOOP('',(#123,#124,#132,#140));
#123 = ORIENTED_EDGE('',*,*,#39,.T.);
#124 = ORIENTED_EDGE('',*,*,#125,.T.);
#125 = EDGE_CURVE('',#32,#126,#128,.T.);
#126 = VERTEX_POINT('',#127);
#127 = CARTESIAN_POINT('',(88.,36.,20.));
#128 = LINE('',#129,#130);
#129 = CARTESIAN_POINT('',(88.,0.,20.));
#130 = VECTOR('',#131,1.);
#131 = DIRECTION('',(0.,1.,0.));
#132 = ORIENTED_EDGE('',*,*,#133,.F.);
#133 = EDGE_CURVE('',#134,#126,#136,.T.);
#134 = VERTEX_POINT('',#135);
#135 = CARTESIAN_POINT('',(88.,36.,0.));
#136 = LINE('',#137,#138);
#137 = CARTESIAN_POINT('',(88.,36.,0.));
#138 = VECTOR('',#139,1.);
#139 = DIRECTION('',(0.,0.,1.));
#140 = ORIENTED_EDGE('',*,*,#141,.F.);
#141 = EDGE_CURVE('',#40,#134,#142,.T.);
#142 = LINE('',#143,#144);
#143 = CARTESIAN_POINT('',(88.,0.,0.));
#144 = VECTOR('',#145,1.);
#145 = DIRECTION('',(0.,1.,0.));
#146 = PLANE('',#147);
#147 = AXIS2_PLACEMENT_3D('',#148,#149,#150);
#148 = CARTESIAN_POINT('',(88.,0.,0.));
#149 = DIRECTION('',(-1.,0.,0.));
#150 = DIRECTION('',(0.,1.,0.));
#151 = ADVANCED_FACE('',(#152,#163,#174,#185,#196),#207,.F.);
#152 = FACE_BOUND('',#153,.F.);
#153 = EDGE_LOOP('',(#154,#155,#156,#162));
#154 = ORIENTED_EDGE('',*,*,#47,.T.);
#155 = ORIENTED_EDGE('',*,*,#141,.T.);
#156 = ORIENTED_EDGE('',*,*,#157,.T.);
#157 = EDGE_CURVE('',#134,#62,#158,.T.);
#158 = LINE('',#159,#160);
#159 = CARTESIAN_POINT('',(88.,36.,0.));
#160 = VECTOR('',#161,1.);
#161 = DIRECTION('',(-1.,0.,0.));
#162 = ORIENTED_EDGE('',*,*,#61,.T.);
#163 = FACE_BOUND('',#164,.F.);
#164 = EDGE_LOOP('',(#165));
#165 = ORIENTED_EDGE('',*,*,#166,.F.);
#166 = EDGE_CURVE('',#167,#167,#169,.T.);
#167 = VERTEX_POINT('',#168);
#168 = CARTESIAN_POINT('',(8.,7.,0.));
#169 = CIRCLE('',#170,1.);
#170 = AXIS2_PLACEMENT_3D('',#171,#172,#173);
#171 = CARTESIAN_POINT('',(7.,7.,0.));
#172 = DIRECTION('',(0.,0.,1.));
#173 = DIRECTION('',(1.,0.,0.));
#174 = FACE_BOUND('',#175,.F.);
#175 = EDGE_LOOP('',(#176));
#176 = ORIENTED_EDGE('',*,*,#177,.F.);
#177 = EDGE_CURVE('',#178,#178,#180,.T.);
#178 = VERTEX_POINT('',#179);
#179 = CARTESIAN_POINT('',(82.645,6.35,0.));
#180 = CIRCLE('',#181,1.);
#181 = AXIS2_PLACEMENT_3D('',#182,#183,#184);
#182 = CARTESIAN_POINT('',(81.645,6.35,0.));
#183 = DIRECTION('',(0.,0.,1.));
#184 = DIRECTION('',(1.,0.,0.));
#185 = FACE_BOUND('',#186,.F.);
#186 = EDGE_LOOP('',(#187));
#187 = ORIENTED_EDGE('',*,*,#188,.F.);
#188 = EDGE_CURVE('',#189,#189,#191,.T.);
#189 = VERTEX_POINT('',#190);
#190 = CARTESIAN_POINT('',(8.,29.,0.));
#191 = CIRCLE('',#192,1.);
#192 = AXIS2_PLACEMENT_3D('',#193,#194,#195);
#193 = CARTESIAN_POINT('',(7.,29.,0.));
#194 = DIRECTION('',(0.,0.,1.));
#195 = DIRECTION('',(1.,0.,0.));
#196 = FACE_BOUND('',#197,.F.);
#197 = EDGE_LOOP('',(#198));
#198 = ORIENTED_EDGE('',*,*,#199,.F.);
#199 = EDGE_CURVE('',#200,#200,#202,.T.);
#200 = VERTEX_POINT('',#201);
#201 = CARTESIAN_POINT('',(82.65,29.65,0.));
#202 = CIRCLE('',#203,1.);
#203 = AXIS2_PLACEMENT_3D('',#204,#205,#206);
#204 = CARTESIAN_POINT('',(81.65,29.65,0.));
#205 = DIRECTION('',(0.,0.,1.));
#206 = DIRECTION('',(1.,0.,0.));
#207 = PLANE('',#208);
#208 = AXIS2_PLACEMENT_3D('',#209,#210,#211);
#209 = CARTESIAN_POINT('',(44.,18.,0.));
#210 = DIRECTION('',(0.,0.,1.));
#211 = DIRECTION('',(1.,0.,0.));
#212 = ADVANCED_FACE('',(#213),#279,.T.);
#213 = FACE_BOUND('',#214,.T.);
#214 = EDGE_LOOP('',(#215,#216,#217,#218,#224,#225,#233,#241,#249,#257,
    #265,#273));
#215 = ORIENTED_EDGE('',*,*,#109,.T.);
#216 = ORIENTED_EDGE('',*,*,#31,.T.);
#217 = ORIENTED_EDGE('',*,*,#125,.T.);
#218 = ORIENTED_EDGE('',*,*,#219,.T.);
#219 = EDGE_CURVE('',#126,#70,#220,.T.);
#220 = LINE('',#221,#222);
#221 = CARTESIAN_POINT('',(88.,36.,20.));
#222 = VECTOR('',#223,1.);
#223 = DIRECTION('',(-1.,0.,0.));
#224 = ORIENTED_EDGE('',*,*,#77,.T.);
#225 = ORIENTED_EDGE('',*,*,#226,.F.);
#226 = EDGE_CURVE('',#227,#78,#229,.T.);
#227 = VERTEX_POINT('',#228);
#228 = CARTESIAN_POINT('',(1.333333333333,23.,20.));
#229 = LINE('',#230,#231);
#230 = CARTESIAN_POINT('',(1.333333333333,23.,20.));
#231 = VECTOR('',#232,1.);
#232 = DIRECTION('',(-1.,0.,0.));
#233 = ORIENTED_EDGE('',*,*,#234,.F.);
#234 = EDGE_CURVE('',#235,#227,#237,.T.);
#235 = VERTEX_POINT('',#236);
#236 = CARTESIAN_POINT('',(1.333333333333,34.666666666667,20.));
#237 = LINE('',#238,#239);
#238 = CARTESIAN_POINT('',(1.333333333333,34.666666666667,20.));
#239 = VECTOR('',#240,1.);
#240 = DIRECTION('',(0.,-1.,0.));
#241 = ORIENTED_EDGE('',*,*,#242,.F.);
#242 = EDGE_CURVE('',#243,#235,#245,.T.);
#243 = VERTEX_POINT('',#244);
#244 = CARTESIAN_POINT('',(86.666666666667,34.666666666667,20.));
#245 = LINE('',#246,#247);
#246 = CARTESIAN_POINT('',(86.666666666667,34.666666666667,20.));
#247 = VECTOR('',#248,1.);
#248 = DIRECTION('',(-1.,0.,0.));
#249 = ORIENTED_EDGE('',*,*,#250,.F.);
#250 = EDGE_CURVE('',#251,#243,#253,.T.);
#251 = VERTEX_POINT('',#252);
#252 = CARTESIAN_POINT('',(86.666666666667,1.333333333333,20.));
#253 = LINE('',#254,#255);
#254 = CARTESIAN_POINT('',(86.666666666667,1.333333333333,20.));
#255 = VECTOR('',#256,1.);
#256 = DIRECTION('',(0.,1.,0.));
#257 = ORIENTED_EDGE('',*,*,#258,.F.);
#258 = EDGE_CURVE('',#259,#251,#261,.T.);
#259 = VERTEX_POINT('',#260);
#260 = CARTESIAN_POINT('',(1.333333333333,1.333333333333,20.));
#261 = LINE('',#262,#263);
#262 = CARTESIAN_POINT('',(1.333333333333,1.333333333333,20.));
#263 = VECTOR('',#264,1.);
#264 = DIRECTION('',(1.,0.,0.));
#265 = ORIENTED_EDGE('',*,*,#266,.T.);
#266 = EDGE_CURVE('',#259,#267,#269,.T.);
#267 = VERTEX_POINT('',#268);
#268 = CARTESIAN_POINT('',(1.333333333333,13.,20.));
#269 = LINE('',#270,#271);
#270 = CARTESIAN_POINT('',(1.333333333333,1.333333333333,20.));
#271 = VECTOR('',#272,1.);
#272 = DIRECTION('',(0.,1.,0.));
#273 = ORIENTED_EDGE('',*,*,#274,.F.);
#274 = EDGE_CURVE('',#102,#267,#275,.T.);
#275 = LINE('',#276,#277);
#276 = CARTESIAN_POINT('',(0.,13.,20.));
#277 = VECTOR('',#278,1.);
#278 = DIRECTION('',(1.,0.,0.));
#279 = PLANE('',#280);
#280 = AXIS2_PLACEMENT_3D('',#281,#282,#283);
#281 = CARTESIAN_POINT('',(44.,18.,20.));
#282 = DIRECTION('',(0.,0.,1.));
#283 = DIRECTION('',(1.,0.,0.));
#284 = ADVANCED_FACE('',(#285),#303,.F.);
#285 = FACE_BOUND('',#286,.F.);
#286 = EDGE_LOOP('',(#287,#288,#296,#302));
#287 = ORIENTED_EDGE('',*,*,#101,.T.);
#288 = ORIENTED_EDGE('',*,*,#289,.T.);
#289 = EDGE_CURVE('',#94,#290,#292,.T.);
#290 = VERTEX_POINT('',#291);
#291 = CARTESIAN_POINT('',(1.333333333333,13.,17.));
#292 = LINE('',#293,#294);
#293 = CARTESIAN_POINT('',(0.,13.,17.));
#294 = VECTOR('',#295,1.);
#295 = DIRECTION('',(1.,0.,0.));
#296 = ORIENTED_EDGE('',*,*,#297,.F.);
#297 = EDGE_CURVE('',#267,#290,#298,.T.);
#298 = LINE('',#299,#300);
#299 = CARTESIAN_POINT('',(1.333333333333,13.,20.));
#300 = VECTOR('',#301,1.);
#301 = DIRECTION('',(-0.,-0.,-1.));
#302 = ORIENTED_EDGE('',*,*,#274,.F.);
#303 = PLANE('',#304);
#304 = AXIS2_PLACEMENT_3D('',#305,#306,#307);
#305 = CARTESIAN_POINT('',(0.,13.,20.));
#306 = DIRECTION('',(0.,-1.,0.));
#307 = DIRECTION('',(1.,0.,0.));
#308 = ADVANCED_FACE('',(#309,#359),#425,.T.);
#309 = FACE_BOUND('',#310,.T.);
#310 = EDGE_LOOP('',(#311,#321,#329,#337,#345,#351,#352,#353));
#311 = ORIENTED_EDGE('',*,*,#312,.T.);
#312 = EDGE_CURVE('',#313,#315,#317,.T.);
#313 = VERTEX_POINT('',#314);
#314 = CARTESIAN_POINT('',(1.333333333333,1.333333333333,17.));
#315 = VERTEX_POINT('',#316);
#316 = CARTESIAN_POINT('',(86.666666666667,1.333333333333,17.));
#317 = LINE('',#318,#319);
#318 = CARTESIAN_POINT('',(1.333333333333,1.333333333333,17.));
#319 = VECTOR('',#320,1.);
#320 = DIRECTION('',(1.,0.,0.));
#321 = ORIENTED_EDGE('',*,*,#322,.T.);
#322 = EDGE_CURVE('',#315,#323,#325,.T.);
#323 = VERTEX_POINT('',#324);
#324 = CARTESIAN_POINT('',(86.666666666667,34.666666666667,17.));
#325 = LINE('',#326,#327);
#326 = CARTESIAN_POINT('',(86.666666666667,1.333333333333,17.));
#327 = VECTOR('',#328,1.);
#328 = DIRECTION('',(0.,1.,0.));
#329 = ORIENTED_EDGE('',*,*,#330,.T.);
#330 = EDGE_CURVE('',#323,#331,#333,.T.);
#331 = VERTEX_POINT('',#332);
#332 = CARTESIAN_POINT('',(1.333333333333,34.666666666667,17.));
#333 = LINE('',#334,#335);
#334 = CARTESIAN_POINT('',(86.666666666667,34.666666666667,17.));
#335 = VECTOR('',#336,1.);
#336 = DIRECTION('',(-1.,0.,0.));
#337 = ORIENTED_EDGE('',*,*,#338,.T.);
#338 = EDGE_CURVE('',#331,#339,#341,.T.);
#339 = VERTEX_POINT('',#340);
#340 = CARTESIAN_POINT('',(1.333333333333,23.,17.));
#341 = LINE('',#342,#343);
#342 = CARTESIAN_POINT('',(1.333333333333,34.666666666667,17.));
#343 = VECTOR('',#344,1.);
#344 = DIRECTION('',(0.,-1.,0.));
#345 = ORIENTED_EDGE('',*,*,#346,.T.);
#346 = EDGE_CURVE('',#339,#86,#347,.T.);
#347 = LINE('',#348,#349);
#348 = CARTESIAN_POINT('',(1.333333333333,23.,17.));
#349 = VECTOR('',#350,1.);
#350 = DIRECTION('',(-1.,0.,0.));
#351 = ORIENTED_EDGE('',*,*,#93,.T.);
#352 = ORIENTED_EDGE('',*,*,#289,.T.);
#353 = ORIENTED_EDGE('',*,*,#354,.F.);
#354 = EDGE_CURVE('',#313,#290,#355,.T.);
#355 = LINE('',#356,#357);
#356 = CARTESIAN_POINT('',(1.333333333333,1.333333333333,17.));
#357 = VECTOR('',#358,1.);
#358 = DIRECTION('',(0.,1.,0.));
#359 = FACE_BOUND('',#360,.F.);
#360 = EDGE_LOOP('',(#361,#371,#379,#387,#395,#403,#411,#419));
#361 = ORIENTED_EDGE('',*,*,#362,.T.);
#362 = EDGE_CURVE('',#363,#365,#367,.T.);
#363 = VERTEX_POINT('',#364);
#364 = CARTESIAN_POINT('',(2.666666666667,2.666666666667,17.));
#365 = VERTEX_POINT('',#366);
#366 = CARTESIAN_POINT('',(85.333333333333,2.666666666667,17.));
#367 = LINE('',#368,#369);
#368 = CARTESIAN_POINT('',(2.666666666667,2.666666666667,17.));
#369 = VECTOR('',#370,1.);
#370 = DIRECTION('',(1.,0.,0.));
#371 = ORIENTED_EDGE('',*,*,#372,.T.);
#372 = EDGE_CURVE('',#365,#373,#375,.T.);
#373 = VERTEX_POINT('',#374);
#374 = CARTESIAN_POINT('',(85.333333333333,33.333333333333,17.));
#375 = LINE('',#376,#377);
#376 = CARTESIAN_POINT('',(85.333333333333,2.666666666667,17.));
#377 = VECTOR('',#378,1.);
#378 = DIRECTION('',(0.,1.,0.));
#379 = ORIENTED_EDGE('',*,*,#380,.T.);
#380 = EDGE_CURVE('',#373,#381,#383,.T.);
#381 = VERTEX_POINT('',#382);
#382 = CARTESIAN_POINT('',(2.666666666667,33.333333333333,17.));
#383 = LINE('',#384,#385);
#384 = CARTESIAN_POINT('',(85.333333333333,33.333333333333,17.));
#385 = VECTOR('',#386,1.);
#386 = DIRECTION('',(-1.,0.,0.));
#387 = ORIENTED_EDGE('',*,*,#388,.F.);
#388 = EDGE_CURVE('',#389,#381,#391,.T.);
#389 = VERTEX_POINT('',#390);
#390 = CARTESIAN_POINT('',(2.666666666667,23.,17.));
#391 = LINE('',#392,#393);
#392 = CARTESIAN_POINT('',(2.666666666667,23.,17.));
#393 = VECTOR('',#394,1.);
#394 = DIRECTION('',(0.,1.,0.));
#395 = ORIENTED_EDGE('',*,*,#396,.F.);
#396 = EDGE_CURVE('',#397,#389,#399,.T.);
#397 = VERTEX_POINT('',#398);
#398 = CARTESIAN_POINT('',(4.,23.,17.));
#399 = LINE('',#400,#401);
#400 = CARTESIAN_POINT('',(4.,23.,17.));
#401 = VECTOR('',#402,1.);
#402 = DIRECTION('',(-1.,0.,0.));
#403 = ORIENTED_EDGE('',*,*,#404,.F.);
#404 = EDGE_CURVE('',#405,#397,#407,.T.);
#405 = VERTEX_POINT('',#406);
#406 = CARTESIAN_POINT('',(4.,13.,17.));
#407 = LINE('',#408,#409);
#408 = CARTESIAN_POINT('',(4.,13.,17.));
#409 = VECTOR('',#410,1.);
#410 = DIRECTION('',(0.,1.,0.));
#411 = ORIENTED_EDGE('',*,*,#412,.F.);
#412 = EDGE_CURVE('',#413,#405,#415,.T.);
#413 = VERTEX_POINT('',#414);
#414 = CARTESIAN_POINT('',(2.666666666667,13.,17.));
#415 = LINE('',#416,#417);
#416 = CARTESIAN_POINT('',(2.666666666667,13.,17.));
#417 = VECTOR('',#418,1.);
#418 = DIRECTION('',(1.,0.,0.));
#419 = ORIENTED_EDGE('',*,*,#420,.T.);
#420 = EDGE_CURVE('',#413,#363,#421,.T.);
#421 = LINE('',#422,#423);
#422 = CARTESIAN_POINT('',(2.666666666667,13.,17.));
#423 = VECTOR('',#424,1.);
#424 = DIRECTION('',(0.,-1.,0.));
#425 = PLANE('',#426);
#426 = AXIS2_PLACEMENT_3D('',#427,#428,#429);
#427 = CARTESIAN_POINT('',(43.522727272727,18.,17.));
#428 = DIRECTION('',(0.,0.,1.));
#429 = DIRECTION('',(1.,0.,0.));
#430 = ADVANCED_FACE('',(#431),#442,.F.);
#431 = FACE_BOUND('',#432,.F.);
#432 = EDGE_LOOP('',(#433,#439,#440,#441));
#433 = ORIENTED_EDGE('',*,*,#434,.T.);
#434 = EDGE_CURVE('',#227,#339,#435,.T.);
#435 = LINE('',#436,#437);
#436 = CARTESIAN_POINT('',(1.333333333333,23.,20.));
#437 = VECTOR('',#438,1.);
#438 = DIRECTION('',(-0.,-0.,-1.));
#439 = ORIENTED_EDGE('',*,*,#346,.T.);
#440 = ORIENTED_EDGE('',*,*,#85,.F.);
#441 = ORIENTED_EDGE('',*,*,#226,.F.);
#442 = PLANE('',#443);
#443 = AXIS2_PLACEMENT_3D('',#444,#445,#446);
#444 = CARTESIAN_POINT('',(1.333333333333,23.,20.));
#445 = DIRECTION('',(0.,1.,0.));
#446 = DIRECTION('',(-1.,0.,0.));
#447 = ADVANCED_FACE('',(#448),#454,.F.);
#448 = FACE_BOUND('',#449,.F.);
#449 = EDGE_LOOP('',(#450,#451,#452,#453));
#450 = ORIENTED_EDGE('',*,*,#133,.T.);
#451 = ORIENTED_EDGE('',*,*,#219,.T.);
#452 = ORIENTED_EDGE('',*,*,#69,.F.);
#453 = ORIENTED_EDGE('',*,*,#157,.F.);
#454 = PLANE('',#455);
#455 = AXIS2_PLACEMENT_3D('',#456,#457,#458);
#456 = CARTESIAN_POINT('',(88.,36.,0.));
#457 = DIRECTION('',(0.,-1.,0.));
#458 = DIRECTION('',(-1.,0.,0.));
#459 = ADVANCED_FACE('',(#460),#479,.F.);
#460 = FACE_BOUND('',#461,.F.);
#461 = EDGE_LOOP('',(#462,#471,#477,#478));
#462 = ORIENTED_EDGE('',*,*,#463,.F.);
#463 = EDGE_CURVE('',#464,#464,#466,.T.);
#464 = VERTEX_POINT('',#465);
#465 = CARTESIAN_POINT('',(8.,7.,2.));
#466 = CIRCLE('',#467,1.);
#467 = AXIS2_PLACEMENT_3D('',#468,#469,#470);
#468 = CARTESIAN_POINT('',(7.,7.,2.));
#469 = DIRECTION('',(0.,0.,1.));
#470 = DIRECTION('',(1.,0.,0.));
#471 = ORIENTED_EDGE('',*,*,#472,.T.);
#472 = EDGE_CURVE('',#464,#167,#473,.T.);
#473 = LINE('',#474,#475);
#474 = CARTESIAN_POINT('',(8.,7.,2.));
#475 = VECTOR('',#476,1.);
#476 = DIRECTION('',(-0.,-0.,-1.));
#477 = ORIENTED_EDGE('',*,*,#166,.T.);
#478 = ORIENTED_EDGE('',*,*,#472,.F.);
#479 = CYLINDRICAL_SURFACE('',#480,1.);
#480 = AXIS2_PLACEMENT_3D('',#481,#482,#483);
#481 = CARTESIAN_POINT('',(7.,7.,2.));
#482 = DIRECTION('',(0.,0.,1.));
#483 = DIRECTION('',(1.,0.,0.));
#484 = ADVANCED_FACE('',(#485),#504,.F.);
#485 = FACE_BOUND('',#486,.F.);
#486 = EDGE_LOOP('',(#487,#496,#502,#503));
#487 = ORIENTED_EDGE('',*,*,#488,.F.);
#488 = EDGE_CURVE('',#489,#489,#491,.T.);
#489 = VERTEX_POINT('',#490);
#490 = CARTESIAN_POINT('',(82.645,6.35,2.));
#491 = CIRCLE('',#492,1.);
#492 = AXIS2_PLACEMENT_3D('',#493,#494,#495);
#493 = CARTESIAN_POINT('',(81.645,6.35,2.));
#494 = DIRECTION('',(0.,0.,1.));
#495 = DIRECTION('',(1.,0.,0.));
#496 = ORIENTED_EDGE('',*,*,#497,.T.);
#497 = EDGE_CURVE('',#489,#178,#498,.T.);
#498 = LINE('',#499,#500);
#499 = CARTESIAN_POINT('',(82.645,6.35,2.));
#500 = VECTOR('',#501,1.);
#501 = DIRECTION('',(-0.,-0.,-1.));
#502 = ORIENTED_EDGE('',*,*,#177,.T.);
#503 = ORIENTED_EDGE('',*,*,#497,.F.);
#504 = CYLINDRICAL_SURFACE('',#505,1.);
#505 = AXIS2_PLACEMENT_3D('',#506,#507,#508);
#506 = CARTESIAN_POINT('',(81.645,6.35,2.));
#507 = DIRECTION('',(0.,0.,1.));
#508 = DIRECTION('',(1.,0.,0.));
#509 = ADVANCED_FACE('',(#510),#529,.F.);
#510 = FACE_BOUND('',#511,.F.);
#511 = EDGE_LOOP('',(#512,#521,#527,#528));
#512 = ORIENTED_EDGE('',*,*,#513,.F.);
#513 = EDGE_CURVE('',#514,#514,#516,.T.);
#514 = VERTEX_POINT('',#515);
#515 = CARTESIAN_POINT('',(8.,29.,2.));
#516 = CIRCLE('',#517,1.);
#517 = AXIS2_PLACEMENT_3D('',#518,#519,#520);
#518 = CARTESIAN_POINT('',(7.,29.,2.));
#519 = DIRECTION('',(0.,0.,1.));
#520 = DIRECTION('',(1.,0.,0.));
#521 = ORIENTED_EDGE('',*,*,#522,.T.);
#522 = EDGE_CURVE('',#514,#189,#523,.T.);
#523 = LINE('',#524,#525);
#524 = CARTESIAN_POINT('',(8.,29.,2.));
#525 = VECTOR('',#526,1.);
#526 = DIRECTION('',(-0.,-0.,-1.));
#527 = ORIENTED_EDGE('',*,*,#188,.T.);
#528 = ORIENTED_EDGE('',*,*,#522,.F.);
#529 = CYLINDRICAL_SURFACE('',#530,1.);
#530 = AXIS2_PLACEMENT_3D('',#531,#532,#533);
#531 = CARTESIAN_POINT('',(7.,29.,2.));
#532 = DIRECTION('',(0.,0.,1.));
#533 = DIRECTION('',(1.,0.,0.));
#534 = ADVANCED_FACE('',(#535),#554,.F.);
#535 = FACE_BOUND('',#536,.F.);
#536 = EDGE_LOOP('',(#537,#546,#552,#553));
#537 = ORIENTED_EDGE('',*,*,#538,.F.);
#538 = EDGE_CURVE('',#539,#539,#541,.T.);
#539 = VERTEX_POINT('',#540);
#540 = CARTESIAN_POINT('',(82.65,29.65,2.));
#541 = CIRCLE('',#542,1.);
#542 = AXIS2_PLACEMENT_3D('',#543,#544,#545);
#543 = CARTESIAN_POINT('',(81.65,29.65,2.));
#544 = DIRECTION('',(0.,0.,1.));
#545 = DIRECTION('',(1.,0.,0.));
#546 = ORIENTED_EDGE('',*,*,#547,.T.);
#547 = EDGE_CURVE('',#539,#200,#548,.T.);
#548 = LINE('',#549,#550);
#549 = CARTESIAN_POINT('',(82.65,29.65,2.));
#550 = VECTOR('',#551,1.);
#551 = DIRECTION('',(-0.,-0.,-1.));
#552 = ORIENTED_EDGE('',*,*,#199,.T.);
#553 = ORIENTED_EDGE('',*,*,#547,.F.);
#554 = CYLINDRICAL_SURFACE('',#555,1.);
#555 = AXIS2_PLACEMENT_3D('',#556,#557,#558);
#556 = CARTESIAN_POINT('',(81.65,29.65,2.));
#557 = DIRECTION('',(0.,0.,1.));
#558 = DIRECTION('',(1.,0.,0.));
#559 = ADVANCED_FACE('',(#560),#571,.T.);
#560 = FACE_BOUND('',#561,.T.);
#561 = EDGE_LOOP('',(#562,#568,#569,#570));
#562 = ORIENTED_EDGE('',*,*,#563,.T.);
#563 = EDGE_CURVE('',#259,#313,#564,.T.);
#564 = LINE('',#565,#566);
#565 = CARTESIAN_POINT('',(1.333333333333,1.333333333333,20.));
#566 = VECTOR('',#567,1.);
#567 = DIRECTION('',(-0.,-0.,-1.));
#568 = ORIENTED_EDGE('',*,*,#354,.T.);
#569 = ORIENTED_EDGE('',*,*,#297,.F.);
#570 = ORIENTED_EDGE('',*,*,#266,.F.);
#571 = PLANE('',#572);
#572 = AXIS2_PLACEMENT_3D('',#573,#574,#575);
#573 = CARTESIAN_POINT('',(1.333333333333,1.333333333333,20.));
#574 = DIRECTION('',(1.,0.,0.));
#575 = DIRECTION('',(0.,1.,0.));
#576 = ADVANCED_FACE('',(#577),#588,.F.);
#577 = FACE_BOUND('',#578,.F.);
#578 = EDGE_LOOP('',(#579,#580,#581,#587));
#579 = ORIENTED_EDGE('',*,*,#563,.T.);
#580 = ORIENTED_EDGE('',*,*,#312,.T.);
#581 = ORIENTED_EDGE('',*,*,#582,.F.);
#582 = EDGE_CURVE('',#251,#315,#583,.T.);
#583 = LINE('',#584,#585);
#584 = CARTESIAN_POINT('',(86.666666666667,1.333333333333,20.));
#585 = VECTOR('',#586,1.);
#586 = DIRECTION('',(-0.,-0.,-1.));
#587 = ORIENTED_EDGE('',*,*,#258,.F.);
#588 = PLANE('',#589);
#589 = AXIS2_PLACEMENT_3D('',#590,#591,#592);
#590 = CARTESIAN_POINT('',(1.333333333333,1.333333333333,20.));
#591 = DIRECTION('',(0.,-1.,0.));
#592 = DIRECTION('',(1.,0.,0.));
#593 = ADVANCED_FACE('',(#594),#605,.F.);
#594 = FACE_BOUND('',#595,.F.);
#595 = EDGE_LOOP('',(#596,#597,#598,#604));
#596 = ORIENTED_EDGE('',*,*,#582,.T.);
#597 = ORIENTED_EDGE('',*,*,#322,.T.);
#598 = ORIENTED_EDGE('',*,*,#599,.F.);
#599 = EDGE_CURVE('',#243,#323,#600,.T.);
#600 = LINE('',#601,#602);
#601 = CARTESIAN_POINT('',(86.666666666667,34.666666666667,20.));
#602 = VECTOR('',#603,1.);
#603 = DIRECTION('',(-0.,-0.,-1.));
#604 = ORIENTED_EDGE('',*,*,#250,.F.);
#605 = PLANE('',#606);
#606 = AXIS2_PLACEMENT_3D('',#607,#608,#609);
#607 = CARTESIAN_POINT('',(86.666666666667,1.333333333333,20.));
#608 = DIRECTION('',(1.,0.,0.));
#609 = DIRECTION('',(0.,1.,0.));
#610 = ADVANCED_FACE('',(#611),#622,.F.);
#611 = FACE_BOUND('',#612,.F.);
#612 = EDGE_LOOP('',(#613,#614,#615,#621));
#613 = ORIENTED_EDGE('',*,*,#599,.T.);
#614 = ORIENTED_EDGE('',*,*,#330,.T.);
#615 = ORIENTED_EDGE('',*,*,#616,.F.);
#616 = EDGE_CURVE('',#235,#331,#617,.T.);
#617 = LINE('',#618,#619);
#618 = CARTESIAN_POINT('',(1.333333333333,34.666666666667,20.));
#619 = VECTOR('',#620,1.);
#620 = DIRECTION('',(-0.,-0.,-1.));
#621 = ORIENTED_EDGE('',*,*,#242,.F.);
#622 = PLANE('',#623);
#623 = AXIS2_PLACEMENT_3D('',#624,#625,#626);
#624 = CARTESIAN_POINT('',(86.666666666667,34.666666666667,20.));
#625 = DIRECTION('',(0.,1.,0.));
#626 = DIRECTION('',(-1.,0.,0.));
#627 = ADVANCED_FACE('',(#628),#634,.F.);
#628 = FACE_BOUND('',#629,.F.);
#629 = EDGE_LOOP('',(#630,#631,#632,#633));
#630 = ORIENTED_EDGE('',*,*,#616,.T.);
#631 = ORIENTED_EDGE('',*,*,#338,.T.);
#632 = ORIENTED_EDGE('',*,*,#434,.F.);
#633 = ORIENTED_EDGE('',*,*,#234,.F.);
#634 = PLANE('',#635);
#635 = AXIS2_PLACEMENT_3D('',#636,#637,#638);
#636 = CARTESIAN_POINT('',(1.333333333333,34.666666666667,20.));
#637 = DIRECTION('',(-1.,0.,0.));
#638 = DIRECTION('',(0.,-1.,0.));
#639 = ADVANCED_FACE('',(#640),#665,.T.);
#640 = FACE_BOUND('',#641,.T.);
#641 = EDGE_LOOP('',(#642,#650,#651,#659));
#642 = ORIENTED_EDGE('',*,*,#643,.T.);
#643 = EDGE_CURVE('',#644,#363,#646,.T.);
#644 = VERTEX_POINT('',#645);
#645 = CARTESIAN_POINT('',(2.666666666667,2.666666666667,20.));
#646 = LINE('',#647,#648);
#647 = CARTESIAN_POINT('',(2.666666666667,2.666666666667,20.));
#648 = VECTOR('',#649,1.);
#649 = DIRECTION('',(-0.,-0.,-1.));
#650 = ORIENTED_EDGE('',*,*,#362,.T.);
#651 = ORIENTED_EDGE('',*,*,#652,.F.);
#652 = EDGE_CURVE('',#653,#365,#655,.T.);
#653 = VERTEX_POINT('',#654);
#654 = CARTESIAN_POINT('',(85.333333333333,2.666666666667,20.));
#655 = LINE('',#656,#657);
#656 = CARTESIAN_POINT('',(85.333333333333,2.666666666667,20.));
#657 = VECTOR('',#658,1.);
#658 = DIRECTION('',(-0.,-0.,-1.));
#659 = ORIENTED_EDGE('',*,*,#660,.F.);
#660 = EDGE_CURVE('',#644,#653,#661,.T.);
#661 = LINE('',#662,#663);
#662 = CARTESIAN_POINT('',(2.666666666667,2.666666666667,20.));
#663 = VECTOR('',#664,1.);
#664 = DIRECTION('',(1.,0.,0.));
#665 = PLANE('',#666);
#666 = AXIS2_PLACEMENT_3D('',#667,#668,#669);
#667 = CARTESIAN_POINT('',(2.666666666667,2.666666666667,20.));
#668 = DIRECTION('',(0.,-1.,0.));
#669 = DIRECTION('',(1.,0.,0.));
#670 = ADVANCED_FACE('',(#671),#689,.T.);
#671 = FACE_BOUND('',#672,.T.);
#672 = EDGE_LOOP('',(#673,#674,#675,#683));
#673 = ORIENTED_EDGE('',*,*,#652,.T.);
#674 = ORIENTED_EDGE('',*,*,#372,.T.);
#675 = ORIENTED_EDGE('',*,*,#676,.F.);
#676 = EDGE_CURVE('',#677,#373,#679,.T.);
#677 = VERTEX_POINT('',#678);
#678 = CARTESIAN_POINT('',(85.333333333333,33.333333333333,20.));
#679 = LINE('',#680,#681);
#680 = CARTESIAN_POINT('',(85.333333333333,33.333333333333,20.));
#681 = VECTOR('',#682,1.);
#682 = DIRECTION('',(-0.,-0.,-1.));
#683 = ORIENTED_EDGE('',*,*,#684,.F.);
#684 = EDGE_CURVE('',#653,#677,#685,.T.);
#685 = LINE('',#686,#687);
#686 = CARTESIAN_POINT('',(85.333333333333,2.666666666667,20.));
#687 = VECTOR('',#688,1.);
#688 = DIRECTION('',(0.,1.,0.));
#689 = PLANE('',#690);
#690 = AXIS2_PLACEMENT_3D('',#691,#692,#693);
#691 = CARTESIAN_POINT('',(85.333333333333,2.666666666667,20.));
#692 = DIRECTION('',(1.,0.,0.));
#693 = DIRECTION('',(0.,1.,0.));
#694 = ADVANCED_FACE('',(#695),#713,.T.);
#695 = FACE_BOUND('',#696,.T.);
#696 = EDGE_LOOP('',(#697,#698,#699,#707));
#697 = ORIENTED_EDGE('',*,*,#676,.T.);
#698 = ORIENTED_EDGE('',*,*,#380,.T.);
#699 = ORIENTED_EDGE('',*,*,#700,.F.);
#700 = EDGE_CURVE('',#701,#381,#703,.T.);
#701 = VERTEX_POINT('',#702);
#702 = CARTESIAN_POINT('',(2.666666666667,33.333333333333,20.));
#703 = LINE('',#704,#705);
#704 = CARTESIAN_POINT('',(2.666666666667,33.333333333333,20.));
#705 = VECTOR('',#706,1.);
#706 = DIRECTION('',(-0.,-0.,-1.));
#707 = ORIENTED_EDGE('',*,*,#708,.F.);
#708 = EDGE_CURVE('',#677,#701,#709,.T.);
#709 = LINE('',#710,#711);
#710 = CARTESIAN_POINT('',(85.333333333333,33.333333333333,20.));
#711 = VECTOR('',#712,1.);
#712 = DIRECTION('',(-1.,0.,0.));
#713 = PLANE('',#714);
#714 = AXIS2_PLACEMENT_3D('',#715,#716,#717);
#715 = CARTESIAN_POINT('',(85.333333333333,33.333333333333,20.));
#716 = DIRECTION('',(0.,1.,0.));
#717 = DIRECTION('',(-1.,0.,0.));
#718 = ADVANCED_FACE('',(#719),#737,.F.);
#719 = FACE_BOUND('',#720,.F.);
#720 = EDGE_LOOP('',(#721,#729,#730,#731));
#721 = ORIENTED_EDGE('',*,*,#722,.T.);
#722 = EDGE_CURVE('',#723,#389,#725,.T.);
#723 = VERTEX_POINT('',#724);
#724 = CARTESIAN_POINT('',(2.666666666667,23.,20.));
#725 = LINE('',#726,#727);
#726 = CARTESIAN_POINT('',(2.666666666667,23.,20.));
#727 = VECTOR('',#728,1.);
#728 = DIRECTION('',(-0.,-0.,-1.));
#729 = ORIENTED_EDGE('',*,*,#388,.T.);
#730 = ORIENTED_EDGE('',*,*,#700,.F.);
#731 = ORIENTED_EDGE('',*,*,#732,.F.);
#732 = EDGE_CURVE('',#723,#701,#733,.T.);
#733 = LINE('',#734,#735);
#734 = CARTESIAN_POINT('',(2.666666666667,23.,20.));
#735 = VECTOR('',#736,1.);
#736 = DIRECTION('',(0.,1.,0.));
#737 = PLANE('',#738);
#738 = AXIS2_PLACEMENT_3D('',#739,#740,#741);
#739 = CARTESIAN_POINT('',(2.666666666667,23.,20.));
#740 = DIRECTION('',(1.,0.,0.));
#741 = DIRECTION('',(0.,1.,0.));
#742 = ADVANCED_FACE('',(#743),#761,.F.);
#743 = FACE_BOUND('',#744,.F.);
#744 = EDGE_LOOP('',(#745,#753,#754,#755));
#745 = ORIENTED_EDGE('',*,*,#746,.T.);
#746 = EDGE_CURVE('',#747,#397,#749,.T.);
#747 = VERTEX_POINT('',#748);
#748 = CARTESIAN_POINT('',(4.,23.,20.));
#749 = LINE('',#750,#751);
#750 = CARTESIAN_POINT('',(4.,23.,20.));
#751 = VECTOR('',#752,1.);
#752 = DIRECTION('',(-0.,-0.,-1.));
#753 = ORIENTED_EDGE('',*,*,#396,.T.);
#754 = ORIENTED_EDGE('',*,*,#722,.F.);
#755 = ORIENTED_EDGE('',*,*,#756,.F.);
#756 = EDGE_CURVE('',#747,#723,#757,.T.);
#757 = LINE('',#758,#759);
#758 = CARTESIAN_POINT('',(4.,23.,20.));
#759 = VECTOR('',#760,1.);
#760 = DIRECTION('',(-1.,0.,0.));
#761 = PLANE('',#762);
#762 = AXIS2_PLACEMENT_3D('',#763,#764,#765);
#763 = CARTESIAN_POINT('',(4.,23.,20.));
#764 = DIRECTION('',(0.,1.,0.));
#765 = DIRECTION('',(-1.,0.,0.));
#766 = ADVANCED_FACE('',(#767),#817,.F.);
#767 = FACE_BOUND('',#768,.F.);
#768 = EDGE_LOOP('',(#769,#777,#785,#793,#801,#809,#815,#816));
#769 = ORIENTED_EDGE('',*,*,#770,.F.);
#770 = EDGE_CURVE('',#771,#747,#773,.T.);
#771 = VERTEX_POINT('',#772);
#772 = CARTESIAN_POINT('',(4.,27.,20.));
#773 = LINE('',#774,#775);
#774 = CARTESIAN_POINT('',(4.,27.,20.));
#775 = VECTOR('',#776,1.);
#776 = DIRECTION('',(0.,-1.,0.));
#777 = ORIENTED_EDGE('',*,*,#778,.T.);
#778 = EDGE_CURVE('',#771,#779,#781,.T.);
#779 = VERTEX_POINT('',#780);
#780 = CARTESIAN_POINT('',(4.,27.,2.));
#781 = LINE('',#782,#783);
#782 = CARTESIAN_POINT('',(4.,27.,20.));
#783 = VECTOR('',#784,1.);
#784 = DIRECTION('',(-0.,-0.,-1.));
#785 = ORIENTED_EDGE('',*,*,#786,.T.);
#786 = EDGE_CURVE('',#779,#787,#789,.T.);
#787 = VERTEX_POINT('',#788);
#788 = CARTESIAN_POINT('',(4.,9.,2.));
#789 = LINE('',#790,#791);
#790 = CARTESIAN_POINT('',(4.,27.,2.));
#791 = VECTOR('',#792,1.);
#792 = DIRECTION('',(0.,-1.,0.));
#793 = ORIENTED_EDGE('',*,*,#794,.F.);
#794 = EDGE_CURVE('',#795,#787,#797,.T.);
#795 = VERTEX_POINT('',#796);
#796 = CARTESIAN_POINT('',(4.,9.,20.));
#797 = LINE('',#798,#799);
#798 = CARTESIAN_POINT('',(4.,9.,20.));
#799 = VECTOR('',#800,1.);
#800 = DIRECTION('',(-0.,-0.,-1.));
#801 = ORIENTED_EDGE('',*,*,#802,.F.);
#802 = EDGE_CURVE('',#803,#795,#805,.T.);
#803 = VERTEX_POINT('',#804);
#804 = CARTESIAN_POINT('',(4.,13.,20.));
#805 = LINE('',#806,#807);
#806 = CARTESIAN_POINT('',(4.,27.,20.));
#807 = VECTOR('',#808,1.);
#808 = DIRECTION('',(0.,-1.,0.));
#809 = ORIENTED_EDGE('',*,*,#810,.T.);
#810 = EDGE_CURVE('',#803,#405,#811,.T.);
#811 = LINE('',#812,#813);
#812 = CARTESIAN_POINT('',(4.,13.,20.));
#813 = VECTOR('',#814,1.);
#814 = DIRECTION('',(-0.,-0.,-1.));
#815 = ORIENTED_EDGE('',*,*,#404,.T.);
#816 = ORIENTED_EDGE('',*,*,#746,.F.);
#817 = PLANE('',#818);
#818 = AXIS2_PLACEMENT_3D('',#819,#820,#821);
#819 = CARTESIAN_POINT('',(4.,27.,20.));
#820 = DIRECTION('',(-1.,0.,0.));
#821 = DIRECTION('',(0.,-1.,0.));
#822 = ADVANCED_FACE('',(#823),#841,.F.);
#823 = FACE_BOUND('',#824,.F.);
#824 = EDGE_LOOP('',(#825,#833,#834,#835));
#825 = ORIENTED_EDGE('',*,*,#826,.T.);
#826 = EDGE_CURVE('',#827,#413,#829,.T.);
#827 = VERTEX_POINT('',#828);
#828 = CARTESIAN_POINT('',(2.666666666667,13.,20.));
#829 = LINE('',#830,#831);
#830 = CARTESIAN_POINT('',(2.666666666667,13.,20.));
#831 = VECTOR('',#832,1.);
#832 = DIRECTION('',(-0.,-0.,-1.));
#833 = ORIENTED_EDGE('',*,*,#412,.T.);
#834 = ORIENTED_EDGE('',*,*,#810,.F.);
#835 = ORIENTED_EDGE('',*,*,#836,.F.);
#836 = EDGE_CURVE('',#827,#803,#837,.T.);
#837 = LINE('',#838,#839);
#838 = CARTESIAN_POINT('',(2.666666666667,13.,20.));
#839 = VECTOR('',#840,1.);
#840 = DIRECTION('',(1.,0.,0.));
#841 = PLANE('',#842);
#842 = AXIS2_PLACEMENT_3D('',#843,#844,#845);
#843 = CARTESIAN_POINT('',(2.666666666667,13.,20.));
#844 = DIRECTION('',(0.,-1.,0.));
#845 = DIRECTION('',(1.,0.,0.));
#846 = ADVANCED_FACE('',(#847),#858,.T.);
#847 = FACE_BOUND('',#848,.T.);
#848 = EDGE_LOOP('',(#849,#850,#851,#852));
#849 = ORIENTED_EDGE('',*,*,#826,.T.);
#850 = ORIENTED_EDGE('',*,*,#420,.T.);
#851 = ORIENTED_EDGE('',*,*,#643,.F.);
#852 = ORIENTED_EDGE('',*,*,#853,.F.);
#853 = EDGE_CURVE('',#827,#644,#854,.T.);
#854 = LINE('',#855,#856);
#855 = CARTESIAN_POINT('',(2.666666666667,13.,20.));
#856 = VECTOR('',#857,1.);
#857 = DIRECTION('',(0.,-1.,0.));
#858 = PLANE('',#859);
#859 = AXIS2_PLACEMENT_3D('',#860,#861,#862);
#860 = CARTESIAN_POINT('',(2.666666666667,13.,20.));
#861 = DIRECTION('',(-1.,0.,0.));
#862 = DIRECTION('',(0.,-1.,0.));
#863 = ADVANCED_FACE('',(#864),#883,.F.);
#864 = FACE_BOUND('',#865,.F.);
#865 = EDGE_LOOP('',(#866,#874,#875,#876));
#866 = ORIENTED_EDGE('',*,*,#867,.T.);
#867 = EDGE_CURVE('',#868,#464,#870,.T.);
#868 = VERTEX_POINT('',#869);
#869 = CARTESIAN_POINT('',(8.,7.,20.));
#870 = LINE('',#871,#872);
#871 = CARTESIAN_POINT('',(8.,7.,20.));
#872 = VECTOR('',#873,1.);
#873 = DIRECTION('',(-0.,-0.,-1.));
#874 = ORIENTED_EDGE('',*,*,#463,.T.);
#875 = ORIENTED_EDGE('',*,*,#867,.F.);
#876 = ORIENTED_EDGE('',*,*,#877,.F.);
#877 = EDGE_CURVE('',#868,#868,#878,.T.);
#878 = CIRCLE('',#879,1.);
#879 = AXIS2_PLACEMENT_3D('',#880,#881,#882);
#880 = CARTESIAN_POINT('',(7.,7.,20.));
#881 = DIRECTION('',(0.,0.,1.));
#882 = DIRECTION('',(1.,0.,0.));
#883 = CYLINDRICAL_SURFACE('',#884,1.);
#884 = AXIS2_PLACEMENT_3D('',#885,#886,#887);
#885 = CARTESIAN_POINT('',(7.,7.,20.));
#886 = DIRECTION('',(0.,0.,1.));
#887 = DIRECTION('',(1.,0.,0.));
#888 = ADVANCED_FACE('',(#889),#908,.F.);
#889 = FACE_BOUND('',#890,.F.);
#890 = EDGE_LOOP('',(#891,#899,#900,#901));
#891 = ORIENTED_EDGE('',*,*,#892,.T.);
#892 = EDGE_CURVE('',#893,#489,#895,.T.);
#893 = VERTEX_POINT('',#894);
#894 = CARTESIAN_POINT('',(82.645,6.35,20.));
#895 = LINE('',#896,#897);
#896 = CARTESIAN_POINT('',(82.645,6.35,20.));
#897 = VECTOR('',#898,1.);
#898 = DIRECTION('',(-0.,-0.,-1.));
#899 = ORIENTED_EDGE('',*,*,#488,.T.);
#900 = ORIENTED_EDGE('',*,*,#892,.F.);
#901 = ORIENTED_EDGE('',*,*,#902,.F.);
#902 = EDGE_CURVE('',#893,#893,#903,.T.);
#903 = CIRCLE('',#904,1.);
#904 = AXIS2_PLACEMENT_3D('',#905,#906,#907);
#905 = CARTESIAN_POINT('',(81.645,6.35,20.));
#906 = DIRECTION('',(0.,0.,1.));
#907 = DIRECTION('',(1.,0.,0.));
#908 = CYLINDRICAL_SURFACE('',#909,1.);
#909 = AXIS2_PLACEMENT_3D('',#910,#911,#912);
#910 = CARTESIAN_POINT('',(81.645,6.35,20.));
#911 = DIRECTION('',(0.,0.,1.));
#912 = DIRECTION('',(1.,0.,0.));
#913 = ADVANCED_FACE('',(#914),#933,.F.);
#914 = FACE_BOUND('',#915,.F.);
#915 = EDGE_LOOP('',(#916,#924,#925,#926));
#916 = ORIENTED_EDGE('',*,*,#917,.T.);
#917 = EDGE_CURVE('',#918,#514,#920,.T.);
#918 = VERTEX_POINT('',#919);
#919 = CARTESIAN_POINT('',(8.,29.,20.));
#920 = LINE('',#921,#922);
#921 = CARTESIAN_POINT('',(8.,29.,20.));
#922 = VECTOR('',#923,1.);
#923 = DIRECTION('',(-0.,-0.,-1.));
#924 = ORIENTED_EDGE('',*,*,#513,.T.);
#925 = ORIENTED_EDGE('',*,*,#917,.F.);
#926 = ORIENTED_EDGE('',*,*,#927,.F.);
#927 = EDGE_CURVE('',#918,#918,#928,.T.);
#928 = CIRCLE('',#929,1.);
#929 = AXIS2_PLACEMENT_3D('',#930,#931,#932);
#930 = CARTESIAN_POINT('',(7.,29.,20.));
#931 = DIRECTION('',(0.,0.,1.));
#932 = DIRECTION('',(1.,0.,0.));
#933 = CYLINDRICAL_SURFACE('',#934,1.);
#934 = AXIS2_PLACEMENT_3D('',#935,#936,#937);
#935 = CARTESIAN_POINT('',(7.,29.,20.));
#936 = DIRECTION('',(0.,0.,1.));
#937 = DIRECTION('',(1.,0.,0.));
#938 = ADVANCED_FACE('',(#939),#958,.F.);
#939 = FACE_BOUND('',#940,.F.);
#940 = EDGE_LOOP('',(#941,#949,#950,#951));
#941 = ORIENTED_EDGE('',*,*,#942,.T.);
#942 = EDGE_CURVE('',#943,#539,#945,.T.);
#943 = VERTEX_POINT('',#944);
#944 = CARTESIAN_POINT('',(82.65,29.65,20.));
#945 = LINE('',#946,#947);
#946 = CARTESIAN_POINT('',(82.65,29.65,20.));
#947 = VECTOR('',#948,1.);
#948 = DIRECTION('',(-0.,-0.,-1.));
#949 = ORIENTED_EDGE('',*,*,#538,.T.);
#950 = ORIENTED_EDGE('',*,*,#942,.F.);
#951 = ORIENTED_EDGE('',*,*,#952,.F.);
#952 = EDGE_CURVE('',#943,#943,#953,.T.);
#953 = CIRCLE('',#954,1.);
#954 = AXIS2_PLACEMENT_3D('',#955,#956,#957);
#955 = CARTESIAN_POINT('',(81.65,29.65,20.));
#956 = DIRECTION('',(0.,0.,1.));
#957 = DIRECTION('',(1.,0.,0.));
#958 = CYLINDRICAL_SURFACE('',#959,1.);
#959 = AXIS2_PLACEMENT_3D('',#960,#961,#962);
#960 = CARTESIAN_POINT('',(81.65,29.65,20.));
#961 = DIRECTION('',(0.,0.,1.));
#962 = DIRECTION('',(1.,0.,0.));
#963 = ADVANCED_FACE('',(#964,#1061,#1064,#1067,#1070),#1073,.T.);
#964 = FACE_BOUND('',#965,.T.);
#965 = EDGE_LOOP('',(#966,#967,#975,#983,#991,#999,#1007,#1015,#1023,
    #1031,#1039,#1047,#1053,#1054,#1055,#1056,#1057,#1058,#1059,#1060));
#966 = ORIENTED_EDGE('',*,*,#770,.F.);
#967 = ORIENTED_EDGE('',*,*,#968,.T.);
#968 = EDGE_CURVE('',#771,#969,#971,.T.);
#969 = VERTEX_POINT('',#970);
#970 = CARTESIAN_POINT('',(9.,27.,20.));
#971 = LINE('',#972,#973);
#972 = CARTESIAN_POINT('',(4.,27.,20.));
#973 = VECTOR('',#974,1.);
#974 = DIRECTION('',(1.,0.,0.));
#975 = ORIENTED_EDGE('',*,*,#976,.T.);
#976 = EDGE_CURVE('',#969,#977,#979,.T.);
#977 = VERTEX_POINT('',#978);
#978 = CARTESIAN_POINT('',(9.,32.,20.));
#979 = LINE('',#980,#981);
#980 = CARTESIAN_POINT('',(9.,27.,20.));
#981 = VECTOR('',#982,1.);
#982 = DIRECTION('',(0.,1.,0.));
#983 = ORIENTED_EDGE('',*,*,#984,.T.);
#984 = EDGE_CURVE('',#977,#985,#987,.T.);
#985 = VERTEX_POINT('',#986);
#986 = CARTESIAN_POINT('',(80.492374727669,32.,20.));
#987 = LINE('',#988,#989);
#988 = CARTESIAN_POINT('',(9.,32.,20.));
#989 = VECTOR('',#990,1.);
#990 = DIRECTION('',(1.,0.,0.));
#991 = ORIENTED_EDGE('',*,*,#992,.T.);
#992 = EDGE_CURVE('',#985,#993,#995,.T.);
#993 = VERTEX_POINT('',#994);
#994 = CARTESIAN_POINT('',(80.492374727669,28.492374727669,20.));
#995 = LINE('',#996,#997);
#996 = CARTESIAN_POINT('',(80.492374727669,32.,20.));
#997 = VECTOR('',#998,1.);
#998 = DIRECTION('',(0.,-1.,0.));
#999 = ORIENTED_EDGE('',*,*,#1000,.T.);
#1000 = EDGE_CURVE('',#993,#1001,#1003,.T.);
#1001 = VERTEX_POINT('',#1002);
#1002 = CARTESIAN_POINT('',(84.,28.492374727669,20.));
#1003 = LINE('',#1004,#1005);
#1004 = CARTESIAN_POINT('',(80.492374727669,28.492374727669,20.));
#1005 = VECTOR('',#1006,1.);
#1006 = DIRECTION('',(1.,0.,0.));
#1007 = ORIENTED_EDGE('',*,*,#1008,.T.);
#1008 = EDGE_CURVE('',#1001,#1009,#1011,.T.);
#1009 = VERTEX_POINT('',#1010);
#1010 = CARTESIAN_POINT('',(84.,7.492374727669,20.));
#1011 = LINE('',#1012,#1013);
#1012 = CARTESIAN_POINT('',(84.,28.492374727669,20.));
#1013 = VECTOR('',#1014,1.);
#1014 = DIRECTION('',(0.,-1.,0.));
#1015 = ORIENTED_EDGE('',*,*,#1016,.F.);
#1016 = EDGE_CURVE('',#1017,#1009,#1019,.T.);
#1017 = VERTEX_POINT('',#1018);
#1018 = CARTESIAN_POINT('',(80.492374727669,7.492374727669,20.));
#1019 = LINE('',#1020,#1021);
#1020 = CARTESIAN_POINT('',(80.492374727669,7.492374727669,20.));
#1021 = VECTOR('',#1022,1.);
#1022 = DIRECTION('',(1.,0.,0.));
#1023 = ORIENTED_EDGE('',*,*,#1024,.F.);
#1024 = EDGE_CURVE('',#1025,#1017,#1027,.T.);
#1025 = VERTEX_POINT('',#1026);
#1026 = CARTESIAN_POINT('',(80.492374727669,4.,20.));
#1027 = LINE('',#1028,#1029);
#1028 = CARTESIAN_POINT('',(80.492374727669,4.,20.));
#1029 = VECTOR('',#1030,1.);
#1030 = DIRECTION('',(0.,1.,0.));
#1031 = ORIENTED_EDGE('',*,*,#1032,.T.);
#1032 = EDGE_CURVE('',#1025,#1033,#1035,.T.);
#1033 = VERTEX_POINT('',#1034);
#1034 = CARTESIAN_POINT('',(9.,4.,20.));
#1035 = LINE('',#1036,#1037);
#1036 = CARTESIAN_POINT('',(80.492374727669,4.,20.));
#1037 = VECTOR('',#1038,1.);
#1038 = DIRECTION('',(-1.,0.,0.));
#1039 = ORIENTED_EDGE('',*,*,#1040,.F.);
#1040 = EDGE_CURVE('',#1041,#1033,#1043,.T.);
#1041 = VERTEX_POINT('',#1042);
#1042 = CARTESIAN_POINT('',(9.,9.,20.));
#1043 = LINE('',#1044,#1045);
#1044 = CARTESIAN_POINT('',(9.,9.,20.));
#1045 = VECTOR('',#1046,1.);
#1046 = DIRECTION('',(0.,-1.,0.));
#1047 = ORIENTED_EDGE('',*,*,#1048,.F.);
#1048 = EDGE_CURVE('',#795,#1041,#1049,.T.);
#1049 = LINE('',#1050,#1051);
#1050 = CARTESIAN_POINT('',(4.,9.,20.));
#1051 = VECTOR('',#1052,1.);
#1052 = DIRECTION('',(1.,0.,0.));
#1053 = ORIENTED_EDGE('',*,*,#802,.F.);
#1054 = ORIENTED_EDGE('',*,*,#836,.F.);
#1055 = ORIENTED_EDGE('',*,*,#853,.T.);
#1056 = ORIENTED_EDGE('',*,*,#660,.T.);
#1057 = ORIENTED_EDGE('',*,*,#684,.T.);
#1058 = ORIENTED_EDGE('',*,*,#708,.T.);
#1059 = ORIENTED_EDGE('',*,*,#732,.F.);
#1060 = ORIENTED_EDGE('',*,*,#756,.F.);
#1061 = FACE_BOUND('',#1062,.T.);
#1062 = EDGE_LOOP('',(#1063));
#1063 = ORIENTED_EDGE('',*,*,#877,.F.);
#1064 = FACE_BOUND('',#1065,.T.);
#1065 = EDGE_LOOP('',(#1066));
#1066 = ORIENTED_EDGE('',*,*,#902,.F.);
#1067 = FACE_BOUND('',#1068,.T.);
#1068 = EDGE_LOOP('',(#1069));
#1069 = ORIENTED_EDGE('',*,*,#927,.F.);
#1070 = FACE_BOUND('',#1071,.T.);
#1071 = EDGE_LOOP('',(#1072));
#1072 = ORIENTED_EDGE('',*,*,#952,.F.);
#1073 = PLANE('',#1074);
#1074 = AXIS2_PLACEMENT_3D('',#1075,#1076,#1077);
#1075 = CARTESIAN_POINT('',(44.,18.,20.));
#1076 = DIRECTION('',(0.,0.,1.));
#1077 = DIRECTION('',(1.,0.,0.));
#1078 = ADVANCED_FACE('',(#1079),#1097,.F.);
#1079 = FACE_BOUND('',#1080,.F.);
#1080 = EDGE_LOOP('',(#1081,#1082,#1090,#1096));
#1081 = ORIENTED_EDGE('',*,*,#794,.T.);
#1082 = ORIENTED_EDGE('',*,*,#1083,.T.);
#1083 = EDGE_CURVE('',#787,#1084,#1086,.T.);
#1084 = VERTEX_POINT('',#1085);
#1085 = CARTESIAN_POINT('',(9.,9.,2.));
#1086 = LINE('',#1087,#1088);
#1087 = CARTESIAN_POINT('',(4.,9.,2.));
#1088 = VECTOR('',#1089,1.);
#1089 = DIRECTION('',(1.,0.,0.));
#1090 = ORIENTED_EDGE('',*,*,#1091,.F.);
#1091 = EDGE_CURVE('',#1041,#1084,#1092,.T.);
#1092 = LINE('',#1093,#1094);
#1093 = CARTESIAN_POINT('',(9.,9.,20.));
#1094 = VECTOR('',#1095,1.);
#1095 = DIRECTION('',(-0.,-0.,-1.));
#1096 = ORIENTED_EDGE('',*,*,#1048,.F.);
#1097 = PLANE('',#1098);
#1098 = AXIS2_PLACEMENT_3D('',#1099,#1100,#1101);
#1099 = CARTESIAN_POINT('',(4.,9.,20.));
#1100 = DIRECTION('',(0.,-1.,0.));
#1101 = DIRECTION('',(1.,0.,0.));
#1102 = ADVANCED_FACE('',(#1103),#1185,.T.);
#1103 = FACE_BOUND('',#1104,.T.);
#1104 = EDGE_LOOP('',(#1105,#1106,#1107,#1115,#1123,#1131,#1139,#1147,
    #1155,#1163,#1171,#1179));
#1105 = ORIENTED_EDGE('',*,*,#786,.T.);
#1106 = ORIENTED_EDGE('',*,*,#1083,.T.);
#1107 = ORIENTED_EDGE('',*,*,#1108,.T.);
#1108 = EDGE_CURVE('',#1084,#1109,#1111,.T.);
#1109 = VERTEX_POINT('',#1110);
#1110 = CARTESIAN_POINT('',(9.,4.,2.));
#1111 = LINE('',#1112,#1113);
#1112 = CARTESIAN_POINT('',(9.,9.,2.));
#1113 = VECTOR('',#1114,1.);
#1114 = DIRECTION('',(0.,-1.,0.));
#1115 = ORIENTED_EDGE('',*,*,#1116,.F.);
#1116 = EDGE_CURVE('',#1117,#1109,#1119,.T.);
#1117 = VERTEX_POINT('',#1118);
#1118 = CARTESIAN_POINT('',(80.492374727669,4.,2.));
#1119 = LINE('',#1120,#1121);
#1120 = CARTESIAN_POINT('',(80.492374727669,4.,2.));
#1121 = VECTOR('',#1122,1.);
#1122 = DIRECTION('',(-1.,0.,0.));
#1123 = ORIENTED_EDGE('',*,*,#1124,.T.);
#1124 = EDGE_CURVE('',#1117,#1125,#1127,.T.);
#1125 = VERTEX_POINT('',#1126);
#1126 = CARTESIAN_POINT('',(80.492374727669,7.492374727669,2.));
#1127 = LINE('',#1128,#1129);
#1128 = CARTESIAN_POINT('',(80.492374727669,4.,2.));
#1129 = VECTOR('',#1130,1.);
#1130 = DIRECTION('',(0.,1.,0.));
#1131 = ORIENTED_EDGE('',*,*,#1132,.T.);
#1132 = EDGE_CURVE('',#1125,#1133,#1135,.T.);
#1133 = VERTEX_POINT('',#1134);
#1134 = CARTESIAN_POINT('',(84.,7.492374727669,2.));
#1135 = LINE('',#1136,#1137);
#1136 = CARTESIAN_POINT('',(80.492374727669,7.492374727669,2.));
#1137 = VECTOR('',#1138,1.);
#1138 = DIRECTION('',(1.,0.,0.));
#1139 = ORIENTED_EDGE('',*,*,#1140,.F.);
#1140 = EDGE_CURVE('',#1141,#1133,#1143,.T.);
#1141 = VERTEX_POINT('',#1142);
#1142 = CARTESIAN_POINT('',(84.,28.492374727669,2.));
#1143 = LINE('',#1144,#1145);
#1144 = CARTESIAN_POINT('',(84.,28.492374727669,2.));
#1145 = VECTOR('',#1146,1.);
#1146 = DIRECTION('',(0.,-1.,0.));
#1147 = ORIENTED_EDGE('',*,*,#1148,.F.);
#1148 = EDGE_CURVE('',#1149,#1141,#1151,.T.);
#1149 = VERTEX_POINT('',#1150);
#1150 = CARTESIAN_POINT('',(80.492374727669,28.492374727669,2.));
#1151 = LINE('',#1152,#1153);
#1152 = CARTESIAN_POINT('',(80.492374727669,28.492374727669,2.));
#1153 = VECTOR('',#1154,1.);
#1154 = DIRECTION('',(1.,0.,0.));
#1155 = ORIENTED_EDGE('',*,*,#1156,.F.);
#1156 = EDGE_CURVE('',#1157,#1149,#1159,.T.);
#1157 = VERTEX_POINT('',#1158);
#1158 = CARTESIAN_POINT('',(80.492374727669,32.,2.));
#1159 = LINE('',#1160,#1161);
#1160 = CARTESIAN_POINT('',(80.492374727669,32.,2.));
#1161 = VECTOR('',#1162,1.);
#1162 = DIRECTION('',(0.,-1.,0.));
#1163 = ORIENTED_EDGE('',*,*,#1164,.F.);
#1164 = EDGE_CURVE('',#1165,#1157,#1167,.T.);
#1165 = VERTEX_POINT('',#1166);
#1166 = CARTESIAN_POINT('',(9.,32.,2.));
#1167 = LINE('',#1168,#1169);
#1168 = CARTESIAN_POINT('',(9.,32.,2.));
#1169 = VECTOR('',#1170,1.);
#1170 = DIRECTION('',(1.,0.,0.));
#1171 = ORIENTED_EDGE('',*,*,#1172,.F.);
#1172 = EDGE_CURVE('',#1173,#1165,#1175,.T.);
#1173 = VERTEX_POINT('',#1174);
#1174 = CARTESIAN_POINT('',(9.,27.,2.));
#1175 = LINE('',#1176,#1177);
#1176 = CARTESIAN_POINT('',(9.,27.,2.));
#1177 = VECTOR('',#1178,1.);
#1178 = DIRECTION('',(0.,1.,0.));
#1179 = ORIENTED_EDGE('',*,*,#1180,.F.);
#1180 = EDGE_CURVE('',#779,#1173,#1181,.T.);
#1181 = LINE('',#1182,#1183);
#1182 = CARTESIAN_POINT('',(4.,27.,2.));
#1183 = VECTOR('',#1184,1.);
#1184 = DIRECTION('',(1.,0.,0.));
#1185 = PLANE('',#1186);
#1186 = AXIS2_PLACEMENT_3D('',#1187,#1188,#1189);
#1187 = CARTESIAN_POINT('',(44.135885691739,17.999774084997,2.));
#1188 = DIRECTION('',(0.,0.,1.));
#1189 = DIRECTION('',(1.,0.,0.));
#1190 = ADVANCED_FACE('',(#1191),#1202,.T.);
#1191 = FACE_BOUND('',#1192,.T.);
#1192 = EDGE_LOOP('',(#1193,#1194,#1195,#1201));
#1193 = ORIENTED_EDGE('',*,*,#778,.T.);
#1194 = ORIENTED_EDGE('',*,*,#1180,.T.);
#1195 = ORIENTED_EDGE('',*,*,#1196,.F.);
#1196 = EDGE_CURVE('',#969,#1173,#1197,.T.);
#1197 = LINE('',#1198,#1199);
#1198 = CARTESIAN_POINT('',(9.,27.,20.));
#1199 = VECTOR('',#1200,1.);
#1200 = DIRECTION('',(-0.,-0.,-1.));
#1201 = ORIENTED_EDGE('',*,*,#968,.F.);
#1202 = PLANE('',#1203);
#1203 = AXIS2_PLACEMENT_3D('',#1204,#1205,#1206);
#1204 = CARTESIAN_POINT('',(4.,27.,20.));
#1205 = DIRECTION('',(0.,-1.,0.));
#1206 = DIRECTION('',(1.,0.,0.));
#1207 = ADVANCED_FACE('',(#1208),#1219,.F.);
#1208 = FACE_BOUND('',#1209,.F.);
#1209 = EDGE_LOOP('',(#1210,#1211,#1212,#1218));
#1210 = ORIENTED_EDGE('',*,*,#1091,.T.);
#1211 = ORIENTED_EDGE('',*,*,#1108,.T.);
#1212 = ORIENTED_EDGE('',*,*,#1213,.F.);
#1213 = EDGE_CURVE('',#1033,#1109,#1214,.T.);
#1214 = LINE('',#1215,#1216);
#1215 = CARTESIAN_POINT('',(9.,4.,20.));
#1216 = VECTOR('',#1217,1.);
#1217 = DIRECTION('',(-0.,-0.,-1.));
#1218 = ORIENTED_EDGE('',*,*,#1040,.F.);
#1219 = PLANE('',#1220);
#1220 = AXIS2_PLACEMENT_3D('',#1221,#1222,#1223);
#1221 = CARTESIAN_POINT('',(9.,9.,20.));
#1222 = DIRECTION('',(-1.,0.,0.));
#1223 = DIRECTION('',(0.,-1.,0.));
#1224 = ADVANCED_FACE('',(#1225),#1236,.T.);
#1225 = FACE_BOUND('',#1226,.T.);
#1226 = EDGE_LOOP('',(#1227,#1233,#1234,#1235));
#1227 = ORIENTED_EDGE('',*,*,#1228,.T.);
#1228 = EDGE_CURVE('',#1025,#1117,#1229,.T.);
#1229 = LINE('',#1230,#1231);
#1230 = CARTESIAN_POINT('',(80.492374727669,4.,20.));
#1231 = VECTOR('',#1232,1.);
#1232 = DIRECTION('',(-0.,-0.,-1.));
#1233 = ORIENTED_EDGE('',*,*,#1116,.T.);
#1234 = ORIENTED_EDGE('',*,*,#1213,.F.);
#1235 = ORIENTED_EDGE('',*,*,#1032,.F.);
#1236 = PLANE('',#1237);
#1237 = AXIS2_PLACEMENT_3D('',#1238,#1239,#1240);
#1238 = CARTESIAN_POINT('',(80.492374727669,4.,20.));
#1239 = DIRECTION('',(0.,1.,0.));
#1240 = DIRECTION('',(-1.,0.,0.));
#1241 = ADVANCED_FACE('',(#1242),#1253,.F.);
#1242 = FACE_BOUND('',#1243,.F.);
#1243 = EDGE_LOOP('',(#1244,#1245,#1246,#1252));
#1244 = ORIENTED_EDGE('',*,*,#1228,.T.);
#1245 = ORIENTED_EDGE('',*,*,#1124,.T.);
#1246 = ORIENTED_EDGE('',*,*,#1247,.F.);
#1247 = EDGE_CURVE('',#1017,#1125,#1248,.T.);
#1248 = LINE('',#1249,#1250);
#1249 = CARTESIAN_POINT('',(80.492374727669,7.492374727669,20.));
#1250 = VECTOR('',#1251,1.);
#1251 = DIRECTION('',(-0.,-0.,-1.));
#1252 = ORIENTED_EDGE('',*,*,#1024,.F.);
#1253 = PLANE('',#1254);
#1254 = AXIS2_PLACEMENT_3D('',#1255,#1256,#1257);
#1255 = CARTESIAN_POINT('',(80.492374727669,4.,20.));
#1256 = DIRECTION('',(1.,0.,0.));
#1257 = DIRECTION('',(0.,1.,0.));
#1258 = ADVANCED_FACE('',(#1259),#1270,.F.);
#1259 = FACE_BOUND('',#1260,.F.);
#1260 = EDGE_LOOP('',(#1261,#1262,#1263,#1269));
#1261 = ORIENTED_EDGE('',*,*,#1247,.T.);
#1262 = ORIENTED_EDGE('',*,*,#1132,.T.);
#1263 = ORIENTED_EDGE('',*,*,#1264,.F.);
#1264 = EDGE_CURVE('',#1009,#1133,#1265,.T.);
#1265 = LINE('',#1266,#1267);
#1266 = CARTESIAN_POINT('',(84.,7.492374727669,20.));
#1267 = VECTOR('',#1268,1.);
#1268 = DIRECTION('',(-0.,-0.,-1.));
#1269 = ORIENTED_EDGE('',*,*,#1016,.F.);
#1270 = PLANE('',#1271);
#1271 = AXIS2_PLACEMENT_3D('',#1272,#1273,#1274);
#1272 = CARTESIAN_POINT('',(80.492374727669,7.492374727669,20.));
#1273 = DIRECTION('',(0.,-1.,0.));
#1274 = DIRECTION('',(1.,0.,0.));
#1275 = ADVANCED_FACE('',(#1276),#1287,.T.);
#1276 = FACE_BOUND('',#1277,.T.);
#1277 = EDGE_LOOP('',(#1278,#1284,#1285,#1286));
#1278 = ORIENTED_EDGE('',*,*,#1279,.T.);
#1279 = EDGE_CURVE('',#1001,#1141,#1280,.T.);
#1280 = LINE('',#1281,#1282);
#1281 = CARTESIAN_POINT('',(84.,28.492374727669,20.));
#1282 = VECTOR('',#1283,1.);
#1283 = DIRECTION('',(-0.,-0.,-1.));
#1284 = ORIENTED_EDGE('',*,*,#1140,.T.);
#1285 = ORIENTED_EDGE('',*,*,#1264,.F.);
#1286 = ORIENTED_EDGE('',*,*,#1008,.F.);
#1287 = PLANE('',#1288);
#1288 = AXIS2_PLACEMENT_3D('',#1289,#1290,#1291);
#1289 = CARTESIAN_POINT('',(84.,28.492374727669,20.));
#1290 = DIRECTION('',(-1.,0.,0.));
#1291 = DIRECTION('',(0.,-1.,0.));
#1292 = ADVANCED_FACE('',(#1293),#1304,.T.);
#1293 = FACE_BOUND('',#1294,.T.);
#1294 = EDGE_LOOP('',(#1295,#1301,#1302,#1303));
#1295 = ORIENTED_EDGE('',*,*,#1296,.T.);
#1296 = EDGE_CURVE('',#993,#1149,#1297,.T.);
#1297 = LINE('',#1298,#1299);
#1298 = CARTESIAN_POINT('',(80.492374727669,28.492374727669,20.));
#1299 = VECTOR('',#1300,1.);
#1300 = DIRECTION('',(-0.,-0.,-1.));
#1301 = ORIENTED_EDGE('',*,*,#1148,.T.);
#1302 = ORIENTED_EDGE('',*,*,#1279,.F.);
#1303 = ORIENTED_EDGE('',*,*,#1000,.F.);
#1304 = PLANE('',#1305);
#1305 = AXIS2_PLACEMENT_3D('',#1306,#1307,#1308);
#1306 = CARTESIAN_POINT('',(80.492374727669,28.492374727669,20.));
#1307 = DIRECTION('',(0.,-1.,0.));
#1308 = DIRECTION('',(1.,0.,0.));
#1309 = ADVANCED_FACE('',(#1310),#1321,.T.);
#1310 = FACE_BOUND('',#1311,.T.);
#1311 = EDGE_LOOP('',(#1312,#1318,#1319,#1320));
#1312 = ORIENTED_EDGE('',*,*,#1313,.T.);
#1313 = EDGE_CURVE('',#985,#1157,#1314,.T.);
#1314 = LINE('',#1315,#1316);
#1315 = CARTESIAN_POINT('',(80.492374727669,32.,20.));
#1316 = VECTOR('',#1317,1.);
#1317 = DIRECTION('',(-0.,-0.,-1.));
#1318 = ORIENTED_EDGE('',*,*,#1156,.T.);
#1319 = ORIENTED_EDGE('',*,*,#1296,.F.);
#1320 = ORIENTED_EDGE('',*,*,#992,.F.);
#1321 = PLANE('',#1322);
#1322 = AXIS2_PLACEMENT_3D('',#1323,#1324,#1325);
#1323 = CARTESIAN_POINT('',(80.492374727669,32.,20.));
#1324 = DIRECTION('',(-1.,0.,0.));
#1325 = DIRECTION('',(0.,-1.,0.));
#1326 = ADVANCED_FACE('',(#1327),#1338,.T.);
#1327 = FACE_BOUND('',#1328,.T.);
#1328 = EDGE_LOOP('',(#1329,#1335,#1336,#1337));
#1329 = ORIENTED_EDGE('',*,*,#1330,.T.);
#1330 = EDGE_CURVE('',#977,#1165,#1331,.T.);
#1331 = LINE('',#1332,#1333);
#1332 = CARTESIAN_POINT('',(9.,32.,20.));
#1333 = VECTOR('',#1334,1.);
#1334 = DIRECTION('',(-0.,-0.,-1.));
#1335 = ORIENTED_EDGE('',*,*,#1164,.T.);
#1336 = ORIENTED_EDGE('',*,*,#1313,.F.);
#1337 = ORIENTED_EDGE('',*,*,#984,.F.);
#1338 = PLANE('',#1339);
#1339 = AXIS2_PLACEMENT_3D('',#1340,#1341,#1342);
#1340 = CARTESIAN_POINT('',(9.,32.,20.));
#1341 = DIRECTION('',(0.,-1.,0.));
#1342 = DIRECTION('',(1.,0.,0.));
#1343 = ADVANCED_FACE('',(#1344),#1350,.T.);
#1344 = FACE_BOUND('',#1345,.T.);
#1345 = EDGE_LOOP('',(#1346,#1347,#1348,#1349));
#1346 = ORIENTED_EDGE('',*,*,#1196,.T.);
#1347 = ORIENTED_EDGE('',*,*,#1172,.T.);
#1348 = ORIENTED_EDGE('',*,*,#1330,.F.);
#1349 = ORIENTED_EDGE('',*,*,#976,.F.);
#1350 = PLANE('',#1351);
#1351 = AXIS2_PLACEMENT_3D('',#1352,#1353,#1354);
#1352 = CARTESIAN_POINT('',(9.,27.,20.));
#1353 = DIRECTION('',(1.,0.,0.));
#1354 = DIRECTION('',(0.,1.,0.));
#1355 = ( GEOMETRIC_REPRESENTATION_CONTEXT(3) 
GLOBAL_UNCERTAINTY_ASSIGNED_CONTEXT((#1359)) 
GLOBAL_UNIT_ASSIGNED_CONTEXT((#1356,#1357,#1358)) REPRESENTATION_CONTEXT
('Context #1','3D Context with UNIT and UNCERTAINTY') );
#1356 = ( LENGTH_UNIT() NAMED_UNIT(*) SI_UNIT(.MILLI.,.METRE.) );
#1357 = ( NAMED_UNIT(*) PLANE_ANGLE_UNIT() SI_UNIT($,.RADIAN.) );
#1358 = ( NAMED_UNIT(*) SI_UNIT($,.STERADIAN.) SOLID_ANGLE_UNIT() );
#1359 = UNCERTAINTY_MEASURE_WITH_UNIT(LENGTH_MEASURE(1.E-07),#1356,
  'distance_accuracy_value','confusion accuracy');
#1360 = PRODUCT_RELATED_PRODUCT_CATEGORY('part',$,(#7));
#1361 = MECHANICAL_DESIGN_GEOMETRIC_PRESENTATION_REPRESENTATION('',(
    #1362),#1355);
#1362 = STYLED_ITEM('color',(#1363),#15);
#1363 = PRESENTATION_STYLE_ASSIGNMENT((#1364,#1372));
#1364 = SURFACE_STYLE_USAGE(.BOTH.,#1365);
#1365 = SURFACE_SIDE_STYLE('',(#1366,#1370));
#1366 = SURFACE_STYLE_FILL_AREA(#1367);
#1367 = FILL_AREA_STYLE('',(#1368));
#1368 = FILL_AREA_STYLE_COLOUR('',#1369);
#1369 = COLOUR_RGB('',0.447058818107,0.474509808674,0.501960817233);
#1370 = SURFACE_STYLE_RENDERING_WITH_PROPERTIES(.NORMAL_SHADING.,#1369,(
    #1371));
#1371 = SURFACE_STYLE_TRANSPARENT(0.699999988079);
#1372 = CURVE_STYLE('',#1373,POSITIVE_LENGTH_MEASURE(0.1),#1374);
#1373 = DRAUGHTING_PRE_DEFINED_CURVE_FONT('continuous');
#1374 = COLOUR_RGB('',9.803921802644E-02,9.803921802644E-02,
  9.803921802644E-02);
ENDSEC;
END-ISO-10303-21;
